<svg width="330" height="330" viewBox="0 0 330 330" fill="none" xmlns="http://www.w3.org/2000/svg">
<path d="M53.0247 162.882C-8.78428 198.568 -8.78428 256.43 53.0247 292.116C114.834 327.803 215.055 327.803 276.864 292.116C338.673 256.43 338.679 198.568 276.864 162.882C215.048 127.196 114.84 127.196 53.0247 162.882Z" fill="#FAFAFA"/>
<path d="M301.435 133.624C297.739 134.423 292.083 139.379 289.68 149.042C287.84 156.085 287.552 163.444 288.835 170.61C289.581 171.152 290.314 171.693 291.04 172.247L291.607 172.676C292.369 173.261 293.114 173.849 293.845 174.438L294.373 174.874C294.531 172.967 294.795 170.604 295.237 167.733C295.396 166.743 295.567 165.799 295.746 164.901C298.471 151.701 304.425 148.606 307.164 142.785C310.246 136.257 305.58 132.72 301.435 133.624Z" fill="#E0E0E0"/>
<path d="M302.418 137.387C296.643 142.667 290.122 156.527 291.607 172.677L291.059 172.261C289.739 156.124 296.286 142.284 302.075 137.01C302.099 136.985 302.129 136.966 302.161 136.952C302.193 136.939 302.228 136.932 302.263 136.932C302.298 136.932 302.332 136.939 302.365 136.952C302.397 136.966 302.426 136.985 302.451 137.01C302.474 137.037 302.491 137.068 302.502 137.102C302.513 137.135 302.517 137.17 302.514 137.205C302.51 137.24 302.5 137.275 302.484 137.306C302.468 137.337 302.445 137.364 302.418 137.387Z" fill="white"/>
<path d="M302.735 167.331C300.329 170.342 298.535 173.795 297.455 177.495C296.967 177.072 296.479 176.643 295.984 176.228L295.482 175.805C295.112 175.488 294.743 175.178 294.36 174.875L293.832 174.439C294.044 170.627 294.736 166.858 295.891 163.219C297.211 159.635 299.284 155.655 301.099 153.728C305.606 148.95 310.847 148.501 312.695 152.408C314.543 156.315 307.501 161.041 302.735 167.331Z" fill="#F0F0F0"/>
<path d="M307.217 155.53C303.475 157.8 297.119 167.733 295.997 176.227L295.495 175.805C296.756 167.165 303.079 157.424 306.946 155.074C306.976 155.057 307.009 155.045 307.044 155.04C307.078 155.035 307.113 155.037 307.147 155.045C307.18 155.054 307.212 155.069 307.24 155.09C307.268 155.111 307.291 155.137 307.309 155.167C307.327 155.197 307.339 155.23 307.344 155.264C307.349 155.299 307.347 155.334 307.338 155.367C307.33 155.401 307.314 155.433 307.294 155.461C307.273 155.488 307.247 155.512 307.217 155.53Z" fill="white"/>
<path d="M46.1072 167.138C45.2624 167.692 44.4242 168.253 43.6058 168.814C42.5762 169.527 41.5686 170.242 40.583 170.959C40.606 164.062 39.2763 157.228 36.6692 150.843C35.7291 148.543 34.5547 146.347 33.1646 144.289C26.9738 135.392 28.0562 131.043 31.7984 129.769C35.5406 128.495 45.3746 134.098 46.9784 149.047C47.678 155.654 46.8596 162.742 46.1072 167.138Z" fill="#F0F0F0"/>
<path d="M42.458 168.424H42.4118C42.3257 168.407 42.2498 168.356 42.2005 168.283C42.1511 168.21 42.1322 168.121 42.1478 168.035C44.7878 154.247 39.9566 138.764 33.9902 132.315C33.9593 132.285 33.9347 132.248 33.918 132.208C33.9012 132.168 33.8926 132.125 33.8926 132.081C33.8926 132.038 33.9012 131.994 33.918 131.954C33.9347 131.914 33.9593 131.878 33.9902 131.847C34.053 131.786 34.137 131.752 34.2245 131.752C34.312 131.752 34.396 131.786 34.4588 131.847C40.5308 138.407 45.4412 154.148 42.7814 168.147C42.7689 168.224 42.7296 168.294 42.6704 168.345C42.6112 168.395 42.536 168.424 42.458 168.424Z" fill="white"/>
<path d="M44.1144 166.51C44.0231 167.293 43.8528 168.065 43.6062 168.814C42.5766 169.527 41.5691 170.242 40.5835 170.959C38.9467 172.156 37.3715 173.37 35.8579 174.602L35.1979 175.13C32.8043 177.097 30.5624 179.108 28.4724 181.162C27.7596 181.525 25.8654 179.895 25.3374 179.506C24.4304 178.818 23.7146 177.909 23.2585 176.866C22.7535 175.681 22.6267 174.37 22.8954 173.11C23.0424 172.438 23.2343 171.777 23.4697 171.13C23.6875 170.47 23.9053 169.87 24.1297 169.236C24.3892 168.627 24.5195 167.971 24.5124 167.309C24.4068 165.989 23.2915 165.006 22.2685 164.161C21.1399 163.224 19.9783 162.003 20.0641 160.419C20.2108 159.194 20.7585 158.052 21.6216 157.171C22.4268 156.254 23.3707 155.449 24.1033 154.472C24.6765 153.795 25.0024 152.943 25.0272 152.056C24.98 151.509 24.8228 150.977 24.5653 150.492C23.9753 149.478 23.4655 148.418 23.0406 147.324C22.7106 146.196 22.8361 144.823 23.7403 144.07C24.1415 143.802 24.5921 143.617 25.0658 143.525C25.5395 143.433 26.0268 143.437 26.4991 143.536C27.3923 143.69 28.2413 144.037 28.9872 144.552C31.4292 146.077 32.7163 149.126 35.3233 150.334C35.7654 150.532 36.2249 150.689 36.696 150.802C37.2966 150.967 37.917 151.093 38.511 151.284C39.0544 151.417 39.564 151.661 40.0073 152.002C40.4506 152.343 40.8177 152.773 41.0851 153.264C41.9629 155.244 40.029 157.587 40.6098 159.699C40.9728 161.019 41.9298 161.805 42.8274 162.762C43.0475 162.993 43.2504 163.24 43.4346 163.501C43.5672 163.679 43.6863 163.866 43.791 164.062C44.1571 164.823 44.2704 165.681 44.1144 166.51Z" fill="#E0E0E0"/>
<path d="M35.8578 174.602L35.1978 175.13C35.6334 163.29 30.822 150.585 26.994 146.618C26.9647 146.589 26.9414 146.555 26.9255 146.517C26.9096 146.479 26.9014 146.438 26.9014 146.397C26.9014 146.356 26.9096 146.315 26.9255 146.277C26.9414 146.239 26.9647 146.205 26.994 146.176C27.0532 146.118 27.1325 146.086 27.2151 146.086C27.2977 146.086 27.377 146.118 27.4362 146.176C31.3038 150.162 36.1218 162.755 35.8578 174.602Z" fill="white"/>
<path d="M34.1417 162.28C34.1113 162.286 34.0798 162.286 34.0493 162.28C31.1371 161.323 28.1297 160.686 25.0799 160.379C25.0391 160.376 24.9994 160.364 24.963 160.345C24.9267 160.327 24.8943 160.301 24.868 160.27C24.8416 160.238 24.8217 160.202 24.8093 160.163C24.797 160.124 24.7925 160.083 24.7961 160.042C24.7985 160.001 24.8095 159.96 24.8283 159.922C24.8472 159.885 24.8736 159.852 24.9058 159.825C24.938 159.799 24.9754 159.779 25.0156 159.768C25.0558 159.756 25.0979 159.753 25.1393 159.759C28.2442 160.067 31.3054 160.717 34.2671 161.699C34.3338 161.728 34.3884 161.779 34.4218 161.844C34.4553 161.908 34.4655 161.982 34.4508 162.053C34.4361 162.125 34.3973 162.189 34.3411 162.235C34.2848 162.281 34.2144 162.306 34.1417 162.306V162.28Z" fill="white"/>
<path d="M154.558 165.706L63.3596 218.367C61.8944 219.212 61.8944 220.585 63.3596 221.436L188.654 293.574C189.478 293.991 190.388 294.208 191.311 294.208C192.233 294.208 193.143 293.991 193.967 293.574L285.166 240.899C286.638 240.055 286.638 238.682 285.166 237.83L159.871 165.706C159.048 165.289 158.138 165.072 157.215 165.072C156.292 165.072 155.382 165.289 154.558 165.706Z" fill="#E0E0E0"/>
<path d="M106.715 224.155C123.215 233.805 123.215 249.453 106.715 259.102C90.2151 268.752 63.3927 268.752 46.8663 259.102C30.3399 249.453 30.3663 233.805 46.8663 224.155C63.3663 214.506 90.1887 214.5 106.715 224.155Z" fill="#E0E0E0"/>
<path d="M31.8578 261.255C44.1404 270.257 57.116 272.197 71.0486 272.844C80.2886 273.267 89.5286 272.64 98.6894 271.716C102.788 271.3 106.873 270.811 110.952 270.31C115.361 269.762 119.763 269.194 124.212 269.333C127.459 269.432 130.924 269.782 133.96 271.267C136.897 272.699 138.87 275.689 137.722 279.022C137.166 280.453 136.308 281.747 135.207 282.817C131.736 286.48 127.446 288.988 124.964 293.601C124.119 295.185 123.446 297.739 124.35 299.29C126.568 303.079 134.25 303.072 137.728 302.934C147.411 302.538 153.258 301.033 159.792 298.637C169.831 294.948 177.771 289.397 185.011 283.807C187.162 282.144 189.446 280.632 191.611 278.943C191.974 278.652 192.152 279.51 191.888 279.741C188.423 282.797 184.582 285.325 181.057 288.268C177.775 290.995 174.213 293.367 170.431 295.344C162.907 299.304 158.36 301.475 149.384 303.376C147.147 303.851 141.827 304.537 139.543 304.696C135.734 305.04 131.897 304.933 128.112 304.379C125.829 304.009 122.727 302.617 121.855 300.089C120.865 297.225 121.855 294.406 123.406 291.925C124.974 289.585 126.888 287.498 129.082 285.734C130.561 284.414 132.983 282.394 134.145 280.81C138.534 274.798 132.165 272.105 127.017 271.524C123.018 271.149 118.99 271.213 115.005 271.716C111.045 272.197 106.88 272.904 102.94 273.346C93.9353 274.47 84.8683 275.019 75.794 274.989C71.3522 274.936 65.7158 274.567 61.1816 274.065C46.6154 272.468 34.8278 266.568 29.891 260.621C29.3432 259.961 28.505 258.601 28.9274 258.377C29.79 259.446 30.7733 260.411 31.8578 261.255Z" fill="#EC5F65"/>
<path d="M285.067 257.658C282.325 257.766 279.662 258.602 277.351 260.081C275.631 261.298 274.308 262.998 273.55 264.965C272.164 268.317 272.23 271.835 270.547 275.155C268.864 278.475 264.303 281.22 258.126 281.874C255.538 282.131 252.926 281.968 250.39 281.392C253.822 278.838 256.007 275.67 254.436 272.442C253.863 271.345 253.032 270.404 252.014 269.699C250.997 268.995 249.824 268.548 248.595 268.397C245.295 267.935 241.863 269.756 240.207 271.208C236.299 274.647 239.731 279.075 244.945 281.333C245.427 281.544 245.935 281.729 246.45 281.907C242.682 284.094 238.575 285.637 234.3 286.474C228.757 287.671 223.031 287.752 217.456 286.712C211.7 285.473 206.346 282.814 201.88 278.976C200.871 278.151 199.848 277.34 198.778 276.541C198.369 276.237 196.719 276.303 197.089 276.812C200.039 280.89 205.464 284.732 212.124 286.995C217.76 288.89 224.433 289.259 230.742 288.487C236.484 287.837 242.056 286.129 247.176 283.451C247.698 283.167 248.206 282.864 248.707 282.553C253.699 283.716 258.907 283.549 263.815 282.072C269.715 280.224 272.745 276.917 273.939 273.215C275.088 269.644 274.87 265.862 277.404 262.476C278.916 260.444 281.641 258.827 285.568 258.549C288.613 258.24 291.673 258.973 294.247 260.628C295.266 261.312 296.061 262.281 296.531 263.413C296.577 263.532 297.072 263.684 297.072 263.486C297 259.916 291.06 257.262 285.067 257.658ZM242.629 277.458C241.111 275.835 240.438 273.848 241.969 272.145C242.858 271.263 243.93 270.587 245.11 270.165C245.735 269.876 246.405 269.697 247.09 269.637C247.796 269.655 248.488 269.845 249.103 270.192C251.407 271.393 252.403 273.281 252.311 275.036C252.205 277.016 250.734 278.858 248.694 280.435C248.536 280.56 248.358 280.673 248.193 280.798C246.097 280.141 244.189 278.991 242.629 277.445V277.458Z" fill="#455A64"/>
<path d="M160.103 166.617L71.94 213.061L70.125 215.913V218.209C70.1424 218.804 70.3203 219.383 70.6398 219.885C70.9593 220.387 71.4085 220.793 71.94 221.061L188.146 288.169C189.078 288.663 190.117 288.922 191.172 288.922C192.227 288.922 193.266 288.663 194.198 288.169L280.427 238.386V236.089L160.103 166.617Z" fill="#263238"/>
<path d="M191.176 286.624C190.118 286.64 189.074 286.381 188.147 285.872L71.9403 218.763C71.3983 218.509 70.9399 218.106 70.6187 217.601C70.2975 217.096 70.127 216.51 70.127 215.912C70.127 215.313 70.2975 214.727 70.6187 214.222C70.9399 213.717 71.3983 213.314 71.9403 213.061L156.222 164.379L280.428 236.088L194.199 285.872C193.273 286.38 192.232 286.64 191.176 286.624Z" fill="#EC5F65"/>
<path d="M156.222 157.641L72.8639 205.768L72.0059 206.962V215.912C72.0296 216.17 72.1216 216.416 72.2724 216.626C72.4233 216.836 72.6274 217.002 72.8639 217.107L189.103 284.215C189.743 284.544 190.453 284.715 191.172 284.715C191.892 284.715 192.601 284.544 193.241 284.215L276.606 236.088V227.145L156.222 157.641Z" fill="#EBEBEB"/>
<path d="M276.612 227.145L275.57 227.746L262.02 235.58L259.499 237.039L193.248 275.272C192.607 275.598 191.898 275.767 191.179 275.767C190.46 275.767 189.751 275.598 189.11 275.272L72.8573 208.157C71.7221 207.497 71.7221 206.421 72.8573 205.761L73.9661 205.101L156.222 157.641L275.576 226.545L275.827 226.696L276.612 227.145Z" fill="#F0F0F0"/>
<path d="M191.169 275.768V284.718C190.45 284.733 189.74 284.56 189.11 284.216L72.8573 217.101C72.6217 216.995 72.4185 216.829 72.2687 216.619C72.119 216.409 72.0283 216.163 72.0059 215.906V206.963C72.0316 207.219 72.1236 207.464 72.2729 207.673C72.4223 207.883 72.6237 208.05 72.8573 208.158L189.11 275.273C189.741 275.615 190.451 275.786 191.169 275.768Z" fill="#E0E0E0"/>
<path d="M276.613 225.951L261.598 234.617L259.248 235.937L193.248 274.045C192.607 274.37 191.898 274.54 191.179 274.54C190.46 274.54 189.751 274.37 189.11 274.045L85.0083 213.979C84.0711 213.464 83.1999 212.956 82.3683 212.467C78.1311 209.887 75.5835 207.583 73.9467 205.121L73.7487 204.818C73.6174 204.632 73.5274 204.421 73.4847 204.197C73.4138 203.727 73.5252 203.247 73.7963 202.855C74.0674 202.464 74.4777 202.191 74.9433 202.092C77.672 201.297 80.3039 200.201 82.7907 198.825L82.8963 198.766L156.222 156.42L276.613 225.951Z" fill="white"/>
<path opacity="0.1" d="M261.069 224.901C260.007 225.521 260.007 226.525 261.069 227.145C261.668 227.451 262.331 227.61 263.003 227.61C263.676 227.61 264.338 227.451 264.937 227.145C266.006 226.525 266.006 225.521 264.937 224.901C264.338 224.595 263.676 224.436 263.003 224.436C262.331 224.436 261.668 224.595 261.069 224.901Z" fill="black"/>
<path d="M273.491 217.655C272.019 216.804 270.191 216.936 268.29 218.018C265.379 219.708 262.851 223.476 261.756 227.423C262.216 227.571 262.7 227.629 263.181 227.595C264.191 224.077 266.429 220.764 269.009 219.259C269.724 218.818 270.54 218.568 271.379 218.533C271.869 218.53 272.351 218.655 272.778 218.896C274.019 219.615 274.758 221.364 274.758 223.688C274.759 224.071 274.737 224.455 274.692 224.836L276.045 225.615C276.142 224.977 276.19 224.333 276.19 223.688C276.17 220.836 275.22 218.639 273.491 217.655Z" fill="#263238"/>
<path d="M275.88 226.381C275.867 226.492 275.845 226.603 275.814 226.711L275.563 226.559L275.88 226.381Z" fill="#263238"/>
<path opacity="0.1" d="M249.427 218.176C248.364 218.797 248.364 219.8 249.427 220.414C250.024 220.719 250.686 220.879 251.357 220.879C252.029 220.879 252.69 220.719 253.288 220.414C254.364 219.8 254.364 218.797 253.288 218.176C252.69 217.87 252.029 217.711 251.357 217.711C250.686 217.711 250.024 217.87 249.427 218.176Z" fill="black"/>
<path d="M261.849 210.929C260.37 210.077 258.549 210.209 256.641 211.292C253.731 212.981 251.203 216.75 250.107 220.697C250.568 220.841 251.051 220.899 251.533 220.868C252.543 217.35 254.78 214.031 257.361 212.532C258.075 212.09 258.891 211.839 259.73 211.806C260.22 211.804 260.703 211.929 261.129 212.169C262.37 212.882 263.109 214.638 263.109 216.954C263.11 217.338 263.088 217.722 263.043 218.103L264.396 218.888C264.493 218.248 264.542 217.602 264.542 216.954C264.522 214.11 263.545 211.912 261.849 210.929Z" fill="#263238"/>
<path opacity="0.1" d="M237.772 211.45C236.709 212.064 236.709 213.067 237.772 213.687C238.37 213.993 239.033 214.153 239.705 214.153C240.378 214.153 241.04 213.993 241.639 213.687C242.708 213.067 242.708 212.064 241.639 211.45C241.04 211.144 240.378 210.984 239.705 210.984C239.033 210.984 238.37 211.144 237.772 211.45Z" fill="black"/>
<path d="M250.193 204.198C248.721 203.347 246.893 203.485 244.992 204.561C242.075 206.257 239.553 210.019 238.451 213.973C238.913 214.113 239.395 214.171 239.877 214.144C240.893 210.626 243.131 207.307 245.711 205.808C246.424 205.363 247.241 205.111 248.081 205.076C248.572 205.072 249.055 205.2 249.48 205.445C250.721 206.158 251.46 207.907 251.46 210.23C251.461 210.614 251.439 210.998 251.394 211.379L252.753 212.164C252.847 211.524 252.895 210.878 252.899 210.23C252.872 207.386 251.895 205.181 250.193 204.198Z" fill="#263238"/>
<path opacity="0.1" d="M226.122 204.725C225.06 205.339 225.06 206.342 226.122 206.963C226.721 207.268 227.384 207.428 228.056 207.428C228.728 207.428 229.391 207.268 229.99 206.963C231.059 206.342 231.059 205.339 229.99 204.725C229.391 204.419 228.728 204.26 228.056 204.26C227.384 204.26 226.721 204.419 226.122 204.725Z" fill="black"/>
<path d="M238.544 197.473C237.072 196.621 235.244 196.76 233.343 197.842C230.426 199.532 227.905 203.301 226.803 207.247C227.264 207.388 227.747 207.446 228.228 207.419C229.245 203.901 231.482 200.581 234.063 199.083C234.776 198.64 235.593 198.389 236.432 198.357C236.92 198.353 237.401 198.479 237.825 198.72C239.072 199.433 239.805 201.182 239.805 203.505C239.806 203.889 239.784 204.272 239.739 204.654L241.098 205.439C241.192 204.799 241.24 204.152 241.244 203.505C241.224 200.641 240.24 198.463 238.544 197.473Z" fill="#263238"/>
<path opacity="0.1" d="M214.5 198C213.437 198.62 213.437 199.624 214.5 200.244C215.098 200.55 215.759 200.709 216.431 200.709C217.102 200.709 217.764 200.55 218.361 200.244C219.437 199.624 219.437 198.62 218.361 198C217.762 197.698 217.101 197.541 216.431 197.541C215.76 197.541 215.099 197.698 214.5 198Z" fill="black"/>
<path d="M226.895 190.739C225.423 189.888 223.595 190.026 221.694 191.102C218.777 192.798 216.256 196.56 215.153 200.514C215.615 200.654 216.097 200.712 216.579 200.685C217.595 197.167 219.826 193.848 222.413 192.349C223.126 191.904 223.943 191.652 224.783 191.617C225.272 191.612 225.753 191.74 226.175 191.986C227.423 192.699 228.155 194.448 228.155 196.771C228.156 197.155 228.134 197.539 228.089 197.92L229.449 198.705C229.54 198.065 229.587 197.418 229.588 196.771C229.568 193.933 228.598 191.729 226.895 190.739Z" fill="#263238"/>
<path opacity="0.1" d="M202.818 191.268C201.756 191.889 201.756 192.892 202.818 193.512C203.417 193.818 204.08 193.977 204.752 193.977C205.425 193.977 206.087 193.818 206.686 193.512C207.755 192.892 207.755 191.889 206.686 191.268C206.087 190.962 205.425 190.803 204.752 190.803C204.08 190.803 203.417 190.962 202.818 191.268Z" fill="black"/>
<path d="M215.239 184.02C213.767 183.169 211.939 183.301 210.038 184.383C207.127 186.08 204.6 189.842 203.504 193.788C203.962 193.935 204.443 193.995 204.923 193.967C205.939 190.449 208.177 187.129 210.757 185.624C211.472 185.184 212.288 184.934 213.127 184.898C213.617 184.895 214.099 185.021 214.526 185.261C215.767 185.981 216.506 187.73 216.506 190.053C216.507 190.437 216.485 190.82 216.44 191.201L217.76 191.987C217.857 191.347 217.905 190.7 217.905 190.053C217.918 187.202 216.942 185.004 215.239 184.02Z" fill="#263238"/>
<path opacity="0.1" d="M191.169 184.542C190.113 185.162 190.113 186.165 191.169 186.786C191.768 187.091 192.43 187.251 193.103 187.251C193.775 187.251 194.438 187.091 195.037 186.786C196.106 186.165 196.106 185.162 195.037 184.542C194.438 184.236 193.775 184.076 193.103 184.076C192.43 184.076 191.768 184.236 191.169 184.542Z" fill="black"/>
<path d="M203.59 177.296C202.118 176.444 200.29 176.576 198.389 177.659C195.479 179.348 192.951 183.117 191.855 187.064C192.313 187.211 192.795 187.27 193.274 187.235C194.291 183.718 196.528 180.404 199.109 178.9C199.824 178.46 200.64 178.21 201.478 178.174C201.968 178.171 202.451 178.296 202.877 178.537C204.118 179.256 204.857 181.005 204.857 183.328C204.859 183.712 204.836 184.095 204.791 184.477L206.144 185.262C206.241 184.622 206.29 183.976 206.29 183.328C206.27 180.477 205.293 178.279 203.59 177.296Z" fill="#263238"/>
<path opacity="0.1" d="M179.52 177.817C178.457 178.437 178.457 179.441 179.52 180.061C180.118 180.367 180.781 180.526 181.453 180.526C182.126 180.526 182.788 180.367 183.387 180.061C184.456 179.441 184.456 178.437 183.387 177.817C182.788 177.511 182.126 177.352 181.453 177.352C180.781 177.352 180.118 177.511 179.52 177.817Z" fill="black"/>
<path d="M191.942 170.571C190.47 169.72 188.642 169.852 186.741 170.934C183.824 172.624 181.302 176.392 180.2 180.339C180.66 180.486 181.144 180.545 181.626 180.511C182.642 176.993 184.873 173.68 187.46 172.175C188.175 171.734 188.991 171.484 189.83 171.449C190.318 171.446 190.798 171.571 191.222 171.812C192.47 172.531 193.202 174.28 193.202 176.604C193.203 176.987 193.181 177.371 193.136 177.752L194.496 178.537C194.589 177.897 194.638 177.251 194.641 176.604C194.621 173.752 193.644 171.555 191.942 170.571Z" fill="#263238"/>
<path opacity="0.1" d="M167.871 171.092C166.809 171.706 166.809 172.716 167.871 173.33C168.47 173.636 169.133 173.795 169.805 173.795C170.477 173.795 171.14 173.636 171.739 173.33C172.808 172.716 172.808 171.706 171.739 171.092C171.14 170.786 170.477 170.627 169.805 170.627C169.133 170.627 168.47 170.786 167.871 171.092Z" fill="black"/>
<path d="M180.292 163.845C178.82 162.993 176.992 163.125 175.091 164.208C172.174 165.897 169.653 169.666 168.551 173.613C169.012 173.756 169.495 173.814 169.976 173.784C170.993 170.266 173.23 166.947 175.811 165.448C176.524 165.005 177.341 164.755 178.18 164.722C178.668 164.719 179.149 164.844 179.573 165.085C180.82 165.798 181.553 167.554 181.553 169.877C181.554 170.259 181.532 170.64 181.487 171.019L182.846 171.804C182.94 171.166 182.988 170.522 182.992 169.877C182.972 167.026 181.995 164.828 180.292 163.845Z" fill="#263238"/>
<path opacity="0.1" d="M156.222 164.34C155.159 164.961 155.159 165.964 156.222 166.578C156.819 166.884 157.481 167.043 158.152 167.043C158.824 167.043 159.485 166.884 160.083 166.578C161.159 165.964 161.159 164.961 160.083 164.34C159.485 164.034 158.824 163.875 158.152 163.875C157.481 163.875 156.819 164.034 156.222 164.34Z" fill="black"/>
<path d="M168.643 157.12C167.164 156.269 165.343 156.401 163.442 157.483C160.525 159.173 158.004 162.941 156.901 166.888C157.362 167.032 157.845 167.09 158.327 167.06C159.337 163.542 161.574 160.222 164.155 158.724C164.871 158.28 165.689 158.03 166.531 157.998C167.019 157.996 167.499 158.121 167.923 158.361C169.164 159.08 169.903 160.829 169.903 163.152C169.904 163.534 169.882 163.915 169.837 164.294L171.19 165.08C171.287 164.442 171.336 163.798 171.336 163.152C171.316 160.301 170.339 158.103 168.643 157.12Z" fill="#263238"/>
<path d="M190.364 269.763C189.819 269.768 189.283 269.631 188.807 269.367L181.738 265.321C181.521 265.223 181.335 265.068 181.199 264.873C181.063 264.677 180.983 264.449 180.966 264.212C180.973 264.018 181.032 263.829 181.138 263.667C181.244 263.504 181.392 263.373 181.566 263.288L248.431 224.665C248.872 224.46 249.356 224.362 249.842 224.379C250.328 224.396 250.804 224.528 251.229 224.764L258.298 228.849C258.516 228.946 258.703 229.101 258.841 229.296C258.978 229.491 259.059 229.72 259.077 229.958C259.069 230.152 259.008 230.341 258.901 230.504C258.794 230.667 258.645 230.797 258.47 230.882L191.605 269.472C191.224 269.675 190.796 269.775 190.364 269.763ZM249.665 225.094C249.363 225.084 249.063 225.152 248.794 225.292L181.929 263.882C181.837 263.935 181.685 264.04 181.685 264.179C181.685 264.318 181.797 264.489 182.101 264.667L189.17 268.746C189.486 268.92 189.837 269.019 190.198 269.036C190.558 269.053 190.917 268.988 191.249 268.845L258.113 230.255C258.199 230.202 258.351 230.097 258.351 229.958C258.351 229.819 258.245 229.648 257.935 229.47L250.866 225.391C250.497 225.194 250.084 225.092 249.665 225.094Z" fill="#E0E0E0"/>
<path d="M255.507 227.843L186.069 267.75L186.429 268.376L255.867 228.469L255.507 227.843Z" fill="#E0E0E0"/>
<path d="M175.335 261.082C174.791 261.086 174.255 260.952 173.778 260.692L81.7934 207.582C81.5755 207.485 81.3881 207.331 81.2509 207.135C81.1138 206.94 81.0321 206.711 81.0146 206.473C81.0228 206.279 81.0835 206.09 81.1905 205.927C81.2974 205.765 81.4465 205.634 81.6218 205.549L148.5 166.979C148.941 166.772 149.425 166.673 149.912 166.692C150.399 166.71 150.874 166.845 151.298 167.085L243.282 220.188C243.5 220.285 243.688 220.44 243.825 220.635C243.962 220.83 244.044 221.059 244.061 221.297C244.053 221.492 243.992 221.68 243.885 221.843C243.778 222.006 243.629 222.136 243.454 222.221L176.576 260.791C176.195 260.995 175.767 261.095 175.335 261.082ZM149.721 167.362C149.416 167.353 149.114 167.421 148.843 167.56L81.9782 206.176C81.8924 206.229 81.7406 206.335 81.7406 206.473C81.7406 206.612 81.8463 206.784 82.1565 206.962L174.141 260.039C174.455 260.215 174.806 260.315 175.165 260.332C175.525 260.349 175.883 260.283 176.213 260.138L243.084 221.548C243.17 221.495 243.322 221.389 243.322 221.251C243.322 221.112 243.21 220.947 242.906 220.769L150.922 167.685C150.552 167.488 150.139 167.386 149.721 167.388V167.362Z" fill="#E0E0E0"/>
<path d="M239.45 218.167L170.329 258.074L170.689 258.697L239.81 218.79L239.45 218.167Z" fill="#E0E0E0"/>
<path d="M234.718 215.429L165.598 255.336L165.957 255.959L235.078 216.052L234.718 215.429Z" fill="#E0E0E0"/>
<path d="M229.977 212.687L160.856 252.594L161.216 253.217L230.337 213.31L229.977 212.687Z" fill="#E0E0E0"/>
<path d="M225.246 209.96L156.125 249.867L156.485 250.49L225.605 210.583L225.246 209.96Z" fill="#E0E0E0"/>
<path d="M220.5 207.259L151.372 247.154L151.732 247.777L220.859 207.883L220.5 207.259Z" fill="#E0E0E0"/>
<path d="M215.77 204.495L146.649 244.402L147.009 245.025L216.13 205.118L215.77 204.495Z" fill="#E0E0E0"/>
<path d="M211.029 201.771L141.908 241.678L142.268 242.301L211.389 202.394L211.029 201.771Z" fill="#E0E0E0"/>
<path d="M206.298 199.029L137.177 238.936L137.536 239.559L206.657 199.652L206.298 199.029Z" fill="#E0E0E0"/>
<path d="M201.566 196.296L132.445 236.203L132.805 236.826L201.926 196.919L201.566 196.296Z" fill="#E0E0E0"/>
<path d="M196.818 193.568L127.697 233.475L128.057 234.098L197.178 194.191L196.818 193.568Z" fill="#E0E0E0"/>
<path d="M192.085 190.849L122.957 230.744L123.317 231.367L192.444 191.472L192.085 190.849Z" fill="#E0E0E0"/>
<path d="M187.356 188.091L118.235 227.998L118.595 228.621L187.716 188.714L187.356 188.091Z" fill="#E0E0E0"/>
<path d="M182.624 185.353L113.503 225.26L113.863 225.883L182.983 185.976L182.624 185.353Z" fill="#E0E0E0"/>
<path d="M177.877 182.63L108.756 222.537L109.116 223.16L178.236 183.253L177.877 182.63Z" fill="#E0E0E0"/>
<path d="M173.145 179.888L104.024 219.795L104.384 220.418L173.505 180.511L173.145 179.888Z" fill="#E0E0E0"/>
<path d="M168.414 177.156L99.293 217.062L99.6527 217.686L168.773 177.779L168.414 177.156Z" fill="#E0E0E0"/>
<path d="M163.676 174.419L94.5557 214.326L94.9154 214.949L164.036 175.042L163.676 174.419Z" fill="#E0E0E0"/>
<path d="M158.933 171.711L89.8057 211.605L90.1653 212.229L159.293 172.334L158.933 171.711Z" fill="#E0E0E0"/>
<path d="M154.204 168.952L85.083 208.859L85.4427 209.482L154.563 169.575L154.204 168.952Z" fill="#E0E0E0"/>
<path d="M240.9 223.621C240.835 223.62 240.771 223.602 240.715 223.569L146.117 168.96C146.075 168.938 146.037 168.907 146.008 168.869C145.978 168.831 145.956 168.788 145.943 168.741C145.931 168.695 145.928 168.646 145.936 168.599C145.943 168.551 145.96 168.506 145.985 168.465C146.009 168.424 146.04 168.388 146.077 168.36C146.114 168.331 146.157 168.31 146.202 168.298C146.247 168.285 146.295 168.282 146.341 168.288C146.388 168.294 146.433 168.31 146.474 168.333L241.071 222.948C241.112 222.971 241.148 223.003 241.177 223.04C241.206 223.077 241.227 223.12 241.239 223.165C241.251 223.21 241.255 223.258 241.248 223.304C241.242 223.351 241.227 223.396 241.203 223.437C241.174 223.492 241.13 223.538 241.077 223.57C241.023 223.603 240.962 223.621 240.9 223.621Z" fill="#EC5F65"/>
<path d="M195.155 150.869C192.601 149.067 192.832 146.539 195.67 145.232C197.255 144.602 198.966 144.354 200.665 144.51C202.363 144.666 204.001 145.221 205.445 146.13C207.999 147.938 207.761 150.46 204.923 151.773C203.339 152.401 201.628 152.646 199.931 152.489C198.234 152.332 196.598 151.777 195.155 150.869Z" fill="#263238"/>
<path d="M206.706 150.407L205.59 150.301C205.316 149.664 204.856 149.123 204.27 148.75C203.1 148.015 201.774 147.565 200.398 147.438C199.022 147.311 197.635 147.509 196.35 148.018C195.711 148.282 195.165 148.73 194.779 149.305L193.664 149.206L194.76 151.357C195.045 151.858 195.442 152.285 195.921 152.605C197.092 153.337 198.419 153.785 199.794 153.912C201.17 154.039 202.556 153.843 203.841 153.337C204.368 153.107 204.835 152.759 205.207 152.321L206.706 150.407Z" fill="#263238"/>
<path d="M192.984 148.837C189.209 146.158 189.565 142.422 193.769 140.502C197.974 138.581 204.442 139.182 208.217 141.868C211.992 144.554 211.629 148.283 207.425 150.204C203.221 152.124 196.753 151.517 192.984 148.837Z" fill="#455A64"/>
<path d="M192.839 147.457C188.931 144.679 189.301 140.811 193.664 138.811C198.026 136.812 204.732 137.452 208.639 140.23C212.546 143.009 212.183 146.883 207.821 148.876C203.458 150.87 196.752 150.243 192.839 147.457Z" fill="#37474F"/>
<path d="M192.792 145.939C188.786 143.088 189.162 139.115 193.637 137.069C198.112 135.023 204.982 135.676 208.995 138.527C213.008 141.379 212.625 145.345 208.15 147.391C203.675 149.437 196.805 148.784 192.792 145.939Z" fill="#455A64"/>
<path d="M192.72 144.414C188.615 141.49 188.998 137.424 193.585 135.326C198.172 133.227 205.214 133.893 209.319 136.817C213.424 139.741 213.041 143.807 208.461 145.905C203.881 148.004 196.858 147.331 192.72 144.414Z" fill="#37474F"/>
<path d="M192.72 142.889C188.516 139.893 188.912 135.728 193.604 133.583C198.297 131.438 205.484 132.118 209.722 135.108C213.959 138.098 213.53 142.269 208.837 144.414C204.145 146.559 196.911 145.859 192.72 142.889Z" fill="#455A64"/>
<path d="M192.654 141.366C188.351 138.303 188.753 134.04 193.558 131.842C198.363 129.644 205.748 130.344 210.058 133.406C214.368 136.468 213.959 140.725 209.154 142.93C204.349 145.134 196.957 144.428 192.654 141.366Z" fill="#37474F"/>
<path d="M214.131 132.508C214.296 130.707 213.273 128.793 211.022 127.195C206.514 123.988 198.786 123.235 193.763 125.559C191.248 126.707 189.882 128.397 189.717 130.179C189.651 130.878 189.387 133.624 189.321 134.323C189.15 136.132 190.173 138.046 192.43 139.643C196.938 142.851 204.666 143.603 209.695 141.28C212.203 140.131 213.57 138.442 213.735 136.66C213.801 135.96 214.065 133.215 214.131 132.508Z" fill="#EC5F65"/>
<path d="M209.821 48.0289C204.999 47.5704 200.134 48.0663 195.504 49.4883C190.874 50.9103 186.57 53.2305 182.836 56.3165C179.103 59.4024 176.015 63.1936 173.747 67.4734C171.479 71.7533 170.077 76.438 169.62 81.2599C166.855 110.399 190.443 117.52 189.328 129.262C189.156 131.136 190.212 133.123 192.549 134.786C197.228 138.086 205.247 138.871 210.461 136.482C213.101 135.287 214.48 133.532 214.659 131.664C215.774 119.916 240.28 117.355 243.039 88.2163C243.961 78.4825 240.98 68.7809 234.751 61.2447C228.521 53.7085 219.554 48.9548 209.821 48.0289Z" fill="#EC5F65"/>
<g style="mix-blend-mode:screen" opacity="0.9">
<path d="M209.821 48.0289C204.999 47.5704 200.134 48.0663 195.504 49.4883C190.874 50.9103 186.57 53.2305 182.836 56.3165C179.103 59.4024 176.015 63.1936 173.747 67.4734C171.479 71.7533 170.077 76.438 169.62 81.2599C166.855 110.399 190.443 117.52 189.328 129.262C189.156 131.136 190.212 133.123 192.549 134.786C197.228 138.086 205.247 138.871 210.461 136.482C213.101 135.287 214.48 133.532 214.659 131.664C215.774 119.916 240.28 117.355 243.039 88.2163C243.961 78.4825 240.98 68.7809 234.751 61.2447C228.521 53.7085 219.554 48.9548 209.821 48.0289Z" fill="white"/>
</g>
<path d="M194.106 134.139C190.192 131.361 190.562 127.493 194.924 125.493C199.287 123.493 205.993 124.133 209.9 126.912C213.807 129.691 213.444 133.565 209.081 135.565C204.719 137.564 198 136.924 194.106 134.139Z" fill="#EC5F65"/>
<path opacity="0.55" d="M194.106 134.139C190.192 131.361 190.562 127.493 194.924 125.493C199.287 123.493 205.993 124.133 209.9 126.912C213.807 129.691 213.444 133.565 209.081 135.565C204.719 137.564 198 136.924 194.106 134.139Z" fill="white"/>
<path opacity="0.25" d="M211.002 134.363C210.421 134.851 209.774 135.256 209.081 135.564C204.719 137.544 198.013 136.924 194.106 134.145C193.485 133.712 192.928 133.194 192.449 132.607C193.027 132.118 193.672 131.714 194.363 131.406C198.726 129.426 205.438 130.04 209.345 132.825C209.968 133.257 210.525 133.775 211.002 134.363Z" fill="#EC5F65"/>
<path d="M211.002 134.363C210.421 134.851 209.774 135.256 209.081 135.564C204.719 137.544 198.013 136.924 194.106 134.145C193.485 133.712 192.928 133.194 192.449 132.607C193.027 132.118 193.672 131.714 194.363 131.406C198.726 129.426 205.438 130.04 209.345 132.825C209.968 133.257 210.525 133.775 211.002 134.363Z" fill="#EC5F65"/>
<path opacity="0.35" d="M211.002 134.363C210.421 134.851 209.774 135.256 209.081 135.564C204.719 137.544 198.013 136.924 194.106 134.145C193.485 133.712 192.928 133.194 192.449 132.607C193.027 132.118 193.672 131.714 194.363 131.406C198.726 129.426 205.438 130.04 209.345 132.825C209.968 133.257 210.525 133.775 211.002 134.363Z" fill="white"/>
<path opacity="0.35" d="M236.848 70.0662C234.868 66.3636 231.568 63.1758 227.093 64.6146C226.613 64.773 226.156 64.995 225.734 65.2746C224.974 65.8179 224.367 66.5479 223.972 67.3942C223.576 68.2405 223.406 69.1744 223.477 70.1058C223.661 73.7094 226.869 76.2438 228.585 79.194C230.472 82.4274 231.772 85.9689 232.426 89.655C232.577 90.9879 232.864 92.3016 233.284 93.5754C233.573 94.2305 234.095 94.7548 234.749 95.0463C235.403 95.3379 236.142 95.3758 236.822 95.1528C238.32 94.5324 239.231 92.8164 239.561 91.437C241.561 83.2266 240.432 76.8576 236.848 70.0662ZM234.961 97.377C234.308 97.2907 233.646 97.42 233.074 97.7453C232.502 98.0706 232.052 98.5741 231.793 99.1788C231.573 99.7033 231.466 100.268 231.478 100.837C231.491 101.405 231.623 101.965 231.865 102.479C232.149 103.032 232.639 103.451 233.23 103.645C233.82 103.839 234.464 103.792 235.02 103.515C235.584 103.223 236.066 102.794 236.424 102.269C236.781 101.744 237.002 101.137 237.066 100.505C237.178 99.1788 236.446 97.6806 234.961 97.377Z" fill="white"/>
<path d="M205.92 134.595L205.498 134.555C206.732 121.494 208.27 113.376 210.632 107.423C211.234 105.885 211.979 104.406 212.857 103.007C209.909 101.705 207.27 99.7929 205.115 97.3973C202.551 99.3478 199.601 100.731 196.462 101.456C197.066 102.993 197.52 104.584 197.815 106.208C199.023 112.498 199.003 120.761 197.769 133.823L197.34 133.783C198.574 120.761 198.594 112.538 197.399 106.287C197.099 104.662 196.639 103.071 196.027 101.535C195.614 101.613 195.198 101.665 194.779 101.694C190.443 102.004 188.074 100.539 187.301 99.0539C187.037 98.5529 186.932 97.9834 186.999 97.4212C187.066 96.8589 187.303 96.3303 187.678 95.9057C188.043 95.472 188.53 95.1579 189.076 95.0038C189.622 94.8497 190.202 94.8626 190.74 95.0411C192.568 95.4965 194.746 97.3247 196.337 101.054C199.437 100.362 202.352 99.0112 204.884 97.0937C204.473 96.6061 204.111 96.0801 203.801 95.5229C202.092 92.3021 202.481 89.6819 203.372 88.3091C203.665 87.8485 204.079 87.4778 204.569 87.2381C205.06 86.9984 205.607 86.899 206.15 86.9509C206.693 87.0028 207.211 87.2041 207.647 87.5323C208.083 87.8605 208.419 88.303 208.619 88.8107C209.279 90.3287 209.134 92.9687 206.844 95.8133C206.435 96.2965 205.98 96.7386 205.484 97.1333C207.61 99.497 210.219 101.376 213.134 102.644C215.398 99.2849 217.879 97.8989 219.734 97.7933C220.29 97.7266 220.854 97.8257 221.354 98.0781C221.854 98.3306 222.269 98.7251 222.545 99.2123C222.833 99.7008 222.966 100.265 222.926 100.831C222.886 101.397 222.675 101.937 222.321 102.38C221.285 103.7 218.678 104.677 214.48 103.562C214.084 103.456 213.688 103.324 213.286 103.172C212.394 104.563 211.644 106.04 211.048 107.581C208.705 113.521 207.174 121.573 205.92 134.595ZM213.517 102.809C213.873 102.941 214.229 103.053 214.579 103.146C218.579 104.208 221.021 103.311 221.971 102.11C222.276 101.734 222.456 101.274 222.488 100.792C222.52 100.309 222.402 99.829 222.149 99.4169C221.913 99.0014 221.558 98.6654 221.131 98.4516C220.703 98.2377 220.221 98.1556 219.747 98.2157C218.084 98.3411 215.721 99.6611 213.536 102.809H213.517ZM190.113 95.3711C189.725 95.3186 189.33 95.3655 188.965 95.5075C188.601 95.6495 188.278 95.8819 188.027 96.1829C187.703 96.5409 187.497 96.9906 187.438 97.4703C187.379 97.9501 187.469 98.4363 187.697 98.8625C188.404 100.215 190.641 101.562 194.766 101.271C195.138 101.244 195.508 101.198 195.875 101.133C194.324 97.6019 192.251 95.8529 190.595 95.4569C190.436 95.4172 190.275 95.3886 190.113 95.3711ZM206.092 87.3521C205.624 87.3044 205.153 87.3893 204.731 87.597C204.31 87.8048 203.956 88.127 203.709 88.5269C202.646 90.1241 202.825 92.7839 204.164 95.3051C204.457 95.8392 204.802 96.3432 205.194 96.8099C205.678 96.4159 206.12 95.9736 206.514 95.4899C208.303 93.2657 208.976 90.6917 208.23 88.9229C208.058 88.4859 207.766 88.1066 207.388 87.8286C207.009 87.5507 206.56 87.3855 206.092 87.3521Z" fill="#455A64"/>
<path d="M209.603 39.8113C209.457 39.8012 209.315 39.7625 209.184 39.6973C209.053 39.6321 208.937 39.5417 208.841 39.4313C208.746 39.3209 208.673 39.1927 208.627 39.054C208.581 38.9153 208.563 38.7689 208.573 38.6233L209.339 27.6145C209.349 27.4688 209.388 27.3267 209.454 27.1962C209.519 27.0656 209.609 26.9492 209.72 26.8536C209.83 26.758 209.958 26.6851 210.097 26.639C210.235 26.5928 210.381 26.5745 210.527 26.5849C210.673 26.5953 210.815 26.6342 210.945 26.6996C211.076 26.7649 211.192 26.8553 211.288 26.9656C211.383 27.0759 211.456 27.204 211.502 27.3425C211.549 27.481 211.567 27.6272 211.557 27.7729L210.791 38.7817C210.769 39.0754 210.632 39.3484 210.409 39.5413C210.187 39.7342 209.897 39.8312 209.603 39.8113Z" fill="#F0F0F0"/>
<path d="M232.438 47.7582C232.242 47.7427 232.054 47.6767 231.891 47.5668C231.769 47.4858 231.666 47.3816 231.585 47.2603C231.505 47.1389 231.449 47.0028 231.421 46.8599C231.394 46.7169 231.395 46.5698 231.424 46.4272C231.454 46.2846 231.511 46.1493 231.594 46.029L237.765 36.8814C237.836 36.7406 237.936 36.6166 238.059 36.5178C238.182 36.4189 238.325 36.3475 238.478 36.3083C238.631 36.269 238.791 36.2629 238.946 36.2902C239.101 36.3176 239.249 36.3778 239.38 36.4669C239.51 36.556 239.62 36.6718 239.702 36.8068C239.783 36.9417 239.836 37.0925 239.855 37.2492C239.874 37.406 239.859 37.5649 239.811 37.7154C239.764 37.866 239.685 38.0047 239.58 38.1222L233.409 47.2698C233.301 47.4267 233.156 47.5538 232.986 47.6393C232.817 47.7247 232.628 47.7656 232.438 47.7582Z" fill="#F0F0F0"/>
<path d="M248.239 66.0529C247.994 66.037 247.762 65.9405 247.578 65.7786C247.394 65.6167 247.269 65.3985 247.223 65.158C247.176 64.9175 247.21 64.6682 247.32 64.4492C247.43 64.2302 247.609 64.0538 247.83 63.9475L257.73 59.1097C257.987 59.0162 258.269 59.0211 258.523 59.1234C258.777 59.2257 258.984 59.4182 259.104 59.6639C259.225 59.9095 259.25 60.191 259.175 60.4542C259.101 60.7174 258.931 60.9438 258.7 61.0897L248.8 65.9209C248.628 66.0148 248.434 66.0604 248.239 66.0529Z" fill="#F0F0F0"/>
<path d="M263.782 90.5728L252.779 89.8006C252.631 89.7943 252.486 89.7583 252.352 89.6948C252.218 89.6313 252.098 89.5416 251.999 89.4309C251.9 89.3202 251.825 89.1908 251.777 89.0504C251.729 88.91 251.71 88.7615 251.721 88.6136C251.731 88.4656 251.771 88.3213 251.839 88.1892C251.906 88.057 251.999 87.9398 252.113 87.8443C252.226 87.7488 252.358 87.6771 252.5 87.6333C252.641 87.5896 252.79 87.5747 252.938 87.5896L263.947 88.3552C264.241 88.3762 264.514 88.5132 264.707 88.7359C264.901 88.9587 264.997 89.2491 264.976 89.5432C264.955 89.8373 264.818 90.1109 264.595 90.304C264.373 90.4971 264.082 90.5938 263.788 90.5728H263.782Z" fill="#F0F0F0"/>
<path d="M253.975 118.801C253.781 118.787 253.595 118.723 253.433 118.616L244.286 112.445C244.042 112.28 243.873 112.026 243.816 111.737C243.76 111.448 243.821 111.148 243.985 110.904C244.15 110.66 244.405 110.491 244.694 110.435C244.983 110.378 245.282 110.439 245.527 110.604L254.674 116.775C254.877 116.911 255.029 117.111 255.107 117.343C255.185 117.575 255.184 117.826 255.104 118.057C255.024 118.288 254.87 118.486 254.666 118.621C254.461 118.755 254.218 118.819 253.975 118.801Z" fill="#F0F0F0"/>
<path d="M154.228 111.54C153.984 111.524 153.751 111.428 153.567 111.266C153.384 111.104 153.259 110.885 153.212 110.645C153.165 110.404 153.199 110.155 153.309 109.936C153.419 109.717 153.598 109.541 153.819 109.434L163.719 104.597C163.851 104.514 163.998 104.459 164.152 104.437C164.306 104.415 164.463 104.425 164.613 104.468C164.763 104.51 164.902 104.584 165.021 104.683C165.141 104.783 165.238 104.907 165.306 105.047C165.375 105.186 165.413 105.339 165.418 105.494C165.424 105.65 165.397 105.805 165.339 105.949C165.281 106.094 165.193 106.224 165.081 106.332C164.969 106.44 164.835 106.524 164.689 106.577L154.789 111.414C154.616 111.504 154.423 111.548 154.228 111.54Z" fill="#F0F0F0"/>
<path d="M159.608 82.981L148.599 82.2088C148.451 82.2025 148.305 82.1665 148.171 82.103C148.037 82.0395 147.917 81.9498 147.818 81.8391C147.72 81.7284 147.644 81.599 147.596 81.4586C147.549 81.3183 147.529 81.1697 147.54 81.0218C147.551 80.8738 147.591 80.7295 147.658 80.5974C147.725 80.4652 147.819 80.348 147.932 80.2525C148.046 80.157 148.177 80.0853 148.319 80.0415C148.461 79.9978 148.61 79.9829 148.757 79.9978L159.766 80.7634C160.06 80.7844 160.334 80.9214 160.527 81.1441C160.72 81.3669 160.817 81.6573 160.796 81.9514C160.775 82.2455 160.638 82.5191 160.415 82.7122C160.192 82.9053 159.902 83.002 159.608 82.981Z" fill="#F0F0F0"/>
<path d="M167.554 60.1465C167.36 60.1333 167.174 60.0695 167.012 59.9617L157.865 53.7907C157.744 53.7092 157.64 53.6047 157.56 53.4832C157.479 53.3616 157.423 53.2254 157.395 53.0823C157.368 52.9392 157.368 52.792 157.397 52.6491C157.426 52.5063 157.483 52.3705 157.565 52.2496C157.646 52.1287 157.75 52.025 157.872 51.9445C157.994 51.8639 158.13 51.8081 158.273 51.7803C158.416 51.7524 158.563 51.753 158.706 51.782C158.849 51.811 158.985 51.8678 159.106 51.9493L168.253 58.1203C168.456 58.2567 168.608 58.4564 168.686 58.6883C168.764 58.9202 168.763 59.1713 168.683 59.4025C168.603 59.6338 168.449 59.8321 168.245 59.9666C168.041 60.1012 167.798 60.1644 167.554 60.1465Z" fill="#F0F0F0"/>
<path d="M185.856 44.3459C185.661 44.3324 185.473 44.268 185.311 44.1592C185.149 44.0503 185.018 43.9007 184.932 43.7255L180.094 33.8255C180.001 33.5684 180.005 33.2858 180.108 33.0321C180.21 32.7783 180.403 32.5714 180.648 32.451C180.894 32.3306 181.175 32.3053 181.439 32.3799C181.702 32.4546 181.928 32.6239 182.074 32.8553L186.912 42.7553C186.976 42.8865 187.013 43.0291 187.022 43.1749C187.031 43.3207 187.011 43.4668 186.963 43.6047C186.915 43.7427 186.841 43.8699 186.743 43.979C186.646 44.088 186.529 44.1768 186.397 44.2403C186.229 44.3225 186.042 44.3589 185.856 44.3459Z" fill="#F0F0F0"/>
<path d="M70.389 243.91C70.8708 241.857 68.838 240.563 67.8744 239.382C66.3894 237.56 65.8944 233.317 65.9472 231.152C65.9472 228.446 65.637 226.532 67.32 224.077C69.3 221.179 72.0852 217.793 81.3648 209.504L69.96 198C67.5708 201.749 61.5384 214.889 61.5384 214.889L61.1424 215.701C60.1414 217.044 58.9235 218.211 57.5388 219.153L56.8788 219.476C55.7898 220.216 53.0178 221.008 53.064 223.601C53.1102 226.195 54.12 226.829 55.2948 228.947C56.215 230.308 56.6774 231.926 56.6148 233.567C56.6544 235.653 56.5686 237.976 56.5488 239.844C56.5488 241.415 57.981 243.692 61.0038 244.715C65.4324 246.233 69.9138 245.923 70.389 243.91Z" fill="#FFBDA7"/>
<path d="M51.4797 223.693C50.1689 225.457 49.0619 227.363 48.1797 229.376L51.2157 233.626L53.7633 229.336C52.6348 227.626 51.8585 225.707 51.4797 223.693Z" fill="#263238"/>
<path d="M51.2285 233.64L55.3997 233.349C55.5935 232.472 55.4448 231.553 54.9839 230.782C54.6719 230.235 54.2626 229.749 53.7761 229.35L51.2285 233.64Z" fill="black"/>
<path d="M52.331 222.73C52.0088 222.966 51.7354 223.262 51.5258 223.602C51.3834 225.117 51.6959 226.641 52.4234 227.977C53.288 229.297 54.7004 230.617 55.0634 232.479C55.4264 234.34 54.6806 238.557 55.4132 241.125C56.1458 243.692 58.6274 246.636 64.0328 247.329C67.8938 247.824 69.3524 247.091 70.6328 246.286C71.1014 244.616 71.0552 244.18 68.9432 242.775C66.8312 241.369 52.331 222.73 52.331 222.73Z" fill="#263238"/>
<path d="M59.5316 215.945C57.7958 218.004 57.1754 218.796 55.5716 219.72C53.6378 220.842 53.2418 221.291 52.3178 222.73C51.9284 224.961 52.3772 225.878 54.4232 228.729C55.829 230.676 56.2844 231.957 56.2448 234.636C56.1986 237.877 55.0964 240.834 59.0432 244.147C62.1188 246.734 68.8508 246.906 70.6724 245.111C72.2366 240.689 68.0786 240.92 67.1348 236.227C66.6134 233.633 66.5672 229.713 67.379 227.119C67.7364 225.951 68.1935 224.816 68.7452 223.727C69.4052 222.624 69.9662 221.819 69.4448 221.245L68.4614 222.453C67.4846 222.664 65.1152 222.156 63.551 220.895C59.789 217.872 61.1024 215.721 61.1024 215.721L61.4984 214.909C61.1288 214.454 60.515 214.777 59.5316 215.945Z" fill="#37474F"/>
<path d="M101.362 112.682C102.313 119.07 105.388 127.083 107.098 142.203C108.702 156.393 109.414 163.792 108.418 170.841C108.061 173.355 106.761 176.299 104.293 180.021C96.551 191.67 81.3182 210.012 81.3182 210.012C81.3182 210.012 77.8598 209.952 73.6754 206.619C72.476 205.636 71.485 204.423 70.7608 203.052C70.0366 201.681 69.5936 200.178 69.458 198.633C69.458 198.633 69.8606 195.993 76.2494 185.235C80.1841 178.368 82.639 170.754 83.4566 162.881L79.292 117.341C89.192 118.212 96.7358 116.397 101.362 112.682Z" fill="#263238"/>
<path d="M73.6559 206.619C72.4564 205.636 71.4655 204.423 70.7413 203.052C70.017 201.681 69.5741 200.178 69.4385 198.633C69.4385 198.633 69.8411 195.993 76.2299 185.235C80.1646 178.368 82.6195 170.754 83.4371 162.881L80.2493 128.04C88.0109 126.839 98.8349 126.938 98.8349 126.938C99.0395 131.927 97.9373 138.105 90.7499 141.827C90.7499 141.827 92.0699 166.353 92.2415 173.507C92.3669 178.985 90.7763 192.924 90.0107 199.247C85.1729 205.372 81.2987 210.038 81.2987 210.038C81.2987 210.038 77.8403 209.952 73.6559 206.619Z" fill="black"/>
<path d="M86.8031 232.862L86.8493 231.76L87.9317 209.359L72.1709 213.319L75.6755 231.278L75.7943 232.209C75.7943 232.209 75.9593 236.776 83.0015 237.033C86.6051 237.145 86.8031 232.862 86.8031 232.862Z" fill="#FFBDA7"/>
<path d="M78.2891 253.282L83.7605 251.255L83.9321 246.055L78.3683 248.153L78.2891 253.282Z" fill="black"/>
<path d="M72.9695 241.625C72.7451 243.539 74.2895 250.865 74.2895 250.865L78.2495 253.274L78.3288 248.146C78.3288 248.146 79.431 249.09 80.5992 251.802C81.7014 254.363 83.2392 256.825 85.8132 258.118C88.3872 259.412 92.9082 259.947 96.723 259.438C99.4356 259.089 101.105 257.927 101.561 257.241C101.695 256.894 101.749 256.522 101.719 256.152L72.9695 241.625Z" fill="#263238"/>
<path d="M86.8487 231.758C87.6011 231.699 87.5087 232.418 88.4657 236.708C89.1257 239.922 90.6635 245.46 96.5045 249.11C98.9135 250.614 102.247 251.565 101.785 256.165C100.115 258.402 94.2935 258.99 90.8087 258.376C83.7665 257.135 82.7171 254.357 80.9549 250.212C79.5491 246.912 78.3149 246.542 76.4273 245.209C75.1799 244.331 73.4903 243.064 72.9953 241.625C72.9029 238.47 74.0975 236.411 74.5199 234.821C74.9423 233.23 74.6915 231.481 75.7013 231.25L75.8201 232.181C75.8201 232.181 76.7639 234.715 81.6611 234.821C86.5583 234.926 86.8289 232.874 86.8289 232.874L86.8487 231.758Z" fill="#37474F"/>
<path d="M101.363 112.682C101.363 112.682 102.623 120.932 99.9372 128.449C97.6008 134.983 93.1128 138.666 88.3938 140.197C88.3938 140.197 89.9646 169.534 90.3738 173.619C90.783 177.705 89.8194 192.502 88.9284 202.244C88.0374 211.985 87.78 215.318 87.78 215.318C87.78 215.318 85.701 217.509 79.86 217.622C74.019 217.734 72.1842 215.331 72.1842 215.331C72.1842 215.331 68.5014 204.072 68.3496 195.234C68.2572 190.172 69.3726 187.658 68.409 182.635C67.4454 177.612 60.3372 155.265 59.136 144.672C57.9348 134.079 59.7366 124.766 67.2738 113.916C75.3852 119.209 93.9774 117.882 101.363 112.682Z" fill="#263238"/>
<path d="M70.6198 115.554C66.5344 121.19 60.6472 132.819 64.825 149.464C66.013 154.203 67.1856 158.777 68.3428 163.186C71.029 173.535 73.1476 181.712 73.4314 184.827C73.5336 186.591 73.4474 188.361 73.174 190.107C72.5905 194.212 72.5905 198.378 73.174 202.482C73.9066 207.815 74.9692 213.412 75.7348 217.207C75.4906 217.141 75.2596 217.075 75.0748 217.002C74.3092 213.214 73.2862 207.762 72.5668 202.568C71.9751 198.409 71.9751 194.187 72.5668 190.028C72.8331 188.33 72.9172 186.609 72.8176 184.893C72.5404 181.824 70.4218 173.673 67.7488 163.351C66.6004 158.929 65.4124 154.355 64.2244 149.623C60.0202 132.852 65.8876 121.091 70.0324 115.303C70.1908 115.395 70.3888 115.501 70.6198 115.554Z" fill="black"/>
<path d="M127.433 106.781C129.835 108.273 131.756 108.101 133.663 108.55C136.085 109.111 137.993 110.306 141.273 111.817C141.84 112.075 142.395 112.345 142.956 112.609C143.222 112.751 143.498 112.875 143.781 112.979C144.045 113.065 144.269 113.15 144.263 113.507C144.234 113.76 144.115 113.995 143.926 114.167C143.613 114.449 143.245 114.662 142.845 114.794C142.445 114.926 142.022 114.973 141.603 114.932C140.768 114.841 139.942 114.68 139.134 114.451C138.507 114.312 138.804 114.979 138.989 115.276C139.907 116.728 144.527 117.856 146.031 118.615C146.691 118.958 147.622 118.952 147.754 119.856C147.771 120.161 147.815 120.463 147.886 120.76C148.023 121.053 148.196 121.328 148.401 121.579C148.689 121.957 148.836 122.424 148.817 122.899C148.8 123.139 148.713 123.369 148.566 123.561C148.419 123.752 148.22 123.896 147.992 123.974C147.622 124.073 147.213 123.974 146.87 124.12C146.716 124.211 146.568 124.312 146.427 124.423C145.767 124.865 144.896 124.634 144.098 124.608C143.438 124.608 142.778 124.799 142.118 124.806C141.384 124.843 140.649 124.821 139.92 124.74C138.262 124.458 136.635 124.015 135.062 123.42C133 122.505 131.137 121.196 129.578 119.566C128.357 118.13 126.792 117.026 125.03 116.358C122.067 115.038 110.636 110.649 106.603 107.745C105.138 106.689 104.405 105.554 99.739 100.756C92.809 93.6342 90.6376 90.6774 90.6376 90.6774L85.6348 74.0586C91.3966 74.2368 93.898 73.755 98.2276 78.4278C104.293 84.9684 113.408 96.2478 113.408 96.2478C113.408 96.2478 125.4 105.521 127.433 106.781Z" fill="#FFBDA7"/>
<path d="M137.193 114.841C134.975 116.431 131.458 115.553 129.999 114.695C129.999 114.695 131.926 116.497 133.787 116.497C135.833 116.491 136.619 115.778 137.193 114.841Z" fill="#F0997A"/>
<path d="M156.775 205.035L177.895 226.815C178.028 226.956 178.202 227.051 178.393 227.087C178.583 227.123 178.78 227.098 178.955 227.015C179.13 226.932 179.274 226.796 179.367 226.626C179.46 226.456 179.497 226.261 179.473 226.069L175.962 195.709L156.775 205.035Z" fill="#FFA8A7"/>
<path d="M179.473 226.095C179.497 226.287 179.461 226.482 179.368 226.652C179.275 226.822 179.13 226.958 178.955 227.041C178.78 227.124 178.583 227.149 178.393 227.113C178.202 227.077 178.028 226.982 177.896 226.841L173.771 222.584C174.709 222.635 175.644 222.426 176.472 221.98C177.3 221.534 177.989 220.868 178.463 220.056L178.721 219.607L179.473 226.095Z" fill="#455A64"/>
<path d="M116.021 68.9902L117.222 71.5312L118.681 74.5936L175.969 195.763C175.025 199.063 172.556 201.65 169.639 203.399C165.204 206.072 159.739 206.792 156.789 205.029L99.5406 83.9194L96.7686 78.0586C98.775 81.7546 117.981 72.7258 116.021 68.9902Z" fill="#455A64"/>
<path d="M120.627 78.6445L123.267 84.3205C124.092 85.9441 121.082 88.6501 117.215 90.9205C112.073 93.9499 105.058 95.4679 103.955 93.3229L101.975 89.1451L101.315 87.6337C102.424 89.7787 109.44 88.2937 114.575 85.2379C118.284 83.0533 121.175 80.4463 120.68 78.8227C120.676 78.7601 120.658 78.6992 120.627 78.6445Z" fill="#EBEBEB"/>
<path d="M121.281 80.0705C123.215 83.8259 103.917 92.8283 101.983 89.0663L99.29 83.3969C101.224 87.1523 120.516 78.1169 118.582 74.3945L121.281 80.0705Z" fill="#EC5F65"/>
<path d="M116.021 68.9902L118.661 74.5936C120.588 78.2698 102.042 87.1336 99.5208 83.9194C99.4648 83.8609 99.4181 83.7941 99.3822 83.7214L96.7422 78.0586C98.775 81.7546 117.981 72.7258 116.021 68.9902Z" fill="#EBEBEB"/>
<path opacity="0.1" d="M99.5406 83.9196L96.7686 78.0588C97.6728 79.7286 102.207 79.161 106.669 77.2734L166.933 204.792L177.922 226.843L156.802 205.063L99.5406 83.9196Z" fill="black"/>
<path d="M85.291 53.8036C85.291 53.7442 85.2118 53.6848 85.1788 53.6188C84.0238 51.1504 87.3964 47.1244 92.716 44.6296C98.0356 42.1348 103.276 42.1084 104.444 44.5636L116.014 68.9836C116.852 70.5808 113.889 73.2802 110.074 75.5836C104.946 78.6328 97.9168 80.2036 96.775 78.0784L85.4494 54.1798C85.3966 54.0742 85.3504 53.9686 85.3042 53.8564C85.258 53.7442 85.2976 53.8234 85.291 53.8036Z" fill="#F28F8F"/>
<path opacity="0.1" d="M91.5872 45.1973L106.648 77.2733C102.24 79.1081 97.6724 79.7351 96.7484 78.0587L85.4492 54.1799C85.3964 54.0743 85.3502 53.9687 85.304 53.8565C85.2578 53.7443 85.304 53.8565 85.304 53.8037C85.304 53.7509 85.2248 53.6849 85.1918 53.6189C84.1028 51.3353 86.9342 47.7053 91.5872 45.1973Z" fill="black"/>
<path d="M85.1788 53.619C86.3404 56.0874 91.5874 56.061 96.9136 53.5662C102.24 51.0714 105.599 47.0388 104.451 44.5704C103.302 42.102 98.0356 42.1284 92.716 44.6298C87.3964 47.1312 84.0238 51.1506 85.1788 53.619Z" fill="#FFA8A7"/>
<path d="M59.5381 99.8379C59.5381 99.8379 62.6467 98.3331 63.4981 91.5813C63.8809 88.5123 62.8381 84.5127 61.5181 79.8993L70.3423 76.0581C70.3423 76.0581 73.2595 75.2529 79.6945 74.0781H85.6345C85.6345 74.0781 96.3925 78.6189 100.768 84.3543C103.151 87.4827 105.626 94.1553 101.428 99.2241C101.752 103.765 101.811 113.018 101.811 113.018C101.811 113.018 99.3427 117.493 87.4825 118.846C70.4677 120.826 65.7025 114.589 65.7025 114.589C65.4187 109.738 61.3333 104.517 59.5381 99.8379Z" fill="#EC5F65"/>
<path opacity="0.2" d="M59.5381 99.8379C59.5381 99.8379 62.6467 98.3331 63.4981 91.5813C63.8809 88.5123 62.8381 84.5127 61.5181 79.8993L70.3423 76.0581C70.3423 76.0581 73.2595 75.2529 79.6945 74.0781H85.6345C85.6345 74.0781 96.3925 78.6189 100.768 84.3543C103.151 87.4827 105.626 94.1553 101.428 99.2241C101.752 103.765 101.811 113.018 101.811 113.018C101.811 113.018 99.3427 117.493 87.4825 118.846C70.4677 120.826 65.7025 114.589 65.7025 114.589C65.4187 109.738 61.3333 104.517 59.5381 99.8379Z" fill="white"/>
<path d="M88.8224 100.828C88.8224 100.828 86.3606 104.986 79.7804 104.827C73.2002 104.669 71.2334 99.9961 71.2334 99.9961C71.2334 99.9961 71.7416 106.299 79.6088 106.457C87.3572 106.609 88.8224 100.828 88.8224 100.828Z" fill="#EC5F65"/>
<path d="M64.7653 42.1342C65.7066 40.9999 66.9852 40.1953 68.4151 39.8374C69.7879 39.5008 70.6261 39.5206 71.9329 38.986C73.2397 38.4514 74.2429 37.6132 75.4837 37.0918C78.2095 35.9434 81.4897 36.6562 83.8327 38.458C84.8689 39.2566 85.8127 40.2928 87.1327 40.4842C87.7763 40.5336 88.4228 40.5336 89.0665 40.4842C90.0889 40.54 91.0816 40.8484 91.9558 41.3816C92.8299 41.9149 93.5583 42.6564 94.0759 43.54C94.8864 44.9224 95.3737 46.4702 95.5015 48.0676C95.6599 49.645 95.1121 51.1168 95.2111 52.6876C95.3865 53.8282 95.9071 54.8877 96.7027 55.7236C97.6728 56.7414 98.4192 57.9509 98.8939 59.2744C99.3029 60.4084 99.4231 61.6265 99.2437 62.8186C99.1449 63.4117 98.8984 63.9704 98.5271 64.4433C98.1557 64.9162 97.6713 65.288 97.1185 65.5246C97.327 64.9637 97.394 64.3601 97.3134 63.7672C97.2328 63.1743 97.0072 62.6104 96.6565 62.1256C96.7654 62.6596 96.7672 63.21 96.6618 63.7447C96.5565 64.2795 96.346 64.788 96.0427 65.2408C95.429 66.1427 94.6496 66.9199 93.7459 67.531C91.7674 69.0615 89.3614 69.938 86.8621 70.039C84.2221 70.039 81.5821 69.148 79.0213 69.8278C78.3112 70.0443 77.6128 70.2976 76.9291 70.5868C75.7406 71.0411 74.5088 71.3729 73.2529 71.5768C72.0517 71.7748 70.8307 71.6824 69.6427 71.854C67.6771 72.1407 65.6762 71.6687 64.0459 70.534C63.0027 69.7191 62.157 68.6792 61.5719 67.4918C60.9867 66.3044 60.6773 65.0003 60.6667 63.6766C60.2266 64.2524 59.9506 64.9366 59.8681 65.6566C59.288 64.9584 58.883 64.1319 58.6867 63.2457C58.4904 62.3595 58.5085 61.4392 58.7395 60.5614C59.1025 59.1952 59.9737 57.9742 60.0595 56.5684C60.1453 55.3474 59.6437 54.1726 59.5117 52.9582C59.3967 51.5366 59.7741 50.1187 60.5804 48.9423C61.3867 47.7659 62.573 46.9024 63.9403 46.4968C63.7806 45.7513 63.7713 44.9814 63.913 44.2323C64.0546 43.4832 64.3444 42.7699 64.7653 42.1342Z" fill="#263238"/>
<path d="M64.7979 57.4189C66.4611 56.7193 67.9065 57.3001 68.8701 59.0359C69.7017 60.5473 71.3385 59.9467 70.8501 57.5707C74.5131 53.8351 70.0317 51.6835 73.0413 48.0931C74.9157 45.8557 79.0935 46.2979 80.8029 47.6047C81.2302 46.7933 81.9188 46.1498 82.7572 45.7785C83.5957 45.4072 84.535 45.3297 85.4229 45.5587C87.1917 46.1131 88.3335 47.1163 89.2575 49.5187C90.2145 52.0135 89.3235 52.5217 89.8119 54.2905C90.3518 55.4937 90.7099 56.7704 90.8745 58.0789C91.2969 66.4279 89.6337 68.5927 87.8319 70.0315C86.5977 71.0149 85.0005 71.5693 82.2483 71.6881L82.5057 75.3247C84.798 78.103 86.2415 81.4827 86.6637 85.0597C78.7437 83.0269 74.5857 80.3407 69.9327 76.8361L69.1407 64.7317C68.7843 65.6953 66.8769 66.8041 64.8705 65.2729C62.3361 63.3589 61.8609 58.6597 64.7979 57.4189Z" fill="#FFBDA7"/>
<path d="M88.4392 53.3076L85.7266 52.3044C85.782 52.124 85.8738 51.9569 85.9964 51.8135C86.1189 51.67 86.2696 51.5532 86.4391 51.4703C86.6086 51.3874 86.7933 51.3402 86.9818 51.3315C87.1703 51.3229 87.3586 51.353 87.535 51.42C87.8971 51.5611 88.192 51.8347 88.3599 52.1852C88.5278 52.5357 88.5562 52.9369 88.4392 53.3076Z" fill="#263238"/>
<path d="M77.8331 52.6291L75.3449 54.1207C75.2377 53.963 75.1643 53.7848 75.1292 53.5974C75.0941 53.4099 75.098 53.2173 75.1407 53.0314C75.1835 52.8456 75.2641 52.6705 75.3776 52.5173C75.4911 52.364 75.635 52.2358 75.8003 52.1407C76.1375 51.9478 76.5357 51.8909 76.9136 51.9816C77.2914 52.0724 77.6203 52.304 77.8331 52.6291Z" fill="#263238"/>
<path d="M79.305 62.5742L83.3508 63.8282C83.2618 64.1094 83.1152 64.3691 82.9204 64.5905C82.7256 64.812 82.4868 64.9905 82.2192 65.1147C81.9516 65.2389 81.6612 65.306 81.3662 65.3117C81.0713 65.3175 80.7784 65.2618 80.5062 65.1482C80.256 65.0613 80.0258 64.9251 79.8292 64.7477C79.6326 64.5702 79.4735 64.3551 79.3615 64.1151C79.2495 63.8751 79.1868 63.6151 79.1771 63.3504C79.1674 63.0857 79.2109 62.8218 79.305 62.5742Z" fill="#B16668"/>
<path d="M81.674 65.2607C81.607 64.7137 81.3386 64.2113 80.9214 63.8514C80.5041 63.4915 79.9677 63.2998 79.4168 63.3137C79.3488 63.3069 79.2803 63.3069 79.2122 63.3137C79.2048 63.7187 79.3297 64.115 79.5679 64.4426C79.8061 64.7701 80.1447 65.011 80.5322 65.1287C80.8965 65.2647 81.2884 65.31 81.674 65.2607Z" fill="#F28F8F"/>
<path d="M81.7734 54.0078L82.6578 61.4724L86.7432 59.9346L81.7734 54.0078Z" fill="#F0997A"/>
<path d="M77.5096 57.4586C78.1766 57.4586 78.7174 56.9178 78.7174 56.2508C78.7174 55.5837 78.1766 55.043 77.5096 55.043C76.8425 55.043 76.3018 55.5837 76.3018 56.2508C76.3018 56.9178 76.8425 57.4586 77.5096 57.4586Z" fill="#263238"/>
<path d="M86.9217 56.9312C87.5887 56.9312 88.1295 56.3905 88.1295 55.7234C88.1295 55.0564 87.5887 54.5156 86.9217 54.5156C86.2546 54.5156 85.7139 55.0564 85.7139 55.7234C85.7139 56.3905 86.2546 56.9312 86.9217 56.9312Z" fill="#263238"/>
<path d="M82.2487 71.6815C79.5625 71.6089 74.9887 71.6089 72.7051 68.6719C72.7051 68.6719 73.0549 70.4539 75.8269 71.7607C77.8069 72.6781 82.3279 72.9421 82.3279 72.9421L82.2487 71.6815Z" fill="#F0997A"/>
<path d="M121.697 112.621C121.459 113.083 120.898 113.281 120.707 113.717C120.657 113.956 120.657 114.203 120.707 114.443C120.722 114.778 120.666 115.112 120.54 115.423C120.415 115.734 120.224 116.014 119.981 116.245C119.814 116.369 119.666 116.516 119.538 116.68C119.439 116.87 119.372 117.075 119.34 117.287C119.076 118.215 118.541 119.042 117.803 119.663C117.492 119.927 117.143 120.191 116.826 120.429C115.973 121.052 115.029 121.54 114.027 121.874C111.63 122.51 109.162 122.839 106.682 122.851C104.042 122.851 101.619 122.191 97.4813 122.429C91.4357 122.752 78.8495 122.996 74.7245 122.917C70.5995 122.838 68.8241 122.495 66.2963 117.347C64.2701 113.235 63.6233 111.981 59.5445 102.682C54.1853 90.4188 54.1985 83.2578 61.5245 79.8984C65.4845 81.0666 68.1905 85.8384 70.1969 90.9402C72.5399 96.8274 77.9519 109.684 77.9519 109.684C77.9519 109.684 96.5969 111.611 99.8375 111.46C102.88 111.308 105.659 110.001 108.49 109.018C109.335 108.721 110.14 108.358 110.972 108.061L112.212 110.701C111.992 111.016 111.73 111.3 111.434 111.545C111.064 111.862 110.193 112.529 110.774 113.017C111.354 113.506 112.338 113.248 113.268 112.964C113.869 112.78 114.417 112.555 114.767 112.443C116.197 111.893 117.666 111.452 119.162 111.123C119.532 111.024 119.918 110.999 120.298 111.05C120.677 111.101 121.043 111.227 121.373 111.42C121.477 111.474 121.568 111.549 121.642 111.64C121.715 111.731 121.768 111.837 121.799 111.95C121.829 112.063 121.836 112.181 121.818 112.296C121.801 112.412 121.759 112.522 121.697 112.621Z" fill="#FFBDA7"/>
<path d="M112.199 110.701C111.956 111.138 111.646 111.534 111.282 111.876C110.945 112.199 110.622 112.668 110.912 112.787C111.572 113.222 112.687 112.787 113.446 112.556C115.314 111.955 117.195 111.236 119.169 111.143C117.294 111.744 115.519 112.562 113.644 113.183C112.918 113.473 112.135 113.595 111.354 113.539C110.694 113.486 110.034 112.84 110.503 112.186C110.971 111.533 111.704 111.302 112.199 110.701Z" fill="#F0997A"/>
<path d="M77.9385 109.685C83.4561 109.975 89.2179 110.51 94.7157 110.892C96.1149 110.998 97.5075 111.11 98.9001 111.156C101.685 111.275 104.358 110.298 106.965 109.394L110.958 108.074C107.064 109.632 103.19 111.83 98.8869 111.77C91.8731 111.44 84.8811 110.748 77.9385 109.698V109.685Z" fill="#F0997A"/>
<path d="M172.715 228.576C167.19 225.567 160.577 224.992 154.373 226.009C148.169 227.025 142.308 229.533 136.718 232.404C134.553 233.52 132.098 234.721 129.795 233.968C127.491 233.216 126.066 230.464 126.284 227.969C126.501 225.474 127.953 223.243 129.683 221.435C136.025 214.802 146.453 212.373 155.165 215.264C162.848 217.805 168.504 222.834 172.715 228.576Z" fill="#EC5F65"/>
<path opacity="0.6" d="M172.715 228.576C167.19 225.567 160.577 224.992 154.373 226.009C148.169 227.025 142.308 229.533 136.718 232.404C134.553 233.52 132.098 234.721 129.795 233.968C127.491 233.216 126.066 230.464 126.284 227.969C126.501 225.474 127.953 223.243 129.683 221.435C136.025 214.802 146.453 212.373 155.165 215.264C162.848 217.805 168.504 222.834 172.715 228.576Z" fill="white"/>
<path d="M136.659 210.13C137.856 209.893 139.078 209.807 140.296 209.873C140.85 209.906 141.378 210.025 141.933 210.104C142.522 210.183 143.105 210.309 143.675 210.48C143.467 210.161 143.219 209.871 142.936 209.616C142.136 208.8 141.214 208.114 140.203 207.583C136.981 205.852 133.435 204.809 129.789 204.52C127.373 204.333 124.943 204.497 122.575 205.009C119.453 205.669 116.252 207.147 114.655 209.939C113.922 211.259 113.612 212.896 114.312 214.216C114.605 214.716 115.002 215.149 115.475 215.484C115.949 215.82 116.488 216.051 117.057 216.163C118.196 216.379 119.366 216.356 120.496 216.097C123.321 215.549 125.961 214.328 128.568 213.114C131.175 211.899 133.834 210.678 136.659 210.13Z" fill="#EC5F65"/>
<path opacity="0.35" d="M136.659 210.13C137.856 209.893 139.078 209.807 140.296 209.873C140.85 209.906 141.378 210.025 141.933 210.104C142.522 210.183 143.105 210.309 143.675 210.48C143.467 210.161 143.219 209.871 142.936 209.616C142.136 208.8 141.214 208.114 140.203 207.583C136.981 205.852 133.435 204.809 129.789 204.52C127.373 204.333 124.943 204.497 122.575 205.009C119.453 205.669 116.252 207.147 114.655 209.939C113.922 211.259 113.612 212.896 114.312 214.216C114.605 214.716 115.002 215.149 115.475 215.484C115.949 215.82 116.488 216.051 117.057 216.163C118.196 216.379 119.366 216.356 120.496 216.097C123.321 215.549 125.961 214.328 128.568 213.114C131.175 211.899 133.834 210.678 136.659 210.13Z" fill="white"/>
<path d="M134.713 198.823C139.623 203.384 145.213 206.156 151.364 208.525C147.833 204.777 145.556 200.196 143.761 195.418C141.966 190.639 141.425 185.518 140.54 180.482C140.045 177.637 139.121 174.773 137.194 172.628C135.267 170.483 132.172 169.209 129.419 170.067C127.01 170.826 125.281 173.083 124.634 175.525C124.092 178.004 124.188 180.579 124.912 183.01C126.482 189.161 130.066 194.5 134.713 198.823Z" fill="#EC5F65"/>
<g opacity="0.2">
<path d="M134.713 198.823C139.623 203.384 145.213 206.156 151.364 208.525C147.833 204.777 145.556 200.196 143.761 195.418C141.966 190.639 141.425 185.518 140.54 180.482C140.045 177.637 139.121 174.773 137.194 172.628C135.267 170.483 132.172 169.209 129.419 170.067C127.01 170.826 125.281 173.083 124.634 175.525C124.092 178.004 124.188 180.579 124.912 183.01C126.482 189.161 130.066 194.5 134.713 198.823Z" fill="white"/>
</g>
<path d="M128.996 168.393C127.683 168.896 126.502 169.693 125.544 170.723C124.585 171.752 123.874 172.987 123.465 174.333C123.327 174.814 123.122 175.402 122.627 175.474C122.132 175.547 121.703 174.88 121.624 174.313C121.03 169.884 125.775 168.459 128.996 168.393Z" fill="#EC5F65"/>
<path d="M196.832 206.638C190.944 210.934 185.183 216.907 183.15 224.121C181.11 212.406 184.833 199.457 191.354 189.716C197.637 180.324 209.306 171.638 221.166 176.469C224.189 177.697 226.736 180.429 227.033 183.729C227.297 186.607 225.799 189.412 223.733 191.405C221.667 193.398 219.014 194.705 216.414 195.959C209.688 199.16 202.844 202.242 196.832 206.638Z" fill="#EC5F65"/>
<path opacity="0.35" d="M196.832 206.638C190.944 210.934 185.183 216.907 183.15 224.121C181.11 212.406 184.833 199.457 191.354 189.716C197.637 180.324 209.306 171.638 221.166 176.469C224.189 177.697 226.736 180.429 227.033 183.729C227.297 186.607 225.799 189.412 223.733 191.405C221.667 193.398 219.014 194.705 216.414 195.959C209.688 199.16 202.844 202.242 196.832 206.638Z" fill="white"/>
<path d="M174.358 163.574C174.655 168.537 177.038 174.47 178.351 178.318C180.331 184.093 182.179 190.317 180.602 196.217C184.773 190.838 188.726 184.694 190.574 178.094C192.508 171.157 192.29 163.25 186.997 157.759C183.545 154.182 176.378 153.918 174.728 159.475C174.371 160.81 174.246 162.196 174.358 163.574Z" fill="#EC5F65"/>
<path opacity="0.6" d="M174.358 163.574C174.655 168.537 177.038 174.47 178.351 178.318C180.331 184.093 182.179 190.317 180.602 196.217C184.773 190.838 188.726 184.694 190.574 178.094C192.508 171.157 192.29 163.25 186.997 157.759C183.545 154.182 176.378 153.918 174.728 159.475C174.371 160.81 174.246 162.196 174.358 163.574Z" fill="white"/>
<path d="M217.932 169.494C216.161 169.148 214.328 169.32 212.652 169.989C210.765 170.779 209.194 172.171 208.184 173.949C209.959 172.933 212.744 172.055 217.371 172.715C221.806 173.342 224.446 175.434 225.383 176.576C225.304 174.365 223.542 172.022 221.648 170.887C220.501 170.207 219.243 169.736 217.932 169.494Z" fill="#EC5F65"/>
<path d="M252.325 182.821L253.42 178.927C252.939 176.696 262.047 181.956 262.528 184.207L259.591 192.127C259.49 192.364 259.317 192.565 259.096 192.701C258.436 193.097 254.107 195.565 253.896 195.691C253.731 195.791 253.547 195.852 253.355 195.871C253.164 195.889 252.971 195.864 252.791 195.798C252.61 195.731 252.447 195.625 252.314 195.486C252.181 195.347 252.081 195.18 252.021 194.998L248.22 181.956C247.982 180.841 250.081 181.547 252.325 182.821Z" fill="#37474F"/>
<path d="M241.923 128.595L276.54 148.573C276.881 148.795 277.165 149.094 277.368 149.446C277.571 149.798 277.687 150.193 277.708 150.599V191.632C277.682 192.031 277.561 192.418 277.357 192.762C277.153 193.106 276.871 193.397 276.533 193.612L272.428 196.021C272.063 196.202 271.661 196.296 271.253 196.296C270.846 196.296 270.444 196.202 270.079 196.021L235.448 176.042C235.108 175.821 234.824 175.522 234.621 175.17C234.418 174.817 234.301 174.422 234.28 174.016V132.938C234.303 132.532 234.421 132.138 234.625 131.787C234.829 131.436 235.114 131.138 235.455 130.918L239.573 128.582C239.94 128.402 240.342 128.31 240.75 128.313C241.157 128.315 241.559 128.411 241.923 128.595Z" fill="#37474F"/>
<path d="M235.448 132.259L270.078 152.237C270.419 152.459 270.703 152.758 270.907 153.11C271.111 153.462 271.23 153.857 271.253 154.263V195.302C271.253 196.048 270.725 196.352 270.078 195.962L256.825 188.319L254.39 195.071C254.287 195.308 254.115 195.507 253.896 195.643C253.677 195.779 253.422 195.845 253.164 195.832C252.907 195.819 252.659 195.728 252.455 195.571C252.251 195.414 252.099 195.198 252.021 194.952L248.82 183.693L235.481 175.997C235.14 175.776 234.856 175.477 234.653 175.124C234.45 174.772 234.334 174.377 234.313 173.971V132.939C234.3 132.193 234.801 131.889 235.448 132.259Z" fill="#FAFAFA"/>
<path d="M234.96 132.661C235.044 132.667 235.126 132.694 235.197 132.74L269.828 152.718C270.084 152.887 270.297 153.114 270.45 153.379C270.604 153.645 270.693 153.943 270.712 154.249V195.288C270.712 195.466 270.666 195.539 270.633 195.552C270.547 195.545 270.465 195.515 270.395 195.466L257.109 187.837L256.522 187.493L256.291 188.153L253.862 194.885C253.808 195.02 253.714 195.135 253.592 195.214C253.47 195.292 253.326 195.331 253.181 195.325C253.036 195.318 252.897 195.267 252.782 195.177C252.668 195.088 252.584 194.965 252.542 194.826L249.308 183.553L249.242 183.329L249.044 183.217L235.706 175.521C235.452 175.35 235.24 175.123 235.087 174.857C234.934 174.592 234.843 174.295 234.821 173.99V132.938C234.821 132.76 234.868 132.68 234.881 132.674M234.881 132.1C234.498 132.1 234.221 132.41 234.221 132.938V173.97C234.242 174.376 234.358 174.771 234.561 175.123C234.764 175.476 235.048 175.775 235.389 175.996L248.82 183.692L252.054 194.965C252.134 195.223 252.296 195.448 252.515 195.606C252.734 195.764 252.998 195.847 253.268 195.842C253.515 195.846 253.756 195.775 253.962 195.64C254.168 195.504 254.328 195.311 254.423 195.083L256.859 188.332L270.112 195.974C270.27 196.069 270.449 196.124 270.633 196.133C271.022 196.133 271.293 195.829 271.293 195.301V154.262C271.27 153.856 271.151 153.461 270.947 153.109C270.743 152.757 270.459 152.458 270.118 152.236L235.488 132.258C235.331 132.161 235.151 132.106 234.967 132.1H234.881Z" fill="#37474F"/>
<path d="M234.3 132.727C234.392 132.133 234.874 131.921 235.461 132.258L270.085 152.236C270.43 152.454 270.714 152.756 270.91 153.114L277.365 149.405C277.166 149.06 276.882 148.771 276.54 148.567L241.91 128.588C241.545 128.407 241.142 128.312 240.735 128.312C240.327 128.312 239.925 128.407 239.56 128.588L235.442 130.925C235.136 131.129 234.877 131.395 234.681 131.705C234.484 132.015 234.354 132.363 234.3 132.727Z" fill="#455A64"/>
<path d="M242.761 145.326V155.332L243.672 155.84V152.685C243.672 150.982 245.058 150.402 246.76 151.365L251.011 153.814V171.865C251.011 173.845 249.803 174.736 248.311 173.878L245.671 172.34V173.429L260.112 181.765V180.709L257.472 179.171C255.981 178.313 254.773 176.016 254.773 174.043V155.992L259.023 158.447C260.733 159.43 262.112 161.608 262.112 163.311V166.466L263.023 167.007V157.002L242.761 145.326Z" fill="#455A64"/>
</svg>
