<svg width="330" height="330" viewBox="0 0 330 330" fill="none" xmlns="http://www.w3.org/2000/svg">
<path d="M330 252.385H0V252.55H330V252.385Z" fill="#EBEBEB"/>
<path d="M296.934 263.004H275.075V263.169H296.934V263.004Z" fill="#EBEBEB"/>
<path d="M218.605 264.799H212.87V264.964H218.605V264.799Z" fill="#EBEBEB"/>
<path d="M274.415 256.879H261.75V257.044H274.415V256.879Z" fill="#EBEBEB"/>
<path d="M63.1289 257.988H34.6235V258.153H63.1289V257.988Z" fill="#EBEBEB"/>
<path d="M73.1876 257.988H69.0098V258.153H73.1876V257.988Z" fill="#EBEBEB"/>
<path d="M148.599 260.773H86.77V260.938H148.599V260.773Z" fill="#EBEBEB"/>
<path d="M156.42 222.949H28.9808C27.9824 222.947 27.0255 222.549 26.3202 221.843C25.6149 221.136 25.2187 220.179 25.2188 219.18V40.0364C25.2274 39.0438 25.6274 38.0946 26.3318 37.3952C27.0362 36.6958 27.9881 36.3025 28.9808 36.3008H156.42C157.42 36.3008 158.378 36.6978 159.085 37.4046C159.792 38.1113 160.189 39.0699 160.189 40.0694V219.18C160.189 220.18 159.792 221.138 159.085 221.845C158.378 222.552 157.42 222.949 156.42 222.949ZM28.9808 36.4328C28.0262 36.4345 27.1113 36.815 26.4369 37.4906C25.7625 38.1662 25.3837 39.0818 25.3838 40.0364V219.18C25.3837 220.135 25.7625 221.05 26.4369 221.726C27.1113 222.402 28.0262 222.782 28.9808 222.784H156.42C157.375 222.782 158.291 222.402 158.966 221.726C159.642 221.051 160.022 220.135 160.024 219.18V40.0364C160.022 39.0812 159.642 38.1656 158.966 37.4902C158.291 36.8147 157.375 36.4345 156.42 36.4328H28.9808Z" fill="#EBEBEB"/>
<path d="M299.185 222.949H171.739C170.74 222.947 169.782 222.549 169.076 221.843C168.37 221.137 167.972 220.179 167.97 219.18V40.0364C167.981 39.0432 168.382 38.0941 169.088 37.3948C169.793 36.6955 170.746 36.3025 171.739 36.3008H299.185C300.176 36.3042 301.127 36.6983 301.83 37.3975C302.532 38.0968 302.932 39.0449 302.94 40.0364V219.18C302.94 220.177 302.545 221.134 301.841 221.84C301.137 222.547 300.182 222.945 299.185 222.949ZM171.739 36.4328C170.784 36.4345 169.868 36.8147 169.193 37.4902C168.517 38.1656 168.137 39.0812 168.135 40.0364V219.18C168.137 220.135 168.517 221.051 169.193 221.726C169.868 222.402 170.784 222.782 171.739 222.784H299.185C300.14 222.782 301.056 222.402 301.731 221.726C302.406 221.051 302.787 220.135 302.788 219.18V40.0364C302.787 39.0812 302.406 38.1656 301.731 37.4902C301.056 36.8147 300.14 36.4345 299.185 36.4328H171.739Z" fill="#EBEBEB"/>
<path d="M78.5005 210.139V219.511L74.5405 222.388H93.0205L87.1201 220.197V210.792L78.5005 210.139Z" fill="#E0E0E0"/>
<path d="M45.8501 222.117V251.639H128.35V222.117H45.8501ZM126.865 233.68H62.2907V224.031H126.865V233.68Z" fill="#E0E0E0"/>
<path d="M60.3042 222.117V251.639H128.35V222.117H60.3042ZM126.865 233.68H62.2908V224.031H126.865V233.68Z" fill="#EBEBEB"/>
<path d="M126.865 224.031H113.553V233.68H126.865V224.031Z" fill="#E0E0E0"/>
<path d="M78.758 228.855H62.291V233.68H78.758V228.855Z" fill="#E0E0E0"/>
<path d="M92.367 230.809H79.9722V233.673H92.367V230.809Z" fill="#E0E0E0"/>
<path d="M107.039 227.82H95.2314V233.681H107.039V227.82Z" fill="#E0E0E0"/>
<path d="M73.9928 235.779L73.643 236.934H68.9042L68.5478 235.779H62.291V248.59H83.0612V235.779H73.9928Z" fill="#E0E0E0"/>
<path d="M98.6765 235.779L98.3201 236.934H93.5813L93.2249 235.779H84.1631V248.59H104.933V235.779H98.6765Z" fill="#E0E0E0"/>
<path d="M117.737 235.779L117.388 236.934H112.649L112.292 235.779H106.036V248.59H126.806V235.779H117.737Z" fill="#E0E0E0"/>
<path d="M116.285 175.838H54.9118C53.6251 175.838 52.582 176.881 52.582 178.168V213.405C52.582 214.692 53.6251 215.735 54.9118 215.735H116.285C117.572 215.735 118.615 214.692 118.615 213.405V178.168C118.615 176.881 117.572 175.838 116.285 175.838Z" fill="#E0E0E0"/>
<path d="M117.836 175.838H56.4631C55.1764 175.838 54.1333 176.881 54.1333 178.168V213.405C54.1333 214.692 55.1764 215.735 56.4631 215.735H117.836C119.123 215.735 120.166 214.692 120.166 213.405V178.168C120.166 176.881 119.123 175.838 117.836 175.838Z" fill="#E6E6E6"/>
<path d="M118.226 213.802V177.779H56.0734V213.802H118.226Z" fill="#F0F0F0"/>
<path d="M205.174 172.379H264.27C265.795 172.378 267.304 172.678 268.713 173.26C270.121 173.843 271.401 174.697 272.479 175.775C273.557 176.852 274.413 178.132 274.996 179.54C275.58 180.948 275.88 182.457 275.88 183.982V230.129H193.571V183.982C193.571 180.904 194.794 177.953 196.97 175.777C199.146 173.601 202.097 172.379 205.174 172.379Z" fill="#E6E6E6"/>
<path d="M176.101 206.58H186.661C188.49 206.58 190.245 207.307 191.538 208.6C192.831 209.894 193.558 211.648 193.558 213.477V251.638H169.204V213.477C169.204 211.648 169.931 209.894 171.224 208.6C172.518 207.307 174.272 206.58 176.101 206.58Z" fill="#E0E0E0"/>
<path d="M176.101 206.58H176.319C178.148 206.58 179.902 207.307 181.196 208.6C182.489 209.894 183.216 211.648 183.216 213.477V251.638H169.204V213.477C169.204 211.648 169.931 209.894 171.224 208.6C172.518 207.307 174.272 206.58 176.101 206.58Z" fill="#EBEBEB"/>
<path d="M267.267 234.109H186.166V251.639H267.267V234.109Z" fill="#E6E6E6"/>
<path d="M264.271 218.078H186.054C182.183 218.078 179.045 221.216 179.045 225.087V229.463C179.045 233.334 182.183 236.472 186.054 236.472H264.271C268.142 236.472 271.28 233.334 271.28 229.463V225.087C271.28 221.216 268.142 218.078 264.271 218.078Z" fill="#F5F5F5"/>
<path d="M264.145 218.078H254.436C250.565 218.078 247.427 221.216 247.427 225.087V229.463C247.427 233.334 250.565 236.472 254.436 236.472H264.145C268.016 236.472 271.154 233.334 271.154 229.463V225.087C271.154 221.216 268.016 218.078 264.145 218.078Z" fill="#E0E0E0"/>
<path d="M265.181 206.58H275.741C277.57 206.58 279.325 207.307 280.618 208.6C281.912 209.894 282.638 211.648 282.638 213.477V251.638H258.284V213.477C258.284 212.571 258.463 211.674 258.809 210.838C259.156 210.001 259.664 209.241 260.304 208.6C260.945 207.96 261.705 207.452 262.542 207.105C263.379 206.758 264.275 206.58 265.181 206.58Z" fill="#E0E0E0"/>
<path d="M265.181 206.58H265.406C267.235 206.58 268.989 207.307 270.282 208.6C271.576 209.894 272.303 211.648 272.303 213.477V251.638H258.284V213.477C258.284 212.571 258.463 211.674 258.809 210.838C259.156 210.001 259.664 209.241 260.304 208.6C260.945 207.96 261.705 207.452 262.542 207.105C263.379 206.758 264.275 206.58 265.181 206.58Z" fill="#F0F0F0"/>
<path d="M202.006 151.115H280.302V70.2124L202.006 70.2124V151.115Z" fill="#EBEBEB"/>
<path d="M199.267 151.115H277.563V70.2124L199.267 70.2124V151.115Z" fill="#F0F0F0"/>
<path d="M275.59 72.125H201.34V149.233H275.59V72.125Z" fill="#E0E0E0"/>
<path d="M275.59 72.125H203.194V149.233H275.59V72.125Z" fill="#F5F5F5"/>
<path d="M238.643 149.24H240.115V72.1324H238.643V149.24Z" fill="#EBEBEB"/>
<path d="M230.208 72.125L209.576 149.233H207.596L228.228 72.125H230.208Z" fill="white"/>
<path d="M238.016 150.711H239.276V70.9367H238.016V150.711Z" fill="#F0F0F0"/>
<path d="M222.717 72.125L203.194 145.095V104.986L211.986 72.125H222.717Z" fill="white"/>
<path d="M275.589 79.1211V86.5263L258.806 149.233H256.826L275.589 79.1211Z" fill="white"/>
<path d="M275.59 94.0703V134.179L271.564 149.233H260.832L275.59 94.0703Z" fill="white"/>
<path d="M64.4555 132.51H111.863V74.8258H64.4555V132.51Z" fill="#E6E6E6"/>
<path d="M75.306 118.22L100.214 93.7336L73.2666 89.2852L75.306 118.22Z" fill="#E0E0E0"/>
<path d="M99.614 112.412L100.848 93.6348L82.091 98.2416L80.7314 112.61L99.614 112.412Z" fill="#F0F0F0"/>
<path d="M80.4294 91.349C83.3858 88.3927 83.3858 83.5995 80.4294 80.6431C77.4731 77.6868 72.6799 77.6868 69.7235 80.6432C66.7672 83.5995 66.7672 88.3927 69.7235 91.349C72.6799 94.3054 77.4731 94.3054 80.4294 91.349Z" fill="#FAFAFA"/>
<path d="M97.165 119.104C97.165 118.377 97.3808 117.666 97.7851 117.061C98.1893 116.456 98.7638 115.985 99.436 115.707C100.108 115.429 100.848 115.356 101.561 115.499C102.274 115.641 102.929 115.992 103.443 116.507C103.957 117.022 104.307 117.677 104.448 118.391C104.589 119.104 104.515 119.844 104.236 120.515C103.956 121.187 103.484 121.761 102.879 122.164C102.273 122.567 101.562 122.781 100.835 122.78C100.352 122.78 99.8745 122.685 99.4288 122.5C98.9832 122.315 98.5783 122.044 98.2375 121.703C97.8967 121.362 97.6265 120.956 97.4425 120.51C97.2584 120.064 97.1642 119.586 97.165 119.104Z" fill="#E0E0E0"/>
<path d="M99.9634 125.56L89.3638 119.105L98.2738 111.766L99.9634 125.56Z" fill="#F5F5F5"/>
<path d="M87.4435 82.1582H85.3579V128.22H87.4435V82.1582Z" fill="#E0E0E0"/>
<path d="M107.415 82.1582H104.716V126.18H107.415V82.1582Z" fill="#EBEBEB"/>
<path d="M82.9952 112.609H69.2144V126.39H82.9952V112.609Z" fill="#EBEBEB"/>
<path d="M165 282.19C235.675 282.19 292.968 278.845 292.968 274.719C292.968 270.593 235.675 267.248 165 267.248C94.3257 267.248 37.0327 270.593 37.0327 274.719C37.0327 278.845 94.3257 282.19 165 282.19Z" fill="#F5F5F5"/>
<path d="M131.578 155.76H269.095C269.465 155.76 269.832 155.833 270.174 155.974C270.516 156.116 270.826 156.324 271.088 156.585C271.35 156.847 271.557 157.158 271.699 157.499C271.84 157.841 271.913 158.208 271.913 158.578V258.06H128.759V158.604C128.756 158.232 128.826 157.863 128.966 157.518C129.106 157.173 129.313 156.859 129.575 156.595C129.837 156.33 130.149 156.12 130.493 155.977C130.837 155.834 131.205 155.76 131.578 155.76Z" fill="#263238"/>
<path d="M269.095 162.102H131.578V249.994H269.095V162.102Z" fill="#F9D1D2"/>
<path opacity="0.2" d="M199.082 160.564C199.84 160.564 200.455 159.949 200.455 159.191C200.455 158.433 199.84 157.818 199.082 157.818C198.324 157.818 197.709 158.433 197.709 159.191C197.709 159.949 198.324 160.564 199.082 160.564Z" fill="white"/>
<path opacity="0.2" d="M201.927 160.221C202.496 160.221 202.957 159.76 202.957 159.192C202.957 158.623 202.496 158.162 201.927 158.162C201.358 158.162 200.897 158.623 200.897 159.192C200.897 159.76 201.358 160.221 201.927 160.221Z" fill="white"/>
<path opacity="0.2" d="M200.897 251.796C200.717 251.733 200.528 251.7 200.336 251.697C199.98 251.697 199.632 251.803 199.335 252.001C199.039 252.199 198.808 252.48 198.672 252.81C198.535 253.139 198.5 253.501 198.569 253.851C198.639 254.2 198.81 254.521 199.062 254.773C199.314 255.025 199.635 255.197 199.985 255.266C200.334 255.336 200.697 255.3 201.026 255.164C201.355 255.027 201.637 254.796 201.835 254.5C202.033 254.204 202.138 253.855 202.138 253.499C202.142 253.466 202.142 253.433 202.138 253.4C201.794 253.289 201.491 253.076 201.27 252.79C201.048 252.504 200.919 252.158 200.897 251.796Z" fill="white"/>
<path d="M282.586 256.661V257.981C282.583 258.39 282.45 258.788 282.205 259.116C281.961 259.443 281.617 259.684 281.226 259.803L271.26 262.72C270.022 263.089 268.737 263.276 267.445 263.274H133.241C131.951 263.275 130.668 263.089 129.433 262.72L119.46 259.776C119.067 259.659 118.722 259.419 118.477 259.091C118.231 258.763 118.096 258.365 118.094 257.955V256.635L282.586 256.661Z" fill="#263238"/>
<path opacity="0.2" d="M282.586 256.661V257.981C282.583 258.39 282.45 258.788 282.205 259.116C281.961 259.443 281.617 259.684 281.226 259.803L271.26 262.72C270.022 263.089 268.737 263.276 267.445 263.274H133.241C131.951 263.275 130.668 263.089 129.433 262.72L119.46 259.776C119.067 259.659 118.722 259.419 118.477 259.091C118.231 258.763 118.096 258.365 118.094 257.955V256.635L282.586 256.661Z" fill="white"/>
<path opacity="0.2" d="M282.586 256.66V257.98C282.585 258.322 282.492 258.658 282.315 258.95H118.364C118.188 258.658 118.094 258.322 118.094 257.98V256.66H282.586Z" fill="white"/>
<path opacity="0.2" d="M211.913 256.66V257.228C211.913 257.301 211.898 257.374 211.87 257.442C211.842 257.51 211.801 257.572 211.748 257.624C211.696 257.677 211.635 257.718 211.566 257.746C211.498 257.774 211.425 257.789 211.352 257.789H189.334C189.26 257.79 189.186 257.776 189.117 257.748C189.049 257.72 188.986 257.679 188.933 257.627C188.88 257.575 188.839 257.512 188.81 257.444C188.781 257.375 188.767 257.302 188.767 257.228V256.66H211.913Z" fill="black"/>
<path opacity="0.1" d="M269.095 162.102C269.095 162.102 250.081 237.599 131.578 249.994V162.102H269.095Z" fill="white"/>
<path d="M256.08 127.69V210.361L242.312 224.129H187.875C187.313 224.127 186.774 223.902 186.377 223.504C185.98 223.106 185.757 222.566 185.757 222.004V127.69C185.757 127.127 185.98 126.588 186.377 126.189C186.774 125.791 187.313 125.566 187.875 125.564H253.941C254.222 125.563 254.499 125.616 254.759 125.722C255.018 125.828 255.254 125.985 255.453 126.182C255.651 126.38 255.809 126.615 255.917 126.873C256.024 127.132 256.08 127.409 256.08 127.69Z" fill="#F9D1D2"/>
<path opacity="0.6" d="M256.08 131.301V210.362L242.312 224.13H187.875C187.313 224.128 186.774 223.903 186.377 223.505C185.98 223.107 185.757 222.567 185.757 222.005V131.301H256.08Z" fill="white"/>
<path opacity="0.6" d="M254.232 128.191C254.233 128.395 254.174 128.595 254.062 128.765C253.949 128.935 253.789 129.068 253.601 129.147C253.413 129.226 253.206 129.247 253.006 129.208C252.805 129.169 252.621 129.072 252.477 128.928C252.332 128.784 252.233 128.601 252.193 128.401C252.153 128.201 252.173 127.994 252.251 127.805C252.328 127.617 252.46 127.455 252.63 127.342C252.799 127.229 252.999 127.168 253.202 127.168C253.337 127.167 253.471 127.193 253.596 127.244C253.721 127.295 253.834 127.37 253.93 127.465C254.026 127.56 254.102 127.673 254.154 127.798C254.205 127.923 254.232 128.056 254.232 128.191Z" fill="white"/>
<path opacity="0.6" d="M250.312 128.191C250.312 128.393 250.252 128.591 250.139 128.759C250.027 128.928 249.867 129.059 249.68 129.136C249.493 129.214 249.287 129.234 249.089 129.194C248.891 129.155 248.708 129.057 248.565 128.914C248.422 128.771 248.325 128.589 248.285 128.391C248.246 128.192 248.266 127.986 248.343 127.8C248.421 127.613 248.552 127.453 248.72 127.34C248.889 127.228 249.086 127.168 249.289 127.168C249.423 127.167 249.557 127.193 249.681 127.244C249.806 127.295 249.919 127.371 250.014 127.466C250.109 127.561 250.184 127.674 250.236 127.798C250.287 127.923 250.313 128.056 250.312 128.191Z" fill="white"/>
<path opacity="0.6" d="M246.398 128.191C246.399 128.395 246.339 128.595 246.227 128.765C246.114 128.936 245.953 129.069 245.765 129.148C245.577 129.226 245.369 129.247 245.169 129.208C244.968 129.168 244.784 129.07 244.64 128.926C244.496 128.781 244.397 128.597 244.358 128.397C244.318 128.196 244.339 127.989 244.418 127.801C244.497 127.612 244.63 127.451 244.8 127.339C244.97 127.226 245.17 127.167 245.375 127.168C245.646 127.168 245.906 127.276 246.098 127.468C246.29 127.659 246.398 127.92 246.398 128.191Z" fill="white"/>
<path d="M228.492 137.67H190.806C190.631 137.67 190.463 137.6 190.339 137.476C190.216 137.353 190.146 137.185 190.146 137.01C190.146 136.835 190.216 136.667 190.339 136.543C190.463 136.419 190.631 136.35 190.806 136.35H228.492C228.667 136.35 228.835 136.419 228.959 136.543C229.082 136.667 229.152 136.835 229.152 137.01C229.152 137.185 229.082 137.353 228.959 137.476C228.835 137.6 228.667 137.67 228.492 137.67Z" fill="#F9D1D2"/>
<path d="M217.84 141.279H190.78C190.605 141.279 190.437 141.209 190.313 141.086C190.189 140.962 190.12 140.794 190.12 140.619C190.12 140.444 190.189 140.276 190.313 140.152C190.437 140.029 190.605 139.959 190.78 139.959H217.84C218.015 139.959 218.183 140.029 218.306 140.152C218.43 140.276 218.5 140.444 218.5 140.619C218.5 140.794 218.43 140.962 218.306 141.086C218.183 141.209 218.015 141.279 217.84 141.279Z" fill="#F9D1D2"/>
<path d="M247.058 197.023H198.878C198.703 197.023 198.535 196.954 198.411 196.83C198.287 196.706 198.218 196.538 198.218 196.363C198.218 196.188 198.287 196.02 198.411 195.896C198.535 195.773 198.703 195.703 198.878 195.703H247.058C247.233 195.703 247.401 195.773 247.524 195.896C247.648 196.02 247.718 196.188 247.718 196.363C247.718 196.538 247.648 196.706 247.524 196.83C247.401 196.954 247.233 197.023 247.058 197.023Z" fill="#F9D1D2"/>
<path d="M238.999 211.443H190.819C190.644 211.443 190.476 211.374 190.352 211.25C190.229 211.126 190.159 210.958 190.159 210.783C190.159 210.608 190.229 210.44 190.352 210.316C190.476 210.193 190.644 210.123 190.819 210.123H238.999C239.174 210.123 239.342 210.193 239.466 210.316C239.59 210.44 239.659 210.608 239.659 210.783C239.659 210.958 239.59 211.126 239.466 211.25C239.342 211.374 239.174 211.443 238.999 211.443Z" fill="#F9D1D2"/>
<path d="M247.058 200.64H190.806C190.631 200.64 190.463 200.571 190.339 200.447C190.216 200.323 190.146 200.155 190.146 199.98C190.146 199.805 190.216 199.637 190.339 199.514C190.463 199.39 190.631 199.32 190.806 199.32H247.058C247.233 199.32 247.401 199.39 247.524 199.514C247.648 199.637 247.718 199.805 247.718 199.98C247.718 200.155 247.648 200.323 247.524 200.447C247.401 200.571 247.233 200.64 247.058 200.64Z" fill="#F9D1D2"/>
<path d="M247.058 204.236H190.806C190.631 204.236 190.463 204.166 190.339 204.043C190.216 203.919 190.146 203.751 190.146 203.576C190.146 203.401 190.216 203.233 190.339 203.109C190.463 202.986 190.631 202.916 190.806 202.916H247.058C247.233 202.916 247.401 202.986 247.524 203.109C247.648 203.233 247.718 203.401 247.718 203.576C247.718 203.751 247.648 203.919 247.524 204.043C247.401 204.166 247.233 204.236 247.058 204.236Z" fill="#F9D1D2"/>
<path d="M247.058 207.84H190.806C190.631 207.84 190.463 207.77 190.339 207.646C190.216 207.522 190.146 207.355 190.146 207.18C190.146 207.004 190.216 206.837 190.339 206.713C190.463 206.589 190.631 206.52 190.806 206.52H247.058C247.233 206.52 247.401 206.589 247.524 206.713C247.648 206.837 247.718 207.004 247.718 207.18C247.718 207.355 247.648 207.522 247.524 207.646C247.401 207.77 247.233 207.84 247.058 207.84Z" fill="#F9D1D2"/>
<path opacity="0.5" d="M256.066 210.361L242.299 224.129V210.361H256.066Z" fill="#F9D1D2"/>
<path opacity="0.4" d="M256.067 131.301H252.179V210.362H256.067V131.301Z" fill="black"/>
<path d="M254.1 172.609C253.72 172.609 253.356 172.458 253.087 172.19C252.818 171.921 252.667 171.557 252.667 171.177V163.098C252.676 162.724 252.831 162.368 253.098 162.107C253.366 161.845 253.725 161.699 254.1 161.699C254.288 161.699 254.474 161.736 254.648 161.808C254.822 161.88 254.979 161.986 255.112 162.119C255.245 162.252 255.351 162.41 255.423 162.583C255.495 162.757 255.532 162.943 255.532 163.131V171.21C255.523 171.584 255.369 171.94 255.101 172.201C254.833 172.463 254.474 172.609 254.1 172.609Z" fill="#F9D1D2"/>
<path d="M247.058 177.222H198.878C198.703 177.222 198.535 177.153 198.411 177.029C198.287 176.905 198.218 176.737 198.218 176.562C198.218 176.387 198.287 176.219 198.411 176.096C198.535 175.972 198.703 175.902 198.878 175.902H247.058C247.233 175.902 247.401 175.972 247.524 176.096C247.648 176.219 247.718 176.387 247.718 176.562C247.718 176.737 247.648 176.905 247.524 177.029C247.401 177.153 247.233 177.222 247.058 177.222Z" fill="#F9D1D2"/>
<path d="M238.999 191.644H190.819C190.644 191.644 190.476 191.575 190.352 191.451C190.229 191.327 190.159 191.159 190.159 190.984C190.159 190.809 190.229 190.641 190.352 190.518C190.476 190.394 190.644 190.324 190.819 190.324H238.999C239.174 190.324 239.342 190.394 239.466 190.518C239.59 190.641 239.659 190.809 239.659 190.984C239.659 191.159 239.59 191.327 239.466 191.451C239.342 191.575 239.174 191.644 238.999 191.644Z" fill="#F9D1D2"/>
<path d="M247.058 180.84H190.806C190.631 180.84 190.463 180.77 190.339 180.646C190.216 180.522 190.146 180.355 190.146 180.18C190.146 180.004 190.216 179.837 190.339 179.713C190.463 179.589 190.631 179.52 190.806 179.52H247.058C247.233 179.52 247.401 179.589 247.524 179.713C247.648 179.837 247.718 180.004 247.718 180.18C247.718 180.355 247.648 180.522 247.524 180.646C247.401 180.77 247.233 180.84 247.058 180.84Z" fill="#F9D1D2"/>
<path d="M247.058 184.437H190.806C190.631 184.437 190.463 184.368 190.339 184.244C190.216 184.12 190.146 183.952 190.146 183.777C190.146 183.602 190.216 183.434 190.339 183.31C190.463 183.187 190.631 183.117 190.806 183.117H247.058C247.233 183.117 247.401 183.187 247.524 183.31C247.648 183.434 247.718 183.602 247.718 183.777C247.718 183.952 247.648 184.12 247.524 184.244C247.401 184.368 247.233 184.437 247.058 184.437Z" fill="#F9D1D2"/>
<path d="M247.058 188.041H190.806C190.631 188.041 190.463 187.971 190.339 187.847C190.216 187.724 190.146 187.556 190.146 187.381C190.146 187.206 190.216 187.038 190.339 186.914C190.463 186.79 190.631 186.721 190.806 186.721H247.058C247.233 186.721 247.401 186.79 247.524 186.914C247.648 187.038 247.718 187.206 247.718 187.381C247.718 187.556 247.648 187.724 247.524 187.847C247.401 187.971 247.233 188.041 247.058 188.041Z" fill="#F9D1D2"/>
<path d="M247.051 145.576H190.634V166.63H247.051V145.576Z" fill="#F9D1D2"/>
<path opacity="0.2" d="M190.634 163.251H192.172V159.423H193.941V151.866H196.409V156.519H199.802V162.703H203.847V158.393H207.194L209.405 156.176V151.048H210.758V158.393H214.163V161.007H217.688V147.675L218.664 146.698V150.355H220.915V151.998L223.073 154.163V158.063H226.175V154.975H234.267V152.671H236.095V148.645H236.748V154.975H237.778L240.108 152.645H242.299V150.539H243.408V152.671H244.84V161.396H246.398V157.04L247.058 157.08V145.576H190.634V163.251Z" fill="black"/>
<path d="M247.058 169.963H231.878C231.703 169.963 231.535 169.893 231.411 169.769C231.287 169.645 231.218 169.478 231.218 169.303C231.218 169.128 231.287 168.96 231.411 168.836C231.535 168.712 231.703 168.643 231.878 168.643H247.058C247.233 168.643 247.401 168.712 247.524 168.836C247.648 168.96 247.718 169.128 247.718 169.303C247.718 169.478 247.648 169.645 247.524 169.769C247.401 169.893 247.233 169.963 247.058 169.963Z" fill="#F9D1D2"/>
<path opacity="0.2" d="M212.982 125.564V193.888L202.62 204.276H185.757V127.716C185.757 127.154 185.98 126.614 186.377 126.216C186.774 125.817 187.313 125.593 187.875 125.591L212.982 125.564Z" fill="black"/>
<path opacity="0.4" d="M254.1 172.609C253.72 172.609 253.356 172.458 253.087 172.19C252.818 171.921 252.667 171.557 252.667 171.177V163.098C252.676 162.724 252.831 162.368 253.098 162.107C253.366 161.845 253.725 161.699 254.1 161.699C254.288 161.699 254.474 161.736 254.648 161.808C254.822 161.88 254.979 161.986 255.112 162.119C255.245 162.252 255.351 162.41 255.423 162.583C255.495 162.757 255.532 162.943 255.532 163.131V171.21C255.523 171.584 255.369 171.94 255.101 172.201C254.833 172.463 254.474 172.609 254.1 172.609Z" fill="white"/>
<path d="M172.748 137.992V220.664L158.981 234.432H104.557C103.995 234.43 103.456 234.205 103.059 233.807C102.661 233.408 102.438 232.869 102.438 232.306V137.992C102.438 137.43 102.661 136.89 103.059 136.492C103.456 136.094 103.995 135.869 104.557 135.867H170.623C171.187 135.867 171.727 136.091 172.126 136.49C172.524 136.888 172.748 137.429 172.748 137.992Z" fill="#F9D1D2"/>
<path opacity="0.6" d="M172.748 141.609V220.671L158.981 234.438H104.557C103.995 234.437 103.456 234.212 103.059 233.814C102.661 233.415 102.438 232.876 102.438 232.313V141.609H172.748Z" fill="white"/>
<path opacity="0.6" d="M170.94 138.502C170.941 138.705 170.882 138.905 170.77 139.075C170.657 139.246 170.497 139.379 170.309 139.457C170.121 139.536 169.914 139.558 169.714 139.519C169.513 139.48 169.329 139.382 169.185 139.239C169.04 139.095 168.941 138.911 168.901 138.711C168.861 138.512 168.881 138.304 168.959 138.116C169.036 137.927 169.168 137.766 169.338 137.653C169.507 137.539 169.707 137.479 169.91 137.479C170.045 137.478 170.179 137.503 170.304 137.555C170.429 137.606 170.542 137.681 170.638 137.776C170.734 137.871 170.81 137.984 170.862 138.109C170.913 138.233 170.94 138.367 170.94 138.502Z" fill="white"/>
<path opacity="0.6" d="M166.98 138.502C166.981 138.706 166.922 138.906 166.809 139.076C166.697 139.246 166.536 139.379 166.348 139.458C166.159 139.537 165.952 139.558 165.751 139.518C165.551 139.479 165.367 139.381 165.222 139.236C165.078 139.092 164.98 138.908 164.94 138.707C164.901 138.507 164.922 138.299 165.001 138.111C165.079 137.923 165.212 137.762 165.383 137.649C165.553 137.537 165.753 137.477 165.957 137.479C166.092 137.478 166.225 137.504 166.35 137.555C166.474 137.606 166.587 137.681 166.682 137.776C166.778 137.871 166.853 137.985 166.904 138.109C166.955 138.234 166.981 138.367 166.98 138.502Z" fill="white"/>
<path opacity="0.6" d="M163.079 138.502C163.081 138.705 163.021 138.905 162.909 139.075C162.797 139.246 162.636 139.379 162.448 139.457C162.26 139.536 162.053 139.558 161.853 139.519C161.653 139.48 161.469 139.382 161.324 139.239C161.179 139.095 161.081 138.911 161.04 138.711C161 138.512 161.02 138.304 161.098 138.116C161.175 137.927 161.307 137.766 161.477 137.653C161.646 137.539 161.846 137.479 162.05 137.479C162.184 137.478 162.318 137.503 162.443 137.555C162.568 137.606 162.682 137.681 162.777 137.776C162.873 137.871 162.949 137.984 163.001 138.109C163.053 138.233 163.079 138.367 163.079 138.502Z" fill="white"/>
<path d="M119.196 148.334H107.488C107.313 148.334 107.145 148.264 107.021 148.14C106.897 148.017 106.828 147.849 106.828 147.674C106.828 147.499 106.897 147.331 107.021 147.207C107.145 147.083 107.313 147.014 107.488 147.014H119.196C119.371 147.014 119.539 147.083 119.663 147.207C119.787 147.331 119.856 147.499 119.856 147.674C119.856 147.849 119.787 148.017 119.663 148.14C119.539 148.264 119.371 148.334 119.196 148.334Z" fill="#F9D1D2"/>
<path d="M124.74 151.939H107.514C107.339 151.939 107.171 151.87 107.047 151.746C106.924 151.622 106.854 151.454 106.854 151.279C106.854 151.104 106.924 150.936 107.047 150.812C107.171 150.689 107.339 150.619 107.514 150.619H124.74C124.915 150.619 125.083 150.689 125.207 150.812C125.33 150.936 125.4 151.104 125.4 151.279C125.4 151.454 125.33 151.622 125.207 151.746C125.083 151.87 124.915 151.939 124.74 151.939Z" fill="#F9D1D2"/>
<path d="M119.387 155.543H107.507C107.332 155.543 107.164 155.473 107.04 155.349C106.917 155.226 106.847 155.058 106.847 154.883C106.847 154.708 106.917 154.54 107.04 154.416C107.164 154.292 107.332 154.223 107.507 154.223H119.387C119.562 154.223 119.73 154.292 119.854 154.416C119.978 154.54 120.047 154.708 120.047 154.883C120.047 155.058 119.978 155.226 119.854 155.349C119.73 155.473 119.562 155.543 119.387 155.543Z" fill="#F9D1D2"/>
<path d="M163.733 214.591H115.553C115.378 214.591 115.21 214.522 115.086 214.398C114.962 214.274 114.893 214.107 114.893 213.931C114.893 213.756 114.962 213.589 115.086 213.465C115.21 213.341 115.378 213.271 115.553 213.271H163.733C163.908 213.271 164.075 213.341 164.199 213.465C164.323 213.589 164.393 213.756 164.393 213.931C164.393 214.107 164.323 214.274 164.199 214.398C164.075 214.522 163.908 214.591 163.733 214.591Z" fill="#F9D1D2"/>
<path d="M137.333 218.195H107.488C107.313 218.195 107.145 218.125 107.021 218.002C106.897 217.878 106.828 217.71 106.828 217.535C106.828 217.36 106.897 217.192 107.021 217.068C107.145 216.945 107.313 216.875 107.488 216.875H137.333C137.508 216.875 137.676 216.945 137.8 217.068C137.923 217.192 137.993 217.36 137.993 217.535C137.993 217.71 137.923 217.878 137.8 218.002C137.676 218.125 137.508 218.195 137.333 218.195Z" fill="#F9D1D2"/>
<path opacity="0.5" d="M172.748 220.67L158.98 234.438V220.67H172.748Z" fill="#F9D1D2"/>
<path opacity="0.4" d="M172.748 141.609H168.861V220.671H172.748V141.609Z" fill="black"/>
<path d="M170.801 215.259C170.422 215.259 170.057 215.108 169.789 214.84C169.52 214.571 169.369 214.207 169.369 213.827V205.749C169.369 205.369 169.52 205.004 169.789 204.736C170.057 204.467 170.422 204.316 170.801 204.316C170.989 204.316 171.176 204.353 171.349 204.425C171.523 204.497 171.681 204.603 171.814 204.736C171.947 204.869 172.053 205.027 172.125 205.201C172.197 205.374 172.234 205.561 172.234 205.749V213.84C172.23 214.218 172.078 214.579 171.809 214.844C171.541 215.11 171.179 215.259 170.801 215.259Z" fill="#F9D1D2"/>
<path d="M163.733 148.334H154.671C154.496 148.334 154.328 148.264 154.204 148.14C154.08 148.017 154.011 147.849 154.011 147.674C154.011 147.499 154.08 147.331 154.204 147.207C154.328 147.083 154.496 147.014 154.671 147.014H163.733C163.908 147.014 164.075 147.083 164.199 147.207C164.323 147.331 164.393 147.499 164.393 147.674C164.393 147.849 164.323 148.017 164.199 148.14C164.075 148.264 163.908 148.334 163.733 148.334Z" fill="#F9D1D2"/>
<path d="M163.733 151.939H159.06C158.885 151.939 158.717 151.87 158.593 151.746C158.469 151.622 158.4 151.454 158.4 151.279C158.4 151.104 158.469 150.936 158.593 150.812C158.717 150.689 158.885 150.619 159.06 150.619H163.746C163.921 150.619 164.089 150.689 164.213 150.812C164.336 150.936 164.406 151.104 164.406 151.279C164.406 151.454 164.336 151.622 164.213 151.746C164.089 151.87 163.921 151.939 163.746 151.939H163.733Z" fill="#F9D1D2"/>
<path d="M163.733 165.091H115.553C115.378 165.091 115.21 165.022 115.086 164.898C114.962 164.774 114.893 164.607 114.893 164.431C114.893 164.256 114.962 164.089 115.086 163.965C115.21 163.841 115.378 163.771 115.553 163.771H163.733C163.908 163.771 164.075 163.841 164.199 163.965C164.323 164.089 164.393 164.256 164.393 164.431C164.393 164.607 164.323 164.774 164.199 164.898C164.075 165.022 163.908 165.091 163.733 165.091Z" fill="#F9D1D2"/>
<path d="M163.733 168.695H107.488C107.313 168.695 107.145 168.625 107.021 168.502C106.897 168.378 106.828 168.21 106.828 168.035C106.828 167.86 106.897 167.692 107.021 167.568C107.145 167.445 107.313 167.375 107.488 167.375H163.733C163.908 167.375 164.076 167.445 164.2 167.568C164.323 167.692 164.393 167.86 164.393 168.035C164.393 168.21 164.323 168.378 164.2 168.502C164.076 168.625 163.908 168.695 163.733 168.695Z" fill="#F9D1D2"/>
<path d="M130.733 172.299H107.488C107.313 172.299 107.145 172.229 107.021 172.105C106.897 171.981 106.828 171.814 106.828 171.639C106.828 171.463 106.897 171.296 107.021 171.172C107.145 171.048 107.313 170.979 107.488 170.979H130.733C130.908 170.979 131.076 171.048 131.2 171.172C131.323 171.296 131.393 171.463 131.393 171.639C131.393 171.814 131.323 171.981 131.2 172.105C131.076 172.229 130.908 172.299 130.733 172.299Z" fill="#F9D1D2"/>
<path opacity="0.7" d="M138.983 177.084H116.82V183.024H138.983V177.084Z" fill="#F9D1D2"/>
<path opacity="0.3" d="M126.858 184.344H116.82V206.276H126.858V184.344Z" fill="#F9D1D2"/>
<path opacity="0.3" d="M151.826 184.344H140.296V206.276H151.826V184.344Z" fill="#F9D1D2"/>
<path opacity="0.7" d="M163.732 177.084H140.296V183.024H163.732V177.084Z" fill="#F9D1D2"/>
<path opacity="0.3" d="M163.739 184.344H153.153V206.276H163.739V184.344Z" fill="#F9D1D2"/>
<path opacity="0.5" d="M115.5 184.344H107.487V206.276H115.5V184.344Z" fill="#F9D1D2"/>
<path d="M115.5 177.084H107.487V183.024H115.5V177.084Z" fill="#F9D1D2"/>
<path opacity="0.3" d="M138.976 184.344H128.179V206.276H138.976V184.344Z" fill="#F9D1D2"/>
<path opacity="0.4" d="M170.801 215.259C170.422 215.259 170.057 215.108 169.789 214.84C169.52 214.571 169.369 214.207 169.369 213.827V205.749C169.369 205.369 169.52 205.004 169.789 204.736C170.057 204.467 170.422 204.316 170.801 204.316C170.989 204.316 171.176 204.353 171.349 204.425C171.523 204.497 171.681 204.603 171.814 204.736C171.947 204.869 172.053 205.027 172.125 205.201C172.197 205.374 172.234 205.561 172.234 205.749V213.84C172.23 214.218 172.078 214.579 171.809 214.844C171.541 215.11 171.179 215.259 170.801 215.259Z" fill="white"/>
<path opacity="0.2" d="M172.748 137.992V206.764H132.931C132.368 206.763 131.829 206.538 131.432 206.14C131.035 205.741 130.812 205.202 130.812 204.639V135.867H170.623C171.187 135.867 171.727 136.091 172.126 136.49C172.525 136.888 172.748 137.429 172.748 137.992Z" fill="black"/>
<path d="M207.709 100.518V183.189L193.941 196.957H139.518C138.955 196.955 138.416 196.731 138.019 196.332C137.622 195.934 137.399 195.394 137.399 194.832V100.518C137.399 99.9553 137.622 99.4157 138.019 99.0174C138.416 98.619 138.955 98.3943 139.518 98.3926H205.584C206.147 98.3926 206.688 98.6165 207.086 99.015C207.485 99.4136 207.709 99.9541 207.709 100.518Z" fill="#F9D1D2"/>
<path opacity="0.6" d="M207.709 104.129V183.19L193.941 196.958H139.518C138.955 196.956 138.416 196.731 138.019 196.333C137.622 195.935 137.399 195.395 137.399 194.833V104.129H207.709Z" fill="white"/>
<path opacity="0.6" d="M204.844 102.042C205.409 102.042 205.867 101.584 205.867 101.019C205.867 100.454 205.409 99.9961 204.844 99.9961C204.279 99.9961 203.821 100.454 203.821 101.019C203.821 101.584 204.279 102.042 204.844 102.042Z" fill="white"/>
<path opacity="0.6" d="M200.924 102.042C201.489 102.042 201.947 101.584 201.947 101.019C201.947 100.454 201.489 99.9961 200.924 99.9961C200.359 99.9961 199.901 100.454 199.901 101.019C199.901 101.584 200.359 102.042 200.924 102.042Z" fill="white"/>
<path opacity="0.6" d="M198.033 101.019C198.035 101.223 197.975 101.423 197.863 101.594C197.75 101.764 197.589 101.897 197.401 101.976C197.212 102.054 197.005 102.075 196.804 102.036C196.604 101.996 196.42 101.898 196.276 101.754C196.131 101.609 196.033 101.425 195.994 101.225C195.954 101.025 195.975 100.817 196.054 100.629C196.132 100.44 196.265 100.28 196.436 100.167C196.606 100.054 196.806 99.9948 197.01 99.9961C197.145 99.9952 197.278 100.021 197.403 100.072C197.527 100.123 197.64 100.199 197.736 100.294C197.831 100.389 197.906 100.502 197.957 100.627C198.008 100.751 198.034 100.885 198.033 101.019Z" fill="white"/>
<path d="M177.289 110.881H163.845C163.67 110.881 163.502 110.811 163.378 110.687C163.255 110.563 163.185 110.396 163.185 110.221C163.185 110.046 163.255 109.878 163.378 109.754C163.502 109.63 163.67 109.561 163.845 109.561H177.289C177.464 109.561 177.632 109.63 177.756 109.754C177.88 109.878 177.949 110.046 177.949 110.221C177.949 110.396 177.88 110.563 177.756 110.687C177.632 110.811 177.464 110.881 177.289 110.881Z" fill="#F9D1D2"/>
<path d="M182.82 114.457H158.334C158.159 114.457 157.991 114.387 157.868 114.263C157.744 114.14 157.674 113.972 157.674 113.797C157.674 113.622 157.744 113.454 157.868 113.33C157.991 113.206 158.159 113.137 158.334 113.137H182.82C182.995 113.137 183.163 113.206 183.287 113.33C183.411 113.454 183.48 113.622 183.48 113.797C183.48 113.972 183.411 114.14 183.287 114.263C183.163 114.387 182.995 114.457 182.82 114.457Z" fill="#F9D1D2"/>
<path d="M177.487 118.068H163.68C163.505 118.068 163.337 117.999 163.213 117.875C163.09 117.751 163.02 117.583 163.02 117.408C163.02 117.233 163.09 117.065 163.213 116.941C163.337 116.818 163.505 116.748 163.68 116.748H177.54C177.715 116.748 177.883 116.818 178.007 116.941C178.13 117.065 178.2 117.233 178.2 117.408C178.2 117.583 178.13 117.751 178.007 117.875C177.883 117.999 177.715 118.068 177.54 118.068H177.487Z" fill="#F9D1D2"/>
<path d="M198.693 127.611H150.48C150.305 127.611 150.137 127.541 150.014 127.418C149.89 127.294 149.82 127.126 149.82 126.951C149.82 126.776 149.89 126.608 150.014 126.484C150.137 126.361 150.305 126.291 150.48 126.291H198.66C198.835 126.291 199.003 126.361 199.127 126.484C199.251 126.608 199.32 126.776 199.32 126.951C199.32 127.126 199.251 127.294 199.127 127.418C199.003 127.541 198.835 127.611 198.66 127.611H198.693Z" fill="#F9D1D2"/>
<path d="M190.634 142.031H142.454C142.279 142.031 142.112 141.961 141.988 141.838C141.864 141.714 141.794 141.546 141.794 141.371C141.794 141.196 141.864 141.028 141.988 140.904C142.112 140.78 142.279 140.711 142.454 140.711H190.634C190.809 140.711 190.977 140.78 191.101 140.904C191.225 141.028 191.294 141.196 191.294 141.371C191.294 141.546 191.225 141.714 191.101 141.838C190.977 141.961 190.809 142.031 190.634 142.031Z" fill="#F9D1D2"/>
<path d="M198.693 131.215H142.441C142.266 131.215 142.098 131.145 141.975 131.021C141.851 130.897 141.781 130.73 141.781 130.555C141.781 130.379 141.851 130.212 141.975 130.088C142.098 129.964 142.266 129.895 142.441 129.895H198.693C198.868 129.895 199.036 129.964 199.16 130.088C199.284 130.212 199.353 130.379 199.353 130.555C199.353 130.73 199.284 130.897 199.16 131.021C199.036 131.145 198.868 131.215 198.693 131.215Z" fill="#F9D1D2"/>
<path d="M198.693 134.824H142.441C142.266 134.824 142.098 134.754 141.975 134.631C141.851 134.507 141.781 134.339 141.781 134.164C141.781 133.989 141.851 133.821 141.975 133.697C142.098 133.573 142.266 133.504 142.441 133.504H198.693C198.868 133.504 199.036 133.573 199.16 133.697C199.284 133.821 199.353 133.989 199.353 134.164C199.353 134.339 199.284 134.507 199.16 134.631C199.036 134.754 198.868 134.824 198.693 134.824Z" fill="#F9D1D2"/>
<path d="M198.693 138.427H142.441C142.266 138.427 142.098 138.358 141.975 138.234C141.851 138.11 141.781 137.942 141.781 137.767C141.781 137.592 141.851 137.425 141.975 137.301C142.098 137.177 142.266 137.107 142.441 137.107H198.693C198.868 137.107 199.036 137.177 199.16 137.301C199.284 137.425 199.353 137.592 199.353 137.767C199.353 137.942 199.284 138.11 199.16 138.234C199.036 138.358 198.868 138.427 198.693 138.427Z" fill="#F9D1D2"/>
<path d="M198.693 163.91H150.48C150.305 163.91 150.137 163.84 150.014 163.717C149.89 163.593 149.82 163.425 149.82 163.25C149.82 163.075 149.89 162.907 150.014 162.783C150.137 162.659 150.305 162.59 150.48 162.59H198.66C198.835 162.59 199.003 162.659 199.127 162.783C199.251 162.907 199.32 163.075 199.32 163.25C199.32 163.425 199.251 163.593 199.127 163.717C199.003 163.84 198.835 163.91 198.66 163.91H198.693Z" fill="#F9D1D2"/>
<path d="M190.634 178.332H142.454C142.279 178.332 142.112 178.262 141.988 178.138C141.864 178.015 141.794 177.847 141.794 177.672C141.794 177.497 141.864 177.329 141.988 177.205C142.112 177.081 142.279 177.012 142.454 177.012H190.634C190.809 177.012 190.977 177.081 191.101 177.205C191.225 177.329 191.294 177.497 191.294 177.672C191.294 177.847 191.225 178.015 191.101 178.138C190.977 178.262 190.809 178.332 190.634 178.332Z" fill="#F9D1D2"/>
<path d="M198.693 167.515H142.441C142.266 167.515 142.098 167.446 141.975 167.322C141.851 167.198 141.781 167.03 141.781 166.855C141.781 166.68 141.851 166.512 141.975 166.389C142.098 166.265 142.266 166.195 142.441 166.195H198.693C198.868 166.195 199.036 166.265 199.16 166.389C199.284 166.512 199.353 166.68 199.353 166.855C199.353 167.03 199.284 167.198 199.16 167.322C199.036 167.446 198.868 167.515 198.693 167.515Z" fill="#F9D1D2"/>
<path d="M198.693 171.125H142.441C142.266 171.125 142.098 171.055 141.975 170.931C141.851 170.808 141.781 170.64 141.781 170.465C141.781 170.29 141.851 170.122 141.975 169.998C142.098 169.874 142.266 169.805 142.441 169.805H198.693C198.868 169.805 199.036 169.874 199.16 169.998C199.284 170.122 199.353 170.29 199.353 170.465C199.353 170.64 199.284 170.808 199.16 170.931C199.036 171.055 198.868 171.125 198.693 171.125Z" fill="#F9D1D2"/>
<path d="M198.693 174.728H142.441C142.266 174.728 142.098 174.659 141.975 174.535C141.851 174.411 141.781 174.243 141.781 174.068C141.781 173.893 141.851 173.725 141.975 173.602C142.098 173.478 142.266 173.408 142.441 173.408H198.693C198.868 173.408 199.036 173.478 199.16 173.602C199.284 173.725 199.353 173.893 199.353 174.068C199.353 174.243 199.284 174.411 199.16 174.535C199.036 174.659 198.868 174.728 198.693 174.728Z" fill="#F9D1D2"/>
<path d="M198.693 109.402H191.941V118.392H198.693V109.402Z" fill="#F9D1D2"/>
<path d="M146.19 116.887C148.257 116.887 149.932 115.211 149.932 113.145C149.932 111.078 148.257 109.402 146.19 109.402C144.123 109.402 142.448 111.078 142.448 113.145C142.448 115.211 144.123 116.887 146.19 116.887Z" fill="#F9D1D2"/>
<path d="M142.23 146.751C142.248 146.948 142.339 147.131 142.485 147.264C142.631 147.397 142.822 147.471 143.019 147.471C143.217 147.471 143.407 147.397 143.553 147.264C143.699 147.131 143.79 146.948 143.808 146.751C143.818 146.641 143.805 146.531 143.77 146.426C143.735 146.322 143.678 146.226 143.604 146.145C143.53 146.064 143.439 145.999 143.339 145.954C143.238 145.91 143.129 145.887 143.019 145.887C142.909 145.887 142.8 145.91 142.699 145.954C142.599 145.999 142.508 146.064 142.434 146.145C142.36 146.226 142.303 146.322 142.268 146.426C142.233 146.531 142.22 146.641 142.23 146.751Z" fill="#F9D1D2"/>
<path d="M142.23 150.354C142.229 150.511 142.274 150.665 142.361 150.796C142.447 150.928 142.571 151.03 142.716 151.091C142.861 151.152 143.021 151.168 143.175 151.137C143.329 151.107 143.471 151.032 143.582 150.92C143.693 150.809 143.769 150.668 143.799 150.513C143.829 150.359 143.813 150.199 143.752 150.054C143.692 149.909 143.589 149.786 143.458 149.699C143.327 149.613 143.173 149.567 143.015 149.568C142.807 149.568 142.607 149.651 142.46 149.798C142.313 149.946 142.23 150.145 142.23 150.354Z" fill="#F9D1D2"/>
<path d="M142.23 153.964C142.248 154.161 142.339 154.343 142.485 154.477C142.631 154.61 142.822 154.684 143.019 154.684C143.217 154.684 143.407 154.61 143.553 154.477C143.699 154.343 143.79 154.161 143.808 153.964C143.818 153.854 143.805 153.744 143.77 153.639C143.735 153.535 143.678 153.439 143.604 153.358C143.53 153.276 143.439 153.211 143.339 153.167C143.238 153.123 143.129 153.1 143.019 153.1C142.909 153.1 142.8 153.123 142.699 153.167C142.599 153.211 142.508 153.276 142.434 153.358C142.36 153.439 142.303 153.535 142.268 153.639C142.233 153.744 142.22 153.854 142.23 153.964Z" fill="#F9D1D2"/>
<path d="M142.23 157.567C142.248 157.764 142.339 157.947 142.485 158.08C142.631 158.213 142.822 158.287 143.019 158.287C143.217 158.287 143.407 158.213 143.553 158.08C143.699 157.947 143.79 157.764 143.808 157.567C143.818 157.458 143.805 157.347 143.77 157.243C143.735 157.138 143.678 157.043 143.604 156.961C143.53 156.88 143.439 156.815 143.339 156.771C143.238 156.726 143.129 156.703 143.019 156.703C142.909 156.703 142.8 156.726 142.699 156.771C142.599 156.815 142.508 156.88 142.434 156.961C142.36 157.043 142.303 157.138 142.268 157.243C142.233 157.347 142.22 157.458 142.23 157.567Z" fill="#F9D1D2"/>
<path d="M154.335 147.41H145.755C145.58 147.41 145.412 147.34 145.288 147.217C145.164 147.093 145.095 146.925 145.095 146.75C145.095 146.575 145.164 146.407 145.288 146.283C145.412 146.159 145.58 146.09 145.755 146.09H154.335C154.51 146.09 154.678 146.159 154.801 146.283C154.925 146.407 154.995 146.575 154.995 146.75C154.995 146.925 154.925 147.093 154.801 147.217C154.678 147.34 154.51 147.41 154.335 147.41Z" fill="#F9D1D2"/>
<path d="M162.393 151.015H145.742C145.567 151.015 145.399 150.946 145.275 150.822C145.151 150.698 145.082 150.53 145.082 150.355C145.082 150.18 145.151 150.012 145.275 149.889C145.399 149.765 145.567 149.695 145.742 149.695H162.393C162.568 149.695 162.736 149.765 162.86 149.889C162.984 150.012 163.053 150.18 163.053 150.355C163.053 150.53 162.984 150.698 162.86 150.822C162.736 150.946 162.568 151.015 162.393 151.015Z" fill="#F9D1D2"/>
<path d="M152.493 154.625H145.742C145.567 154.625 145.399 154.555 145.275 154.431C145.151 154.308 145.082 154.14 145.082 153.965C145.082 153.79 145.151 153.622 145.275 153.498C145.399 153.374 145.567 153.305 145.742 153.305H152.493C152.668 153.305 152.836 153.374 152.96 153.498C153.084 153.622 153.153 153.79 153.153 153.965C153.153 154.14 153.084 154.308 152.96 154.431C152.836 154.555 152.668 154.625 152.493 154.625Z" fill="#F9D1D2"/>
<path d="M159.753 158.228H145.742C145.567 158.228 145.399 158.159 145.275 158.035C145.151 157.911 145.082 157.743 145.082 157.568C145.082 157.393 145.151 157.225 145.275 157.102C145.399 156.978 145.567 156.908 145.742 156.908H159.753C159.928 156.908 160.096 156.978 160.22 157.102C160.344 157.225 160.413 157.393 160.413 157.568C160.413 157.743 160.344 157.911 160.22 158.035C160.096 158.159 159.928 158.228 159.753 158.228Z" fill="#F9D1D2"/>
<path opacity="0.5" d="M207.709 183.189L193.941 196.957V183.189H207.709Z" fill="#F9D1D2"/>
<path opacity="0.2" d="M198.693 109.402L191.941 118.392H198.693V109.402Z" fill="black"/>
<path opacity="0.2" d="M148.375 110.959H143.999V115.335H148.375V110.959Z" fill="black"/>
<path opacity="0.4" d="M207.702 104.129H203.815V183.19H207.702V104.129Z" fill="black"/>
<path d="M205.762 119.037C205.382 119.037 205.018 118.886 204.749 118.617C204.48 118.349 204.33 117.984 204.33 117.605V109.559C204.33 109.179 204.48 108.815 204.749 108.546C205.018 108.278 205.382 108.127 205.762 108.127C206.142 108.127 206.506 108.278 206.775 108.546C207.043 108.815 207.194 109.179 207.194 109.559V117.638C207.185 118.012 207.031 118.368 206.763 118.629C206.495 118.891 206.136 119.037 205.762 119.037Z" fill="#F9D1D2"/>
<path opacity="0.4" d="M205.762 119.037C205.382 119.037 205.018 118.886 204.749 118.617C204.48 118.349 204.33 117.984 204.33 117.605V109.559C204.33 109.179 204.48 108.815 204.749 108.546C205.018 108.278 205.382 108.127 205.762 108.127C206.142 108.127 206.506 108.278 206.775 108.546C207.043 108.815 207.194 109.179 207.194 109.559V117.638C207.185 118.012 207.031 118.368 206.763 118.629C206.495 118.891 206.136 119.037 205.762 119.037Z" fill="white"/>
<path d="M55.3279 137.895H78.3751C79.2614 137.896 80.1108 138.25 80.7369 138.877C81.3631 139.504 81.7147 140.354 81.7147 141.241V163.641C81.7147 164.527 81.3628 165.376 80.7365 166.003C80.1102 166.629 79.2608 166.981 78.3751 166.981H69.0163L70.0261 173.733L65.4061 166.981H55.3279C54.8891 166.982 54.4544 166.896 54.0489 166.728C53.6433 166.561 53.2748 166.315 52.9645 166.005C52.6542 165.694 52.4083 165.326 52.2407 164.92C52.0732 164.515 51.9874 164.08 51.9883 163.641V141.241C51.9874 140.802 52.0732 140.367 52.2406 139.961C52.408 139.555 52.6539 139.186 52.9641 138.875C53.2743 138.564 53.6427 138.318 54.0484 138.149C54.454 137.981 54.8888 137.895 55.3279 137.895Z" fill="#F9D1D2"/>
<path opacity="0.6" d="M55.3279 137.895H78.3751C79.2614 137.896 80.1108 138.25 80.7369 138.877C81.3631 139.504 81.7147 140.354 81.7147 141.241V163.641C81.7147 164.527 81.3628 165.376 80.7365 166.003C80.1102 166.629 79.2608 166.981 78.3751 166.981H69.0163L70.0261 173.733L65.4061 166.981H55.3279C54.8891 166.982 54.4544 166.896 54.0489 166.728C53.6433 166.561 53.2748 166.315 52.9645 166.005C52.6542 165.694 52.4083 165.326 52.2407 164.92C52.0732 164.515 51.9874 164.08 51.9883 163.641V141.241C51.9874 140.802 52.0732 140.367 52.2406 139.961C52.408 139.555 52.6539 139.186 52.9641 138.875C53.2743 138.564 53.6427 138.318 54.0484 138.149C54.454 137.981 54.8888 137.895 55.3279 137.895Z" fill="white"/>
<path d="M64.9507 147.782V149.571L65.8747 149.656C65.9871 150.244 66.2112 150.804 66.5347 151.306L65.9473 152.019L67.2079 153.28L67.9273 152.692C68.4309 153.014 68.9907 153.238 69.5773 153.352L69.6631 154.27H71.4451L71.5375 153.352C72.1233 153.236 72.6827 153.012 73.1875 152.692L73.9003 153.28L75.1609 152.019L74.5735 151.306C74.8942 150.802 75.118 150.243 75.2335 149.656L76.1509 149.571V147.782L75.2335 147.696C75.118 147.11 74.8942 146.55 74.5735 146.046L75.1609 145.333L73.9201 144.066L73.2073 144.66C72.7025 144.341 72.1431 144.117 71.5573 144L71.4649 143.076H69.6829L69.5971 144C69.0105 144.114 68.4507 144.338 67.9471 144.66L67.2277 144.066L66.0001 145.333L66.5875 146.046C66.264 146.549 66.0399 147.109 65.9275 147.696L64.9507 147.782ZM70.5739 146.257C71.0535 146.256 71.5227 146.397 71.9221 146.663C72.3214 146.928 72.6329 147.307 72.817 147.75C73.0012 148.192 73.0497 148.68 72.9565 149.15C72.8632 149.621 72.6324 150.053 72.2932 150.392C71.9541 150.731 71.5219 150.962 71.0514 151.056C70.5809 151.149 70.0934 151.1 69.6505 150.916C69.2076 150.732 68.8294 150.42 68.5637 150.021C68.2981 149.622 68.157 149.153 68.1583 148.673C68.16 148.033 68.4151 147.419 68.8677 146.967C69.3204 146.514 69.9338 146.259 70.5739 146.257Z" fill="#F5F5F5"/>
<path d="M66.1056 160.817C66.5749 160.722 67.0225 160.541 67.4256 160.282L67.9866 160.744L68.9766 159.754L68.5146 159.193C68.7731 158.79 68.9544 158.342 69.0492 157.873L69.7686 157.807V156.421L69.0492 156.355C68.957 155.885 68.7755 155.437 68.5146 155.035L68.9766 154.474L67.9866 153.484L67.4256 153.946C67.0254 153.682 66.5767 153.5 66.1056 153.412L66.0396 152.686H64.6404L64.5678 153.412C64.0967 153.5 63.6479 153.682 63.2478 153.946L62.6934 153.484L61.7034 154.474L62.1654 155.035C61.8996 155.435 61.7157 155.884 61.6242 156.355L60.9048 156.421V157.82L61.6242 157.886C61.7183 158.357 61.902 158.805 62.1654 159.206L61.7034 159.767L62.6934 160.757L63.2478 160.295C63.6508 160.554 64.0984 160.735 64.5678 160.83L64.6404 161.549H66.0396L66.1056 160.817ZM63.4656 157.134C63.4708 156.758 63.5874 156.392 63.8006 156.083C64.0138 155.773 64.3141 155.533 64.6633 155.394C65.0126 155.255 65.3953 155.223 65.7629 155.302C66.1306 155.38 66.4667 155.566 66.7288 155.835C66.9909 156.105 67.1672 156.446 67.2354 156.816C67.3037 157.185 67.2607 157.567 67.1121 157.912C66.9634 158.257 66.7157 158.551 66.4003 158.755C66.0849 158.96 65.7159 159.066 65.34 159.061C65.0879 159.062 64.8381 159.013 64.6054 158.916C64.3726 158.819 64.1615 158.677 63.9845 158.497C63.8075 158.318 63.668 158.105 63.5744 157.87C63.4808 157.636 63.4348 157.386 63.4392 157.134H63.4656Z" fill="#F5F5F5"/>
<path d="M62.4625 152.922L62.8519 153.39L63.8221 152.73L63.5251 152.196C63.8075 151.915 64.0318 151.58 64.1851 151.212L64.7923 151.272L65.0101 150.117L64.4227 149.945C64.4152 149.551 64.3346 149.162 64.1851 148.797L64.6537 148.407L63.9937 147.437L63.4591 147.728C63.1781 147.445 62.8439 147.221 62.4757 147.068L62.5351 146.46L61.3801 146.256L61.2085 146.837C60.8135 146.843 60.4235 146.926 60.0601 147.081L59.6707 146.612L58.7005 147.272L58.9909 147.807C58.7109 148.09 58.4869 148.424 58.3309 148.79L57.7237 148.737L57.5059 149.892L58.0867 150.057C58.0939 150.454 58.1767 150.846 58.3309 151.212L57.8623 151.602L58.5223 152.572L59.0569 152.275C59.3405 152.555 59.674 152.779 60.0403 152.935L59.9875 153.542L61.1425 153.76L61.3075 153.173C61.7045 153.16 62.096 153.075 62.4625 152.922ZM59.6839 149.708C59.7618 149.293 60.0013 148.926 60.3497 148.688C60.6981 148.449 61.1269 148.359 61.5418 148.437C61.9566 148.515 62.3235 148.755 62.5618 149.103C62.8001 149.451 62.8902 149.88 62.8123 150.295C62.7737 150.5 62.695 150.696 62.5808 150.871C62.4666 151.046 62.319 151.197 62.1464 151.315C61.9739 151.433 61.7798 151.516 61.5753 151.559C61.3708 151.602 61.1598 151.604 60.9544 151.566C60.7489 151.527 60.5531 151.448 60.3781 151.334C60.2031 151.22 60.0523 151.072 59.9343 150.9C59.8164 150.727 59.7335 150.533 59.6905 150.329C59.6476 150.124 59.6453 149.913 59.6839 149.708Z" fill="#F5F5F5"/>
<path d="M93.2978 219.857C93.2978 219.857 94.9214 234.47 95.4494 236.212C95.9774 237.955 103.416 247.261 103.416 247.261L101.31 248.363C101.31 248.363 93.3902 240.218 92.1296 237.803C90.869 235.387 88.9814 222.781 88.9814 222.781L93.2978 219.857Z" fill="#EBB376"/>
<path d="M91.8127 213.352C94.5517 214.804 95.4493 235.085 95.4493 235.085L96.8353 237.217L92.6245 240.24C91.6108 238.568 90.7281 236.821 89.9845 235.013C89.1463 232.756 87.1597 221.615 87.1597 221.615L91.8127 213.352Z" fill="#263238"/>
<path opacity="0.1" d="M91.8127 213.352C94.5517 214.804 95.4493 235.085 95.4493 235.085L96.8353 237.217L92.6245 240.24C91.6108 238.568 90.7281 236.821 89.9845 235.013C89.1463 232.756 87.1597 221.615 87.1597 221.615L91.8127 213.352Z" fill="white"/>
<path d="M92.0039 240.219L96.8351 236.391L97.8713 238.562L93.4163 241.737L92.0039 240.219Z" fill="#EC5F65"/>
<path opacity="0.4" d="M92.0039 240.219L96.8351 236.391L97.8713 238.562L93.4163 241.737L92.0039 240.219Z" fill="white"/>
<path d="M81.0151 239.5L85.9519 247.308C95.7397 245.031 127.11 240.246 130.957 251.01C135.749 264.382 101.145 275.048 81.9985 275.701C62.8519 276.354 47.4805 265.451 59.5915 237.533L81.0151 239.5Z" fill="#EC5F65"/>
<path opacity="0.2" d="M81.0151 239.5L85.9519 247.308C95.7397 245.031 127.11 240.246 130.957 251.01C135.749 264.382 101.145 275.048 81.9985 275.701C62.8519 276.354 47.4805 265.451 59.5915 237.533L81.0151 239.5Z" fill="black"/>
<path d="M125.4 269.94C125.379 269.952 125.355 269.959 125.331 269.959C125.306 269.959 125.282 269.952 125.262 269.94C125.243 269.926 125.23 269.908 125.224 269.886C125.218 269.864 125.22 269.841 125.229 269.821C125.288 269.603 125.922 267.762 126.549 267.57C126.617 267.553 126.688 267.555 126.755 267.575C126.822 267.594 126.883 267.631 126.931 267.682C127.021 267.756 127.09 267.853 127.13 267.962C127.171 268.07 127.182 268.188 127.162 268.303C127.056 268.646 126.847 268.948 126.562 269.167C126.2 269.461 125.811 269.719 125.4 269.94ZM125.565 269.583C126.162 269.319 126.647 268.851 126.931 268.263C126.947 268.184 126.94 268.103 126.91 268.028C126.881 267.953 126.831 267.888 126.766 267.841C126.748 267.819 126.724 267.803 126.697 267.795C126.67 267.787 126.642 267.787 126.615 267.795C126.563 267.817 126.514 267.846 126.469 267.88C126.075 268.384 125.773 268.954 125.578 269.563L125.565 269.583Z" fill="#EC5F65"/>
<path d="M125.4 269.939C125.38 269.95 125.356 269.952 125.335 269.946C125.313 269.94 125.294 269.926 125.281 269.906C125.222 269.854 124.338 268.738 124.483 267.986C124.499 267.892 124.535 267.803 124.587 267.724C124.639 267.644 124.707 267.576 124.786 267.524C124.853 267.46 124.94 267.42 125.032 267.412C125.125 267.403 125.217 267.427 125.295 267.478C125.763 267.801 125.704 269.299 125.479 269.86V269.92L125.4 269.939ZM124.899 267.755C124.82 267.824 124.767 267.916 124.747 268.019C124.771 268.582 124.977 269.121 125.334 269.557C125.479 268.897 125.433 267.874 125.163 267.682C125.163 267.682 125.077 267.623 124.938 267.722L124.899 267.755Z" fill="#EC5F65"/>
<path d="M91.7402 273.054C91.7522 273.032 91.7708 273.014 91.7933 273.004C91.8158 272.993 91.8411 272.99 91.8656 272.994C91.8873 272.997 91.9076 273.007 91.9231 273.022C91.9387 273.038 91.9486 273.058 91.9514 273.08C91.9976 273.298 92.3342 275.218 91.8656 275.72C91.8162 275.769 91.7542 275.803 91.6865 275.818C91.6188 275.833 91.5482 275.829 91.4828 275.806C91.3688 275.785 91.2625 275.734 91.1745 275.658C91.0864 275.583 91.0198 275.486 90.9812 275.377C90.9063 275.027 90.9432 274.662 91.0867 274.334C91.2619 273.887 91.4807 273.458 91.7402 273.054ZM91.7402 273.443C91.3457 273.961 91.147 274.601 91.1791 275.251C91.2037 275.328 91.2497 275.396 91.3117 275.448C91.3736 275.499 91.449 275.532 91.5289 275.542C91.5543 275.554 91.583 275.558 91.6106 275.552C91.6381 275.546 91.6628 275.53 91.6808 275.509C91.7193 275.467 91.7485 275.417 91.7665 275.364C91.8864 274.729 91.8909 274.079 91.7798 273.443H91.7402Z" fill="#EC5F65"/>
<path d="M104.287 263.365L96.4063 266.17L92.6245 267.517L93.5947 271.661L97.2577 270.876L106.207 268.969L104.287 263.365Z" fill="#EBB376"/>
<path d="M94.6241 271.854L93.9641 266.97C93.9553 266.905 93.9335 266.842 93.8999 266.786C93.8663 266.729 93.8217 266.68 93.7687 266.641C93.7157 266.602 93.6555 266.575 93.5915 266.56C93.5275 266.545 93.4612 266.543 93.3965 266.554L90.9875 266.957C90.9875 266.957 87.6875 267.267 87.0275 268.105C85.1201 270.567 86.3081 281.404 87.5819 281.787C88.0439 281.925 88.5323 281.292 88.7369 280.85C89.3969 279.45 90.5123 275.801 91.0601 274.639C91.7201 273.286 93.4625 272.626 94.2545 272.388C94.371 272.36 94.473 272.29 94.5411 272.192C94.6093 272.093 94.6388 271.973 94.6241 271.854Z" fill="#263238"/>
<path d="M91.7733 273.015C91.7911 273.004 91.8116 272.998 91.8326 272.998C91.8536 272.998 91.8742 273.004 91.892 273.015C91.9712 273.015 93.2846 273.583 93.5222 274.335C93.5803 274.519 93.5637 274.718 93.4761 274.889C93.4482 274.978 93.3915 275.055 93.3149 275.107C93.2384 275.16 93.1464 275.186 93.0537 275.18C92.4927 275.12 91.8129 273.781 91.7337 273.2V273.14C91.7272 273.118 91.7275 273.094 91.7345 273.072C91.7416 273.049 91.755 273.03 91.7733 273.015ZM93.2715 274.691C93.3042 274.591 93.3042 274.482 93.2715 274.381C93.1197 273.919 92.3871 273.51 92.0109 273.325C92.1957 273.952 92.7435 274.85 93.0735 274.883C93.0735 274.883 93.1724 274.883 93.245 274.744V274.691H93.2715Z" fill="#EC5F65"/>
<path opacity="0.2" d="M104.287 263.365L96.4062 266.17L97.2576 270.876L106.207 268.969L104.287 263.365Z" fill="black"/>
<path d="M98.6504 271.589L100.921 271.748L99.4028 263.953L96.8354 265.379L98.6504 271.589Z" fill="#EC5F65"/>
<path opacity="0.6" d="M98.6504 271.589L100.921 271.748L99.4028 263.953L96.8354 265.379L98.6504 271.589Z" fill="white"/>
<path opacity="0.2" d="M65.7891 241.295L77.5899 254.383C77.5899 254.383 90.6381 254.092 106.478 261.834C106.478 261.834 123.473 254.812 125.037 248.977C127.083 241.335 85.9521 247.308 85.9521 247.308L65.7891 241.295Z" fill="black"/>
<path d="M121.136 250.535V252.476C121.136 252.971 120.549 253.175 120.061 253.175H81.3119C80.8169 253.175 80.2163 252.971 80.2163 252.476V250.535H121.136Z" fill="#263238"/>
<path opacity="0.4" d="M121.136 250.535V252.476C121.136 252.971 120.549 253.175 120.061 253.175H81.3119C80.8169 253.175 80.2163 252.971 80.2163 252.476V250.535H121.136Z" fill="white"/>
<path opacity="0.2" d="M121.137 250.535V252.476C121.137 252.971 120.549 253.175 120.061 253.175H94.5055C94.0105 253.175 93.4165 252.971 93.4165 252.476V250.535H121.137Z" fill="black"/>
<path d="M127.618 230.406L122.998 251.328C122.913 251.662 122.72 251.96 122.449 252.175C122.179 252.389 121.845 252.509 121.5 252.516H96.314C96.1562 252.513 96.0013 252.473 95.8616 252.4C95.722 252.327 95.6014 252.222 95.5097 252.093C95.4179 251.965 95.3575 251.817 95.3333 251.661C95.309 251.505 95.3217 251.346 95.3702 251.196L99.9902 230.432C100.083 230.116 100.282 229.842 100.554 229.655C100.826 229.469 101.153 229.382 101.482 229.409H126.681C127.38 229.416 127.77 229.726 127.618 230.406Z" fill="#263238"/>
<path opacity="0.4" d="M127.618 230.405L122.998 251.327C122.913 251.661 122.72 251.959 122.449 252.173C122.179 252.388 121.845 252.508 121.5 252.515H97.172C97.0141 252.511 96.8592 252.471 96.7193 252.398C96.5794 252.325 96.4584 252.22 96.3657 252.092C96.273 251.964 96.2111 251.817 96.185 251.661C96.1589 251.505 96.1692 251.346 96.215 251.195L100.835 230.431C100.93 230.122 101.127 229.854 101.392 229.67C101.658 229.486 101.978 229.396 102.3 229.415H126.641C127.38 229.415 127.77 229.725 127.618 230.405Z" fill="white"/>
<path opacity="0.2" d="M115.197 241.037C115.197 242.833 113.276 244.285 111.897 244.285C110.517 244.285 109.653 242.833 110.055 241.037C110.458 239.242 111.857 237.85 113.236 237.797C112.834 239.592 113.692 241.037 115.098 241.037C115.131 241.04 115.164 241.04 115.197 241.037Z" fill="black"/>
<path d="M109.758 272.329L118.008 273.688L121.968 274.342L123.123 270.25L119.539 269.154L110.788 266.494L109.758 272.329Z" fill="#EBB376"/>
<path d="M122.318 269.576L120.536 274.196C120.507 274.258 120.492 274.325 120.492 274.393C120.491 274.461 120.505 274.529 120.533 274.591C120.56 274.654 120.6 274.709 120.651 274.755C120.702 274.801 120.761 274.835 120.826 274.856L123.13 275.668C123.13 275.668 126.146 276.988 127.123 276.565C129.98 275.338 134.185 265.273 133.261 264.329C132.924 263.979 132.185 264.329 131.795 264.586C130.555 265.497 127.796 268.15 126.76 268.896C125.539 269.767 123.677 269.497 122.872 269.325C122.765 269.296 122.651 269.304 122.55 269.35C122.448 269.396 122.366 269.476 122.318 269.576Z" fill="#263238"/>
<path opacity="0.2" d="M109.758 272.329L118.008 273.688L119.539 269.154L110.788 266.494L109.758 272.329Z" fill="black"/>
<path d="M118.14 268.302C118.14 268.302 84.48 249.386 72.8904 249.927C61.3008 250.469 59.6046 260.699 64.3962 267.087C69.1878 273.476 78.0318 275.047 78.0318 275.047C78.0318 275.047 72.006 266.54 72.8772 264.144C73.7484 261.748 77.154 265.094 77.154 265.094C77.154 265.094 98.3004 271.919 116.82 273.516L118.14 268.302Z" fill="#EC5F65"/>
<path d="M118.661 267.78L116.761 266.5L114.312 274.017H117.249L118.661 267.78Z" fill="#EC5F65"/>
<path opacity="0.6" d="M118.661 267.78L116.761 266.5L114.312 274.017H117.249L118.661 267.78Z" fill="white"/>
<path d="M59.5913 237.534L81.0215 239.514C81.0215 239.514 84.3809 232.557 86.9615 229.845C89.5421 227.132 91.8191 213.345 91.8191 213.345C90.0765 212.501 88.282 211.769 86.4467 211.153C81.16 209.381 75.6278 208.45 70.0523 208.395H69.9599C68.3627 208.395 67.4387 208.474 67.4387 208.474C66.7898 208.912 66.2647 209.51 65.9141 210.21C63.6173 214.17 61.7891 223.41 60.7067 230.043C59.9741 234.333 59.5913 237.534 59.5913 237.534Z" fill="#263238"/>
<path opacity="0.2" d="M60.6738 230.048C65.3994 227.883 71.8476 224.22 71.511 220.504C71.148 216.425 67.8414 212.32 65.8812 210.215C63.5844 214.175 61.7562 223.415 60.6738 230.048Z" fill="black"/>
<path d="M71.0952 208.42C71.0952 208.42 73.5372 216.459 80.2164 217.33C86.8956 218.202 88.0044 211.72 88.0044 211.72C88.0044 211.72 79.4046 207.001 71.0952 208.42Z" fill="#263238"/>
<path opacity="0.1" d="M71.0952 208.42C71.0952 208.42 73.5372 216.459 80.2164 217.33C86.8956 218.202 88.0044 211.72 88.0044 211.72C88.0044 211.72 79.4046 207.001 71.0952 208.42Z" fill="white"/>
<path d="M72.4946 208.644C72.4946 208.644 75.6428 216.089 81.3188 216.089C86.9948 216.089 87.173 211.911 87.173 211.911C87.173 211.911 81.497 208.189 72.4946 208.644Z" fill="#EC5F65"/>
<path opacity="0.4" d="M72.4946 208.644C72.4946 208.644 75.6428 216.089 81.3188 216.089C86.9948 216.089 87.173 211.911 87.173 211.911C87.173 211.911 81.497 208.189 72.4946 208.644Z" fill="white"/>
<path d="M82.7708 209.806C82.8104 211.126 83.5694 211.456 83.5694 211.456C83.635 211.865 83.6059 212.283 83.4844 212.679C83.3629 213.075 83.1521 213.438 82.8684 213.739C82.5847 214.041 82.2356 214.273 81.8479 214.419C81.4603 214.564 81.0444 214.619 80.6324 214.578C76.4282 214.149 75.1016 209.087 75.1016 209.087C78.1574 207.872 78.8438 204.5 78.9758 202.487C79.0129 201.964 79.0129 201.439 78.9758 200.916L84.6914 204.513C84.2087 205.316 83.7831 206.152 83.4176 207.014C83.0159 207.892 82.7959 208.842 82.7708 209.806Z" fill="#EBB376"/>
<path opacity="0.2" d="M84.3417 204.071C83.9433 204.927 83.6037 205.809 83.3253 206.711C83.0158 207.621 82.8945 208.584 82.9689 209.542C79.7547 209.793 78.4743 202.698 78.4743 202.698V202.652C78.4598 202.128 78.4069 201.605 78.3159 201.088L84.3417 204.071Z" fill="black"/>
<path d="M87.9978 188.218C87.9978 188.218 92.1954 183.387 87.1728 179.341C82.1502 175.295 72.2304 177.117 70.4022 186.258C68.574 195.399 71.0622 199.26 71.0622 199.26C71.0622 199.26 71.0622 193.439 72.7386 191.742C72.7386 191.742 72.237 194.528 72.7386 196.197C73.2402 197.867 72.7386 196.811 72.7386 196.811C72.7386 196.811 74.283 189.518 81.7278 191.61C89.1726 193.703 87.9978 188.218 87.9978 188.218Z" fill="#263238"/>
<path d="M89.0011 189.788C94.5319 191.477 95.4097 194.975 94.0765 200.797C92.4133 208.057 89.2915 212.677 82.8565 209.02C74.0785 204.09 79.8205 186.989 89.0011 189.788Z" fill="#EBB376"/>
<path d="M90.5981 199.398C90.7865 200.36 91.0901 201.295 91.5023 202.184C91.272 202.363 90.9966 202.475 90.7066 202.508C90.4166 202.54 90.1233 202.492 89.8589 202.368L90.5981 199.398Z" fill="#D58745"/>
<path d="M87.3512 197.92C87.2192 198.376 86.8694 198.679 86.5658 198.58C86.2622 198.481 86.117 198.052 86.2424 197.597C86.3678 197.141 86.7242 196.838 87.0278 196.937C87.3314 197.036 87.4766 197.458 87.3512 197.92Z" fill="#263238"/>
<path d="M86.8955 196.923L87.9977 196.811C87.9977 196.811 87.2717 197.51 86.8955 196.923Z" fill="#263238"/>
<path d="M93.0604 199.412C92.935 199.868 92.5852 200.171 92.2816 200.072C91.978 199.973 91.8328 199.544 91.9582 199.089C92.0836 198.634 92.44 198.33 92.7436 198.429C93.0472 198.528 93.1924 198.957 93.0604 199.412Z" fill="#263238"/>
<path d="M92.6113 198.415L93.7135 198.303C93.7135 198.303 92.9809 199.002 92.6113 198.415Z" fill="#263238"/>
<path d="M85.8 194.428C85.7493 194.426 85.7005 194.408 85.6605 194.377C85.6204 194.345 85.5911 194.302 85.5766 194.254C85.5621 194.205 85.5631 194.153 85.5795 194.105C85.5958 194.057 85.6268 194.015 85.668 193.986C86.1058 193.741 86.595 193.603 87.0959 193.583C87.5969 193.562 88.0957 193.659 88.5522 193.867C88.6086 193.893 88.6526 193.94 88.6748 193.998C88.697 194.056 88.6956 194.12 88.671 194.177C88.6588 194.206 88.6408 194.233 88.6182 194.255C88.5955 194.278 88.5686 194.295 88.5391 194.307C88.5095 194.318 88.478 194.324 88.4462 194.323C88.4144 194.323 88.3832 194.316 88.3542 194.303C87.9706 194.132 87.5535 194.051 87.134 194.065C86.7146 194.079 86.3037 194.187 85.932 194.382C85.8948 194.412 85.8481 194.429 85.8 194.428Z" fill="#263238"/>
<path d="M94.6109 196.442C94.5759 196.441 94.5414 196.433 94.5097 196.418C94.4779 196.403 94.4495 196.382 94.4261 196.356C94.2147 196.051 93.9365 195.799 93.6128 195.618C93.2892 195.438 92.9285 195.333 92.5583 195.313C92.4957 195.315 92.4348 195.293 92.3881 195.251C92.3414 195.209 92.3126 195.151 92.3075 195.089C92.3057 195.057 92.3101 195.026 92.3204 194.997C92.3308 194.967 92.3468 194.94 92.3677 194.917C92.3885 194.893 92.4137 194.874 92.4419 194.861C92.4701 194.847 92.5007 194.84 92.5319 194.838C92.977 194.85 93.4131 194.966 93.8059 195.176C94.1987 195.385 94.5375 195.683 94.7957 196.046C94.8409 196.091 94.8662 196.153 94.8662 196.217C94.8662 196.282 94.8409 196.343 94.7957 196.389C94.7699 196.409 94.7403 196.425 94.7086 196.434C94.6769 196.443 94.6437 196.445 94.6109 196.442Z" fill="#263238"/>
<path d="M80.1176 197.266C80.1176 197.266 84.0776 193.511 84.7376 189.888C84.7376 189.888 97.0598 188.752 94.2086 200.038C94.2086 200.038 98.294 190.488 88.856 187.373C79.418 184.258 75.2402 198.171 78.89 203.807C78.89 203.807 77.6558 199.616 80.1176 197.266Z" fill="#263238"/>
<path d="M88.5852 204.856C87.8491 204.863 87.1351 204.604 86.574 204.128C86.0128 203.652 85.642 202.989 85.5294 202.262C85.5236 202.198 85.5422 202.135 85.5814 202.085C85.6206 202.034 85.6776 202.001 85.7406 201.991C85.8033 201.986 85.8658 202.004 85.915 202.044C85.9642 202.083 85.9963 202.14 86.0046 202.202C86.0962 202.82 86.4107 203.382 86.8885 203.783C87.3664 204.184 87.9746 204.397 88.5984 204.38C88.6614 204.38 88.7218 204.405 88.7664 204.45C88.8109 204.495 88.836 204.555 88.836 204.618C88.836 204.681 88.8109 204.741 88.7664 204.786C88.7218 204.831 88.6614 204.856 88.5984 204.856H88.5852Z" fill="#263238"/>
<path d="M79.1606 196.159C79.1522 196.195 79.156 196.232 79.1716 196.266C79.1871 196.299 79.2135 196.327 79.2464 196.343H79.286L84.9158 197.663C84.8253 198.199 84.9157 198.749 85.1727 199.227C85.4296 199.705 85.8385 200.084 86.3348 200.303C86.9802 200.625 87.721 200.698 88.4169 200.51C89.1128 200.321 89.7152 199.884 90.11 199.28C90.1792 199.163 90.2367 199.039 90.2816 198.911C90.3821 198.829 90.4983 198.767 90.623 198.731C90.7478 198.695 90.8786 198.684 91.0076 198.7C91.0778 198.731 91.1403 198.777 91.1905 198.835C91.2407 198.894 91.2774 198.962 91.298 199.036C91.2212 199.565 91.3188 200.104 91.576 200.572C91.8333 201.04 92.2362 201.412 92.7236 201.63C93.37 201.949 94.1109 202.021 94.8065 201.831C95.502 201.642 96.104 201.204 96.4988 200.6C96.669 200.307 96.7748 199.98 96.8092 199.643C96.8437 199.305 96.806 198.964 96.6986 198.642C96.5913 198.32 96.4168 198.024 96.1866 197.775C95.9565 197.525 95.676 197.328 95.3636 197.195C94.7183 196.873 93.9774 196.8 93.2815 196.989C92.5857 197.177 91.9832 197.615 91.5884 198.218C91.5193 198.335 91.4618 198.459 91.4168 198.587C91.3373 198.505 91.2403 198.442 91.133 198.403C90.8873 198.34 90.627 198.368 90.4004 198.482C90.4893 197.946 90.3974 197.396 90.1393 196.918C89.8813 196.44 89.4716 196.061 88.9748 195.842C88.3295 195.52 87.5886 195.447 86.8927 195.636C86.1969 195.824 85.5944 196.262 85.1996 196.865C85.1095 197.019 85.0365 197.183 84.9818 197.353L79.3784 196.033C79.3329 196.021 79.2845 196.028 79.2437 196.051C79.2028 196.075 79.173 196.113 79.1606 196.159ZM91.8986 198.343C92.2443 197.817 92.7707 197.435 93.3786 197.269C93.9865 197.104 94.6338 197.167 95.1986 197.446C95.4718 197.562 95.7171 197.736 95.9182 197.955C96.1194 198.173 96.2718 198.432 96.3653 198.714C96.4589 198.996 96.4916 199.295 96.4611 199.591C96.4306 199.886 96.3378 200.172 96.1886 200.429C95.8429 200.955 95.316 201.337 94.7079 201.501C94.0997 201.665 93.4524 201.601 92.8886 201.32C92.6156 201.204 92.3705 201.031 92.1694 200.813C91.9683 200.595 91.8159 200.336 91.7222 200.055C91.6286 199.773 91.5959 199.475 91.6263 199.18C91.6567 198.885 91.7496 198.6 91.8986 198.343ZM85.5098 197.023C85.8555 196.497 86.3819 196.115 86.9898 195.949C87.5977 195.784 88.245 195.847 88.8098 196.126C89.083 196.242 89.3283 196.416 89.5294 196.635C89.7305 196.853 89.8829 197.112 89.9765 197.394C90.0701 197.676 90.1028 197.975 90.0723 198.271C90.0418 198.566 89.949 198.852 89.7998 199.109C89.4551 199.637 88.9287 200.019 88.3204 200.185C87.7122 200.35 87.0644 200.287 86.4998 200.006C86.2264 199.889 85.981 199.715 85.7799 199.495C85.5787 199.276 85.4263 199.017 85.3328 198.734C85.2392 198.452 85.2066 198.152 85.2372 197.856C85.2677 197.56 85.3606 197.274 85.5098 197.017V197.023Z" fill="#263238"/>
<g opacity="0.3">
<path d="M79.1606 196.159C79.1522 196.195 79.156 196.232 79.1716 196.266C79.1871 196.299 79.2135 196.327 79.2464 196.343H79.286L84.9158 197.663C84.8253 198.199 84.9157 198.749 85.1727 199.227C85.4296 199.705 85.8385 200.084 86.3348 200.303C86.9802 200.625 87.721 200.698 88.4169 200.51C89.1128 200.321 89.7152 199.884 90.11 199.28C90.1792 199.163 90.2367 199.039 90.2816 198.911C90.3821 198.829 90.4983 198.767 90.623 198.731C90.7478 198.695 90.8786 198.684 91.0076 198.7C91.0778 198.731 91.1403 198.777 91.1905 198.835C91.2407 198.894 91.2774 198.962 91.298 199.036C91.2212 199.565 91.3188 200.104 91.576 200.572C91.8333 201.04 92.2362 201.412 92.7236 201.63C93.37 201.949 94.1109 202.021 94.8065 201.831C95.502 201.642 96.104 201.204 96.4988 200.6C96.669 200.307 96.7748 199.98 96.8092 199.643C96.8437 199.305 96.806 198.964 96.6986 198.642C96.5913 198.32 96.4168 198.024 96.1866 197.775C95.9565 197.525 95.676 197.328 95.3636 197.195C94.7183 196.873 93.9774 196.8 93.2815 196.989C92.5857 197.177 91.9832 197.615 91.5884 198.218C91.5193 198.335 91.4618 198.459 91.4168 198.587C91.3373 198.505 91.2403 198.442 91.133 198.403C90.8873 198.34 90.627 198.368 90.4004 198.482C90.4893 197.946 90.3974 197.396 90.1393 196.918C89.8813 196.44 89.4716 196.061 88.9748 195.842C88.3295 195.52 87.5886 195.447 86.8927 195.636C86.1969 195.824 85.5944 196.262 85.1996 196.865C85.1095 197.019 85.0365 197.183 84.9818 197.353L79.3784 196.033C79.3329 196.021 79.2845 196.028 79.2437 196.051C79.2028 196.075 79.173 196.113 79.1606 196.159ZM91.8986 198.343C92.2443 197.817 92.7707 197.435 93.3786 197.269C93.9865 197.104 94.6338 197.167 95.1986 197.446C95.4718 197.562 95.7171 197.736 95.9182 197.955C96.1194 198.173 96.2718 198.432 96.3653 198.714C96.4589 198.996 96.4916 199.295 96.4611 199.591C96.4306 199.886 96.3378 200.172 96.1886 200.429C95.8429 200.955 95.316 201.337 94.7079 201.501C94.0997 201.665 93.4524 201.601 92.8886 201.32C92.6156 201.204 92.3705 201.031 92.1694 200.813C91.9683 200.595 91.8159 200.336 91.7222 200.055C91.6286 199.773 91.5959 199.475 91.6263 199.18C91.6567 198.885 91.7496 198.6 91.8986 198.343ZM85.5098 197.023C85.8555 196.497 86.3819 196.115 86.9898 195.949C87.5977 195.784 88.245 195.847 88.8098 196.126C89.083 196.242 89.3283 196.416 89.5294 196.635C89.7305 196.853 89.8829 197.112 89.9765 197.394C90.0701 197.676 90.1028 197.975 90.0723 198.271C90.0418 198.566 89.949 198.852 89.7998 199.109C89.4551 199.637 88.9287 200.019 88.3204 200.185C87.7122 200.35 87.0644 200.287 86.4998 200.006C86.2264 199.889 85.981 199.715 85.7799 199.495C85.5787 199.276 85.4263 199.017 85.3328 198.734C85.2392 198.452 85.2066 198.152 85.2372 197.856C85.2677 197.56 85.3606 197.274 85.5098 197.017V197.023Z" fill="white"/>
</g>
<path d="M80.6654 198.706C80.8067 198.05 80.6826 197.365 80.3201 196.801C79.9577 196.237 79.3865 195.84 78.7316 195.696C76.9628 195.359 75.0686 198.626 79.0748 200.771C79.649 201.082 80.177 200.587 80.6654 198.706Z" fill="#EBB376"/>
<path d="M69.9602 215.701C69.9602 215.701 70.6202 229.812 71.8148 232.98C73.0094 236.148 85.4702 247.817 85.4702 247.817C85.4702 247.817 88.9484 247.045 89.5226 247.269C90.0968 247.493 93.4166 250.569 93.4166 250.569H83.8202L82.982 249.091C82.982 249.091 70.0856 239.534 68.6666 237.257C67.6172 235.574 64.2446 218.434 64.2446 218.434L69.9602 215.701Z" fill="#EBB376"/>
<path d="M67.4061 208.48C69.6435 207.318 70.7061 211.06 72.0723 218.63C72.8849 223.415 73.2582 228.265 73.1877 233.117L75.1017 236.516L70.2705 240.965C67.9988 238.771 66.2584 236.087 65.1819 233.117C63.6903 228.563 59.5785 212.565 67.4061 208.48Z" fill="#263238"/>
<path opacity="0.1" d="M67.4061 208.48C69.6435 207.318 70.7061 211.06 72.0723 218.63C72.8849 223.415 73.2582 228.265 73.1877 233.117L75.1017 236.516L70.2705 240.965C67.9988 238.771 66.2584 236.087 65.1819 233.117C63.6903 228.563 59.5785 212.565 67.4061 208.48Z" fill="white"/>
<path d="M69.0098 240.965L75.1016 235.52L76.5404 237.533L71.0954 242.879L69.0098 240.965Z" fill="#EC5F65"/>
<path opacity="0.4" d="M69.0098 240.965L75.1016 235.52L76.5404 237.533L71.0954 242.879L69.0098 240.965Z" fill="white"/>
</svg>
