<svg width="330" height="330" viewBox="0 0 330 330" fill="none" xmlns="http://www.w3.org/2000/svg">
<path d="M264.382 168.142C264.407 168.299 264.382 168.46 264.312 168.603C264.243 168.746 264.131 168.864 263.992 168.941C263.853 169.019 263.694 169.052 263.535 169.036C263.377 169.02 263.228 168.956 263.107 168.853C262.986 168.75 262.9 168.612 262.859 168.458C262.819 168.304 262.827 168.142 262.882 167.992C262.937 167.843 263.036 167.714 263.166 167.623C263.296 167.532 263.451 167.483 263.61 167.482C263.8 167.469 263.987 167.531 264.131 167.655C264.275 167.778 264.366 167.953 264.382 168.142Z" fill="white"/>
<path d="M267.194 168.142C267.218 168.299 267.194 168.46 267.124 168.603C267.054 168.745 266.942 168.863 266.803 168.941C266.664 169.018 266.505 169.051 266.347 169.035C266.189 169.02 266.039 168.956 265.918 168.853C265.797 168.749 265.711 168.611 265.671 168.458C265.631 168.304 265.638 168.141 265.693 167.992C265.748 167.843 265.847 167.714 265.978 167.623C266.108 167.531 266.263 167.482 266.422 167.482C266.611 167.471 266.797 167.533 266.941 167.656C267.085 167.779 267.176 167.953 267.194 168.142Z" fill="white"/>
<path d="M269.227 168.821C269.653 168.821 269.999 168.516 269.999 168.141C269.999 167.765 269.653 167.461 269.227 167.461C268.8 167.461 268.455 167.765 268.455 168.141C268.455 168.516 268.8 168.821 269.227 168.821Z" fill="white"/>
<path d="M199.227 23.7598H114.252V84.3346H199.227V23.7598Z" fill="#EBEBEB"/>
<path d="M199.894 32.7491C199.894 32.8943 180.708 33.0131 157.053 33.0131C133.399 33.0131 114.213 32.8943 114.213 32.7491C114.213 32.6039 133.392 32.4785 157.053 32.4785C180.714 32.4785 199.894 32.5973 199.894 32.7491Z" fill="white"/>
<path d="M218.823 216.176H133.848V276.751H218.823V216.176Z" fill="#EBEBEB"/>
<path d="M219.489 225.165C219.489 225.31 200.31 225.429 176.655 225.429C153.001 225.429 133.808 225.31 133.808 225.165C133.808 225.02 152.988 224.895 176.655 224.895C200.323 224.895 219.489 225.013 219.489 225.165Z" fill="white"/>
<path d="M149.12 220.744C149.15 220.975 149.108 221.21 149.001 221.417C148.893 221.624 148.726 221.794 148.52 221.903C148.314 222.012 148.079 222.057 147.848 222.03C147.616 222.002 147.398 221.905 147.223 221.752C147.048 221.598 146.924 221.394 146.867 221.168C146.81 220.942 146.824 220.703 146.906 220.485C146.988 220.267 147.134 220.079 147.326 219.946C147.518 219.813 147.745 219.741 147.978 219.74C148.263 219.722 148.543 219.818 148.757 220.006C148.971 220.194 149.101 220.459 149.12 220.744Z" fill="white"/>
<path d="M261.782 78.7248C261.783 78.8713 261.741 79.0148 261.661 79.1372C261.58 79.2597 261.465 79.3554 261.33 79.4124C261.195 79.4694 261.047 79.485 260.903 79.4572C260.759 79.4294 260.627 79.3595 260.523 79.2564C260.419 79.1533 260.347 79.0216 260.318 78.878C260.289 78.7345 260.304 78.5855 260.359 78.4501C260.415 78.3146 260.51 78.1988 260.632 78.1172C260.753 78.0357 260.896 77.9922 261.043 77.9922C261.238 77.9922 261.425 78.0692 261.563 78.2064C261.702 78.3436 261.78 78.5299 261.782 78.7248Z" fill="#EBEBEB"/>
<path d="M264.455 78.7248C264.457 78.8713 264.414 79.0148 264.334 79.1372C264.254 79.2597 264.139 79.3554 264.004 79.4124C263.869 79.4694 263.72 79.485 263.576 79.4572C263.432 79.4294 263.3 79.3595 263.196 79.2564C263.092 79.1533 263.021 79.0216 262.992 78.878C262.963 78.7345 262.977 78.5855 263.033 78.4501C263.088 78.3146 263.183 78.1988 263.305 78.1172C263.427 78.0357 263.57 77.9922 263.716 77.9922C263.911 77.9922 264.098 78.0692 264.237 78.2064C264.375 78.3436 264.454 78.5299 264.455 78.7248Z" fill="#EBEBEB"/>
<path d="M312.992 315.519C312.992 315.612 246.715 315.691 164.98 315.691C83.246 315.691 16.9556 315.612 16.9556 315.519C16.9556 315.427 83.213 315.348 164.98 315.348C246.748 315.348 312.992 315.42 312.992 315.519Z" fill="#263238"/>
<path d="M146.533 189.684L147.424 251.361L267.016 246.385L263.406 185.467L146.533 189.684Z" fill="#FAFAFA"/>
<path d="M146.52 189.685H147.068L148.718 189.613L155.126 189.362L179.256 188.445L263.393 185.336H263.545V185.488C264.66 204.285 265.888 224.896 267.161 246.406V246.584H266.983L265.294 246.657L147.431 251.461H147.299V251.329C147.055 232.315 146.857 216.884 146.718 206.205C146.652 200.879 146.606 196.741 146.573 193.923C146.573 192.523 146.573 191.461 146.573 190.735C146.573 190.009 146.573 189.652 146.573 189.652C146.573 189.652 146.573 190.035 146.573 190.761C146.573 191.487 146.612 192.563 146.639 193.969C146.685 196.794 146.758 200.945 146.843 206.278C147.015 216.943 147.266 232.348 147.569 251.323L147.431 251.197L265.32 246.28L267.01 246.214L266.845 246.393C265.577 224.883 264.356 204.271 263.248 185.475L263.413 185.626L179.381 188.583L155.212 189.421L148.771 189.633L147.101 189.685H146.52Z" fill="#263238"/>
<path d="M162.65 205.498C161.915 205.694 161.154 205.781 160.393 205.755C159.639 205.842 158.876 205.815 158.129 205.676C158.863 205.478 159.621 205.389 160.38 205.412C161.137 205.325 161.902 205.354 162.65 205.498Z" fill="#263238"/>
<path d="M243.54 202.423C243.54 202.516 226.261 203.281 204.943 204.126C183.625 204.971 166.326 205.585 166.32 205.492C166.313 205.4 183.599 204.634 204.923 203.783C226.248 202.932 243.54 202.331 243.54 202.423Z" fill="#263238"/>
<path d="M256.291 201.775C254.777 202.005 253.248 202.124 251.717 202.132C250.179 202.25 248.635 202.25 247.097 202.132C248.611 201.903 250.14 201.786 251.671 201.782C253.209 201.663 254.753 201.661 256.291 201.775Z" fill="#E0E0E0"/>
<path d="M167.481 209.814C166.84 210.005 166.17 210.088 165.501 210.058C164.841 210.143 164.171 210.111 163.521 209.966C164.163 209.774 164.832 209.689 165.501 209.715C166.162 209.634 166.832 209.667 167.481 209.814Z" fill="#E0E0E0"/>
<path d="M206.487 207.981C206.487 208.073 198.528 208.469 188.7 208.858C178.873 209.248 170.88 209.518 170.88 209.393C170.88 209.268 178.84 208.905 188.7 208.515C198.561 208.126 206.487 207.901 206.487 207.981Z" fill="#263238"/>
<path d="M255.637 206.025C255.637 206.118 245.44 206.599 232.854 207.101C220.268 207.603 210.051 207.933 210.051 207.84C210.051 207.748 220.248 207.259 232.841 206.758C245.434 206.256 255.637 205.92 255.637 206.025Z" fill="#F4A4A7"/>
<path d="M168.735 213.84C167.795 214.048 166.834 214.143 165.871 214.124C164.911 214.223 163.942 214.203 162.987 214.064C163.93 213.861 164.893 213.766 165.858 213.781C166.816 213.682 167.782 213.701 168.735 213.84Z" fill="#263238"/>
<path d="M193.664 212.996C193.664 213.089 188.885 213.359 182.992 213.59C177.098 213.821 172.306 213.94 172.306 213.848C172.306 213.755 177.078 213.485 182.978 213.247C188.879 213.009 193.657 212.904 193.664 212.996Z" fill="#E0E0E0"/>
<path d="M163.68 217.847C162.854 218.054 162.004 218.148 161.152 218.125C160.306 218.211 159.452 218.187 158.611 218.052C159.437 217.846 160.288 217.755 161.139 217.781C161.985 217.691 162.84 217.713 163.68 217.847Z" fill="#263238"/>
<path d="M196.68 216.54C196.68 216.632 190.08 216.969 181.902 217.299C173.725 217.629 167.112 217.807 167.112 217.715C167.112 217.622 173.712 217.279 181.889 216.956C190.067 216.632 196.68 216.441 196.68 216.54Z" fill="#F4A4A7"/>
<path d="M251.862 214.501C251.862 214.593 239.916 215.161 225.172 215.728C210.427 216.296 198.468 216.718 198.468 216.619C198.468 216.52 210.414 215.959 225.159 215.385C239.903 214.811 251.856 214.388 251.862 214.501Z" fill="#263238"/>
<path d="M163.33 222.652C162.597 222.849 161.839 222.938 161.079 222.916C160.323 223.003 159.557 222.974 158.809 222.83C160.299 222.546 161.823 222.486 163.33 222.652Z" fill="#E0E0E0"/>
<path d="M199.604 221.1C199.604 221.199 192.41 221.562 183.526 221.912C174.643 222.262 167.435 222.473 167.429 222.381C167.422 222.288 174.623 221.925 183.513 221.569C192.403 221.212 199.604 220.975 199.604 221.1Z" fill="#263238"/>
<path d="M257.657 218.765C257.657 218.857 245.705 219.425 230.967 219.992C216.229 220.56 204.263 220.982 204.257 220.883C204.25 220.784 216.203 220.223 230.954 219.649C245.705 219.075 257.651 218.666 257.657 218.765Z" fill="#F4A4A7"/>
<path d="M163.231 227.04C162.495 227.238 161.735 227.326 160.974 227.304C160.219 227.391 159.456 227.362 158.71 227.219C160.2 226.935 161.723 226.875 163.231 227.04Z" fill="#F4A4A7"/>
<path d="M242.88 223.293C242.88 223.385 226.03 224.137 205.26 224.962C184.49 225.787 167.607 226.381 167.6 226.282C167.593 226.183 184.45 225.444 205.22 224.619C225.99 223.794 242.88 223.2 242.88 223.293Z" fill="#F4A4A7"/>
<path d="M168.584 230.611C167.003 230.899 165.39 230.963 163.792 230.803C164.571 230.596 165.376 230.505 166.181 230.532C166.982 230.446 167.79 230.472 168.584 230.611Z" fill="#263238"/>
<path d="M201.181 229.74C201.181 229.833 194.845 230.163 187.018 230.473C179.19 230.783 172.847 230.961 172.841 230.862C172.834 230.763 179.177 230.44 187.004 230.13C194.832 229.819 201.181 229.641 201.181 229.74Z" fill="#E0E0E0"/>
<path d="M253.756 227.647C253.756 227.739 242.484 228.267 228.571 228.822C214.658 229.376 203.379 229.746 203.372 229.647C203.365 229.548 214.645 229.033 228.558 228.479C242.47 227.924 253.75 227.555 253.756 227.647Z" fill="#263238"/>
<path d="M169.31 235.086C168.506 235.293 167.677 235.384 166.848 235.357C166.025 235.444 165.195 235.419 164.379 235.284C165.181 235.082 166.008 234.991 166.835 235.014C167.659 234.927 168.492 234.951 169.31 235.086Z" fill="#263238"/>
<path d="M181.09 234.762C179.643 234.989 178.18 235.104 176.715 235.105C175.254 235.218 173.786 235.218 172.326 235.105C173.773 234.872 175.236 234.755 176.701 234.755C178.162 234.642 179.63 234.644 181.09 234.762Z" fill="#E0E0E0"/>
<path d="M242.543 231.899C242.543 231.991 232.802 232.453 220.763 232.935C208.725 233.417 198.983 233.721 198.983 233.628C198.983 233.536 208.725 233.067 220.763 232.592C232.802 232.117 242.537 231.8 242.543 231.899Z" fill="#F4A4A7"/>
<path d="M165.99 117.408L156.439 181.633L281.536 196.786L288.136 132.879L165.99 117.408Z" fill="#FAFAFA"/>
<path d="M165.99 117.408L166.564 117.468L168.287 117.679L174.992 118.504L200.218 121.659L288.156 132.72H288.314V132.879C286.282 152.599 284.051 174.214 281.714 196.786V196.958H281.543L279.774 196.74L156.42 181.758H156.288V181.626C159.265 161.826 161.674 145.768 163.343 134.647C164.182 129.103 164.835 124.794 165.277 121.863C165.502 120.405 165.673 119.296 165.785 118.563C165.898 117.831 165.97 117.441 165.97 117.441C165.97 117.441 165.917 117.837 165.812 118.59C165.706 119.342 165.541 120.471 165.33 121.936C164.901 124.879 164.267 129.196 163.456 134.76C161.819 145.867 159.456 161.912 156.545 181.686L156.433 181.54L279.768 196.437L281.536 196.648L281.345 196.8C283.681 174.234 285.919 152.613 287.945 132.898L288.083 133.077L200.303 121.857L175.052 118.616L168.3 117.718L166.584 117.481L165.99 117.408Z" fill="#263238"/>
<path d="M180.048 136.568C179.252 136.648 178.449 136.608 177.665 136.449C176.866 136.412 176.076 136.256 175.322 135.987C176.118 135.915 176.921 135.957 177.705 136.113C178.503 136.155 179.292 136.308 180.048 136.568Z" fill="#263238"/>
<path d="M264.66 147.127C264.66 147.22 246.563 145.075 224.268 142.329C201.973 139.583 183.902 137.287 183.916 137.194C183.929 137.102 202.006 139.247 224.308 141.986C246.609 144.725 264.66 147.028 264.66 147.127Z" fill="#263238"/>
<path d="M277.972 148.612C276.358 148.591 274.748 148.452 273.154 148.196C271.548 148.057 269.953 147.803 268.382 147.438C269.996 147.46 271.606 147.599 273.2 147.853C274.806 147.997 276.401 148.251 277.972 148.612Z" fill="#E0E0E0"/>
<path d="M184.331 141.9C183.634 141.986 182.927 141.957 182.239 141.815C181.534 141.785 180.839 141.642 180.18 141.392C180.879 141.302 181.588 141.329 182.278 141.471C182.981 141.504 183.674 141.649 184.331 141.9Z" fill="#E0E0E0"/>
<path d="M225.172 146.6C225.172 146.693 216.817 145.742 206.54 144.482C196.264 143.221 187.935 142.112 187.948 142.02C187.961 141.927 196.304 142.878 206.587 144.138C216.869 145.399 225.185 146.521 225.172 146.6Z" fill="#263238"/>
<path d="M276.573 152.922C276.573 153.014 265.874 151.78 252.714 150.156C239.554 148.533 228.881 147.153 228.895 147.054C228.908 146.955 239.58 148.196 252.78 149.82C265.98 151.443 276.58 152.829 276.573 152.922Z" fill="#F4A4A7"/>
<path d="M184.952 146.277C183.94 146.328 182.925 146.262 181.929 146.079C180.915 146.014 179.912 145.832 178.939 145.538C179.953 145.495 180.969 145.563 181.968 145.742C182.98 145.806 183.981 145.986 184.952 146.277Z" fill="#263238"/>
<path d="M210.995 149.629C210.995 149.728 205.972 149.187 199.808 148.428C193.644 147.669 188.647 146.976 188.661 146.883C188.674 146.791 193.677 147.326 199.848 148.085C206.019 148.844 211.002 149.537 210.995 149.629Z" fill="#E0E0E0"/>
<path d="M179.025 149.582C178.142 149.638 177.255 149.585 176.385 149.424C175.488 149.373 174.6 149.206 173.745 148.929C174.628 148.869 175.515 148.92 176.385 149.081C177.283 149.132 178.171 149.301 179.025 149.582Z" fill="#263238"/>
<path d="M213.53 153.828C213.53 153.92 206.587 153.168 198.046 152.092C189.506 151.016 182.596 150.112 182.609 150.019C182.622 149.927 189.546 150.679 198.093 151.755C206.64 152.831 213.543 153.729 213.53 153.828Z" fill="#F4A4A7"/>
<path d="M271.207 161.04C271.207 161.132 258.667 159.674 243.269 157.78C227.871 155.885 215.364 154.268 215.371 154.176C215.378 154.084 227.911 155.542 243.315 157.436C258.72 159.331 271.22 160.974 271.207 161.04Z" fill="#263238"/>
<path d="M177.837 154.507C177.041 154.583 176.239 154.543 175.454 154.388C174.655 154.35 173.865 154.195 173.111 153.926C174.706 153.889 176.298 154.085 177.837 154.507Z" fill="#E0E0E0"/>
<path d="M215.82 159.061C215.82 159.153 208.269 158.308 198.983 157.16C189.697 156.012 182.16 154.982 182.16 154.89C182.16 154.797 189.71 155.649 199.003 156.79C208.296 157.932 215.82 158.935 215.82 159.061Z" fill="#263238"/>
<path d="M276.5 166.5C276.5 166.592 263.96 165.127 248.562 163.2C233.164 161.272 220.651 159.688 220.664 159.596C220.677 159.504 233.204 160.962 248.602 162.856C264 164.751 276.54 166.401 276.5 166.5Z" fill="#F4A4A7"/>
<path d="M176.992 159.06C176.196 159.132 175.394 159.09 174.61 158.935C173.811 158.894 173.022 158.741 172.267 158.48C173.062 158.399 173.865 158.44 174.649 158.598C175.449 158.635 176.238 158.791 176.992 159.06Z" fill="#F4A4A7"/>
<path d="M260.39 168.689C260.39 168.788 242.741 166.709 220.994 164.023C199.247 161.337 181.632 159.099 181.645 159.007C181.658 158.914 199.32 161.04 221.04 163.68C242.761 166.32 260.396 168.597 260.39 168.689Z" fill="#F4A4A7"/>
<path d="M181.942 163.681C181.097 163.744 180.247 163.698 179.414 163.543C178.569 163.494 177.735 163.331 176.933 163.061C177.778 162.994 178.628 163.041 179.46 163.2C180.306 163.245 181.141 163.407 181.942 163.681Z" fill="#263238"/>
<path d="M215.965 168.3C215.965 168.399 209.306 167.64 201.129 166.65C192.951 165.66 186.318 164.749 186.325 164.67C186.331 164.591 192.984 165.33 201.168 166.32C209.352 167.31 215.972 168.207 215.965 168.3Z" fill="#E0E0E0"/>
<path d="M270.943 175.066C270.943 175.158 259.123 173.785 244.576 171.997C230.03 170.208 218.242 168.697 218.255 168.584C218.269 168.472 230.069 169.865 244.622 171.653C259.175 173.442 270.95 174.973 270.943 175.066Z" fill="#263238"/>
<path d="M181.935 168.445C181.068 168.508 180.196 168.459 179.342 168.3C178.471 168.246 177.61 168.082 176.781 167.812C177.65 167.749 178.524 167.798 179.381 167.957C180.25 168.009 181.109 168.173 181.935 168.445Z" fill="#263238"/>
<path d="M194.231 170.109C192.684 170.09 191.14 169.957 189.611 169.713C188.075 169.582 186.551 169.337 185.051 168.98C186.599 168.996 188.143 169.128 189.671 169.376C191.207 169.509 192.731 169.753 194.231 170.109Z" fill="#E0E0E0"/>
<path d="M258.568 177.574C258.568 177.666 248.358 176.492 235.785 174.934C223.212 173.376 213.028 172.056 213.042 171.964C213.055 171.872 223.252 173.046 235.825 174.604C248.398 176.162 258.582 177.482 258.568 177.574Z" fill="#F4A4A7"/>
<path d="M143.101 55.9355L143.2 123.097L264.554 124.549L264.541 56.0807L143.101 55.9355Z" fill="#FAFAFA"/>
<path d="M143.101 55.9355H145.385H152.044H177.124H264.567H264.726V56.1005C264.726 76.9895 264.726 99.9047 264.726 123.869V124.741H264.554L143.22 123.229H143.088V73.9865C143.088 68.1785 143.088 63.6641 143.088 60.5951C143.088 59.0705 143.088 57.9023 143.088 57.1169C143.088 56.3315 143.088 55.9355 143.088 55.9355C143.088 55.9355 143.088 56.3513 143.088 57.1433C143.088 57.9353 143.088 59.1233 143.088 60.6479C143.088 63.7235 143.088 68.2511 143.141 74.0657C143.141 85.6883 143.22 102.446 143.279 123.097L143.147 122.965L264.508 124.378L264.33 124.549V56.1005L264.488 56.2589L177.15 56.0807L152.07 56.0081H145.385H143.655L143.101 55.9355Z" fill="#263238"/>
<path d="M159.324 77.9997C157.819 78.2285 156.288 78.2285 154.783 77.9997C156.288 77.7709 157.819 77.7709 159.324 77.9997Z" fill="#263238"/>
<path d="M240.61 78.1384C240.61 78.2308 223.245 78.31 201.828 78.31C180.411 78.31 163.033 78.2308 163.033 78.1384C163.033 78.046 180.398 77.9668 201.828 77.9668C223.258 77.9668 240.61 78.046 240.61 78.1384Z" fill="#263238"/>
<path d="M253.4 77.9988C250.324 78.2289 247.236 78.2289 244.16 77.9988C247.236 77.7686 250.324 77.7686 253.4 77.9988Z" fill="#E0E0E0"/>
<path d="M163.997 82.4017C162.686 82.6275 161.347 82.6275 160.037 82.4017C161.347 82.176 162.686 82.176 163.997 82.4017Z" fill="#E0E0E0"/>
<path d="M203.2 82.1247C203.2 82.2237 195.195 82.2963 185.321 82.2963C175.447 82.2963 167.435 82.2237 167.435 82.1247C167.435 82.0257 175.441 81.9531 185.321 81.9531C195.201 81.9531 203.2 82.0323 203.2 82.1247Z" fill="#263238"/>
<path d="M252.575 82.1247C252.575 82.2237 242.325 82.2963 229.68 82.2963C217.034 82.2963 206.778 82.2237 206.778 82.1247C206.778 82.0257 217.028 81.9531 229.68 81.9531C242.332 81.9531 252.575 82.0323 252.575 82.1247Z" fill="#F4A4A7"/>
<path d="M165.099 86.3884C163.181 86.6172 161.242 86.6172 159.324 86.3884C161.242 86.1596 163.181 86.1596 165.099 86.3884Z" fill="#263238"/>
<path d="M190.133 86.5271C190.133 86.6261 185.328 86.6987 179.401 86.6987C173.474 86.6987 168.676 86.6261 168.676 86.5271C168.676 86.4281 173.481 86.3555 179.401 86.3555C185.321 86.3555 190.133 86.4611 190.133 86.5271Z" fill="#E0E0E0"/>
<path d="M159.872 90.1032C158.183 90.332 156.472 90.332 154.783 90.1032C156.472 89.8744 158.183 89.8744 159.872 90.1032Z" fill="#263238"/>
<path d="M193.023 90.1032C193.023 90.1956 186.37 90.2748 178.167 90.2748C169.963 90.2748 163.31 90.1956 163.31 90.1032C163.31 90.0108 169.963 89.9316 178.167 89.9316C186.37 89.9316 193.023 90.0108 193.023 90.1032Z" fill="#F4A4A7"/>
<path d="M248.45 90.2419C248.45 90.3343 236.445 90.4135 221.634 90.4135C206.824 90.4135 194.812 90.3343 194.812 90.2419C194.812 90.1495 206.817 90.0703 221.634 90.0703C236.451 90.0703 248.45 90.1429 248.45 90.2419Z" fill="#263238"/>
<path d="M159.324 94.7829C157.819 95.0117 156.288 95.0117 154.783 94.7829C156.288 94.5541 157.819 94.5541 159.324 94.7829Z" fill="#E0E0E0"/>
<path d="M195.769 94.6443C195.769 94.7367 188.509 94.8159 179.612 94.8159C170.715 94.8159 163.449 94.7367 163.449 94.6443C163.449 94.5519 170.709 94.4727 179.612 94.4727C188.516 94.4727 195.769 94.5453 195.769 94.6443Z" fill="#263238"/>
<path d="M254.1 94.6443C254.1 94.7367 242.088 94.8159 227.277 94.8159C212.467 94.8159 200.455 94.7367 200.455 94.6443C200.455 94.5519 212.46 94.4727 227.277 94.4727C242.094 94.4727 254.1 94.5453 254.1 94.6443Z" fill="#F4A4A7"/>
<path d="M159.06 99.0466C157.555 99.2753 156.024 99.2753 154.519 99.0466C156.024 98.8178 157.555 98.8178 159.06 99.0466Z" fill="#F4A4A7"/>
<path d="M239.098 98.4916C239.098 98.5906 222.162 98.6632 201.273 98.6632C180.384 98.6632 163.449 98.5906 163.449 98.4916C163.449 98.3926 180.378 98.3398 201.3 98.3398C222.222 98.3398 239.098 98.3992 239.098 98.4916Z" fill="#F4A4A7"/>
<path d="M164.274 102.756C162.678 102.984 161.058 102.984 159.462 102.756C161.058 102.527 162.678 102.527 164.274 102.756Z" fill="#263238"/>
<path d="M197.01 103.172C197.01 103.264 190.634 103.343 182.774 103.343C174.913 103.343 168.538 103.264 168.538 103.172C168.538 103.079 174.913 103 182.774 103C190.634 103 197.01 103.073 197.01 103.172Z" fill="#E0E0E0"/>
<path d="M249.83 103.172C249.83 103.264 238.497 103.343 224.519 103.343C210.54 103.343 199.208 103.264 199.208 103.172C199.208 103.079 210.54 103 224.519 103C238.497 103 249.83 103.073 249.83 103.172Z" fill="#263238"/>
<path d="M164.822 107.158C163.18 107.387 161.514 107.387 159.872 107.158C161.514 106.929 163.18 106.929 164.822 107.158Z" fill="#263238"/>
<path d="M176.655 107.298C175.195 107.467 173.723 107.525 172.253 107.469C170.784 107.525 169.312 107.468 167.851 107.298C169.312 107.128 170.784 107.07 172.253 107.126C173.723 107.071 175.195 107.128 176.655 107.298Z" fill="#E0E0E0"/>
<path d="M238.412 106.92C238.412 107.012 228.617 107.091 216.539 107.091C204.461 107.091 194.7 106.979 194.7 106.92C194.7 106.86 204.488 106.748 216.566 106.748C228.644 106.748 238.412 106.788 238.412 106.92Z" fill="#F4A4A7"/>
<path d="M294.954 260.958C293.332 259.396 291.342 258.267 289.169 257.676C286.996 257.086 284.709 257.052 282.519 257.578C280.329 258.104 278.307 259.173 276.639 260.687C274.971 262.2 273.712 264.109 272.976 266.238L274.56 272.389C275.167 270.29 276.461 268.271 278.467 267.406C280.474 266.541 282.962 267.016 285.067 267.795C287.173 268.574 289.291 269.604 291.555 269.742C293.819 269.881 296.373 268.812 297.053 266.647C297.713 264.601 296.485 262.436 294.954 260.958Z" fill="#F4A4A7"/>
<path opacity="0.3" d="M294.954 260.958C293.332 259.396 291.342 258.267 289.169 257.676C286.996 257.086 284.709 257.052 282.519 257.578C280.329 258.104 278.307 259.173 276.639 260.687C274.971 262.2 273.712 264.109 272.976 266.238L274.56 272.389C275.167 270.29 276.461 268.271 278.467 267.406C280.474 266.541 282.962 267.016 285.067 267.795C287.173 268.574 289.291 269.604 291.555 269.742C293.819 269.881 296.373 268.812 297.053 266.647C297.713 264.601 296.485 262.436 294.954 260.958Z" fill="black"/>
<path d="M256.628 281.478C253.328 278.323 253.473 272.825 255.13 268.555C256.786 264.285 260.41 261.005 264.442 258.846C268.385 256.775 272.746 255.624 277.197 255.48C281.648 255.336 286.074 256.203 290.143 258.015C288.15 258.1 286.209 258.672 284.489 259.681C282.769 260.69 281.322 262.105 280.276 263.803C278.461 266.826 278.052 270.495 276.553 273.703C274.857 277.302 271.847 280.115 268.141 281.563C264.435 283.012 260.315 282.986 256.628 281.491" fill="#F4A4A7"/>
<path d="M255.031 262.522C251.354 258.179 250.866 251.209 251.407 245.547C251.948 239.884 253.262 234.188 252.371 228.571C251.836 225.238 250.549 222.064 250.114 218.724C249.678 215.385 250.292 211.603 252.886 209.445C255.862 206.963 260.548 207.55 263.644 209.88C266.739 212.21 268.534 215.86 269.841 219.51C272.719 227.515 273.801 236.392 271.412 244.59C269.023 252.787 263.492 260.073 255.354 262.542" fill="#F4A4A7"/>
<path d="M253.269 298.128C253.254 297.964 253.254 297.798 253.269 297.633C253.269 297.303 253.269 296.822 253.269 296.195C253.315 294.954 253.434 293.152 253.711 290.915C254.041 288.323 254.513 285.752 255.123 283.212C255.888 280.097 257.072 277.1 258.641 274.302C261.509 269.212 265.536 264.868 270.396 261.624C271.32 260.964 272.204 260.508 272.97 260.06C273.735 259.611 274.441 259.307 275.002 259.037L276.322 258.482C276.472 258.408 276.629 258.35 276.791 258.311C276.648 258.396 276.501 258.473 276.349 258.542L275.029 259.149C274.481 259.433 273.808 259.809 273.049 260.205C272.29 260.601 271.419 261.162 270.514 261.802C265.725 265.071 261.75 269.398 258.898 274.448C255.519 280.388 254.589 286.585 253.922 290.948C253.618 293.152 253.46 294.941 253.381 296.181C253.341 296.782 253.315 297.257 253.295 297.614C253.298 297.786 253.289 297.958 253.269 298.128Z" fill="#263238"/>
<path d="M221.555 245.395C214.751 249.5 214.771 253.235 215.906 256.766C217.041 260.297 221.219 262.706 224.677 261.386C226.657 260.641 228.056 258.938 229.264 257.228C230.472 255.519 231.614 253.691 233.31 252.463C234.476 251.594 235.92 251.183 237.369 251.308L221.555 245.395Z" fill="#F4A4A7"/>
<path d="M237.369 251.342L239.171 252.002C238.636 251.633 238.016 251.406 237.369 251.342Z" fill="#F4A4A7"/>
<path d="M237.369 251.342L239.171 252.002C238.636 251.633 238.016 251.406 237.369 251.342Z" fill="black"/>
<path opacity="0.3" d="M221.555 245.395C214.751 249.5 214.771 253.235 215.906 256.766C217.041 260.297 221.219 262.706 224.677 261.386C226.657 260.641 228.056 258.938 229.264 257.228C230.472 255.519 231.614 253.691 233.31 252.463C234.476 251.594 235.92 251.183 237.369 251.308L221.555 245.395Z" fill="black"/>
<path d="M216.48 249.897C218.255 247.442 222.651 246.729 225.43 247.956C228.208 249.184 230.234 251.613 232.03 254.042C233.825 256.47 235.62 259.031 238.135 260.721C240.649 262.41 244.18 263.024 246.715 261.321C247.515 260.725 248.186 259.971 248.685 259.106C249.185 258.241 249.502 257.284 249.619 256.292C249.844 254.304 249.71 252.292 249.223 250.352C248.622 247.501 247.639 244.518 245.362 242.709C242.814 240.683 239.283 240.591 236.036 240.696C232.307 240.822 228.525 241.099 225.027 242.393C221.529 243.686 217.965 246.471 216.48 249.89" fill="#F4A4A7"/>
<path d="M247.612 292.684C247.604 292.634 247.604 292.583 247.612 292.532C247.612 292.422 247.612 292.277 247.612 292.097L247.5 290.4C247.461 288.909 247.395 286.79 247.322 284.19C247.249 281.589 247.131 278.448 246.946 274.989C246.761 271.531 246.49 267.729 245.969 263.769C245.752 261.84 245.381 259.931 244.86 258.06C244.317 256.338 243.619 254.668 242.775 253.071C242.014 251.623 241.13 250.243 240.135 248.946C239.261 247.821 238.302 246.766 237.264 245.791C235.745 244.39 234.028 243.22 232.168 242.319C231.838 242.168 231.548 242.016 231.284 241.91L230.624 241.653L230.215 241.488L230.076 241.422C230.076 241.422 230.129 241.422 230.221 241.461L230.644 241.593L231.304 241.824C231.574 241.923 231.865 242.069 232.208 242.214C234.101 243.08 235.848 244.233 237.389 245.633C238.45 246.603 239.43 247.658 240.319 248.787C241.328 250.093 242.225 251.482 242.999 252.939C243.859 254.549 244.568 256.234 245.118 257.975C245.655 259.857 246.039 261.779 246.266 263.723C246.787 267.683 247.038 271.505 247.216 274.943C247.395 278.382 247.474 281.543 247.533 284.183C247.593 286.823 247.606 288.929 247.612 290.4V292.09C247.612 292.268 247.612 292.407 247.612 292.526C247.623 292.578 247.623 292.632 247.612 292.684Z" fill="#263238"/>
<path d="M250.061 295.759C249.736 294.805 249.486 293.828 249.315 292.835C248.842 290.125 248.738 287.363 249.005 284.625C249.422 280.58 250.292 276.595 251.599 272.745C252.991 268.369 254.899 263.689 256.509 258.654C257.315 256.211 257.976 253.723 258.489 251.202C258.939 248.85 259.26 246.475 259.453 244.087C259.764 240.041 259.837 235.979 259.67 231.924C259.552 228.465 259.367 225.66 259.255 223.726C259.195 222.769 259.149 222.024 259.123 221.496C259.123 221.251 259.123 221.06 259.123 220.915C259.114 220.849 259.114 220.783 259.123 220.717C259.13 220.783 259.13 220.849 259.123 220.915C259.123 221.06 259.156 221.251 259.182 221.489C259.228 222.017 259.288 222.763 259.373 223.713C259.525 225.647 259.736 228.452 259.882 231.917C260.079 235.982 260.029 240.055 259.73 244.114C259.545 246.512 259.227 248.898 258.779 251.262C258.27 253.794 257.608 256.293 256.799 258.746C255.176 263.795 253.268 268.468 251.863 272.83C250.551 276.669 249.666 280.639 249.223 284.671C248.944 287.392 249.017 290.139 249.44 292.842C249.605 293.792 249.757 294.531 249.896 295.026C249.949 295.257 249.995 295.442 250.028 295.587C250.046 295.643 250.057 295.7 250.061 295.759Z" fill="#263238"/>
<path d="M266.931 298.828H234.987L234.254 292.684H266.931V298.828Z" fill="#455A64"/>
<path d="M238.412 298.129L242.405 316.576H259.763L263.498 298.129H238.412Z" fill="#455A64"/>
<path d="M266.931 298.828C266.931 298.914 259.902 298.96 251.242 298.94C242.583 298.92 235.554 298.828 235.554 298.742C235.554 298.656 242.577 298.61 251.242 298.636C259.908 298.663 266.931 298.749 266.931 298.828Z" fill="#455A64"/>
<path d="M261.446 307.936C260.58 307.282 259.635 306.738 258.634 306.319C257.539 305.903 256.38 305.68 255.209 305.659C253.773 305.667 252.35 305.928 251.005 306.431C249.546 306.926 248.186 307.5 246.866 307.817C245.69 308.069 244.478 308.105 243.289 307.922C242.487 307.806 241.709 307.561 240.986 307.196C240.793 307.09 240.608 306.971 240.431 306.84C240.313 306.754 240.253 306.701 240.26 306.688C240.266 306.675 240.53 306.847 241.039 307.084C241.762 307.405 242.53 307.616 243.316 307.711C244.478 307.859 245.658 307.801 246.8 307.54C248.081 307.223 249.44 306.642 250.906 306.147C252.282 305.627 253.744 305.367 255.215 305.381C256.419 305.419 257.604 305.679 258.713 306.147C259.456 306.46 260.155 306.868 260.792 307.361C260.965 307.495 261.13 307.639 261.287 307.79C261.4 307.87 261.452 307.929 261.446 307.936Z" fill="#263238"/>
<path d="M261.201 309.163C260.363 308.535 259.458 308.001 258.502 307.573C257.452 307.151 256.333 306.927 255.202 306.913C253.815 306.919 252.439 307.167 251.136 307.645C249.724 308.12 248.404 308.662 247.143 309.005C246.027 309.326 244.864 309.455 243.705 309.388C242.922 309.341 242.156 309.137 241.454 308.787C241.265 308.686 241.084 308.572 240.913 308.444C240.801 308.358 240.741 308.305 240.748 308.299C240.755 308.292 241.012 308.45 241.5 308.681C242.204 308.979 242.955 309.147 243.718 309.176C244.852 309.208 245.984 309.059 247.071 308.734C248.305 308.384 249.612 307.837 251.031 307.361C252.365 306.867 253.779 306.621 255.202 306.635C256.365 306.668 257.51 306.925 258.575 307.394C259.283 307.712 259.948 308.118 260.555 308.602C260.766 308.774 260.924 308.919 261.03 309.018C261.135 309.117 261.208 309.157 261.201 309.163Z" fill="white"/>
<path d="M261.763 306.708C260.863 306.04 259.894 305.471 258.872 305.012C257.762 304.529 256.576 304.243 255.367 304.167C253.883 304.134 252.408 304.394 251.025 304.933C249.624 305.48 248.194 305.947 246.741 306.332C245.518 306.541 244.268 306.541 243.045 306.332C242.221 306.198 241.42 305.945 240.669 305.58C240.469 305.476 240.277 305.357 240.095 305.223C239.972 305.131 239.912 305.078 239.917 305.065C239.917 305.065 240.194 305.23 240.722 305.474C241.474 305.798 242.267 306.02 243.078 306.134C244.278 306.302 245.496 306.278 246.688 306.061C248.124 305.664 249.539 305.193 250.926 304.649C252.345 304.102 253.86 303.844 255.381 303.89C256.618 303.987 257.829 304.302 258.958 304.821C259.717 305.16 260.433 305.59 261.09 306.101C261.268 306.24 261.44 306.387 261.604 306.543C261.717 306.642 261.769 306.702 261.763 306.708Z" fill="white"/>
<path d="M267.208 298.855C267.208 298.941 260.027 299.007 251.163 299.007C242.299 299.007 235.112 298.941 235.112 298.855C235.112 298.769 242.299 298.703 251.163 298.703C260.027 298.703 267.208 298.776 267.208 298.855Z" fill="#263238"/>
<path d="M95.4489 290.281L94.9341 315.104L127.611 315.876C127.492 312.919 110.748 306.596 110.748 306.596L111.771 290.704L95.4489 290.281Z" fill="#F4A4A7"/>
<g opacity="0.6">
<path d="M100.676 305.018C100.368 305.092 100.099 305.279 99.9222 305.542C99.745 305.804 99.6727 306.124 99.7194 306.437C99.8063 306.747 100.007 307.013 100.281 307.182C100.555 307.35 100.882 307.41 101.198 307.348C101.526 307.273 101.814 307.076 102.002 306.796C102.19 306.517 102.263 306.176 102.208 305.843C102.079 305.531 101.839 305.277 101.534 305.132C101.229 304.987 100.881 304.96 100.558 305.058" fill="white"/>
</g>
<g opacity="0.6">
<path d="M94.9341 315.103L95.0859 312.602L126.357 314.278C126.357 314.278 127.795 314.905 127.611 315.875L94.9341 315.103Z" fill="white"/>
</g>
<path d="M111.282 306.451C111.282 306.602 110.47 306.655 109.672 307.111C108.873 307.566 108.438 308.206 108.292 308.14C108.147 308.074 108.411 307.21 109.388 306.662C110.365 306.114 111.315 306.312 111.282 306.451Z" fill="#263238"/>
<path d="M114.675 307.876C114.708 308.021 114.015 308.259 113.447 308.886C112.88 309.513 112.715 310.206 112.556 310.173C112.398 310.14 112.319 309.308 113.032 308.543C113.744 307.777 114.675 307.731 114.675 307.876Z" fill="#263238"/>
<path d="M116.516 311.797C116.371 311.797 116.167 311.064 116.602 310.252C117.038 309.441 117.784 309.124 117.85 309.249C117.916 309.375 117.44 309.81 117.097 310.483C116.754 311.157 116.675 311.784 116.516 311.797Z" fill="#263238"/>
<path d="M111.091 302.808C111.019 302.94 110.293 302.716 109.388 302.756C108.484 302.795 107.771 303.046 107.692 302.914C107.613 302.782 108.306 302.254 109.369 302.254C110.431 302.254 111.17 302.69 111.091 302.808Z" fill="#263238"/>
<path d="M110.405 299.124C109.864 299.247 109.301 299.231 108.768 299.078C108.183 298.965 107.614 298.784 107.072 298.537C106.75 298.396 106.439 298.233 106.141 298.049C105.963 297.947 105.801 297.821 105.659 297.672C105.563 297.563 105.505 297.424 105.496 297.279C105.486 297.133 105.525 296.988 105.607 296.867C105.692 296.763 105.8 296.679 105.922 296.622C106.044 296.565 106.178 296.536 106.313 296.537C106.521 296.542 106.727 296.575 106.927 296.636C107.272 296.724 107.61 296.841 107.936 296.986C108.477 297.233 108.978 297.56 109.421 297.956C110.161 298.616 110.405 299.21 110.352 299.237C110.299 299.263 109.916 298.808 109.164 298.24C108.72 297.91 108.237 297.637 107.725 297.428C107.421 297.305 107.108 297.205 106.788 297.131C106.445 297.039 106.128 297.026 106.062 297.171C105.996 297.316 106.022 297.25 106.095 297.342C106.195 297.454 106.313 297.548 106.445 297.62C106.721 297.798 107.008 297.961 107.303 298.108C107.805 298.357 108.328 298.56 108.867 298.715C109.388 298.817 109.902 298.954 110.405 299.124Z" fill="#263238"/>
<path d="M110.22 299.336C109.922 298.894 109.784 298.363 109.831 297.832C109.815 297.257 109.905 296.684 110.095 296.142C110.212 295.821 110.36 295.511 110.537 295.218C110.633 295.01 110.781 294.831 110.968 294.698C111.154 294.565 111.372 294.482 111.599 294.459C111.74 294.464 111.877 294.509 111.994 294.589C112.11 294.668 112.203 294.779 112.259 294.908C112.339 295.088 112.391 295.279 112.411 295.475C112.468 295.821 112.468 296.173 112.411 296.518C112.304 297.101 112.049 297.646 111.672 298.102C111.362 298.559 110.89 298.88 110.352 299C110.299 298.921 110.86 298.643 111.368 297.884C111.662 297.454 111.854 296.962 111.929 296.446C111.972 296.148 111.972 295.846 111.929 295.548C111.883 295.218 111.764 294.954 111.632 294.98C111.5 295.007 111.184 295.218 111.045 295.475C110.875 295.738 110.731 296.016 110.616 296.307C110.421 296.797 110.301 297.313 110.26 297.838C110.128 298.749 110.279 299.317 110.22 299.336Z" fill="#263238"/>
<path d="M70.6858 292.34L67.564 316.971L35.125 312.945C35.6728 310.041 53.1694 306.246 53.1694 306.246L54.4894 290.373L70.6858 292.34Z" fill="#F4A4A7"/>
<g opacity="0.6">
<path d="M63.36 306.161C63.655 306.279 63.895 306.503 64.032 306.789C64.169 307.075 64.193 307.403 64.0992 307.706C63.9635 307.995 63.7243 308.224 63.4287 308.346C63.1331 308.468 62.8025 308.475 62.502 308.366C62.189 308.243 61.9347 308.005 61.7912 307.701C61.6477 307.396 61.6257 307.049 61.7298 306.729C61.8958 306.433 62.1695 306.212 62.4939 306.113C62.8184 306.013 63.1687 306.042 63.4722 306.194" fill="white"/>
</g>
<g opacity="0.6">
<path d="M67.5641 316.971L67.7753 314.477L36.5969 311.553C36.5969 311.553 35.0789 311.969 35.1251 312.945L67.5641 316.971Z" fill="white"/>
</g>
<path d="M52.6614 306.021C52.6614 306.173 53.4336 306.338 54.153 306.919C54.8724 307.5 55.209 308.173 55.3674 308.133C55.5258 308.094 55.3674 307.196 54.5028 306.51C53.6382 305.823 52.6416 305.883 52.6614 306.021Z" fill="#263238"/>
<path d="M49.0972 306.933C49.0444 307.072 49.6978 307.409 50.1598 308.108C50.6218 308.808 50.6944 309.501 50.8198 309.514C50.9452 309.527 51.1828 308.689 50.5888 307.831C49.9948 306.973 49.117 306.788 49.0972 306.933Z" fill="#263238"/>
<path d="M46.6947 310.542C46.8399 310.588 47.1501 309.882 46.8399 308.998C46.5297 308.113 45.8301 307.711 45.7509 307.823C45.6717 307.935 46.0743 308.437 46.3119 309.143C46.5495 309.849 46.5429 310.503 46.6947 310.542Z" fill="#263238"/>
<path d="M53.3871 302.446C53.4333 302.591 54.1857 302.446 55.0767 302.644C55.9677 302.842 56.6277 303.165 56.7267 303.046C56.8257 302.928 56.2185 302.307 55.1691 302.122C54.1197 301.938 53.3211 302.314 53.3871 302.446Z" fill="#263238"/>
<path d="M54.5952 298.9C55.1138 299.1 55.6746 299.166 56.2254 299.092C56.8198 299.067 57.4092 298.972 57.981 298.808C58.3195 298.717 58.6505 298.6 58.971 298.458C59.164 298.388 59.3446 298.288 59.5056 298.161C59.6182 298.067 59.6962 297.938 59.7273 297.794C59.7584 297.651 59.7407 297.501 59.6772 297.369C59.6059 297.253 59.5097 297.154 59.3956 297.08C59.2814 297.006 59.1522 296.958 59.0172 296.94C58.8113 296.913 58.6027 296.913 58.3968 296.94C58.0415 296.976 57.6902 297.044 57.3474 297.145C56.7755 297.306 56.2321 297.555 55.737 297.884C54.9054 298.451 54.582 298.979 54.6282 299.012C54.6744 299.045 55.1232 298.649 55.9482 298.201C56.4336 297.938 56.9503 297.739 57.486 297.607C57.8049 297.531 58.1293 297.48 58.4562 297.455C58.806 297.409 59.1162 297.455 59.169 297.6C59.169 297.659 59.169 297.679 59.1162 297.765C58.9963 297.858 58.8627 297.931 58.7202 297.983C58.4239 298.121 58.1198 298.243 57.8094 298.346C57.2732 298.516 56.7234 298.64 56.166 298.715C55.6391 298.744 55.1144 298.806 54.5952 298.9Z" fill="#263238"/>
<path d="M54.7801 299.139C54.8329 299.172 55.2091 298.677 55.3873 297.714C55.4924 297.149 55.4924 296.569 55.3873 296.004C55.324 295.667 55.2244 295.337 55.0903 295.021C55.0227 294.798 54.8974 294.597 54.727 294.438C54.5566 294.279 54.3472 294.168 54.1201 294.117C53.9781 294.1 53.8342 294.123 53.7048 294.184C53.5753 294.244 53.4654 294.34 53.3875 294.46C53.284 294.628 53.2061 294.81 53.1565 295.001C53.0584 295.337 53.0139 295.687 53.0245 296.037C53.0498 296.627 53.2222 297.201 53.5261 297.707C54.0673 298.578 54.7075 298.842 54.7273 298.796C54.7471 298.75 54.2719 298.367 53.8759 297.542C53.6521 297.072 53.537 296.558 53.5393 296.037C53.5406 295.737 53.5874 295.439 53.6779 295.153C53.7637 294.83 53.9287 294.585 54.0541 294.638C54.1795 294.691 54.4567 294.935 54.5623 295.206C54.6897 295.49 54.7892 295.786 54.8593 296.09C54.9832 296.604 55.0277 297.134 54.9913 297.661C54.9319 298.572 54.6943 299.106 54.7801 299.139Z" fill="#263238"/>
<path d="M123.796 158.434L69.9204 160.156C69.9204 160.156 57.9348 240.241 58.2648 245.791L50.8662 303.871L72.3822 304.63C72.3822 304.63 75.768 285.794 78.1308 272.904C79.7016 264.324 82.566 251.738 83.3448 244.577C84.1236 237.416 94.842 188.101 94.842 188.101C94.842 188.101 95.7726 245.441 95.7924 247.824C95.8122 250.207 93.3108 304.584 93.3108 304.584H114.675C115.777 294.77 118.397 255.52 118.965 247.58C119.981 233.264 124.991 192.054 125.459 181.718C125.928 171.383 123.796 158.434 123.796 158.434Z" fill="#263238"/>
<path d="M78.0975 167.026C77.7962 165.377 77.745 163.693 77.9457 162.029C78.155 162.844 78.2439 163.684 78.2097 164.524C78.2967 165.359 78.2589 166.202 78.0975 167.026Z" fill="#455A64"/>
<path d="M80.0642 166.445C79.9485 165.024 80.0825 163.595 80.4602 162.221C80.576 163.641 80.442 165.071 80.0642 166.445Z" fill="#455A64"/>
<path d="M112.939 166.446C112.693 165.244 112.693 164.005 112.939 162.803C113.186 164.005 113.186 165.244 112.939 166.446Z" fill="#455A64"/>
<path d="M115.051 167.41C114.792 166.659 114.722 165.857 114.846 165.073C114.851 164.279 115.055 163.498 115.44 162.803C115.411 163.572 115.337 164.339 115.216 165.1C115.218 165.873 115.163 166.645 115.051 167.41Z" fill="#455A64"/>
<path d="M97.8911 186.84C97.8989 186.524 97.9409 186.21 98.0165 185.903C98.1287 185.243 98.2739 184.378 98.4521 183.368C98.8019 181.23 99.2177 178.26 99.4883 174.967C99.7589 171.673 99.8183 168.677 99.8117 166.505C99.8117 165.482 99.8117 164.618 99.8117 163.938C99.7917 163.623 99.8028 163.307 99.8447 162.994C99.9159 163.302 99.9535 163.616 99.9569 163.931C100.016 164.539 100.063 165.416 100.096 166.505C100.178 169.339 100.105 172.174 99.8777 175C99.6467 177.823 99.2633 180.632 98.7293 183.415C98.5181 184.484 98.3267 185.342 98.1749 185.929C98.1113 186.242 98.0162 186.547 97.8911 186.84Z" fill="#455A64"/>
<path d="M96.0499 163.594C95.6365 163.674 95.2597 163.885 94.9741 164.194C94.8321 164.358 94.7273 164.551 94.667 164.76C94.6066 164.968 94.592 165.187 94.6243 165.402C94.6985 165.646 94.8382 165.866 95.0282 166.036C95.2182 166.207 95.4513 166.322 95.7022 166.37C95.9531 166.417 96.2122 166.395 96.4515 166.306C96.6908 166.217 96.9011 166.064 97.0597 165.864C97.1685 165.677 97.235 165.468 97.2544 165.253C97.2738 165.037 97.2456 164.82 97.1719 164.617C97.0208 164.223 96.748 163.887 96.3931 163.66C96.3931 163.66 96.5383 163.66 96.7495 163.752C97.0492 163.929 97.2815 164.201 97.4095 164.524C97.5142 164.766 97.5622 165.028 97.5496 165.292C97.537 165.555 97.4642 165.812 97.3369 166.042C97.1471 166.311 96.8838 166.52 96.5786 166.644C96.2734 166.767 95.939 166.8 95.6155 166.739C95.2919 166.678 94.9928 166.525 94.7539 166.298C94.5149 166.072 94.3462 165.781 94.2679 165.461C94.2357 165.2 94.2635 164.934 94.3493 164.685C94.4351 164.436 94.5765 164.209 94.7629 164.023C95.0035 163.769 95.3214 163.602 95.6671 163.547C95.9245 163.528 96.0499 163.58 96.0499 163.594Z" fill="#455A64"/>
<path d="M72.6 251.947C70.744 251.382 68.9255 250.701 67.155 249.908C65.3454 249.229 63.5817 248.433 61.875 247.525C63.7305 248.092 65.549 248.773 67.32 249.565C69.1296 250.244 70.8933 251.04 72.6 251.947Z" fill="#455A64"/>
<path d="M110.722 92.2422C110.722 92.2422 118.411 94.5522 119.427 98.7432C120.655 103.845 127.624 137.98 127.624 137.98L152.665 131.796L158.605 138.396C158.605 138.396 135.802 156.216 127.895 156.216C121.295 156.216 115.487 151.16 115.487 151.16L107.006 126.655L110.722 92.2422Z" fill="#455A64"/>
<path d="M61.2217 97.4093L56.5093 100.577L69.4123 151.958L68.8909 172.636C72.2833 175.593 74.9761 180.556 91.2187 179.619C107.461 178.682 119.599 168.729 119.599 168.729L112.49 141.959L110.458 110.405L110.695 92.2415L94.1953 88.8887L75.3721 90.4925L61.2217 97.4093Z" fill="#455A64"/>
<path d="M111.375 133.321C111.263 133.321 111.164 126.912 111.157 119.012C111.151 111.112 111.23 104.703 111.342 104.703C111.454 104.703 111.547 111.112 111.56 119.012C111.573 126.912 111.481 133.321 111.375 133.321Z" fill="#263238"/>
<g opacity="0.3">
<path d="M87.4694 158.202C87.2424 157.171 86.7167 156.23 85.958 155.496C85.0406 154.777 83.7932 154.731 82.658 154.718L68.4614 154.52L69.3854 155.589C73.1936 159.107 78.7376 161.403 83.9054 161.205C86.9539 167.504 90.4384 173.582 94.3334 179.395C92.0366 172.333 89.7486 165.269 87.4694 158.202Z" fill="black"/>
</g>
<path d="M101.303 139.352C101.044 139.365 100.784 139.365 100.524 139.352C100.174 138.249 99.8642 137.246 99.5276 136.263C98.3767 133.126 96.5007 130.305 94.0526 128.031C91.6045 125.756 88.6536 124.093 85.4404 123.176C82.2272 122.258 78.8428 122.113 75.5629 122.753C72.2831 123.392 69.2008 124.797 66.5672 126.854C63.9336 128.91 61.8233 131.56 60.4084 134.588C58.9935 137.615 58.314 140.934 58.4253 144.273C58.5367 147.613 59.4356 150.879 61.049 153.805C62.6623 156.732 64.9443 159.235 67.709 161.112C75.4442 166.306 85.991 166.392 92.6372 159.99C97.4486 155.37 103.019 156.109 110.259 153.812L159.436 117.855C155.1 121.228 105.963 138.645 101.303 139.352ZM85.8524 148.79C84.7871 149.632 83.5629 150.251 82.253 150.61C80.9432 150.969 79.5744 151.06 78.2285 150.878C76.8826 150.697 75.587 150.246 74.4192 149.552C73.2514 148.859 72.2353 147.937 71.4314 146.843C69.8344 144.691 69.1377 142.003 69.4888 139.347C69.8399 136.691 71.2113 134.275 73.3124 132.613C75.5063 130.974 78.2553 130.259 80.9698 130.623C83.6843 130.987 86.148 132.401 87.8324 134.56C89.4104 136.726 90.0858 139.42 89.7165 142.075C89.3471 144.729 87.9618 147.137 85.8524 148.79Z" fill="#F4A4A7"/>
<path d="M171.6 129.703C173.474 128.872 175.118 127.321 176.609 125.836C181.289 121.17 183.262 115.606 182.068 108.676C167.779 114.451 148.546 122.463 134.732 128.159L127.888 148.368C140.27 143.068 160.01 134.825 171.6 129.703Z" fill="#F4A4A7"/>
<g opacity="0.3">
<path d="M171.6 129.703C173.474 128.872 175.118 127.321 176.609 125.836C181.289 121.17 183.262 115.606 182.068 108.676C167.779 114.451 148.546 122.463 134.732 128.159L127.888 148.368C140.27 143.068 160.01 134.825 171.6 129.703Z" fill="black"/>
</g>
<path d="M119.922 158.116C120.069 157.879 120.242 157.657 120.437 157.456L122.001 155.641L127.835 149.041C132.772 143.464 139.616 135.782 147.391 127.486L167.25 106.201L173.316 99.7922L174.986 98.0762C175.173 97.8673 175.379 97.6752 175.599 97.502C175.444 97.7379 175.268 97.9589 175.071 98.162C174.596 98.7032 174.075 99.2972 173.481 99.9572C171.87 101.717 169.89 103.895 167.541 106.491L147.84 127.862C137.214 139.201 130.825 146.375 128.159 149.299L122.219 155.787L120.569 157.529C120.372 157.745 120.156 157.941 119.922 158.116Z" fill="#263238"/>
<path d="M117.684 160.927L175.56 97.7781C171.507 96.1941 168.524 95.2371 165.151 95.2305C158.215 95.2305 152.169 99.6327 147.582 104.431C142.21 110.054 133.353 119.815 128.033 125.485L122.608 131.544L109.883 145.443C107.243 148.308 105.263 150.723 102.966 152.881C101.732 154.06 100.213 154.897 98.5575 155.31C94.0502 156.178 89.9463 158.485 86.8621 161.884C83.7778 165.284 81.8799 169.592 81.4532 174.162C81.0265 178.732 82.0942 183.318 84.4958 187.229C86.8975 191.141 90.5035 194.167 94.7721 195.855C99.0408 197.542 103.742 197.799 108.169 196.586C112.596 195.374 116.51 192.758 119.323 189.131C122.136 185.504 123.697 181.062 123.77 176.473C123.844 171.883 122.426 167.394 119.73 163.679C119.07 162.755 118.384 161.857 117.684 160.927ZM105.6 185.961C103.036 186.732 100.273 186.474 97.896 185.242C95.5192 184.009 93.7159 181.9 92.8683 179.361C92.4346 178.074 92.2642 176.713 92.3671 175.36C92.47 174.006 92.8441 172.686 93.4673 171.48C94.0904 170.274 94.9498 169.205 95.9944 168.338C97.0389 167.471 98.2472 166.822 99.5475 166.431C102.106 165.645 104.87 165.882 107.258 167.092C109.646 168.302 111.472 170.391 112.351 172.919C113.165 175.544 112.912 178.383 111.649 180.824C110.385 183.264 108.212 185.109 105.6 185.961Z" fill="#F4A4A7"/>
<path d="M102.597 155.582C102.597 155.661 101.277 155.463 99.1122 155.655C98.5292 155.708 97.9496 155.793 97.3764 155.912C97.0728 155.985 96.7164 156.031 96.4194 156.117L95.4294 156.407C93.9666 156.882 92.5645 157.527 91.2516 158.328C89.9543 159.154 88.7505 160.119 87.6612 161.205C87.1728 161.727 86.6976 162.209 86.3412 162.71C85.9653 163.158 85.6128 163.625 85.2852 164.109C84.0708 165.891 83.5362 167.126 83.4702 167.093C83.5628 166.792 83.6821 166.501 83.8266 166.221C83.9756 165.885 84.1431 165.556 84.3282 165.238C84.5568 164.805 84.808 164.384 85.0806 163.977C85.4002 163.478 85.7461 162.995 86.1168 162.532C86.5298 161.995 86.9704 161.479 87.4368 160.988C88.5338 159.87 89.7538 158.88 91.0734 158.037C92.4101 157.216 93.8448 156.567 95.3436 156.104L96.36 155.826C96.69 155.741 97.02 155.694 97.3302 155.635C98.3964 155.438 99.4802 155.351 100.564 155.378C100.935 155.379 101.305 155.401 101.673 155.444C101.985 155.458 102.295 155.504 102.597 155.582Z" fill="#263238"/>
<g opacity="0.3">
<path d="M61.9802 153.523C61.9177 153.821 61.9473 154.131 62.0652 154.411C62.1831 154.692 62.3837 154.93 62.6402 155.094C66.1052 157.338 70.3886 158.064 74.5202 158.717C87.5156 160.783 100.551 162.849 113.698 163.337C114.671 163.457 115.659 163.311 116.556 162.915C117.053 162.619 117.468 162.204 117.763 161.707C117.894 161.504 117.973 161.272 117.993 161.031C118.013 160.79 117.975 160.548 117.88 160.326C117.786 160.104 117.639 159.908 117.452 159.755C117.265 159.602 117.043 159.497 116.806 159.45C99.231 155.925 81.4432 153.557 63.5576 152.361C63.1983 152.329 62.8395 152.429 62.5489 152.643C62.2584 152.857 62.0561 153.17 61.9802 153.523Z" fill="black"/>
</g>
<path d="M104.768 150.963C105.106 150.461 105.486 149.988 105.903 149.55L109.157 145.854L120.067 133.816L131.102 121.89L134.494 118.326C134.897 117.872 135.339 117.454 135.814 117.078C135.475 117.577 135.095 118.047 134.679 118.484L131.425 122.18L120.516 134.218L109.487 146.138L106.095 149.709C105.689 150.164 105.246 150.584 104.768 150.963Z" fill="#263238"/>
<path d="M129.538 141.378C129.498 141.378 129.538 140.936 129.314 140.183C129.021 139.127 128.384 138.198 127.505 137.543C126.905 137.091 126.206 136.788 125.466 136.659C124.621 136.507 123.751 136.582 122.945 136.877C122.023 137.217 121.227 137.831 120.666 138.637C120.104 139.443 119.803 140.402 119.803 141.385C119.803 142.367 120.104 143.326 120.666 144.132C121.227 144.938 122.023 145.552 122.945 145.892C123.751 146.188 124.621 146.263 125.466 146.11C126.206 145.981 126.905 145.678 127.505 145.226C128.384 144.571 129.021 143.642 129.314 142.586C129.518 141.833 129.498 141.391 129.538 141.391C129.548 141.497 129.548 141.603 129.538 141.708C129.539 142.015 129.504 142.321 129.432 142.619C129.21 143.56 128.721 144.417 128.025 145.087C127.329 145.758 126.454 146.214 125.505 146.401C124.56 146.583 123.582 146.493 122.685 146.143C121.788 145.793 121.008 145.195 120.437 144.421C119.792 143.542 119.444 142.481 119.44 141.391C119.442 140.3 119.793 139.238 120.443 138.362C120.842 137.814 121.347 137.352 121.929 137.003C122.51 136.655 123.156 136.427 123.827 136.334C124.499 136.24 125.182 136.282 125.836 136.459C126.491 136.635 127.103 136.941 127.637 137.359C128.543 138.057 129.177 139.049 129.432 140.164C129.504 140.462 129.539 140.768 129.538 141.074C129.547 141.175 129.547 141.277 129.538 141.378Z" fill="#263238"/>
<path d="M125.716 146.011C125.3 144.49 124.96 142.948 124.7 141.391C124.172 138.844 123.703 136.771 123.796 136.771C124.004 137.19 124.157 137.634 124.251 138.091C124.482 138.916 124.766 140.071 125.037 141.339C125.307 142.606 125.492 143.781 125.611 144.639C125.704 145.09 125.74 145.551 125.716 146.011Z" fill="#263238"/>
<path d="M129.214 140.053C127.712 140.659 126.168 141.158 124.594 141.544C123.056 142.046 121.483 142.437 119.889 142.713C121.392 142.106 122.936 141.605 124.509 141.214C126.048 140.716 127.62 140.328 129.214 140.053Z" fill="#263238"/>
<path d="M73.768 49.1501C73.9264 46.3649 75.6424 44.6489 78.0448 43.2101C79.2578 42.5072 80.6225 42.1072 82.023 42.044C83.4236 41.9808 84.8188 42.2563 86.0902 42.8471C87.7798 43.6457 89.2582 45.0185 91.1128 45.2561C94.162 45.6521 97.0528 42.8273 100.049 43.5335C100.951 43.7362 101.754 44.2483 102.319 44.981C102.883 45.7137 103.173 46.6208 103.139 47.545C103.104 48.4691 102.747 49.3521 102.13 50.0407C101.513 50.7293 100.674 51.1801 99.7588 51.3149C101.739 51.6053 102.887 54.1331 102.148 56.0141C101.409 57.8951 99.31 58.9841 97.2904 59.0303C95.2622 58.9587 93.2914 58.3382 91.588 57.2351C89.839 56.2187 88.2088 54.9977 86.3872 54.1265C84.5656 53.2553 82.4668 52.7471 80.5132 53.2685C77.8732 53.9681 75.9988 56.4629 75.3124 59.1095C74.626 61.7561 74.923 64.5545 75.3124 67.2539C75.7018 69.9533 76.243 72.6857 75.9724 75.4049C75.9796 75.566 75.9487 75.7264 75.8822 75.8732C75.8157 76.02 75.7154 76.149 75.5896 76.2497C75.1804 76.4741 74.7184 76.0913 74.4214 75.7349C71.0337 71.7182 68.4704 67.0736 66.8776 62.0663C65.9536 59.1689 65.4454 56.3507 66.5542 53.4863C67.663 50.6219 71.392 47.9555 73.735 49.1039" fill="#263238"/>
<path d="M71.194 62.6336L75.6622 90.1952C76.5004 95.3432 79.84 100.32 87.9184 98.63C94.8154 96.65 94.3072 91.6736 93.4096 85.5554C93.4096 85.5554 100.98 83.582 100.32 75.8996C99.9898 72.1706 98.6896 64.541 97.4356 57.6572C96.7808 54.0917 94.8083 50.903 91.9102 48.7251C89.0121 46.5473 85.4006 45.5397 81.7936 45.9026L81.0478 45.9818C73.0684 47.2226 69.7024 54.7004 71.194 62.6336Z" fill="#FFBE9D"/>
<path d="M93.4098 85.5562C89.8462 85.8978 86.2593 85.2107 83.0742 83.5762C83.0742 83.5762 86.097 89.3116 93.72 87.8464L93.4098 85.5562Z" fill="#EB996E"/>
<path d="M96.1752 64.8907C96.2071 65.178 96.1257 65.4663 95.9481 65.6944C95.7706 65.9225 95.5111 66.0722 95.2248 66.1117C95.0859 66.1372 94.9433 66.1346 94.8054 66.104C94.6676 66.0734 94.5373 66.0155 94.4222 65.9336C94.3071 65.8518 94.2096 65.7477 94.1355 65.6275C94.0614 65.5073 94.0121 65.3735 93.9906 65.2339C93.9603 64.9488 94.0417 64.6629 94.2177 64.4365C94.3937 64.2101 94.6505 64.0606 94.9344 64.0195C95.0732 63.994 95.2157 63.9963 95.3536 64.0264C95.4915 64.0565 95.622 64.1138 95.7375 64.1949C95.853 64.276 95.9512 64.3793 96.0263 64.4988C96.1015 64.6183 96.1521 64.7515 96.1752 64.8907Z" fill="#263238"/>
<path d="M96.1489 61.5786C96.0301 61.7304 95.1325 61.2024 93.9511 61.3212C92.7697 61.44 91.9711 62.1264 91.8127 61.9812C91.6543 61.836 91.8589 61.6446 92.2087 61.3212C92.6852 60.9155 93.2752 60.6666 93.8983 60.6084C94.5137 60.542 95.1341 60.6762 95.6671 60.9912C96.0631 61.2552 96.2149 61.506 96.1489 61.5786Z" fill="#263238"/>
<path d="M85.2651 65.9537C85.2971 66.241 85.2156 66.5293 85.0381 66.7574C84.8606 66.9855 84.601 67.1352 84.3147 67.1747C84.1759 67.1993 84.0336 67.196 83.8961 67.165C83.7586 67.134 83.6287 67.076 83.5138 66.9943C83.3989 66.9126 83.3015 66.8089 83.2271 66.6891C83.1527 66.5694 83.1029 66.4361 83.0805 66.2969C83.0486 66.0097 83.13 65.7213 83.3076 65.4932C83.4851 65.2652 83.7446 65.1154 84.0309 65.0759C84.1698 65.0504 84.3124 65.0531 84.4503 65.0837C84.5881 65.1143 84.7184 65.1722 84.8335 65.254C84.9486 65.3359 85.0461 65.44 85.1202 65.5602C85.1943 65.6803 85.2436 65.8142 85.2651 65.9537Z" fill="#263238"/>
<path d="M84.5328 62.9637C84.4074 63.1221 83.5164 62.5875 82.3284 62.7129C81.1404 62.8383 80.3484 63.5115 80.1966 63.3729C80.0448 63.2343 80.2362 63.0429 80.586 62.7129C81.0674 62.3172 81.6605 62.0818 82.2822 62.0397C82.8968 61.9746 83.5161 62.1063 84.051 62.4159C84.4404 62.6469 84.5922 62.8977 84.5328 62.9637Z" fill="#263238"/>
<path d="M89.7136 71.3191C90.3176 71.06 90.9518 70.8782 91.6012 70.7779C91.8982 70.7119 92.182 70.6261 92.2084 70.4149C92.2062 70.0991 92.1046 69.792 91.918 69.5371L90.796 67.3261C89.2186 64.1713 88.0504 61.5643 88.156 61.5049C88.2616 61.4455 89.6608 63.9469 91.2316 67.1017C91.6078 67.8805 91.9708 68.6197 92.3206 69.3325C92.5449 69.6784 92.6428 70.091 92.5978 70.5007C92.5651 70.6127 92.5069 70.7156 92.428 70.8014C92.349 70.8873 92.2513 70.9538 92.1424 70.9957C91.9789 71.0585 91.8082 71.1006 91.6342 71.1211C91.0047 71.2666 90.3596 71.3331 89.7136 71.3191Z" fill="#263238"/>
<path d="M84.3742 58.291C84.2884 58.6276 83.0542 58.5946 81.7342 58.8982C80.4142 59.2018 79.279 59.7035 79.0942 59.4329C79.0018 59.3009 79.1668 58.9774 79.5892 58.621C80.1544 58.1758 80.8144 57.8663 81.5181 57.7164C82.2218 57.5665 82.9506 57.5802 83.6482 57.7564C84.1234 57.9082 84.4072 58.1392 84.3742 58.291Z" fill="#263238"/>
<path d="M95.3698 58.1913C95.1916 58.4817 94.3468 58.2837 93.3898 58.3695C92.4328 58.4553 91.5946 58.7325 91.3768 58.4685C91.2778 58.3431 91.3768 58.0593 91.72 57.7689C92.1763 57.4128 92.7285 57.2012 93.306 57.1612C93.8834 57.1213 94.4596 57.2547 94.9606 57.5445C95.3104 57.7821 95.449 58.0791 95.3698 58.1913Z" fill="#263238"/>
<path d="M72.4021 68.2768C72.2635 68.2372 66.9439 67.2472 67.6435 72.4942C68.3431 77.7412 73.4713 75.9658 73.4581 75.7942C73.4449 75.6226 72.4021 68.2768 72.4021 68.2768Z" fill="#FFBE9D"/>
<path d="M71.5901 74.0381C71.5901 74.0381 71.5109 74.1107 71.3657 74.2031C71.1668 74.32 70.9311 74.3578 70.7057 74.3087C70.1249 74.1767 69.5441 73.3583 69.3857 72.4145C69.3137 71.9741 69.3407 71.5232 69.4649 71.0945C69.4933 70.9238 69.562 70.7623 69.6653 70.6234C69.7686 70.4845 69.9035 70.3722 70.0589 70.2959C70.161 70.2542 70.2746 70.2498 70.3797 70.2836C70.4847 70.3174 70.5745 70.3872 70.6331 70.4807C70.7255 70.6127 70.7057 70.7249 70.7321 70.7315C70.7585 70.7381 70.8311 70.6259 70.7321 70.4147C70.6813 70.2903 70.5938 70.1844 70.4813 70.1111C70.3204 70.0218 70.1312 69.9981 69.9533 70.0451C69.7446 70.119 69.5579 70.2441 69.4103 70.4091C69.2627 70.574 69.1589 70.7734 69.1085 70.9889C68.9452 71.4729 68.9022 71.9894 68.9831 72.4937C69.1613 73.5497 69.8345 74.4737 70.6199 74.5859C70.7664 74.6085 70.9161 74.5977 71.0578 74.5542C71.1995 74.5108 71.3296 74.4359 71.4383 74.3351C71.5967 74.1635 71.6099 74.0447 71.5901 74.0381Z" fill="#EB996E"/>
<path d="M96.7954 50.4372C95.8936 49.0214 94.6527 47.8531 93.1852 47.0382C90.104 45.1208 86.4963 44.2246 82.876 44.4774C79.2401 44.7571 75.8555 46.4399 73.438 49.17C71.5952 51.41 70.4481 54.1401 70.138 57.024C69.8355 59.9096 70.1114 62.8265 70.9498 65.604C71.206 66.854 71.8233 68.0014 72.7252 68.904C73.3258 69.4188 74.296 69.696 74.8702 69.1548C75.1708 68.7942 75.3426 68.3437 75.3586 67.8744C75.9658 63.7098 76.5268 59.235 74.6458 55.473C75.4775 54.0236 76.6012 52.7628 77.9458 51.7704C78.6178 51.2778 79.3811 50.9237 80.1913 50.7288C81.0014 50.5339 81.8422 50.5021 82.6648 50.6352C85.087 51.1236 86.7634 53.2752 88.7962 54.6612C90.2629 55.654 91.9448 56.2838 93.7029 56.4983C95.461 56.7129 97.2449 56.5063 98.9074 55.8954L96.7954 50.4372Z" fill="#263238"/>
<path d="M90.7565 74.5138C90.6956 75.0144 90.5622 75.5035 90.3605 75.9658C90.2592 76.1957 90.1103 76.4016 89.9238 76.5699C89.7373 76.7383 89.5172 76.8653 89.2781 76.9426C89.0149 76.9977 88.7419 76.9855 88.4846 76.9071C88.2273 76.8286 87.994 76.6865 87.8063 76.4938C87.441 76.103 87.2098 75.6059 87.1463 75.0748C87.0671 74.5996 87.1463 73.9858 87.6281 73.834C87.823 73.7845 88.0272 73.7845 88.2221 73.834L90.9017 74.3158" fill="#EB996E"/>
<path d="M90.1954 76.757C89.7654 76.8712 89.3186 76.9092 88.8754 76.8692C88.4091 76.7889 87.9886 76.5399 87.694 76.1696C87.5201 75.9436 87.397 75.6827 87.3332 75.4048C87.2694 75.1268 87.2664 74.8384 87.3244 74.5592C87.3504 74.4176 87.3948 74.28 87.4564 74.15C87.5356 74.0246 87.5158 74.0312 87.628 74.0246C87.7402 74.018 87.9118 74.0774 88.057 74.0972L88.4992 74.1764C89.0734 74.282 89.5882 74.3678 90.0238 74.4338C90.4921 74.548 90.975 74.5903 91.456 74.5592C91.0233 74.3449 90.5603 74.198 90.0832 74.1236C89.6608 74.018 89.146 73.8992 88.5784 73.7738L88.1428 73.6748C87.9844 73.6748 87.859 73.6088 87.6544 73.5824C87.5243 73.5708 87.3941 73.6033 87.2848 73.6748C87.1869 73.743 87.1094 73.8366 87.0604 73.9454C86.9785 74.113 86.9186 74.2904 86.8822 74.4734C86.8096 74.8189 86.8159 75.1763 86.9004 75.5191C86.985 75.8619 87.1457 76.1813 87.3706 76.4534C87.5535 76.6689 87.777 76.8462 88.0284 76.9753C88.2798 77.1044 88.5542 77.1827 88.8358 77.2058C89.2045 77.2408 89.5758 77.177 89.9116 77.021C90.1096 76.8824 90.2086 76.7768 90.1954 76.757Z" fill="#263238"/>
<path d="M101.805 44.6152C101.855 44.7245 101.89 44.8399 101.91 44.9584C101.975 45.3 101.986 45.6496 101.943 45.9946C101.857 46.6319 101.644 47.2456 101.318 47.7998C100.991 48.3539 100.558 48.8374 100.042 49.222C99.2542 49.7598 98.3668 50.1353 97.432 50.3268C96.4972 50.5183 95.5336 50.5219 94.5974 50.3374C92.4656 50.047 90.3338 49.0174 88.1096 48.1066C85.8854 47.1958 83.5952 46.5688 81.5096 46.945C79.6932 47.2874 78.0449 48.2313 76.8302 49.6246C76.0007 50.5499 75.3314 51.6073 74.8502 52.753C74.5136 53.578 74.4014 54.073 74.3618 54.073C74.3732 53.9525 74.3952 53.8332 74.4278 53.7166C74.5074 53.3833 74.6066 53.0549 74.7248 52.7332C75.1849 51.541 75.8556 50.4411 76.7048 49.486C77.9407 48.0247 79.6379 47.0283 81.5162 46.6612C83.6546 46.252 86.024 46.8856 88.2614 47.8096C90.4988 48.7336 92.6042 49.7566 94.67 50.0536C95.5672 50.2403 96.4924 50.2483 97.3927 50.0773C98.293 49.9063 99.1507 49.5596 99.917 49.057C100.929 48.3283 101.617 47.2349 101.838 46.0078C101.887 45.5442 101.876 45.076 101.805 44.6152Z" fill="#455A64"/>
<path d="M67.3201 60.6153C67.296 60.1227 67.3655 59.6301 67.5247 59.1633C67.8425 58.0141 68.3854 56.9396 69.1219 56.0019C69.5227 55.4832 69.981 55.0116 70.4881 54.5961C70.9006 54.2251 71.4 53.964 71.9401 53.8371C72.3093 53.7611 72.6932 53.805 73.0357 53.9625C73.2733 54.0813 73.3591 54.2067 73.3459 54.2199C72.935 54.0236 72.4696 53.9724 72.0259 54.0747C71.2009 54.2859 70.2703 55.1769 69.4387 56.2131C68.7321 57.1238 68.1812 58.1452 67.8085 59.2359C67.4653 60.0609 67.3795 60.6285 67.3201 60.6153Z" fill="#455A64"/>
<path d="M68.7124 65.162C68.7258 64.6665 68.8264 64.1772 69.0094 63.7166C69.3976 62.5809 69.9928 61.5269 70.765 60.608C71.5341 59.6883 72.4645 58.9167 73.5106 58.331C73.9317 58.0676 74.3967 57.8821 74.8834 57.7832C74.8834 57.836 74.395 58.0604 73.636 58.5422C72.656 59.1665 71.7769 59.9365 71.029 60.8258C70.2864 61.7223 69.6834 62.7258 69.2404 63.8024C69.0909 64.2655 68.9146 64.7194 68.7124 65.162Z" fill="#455A64"/>
<path d="M61.38 97.4102L57.2748 100.182C55.4084 101.424 53.8331 103.055 52.6572 104.963C51.4814 106.871 50.7331 109.012 50.4636 111.237C49.071 123.394 47.9622 145.333 50.7144 149.887C54.4368 156.038 94.116 158.038 94.116 158.038L96.756 145.742L64.416 138.297L64.8186 128.074L61.38 97.4102Z" fill="#455A64"/>
<path d="M64.8121 115.037C64.8193 115.18 64.8193 115.323 64.8121 115.466C64.8121 115.77 64.8121 116.186 64.8121 116.72C64.8121 117.816 64.7593 119.433 64.7659 121.485C64.7659 125.597 65.0365 131.491 64.7659 138.599L64.6339 138.434L93.6343 144.83L96.8419 145.542L97.0333 145.589L96.9937 145.78C96.0565 150.077 95.1589 154.208 94.3207 158.076L94.2811 158.234H94.1227C85.171 157.879 76.2526 156.934 67.4257 155.403C64.1257 154.835 61.5649 154.301 59.8027 153.905C58.9183 153.707 58.2385 153.542 57.7831 153.423L57.2683 153.284C57.1495 153.251 57.0901 153.231 57.0967 153.225C57.156 153.219 57.2156 153.219 57.2749 153.225L57.7963 153.337L59.8291 153.753C61.5979 154.109 64.1917 154.604 67.4653 155.139C76.2909 156.589 85.1984 157.486 94.1359 157.825L93.9445 157.977C94.7761 154.109 95.6737 149.971 96.5845 145.674L96.7363 145.919L93.5089 145.199L64.5217 138.731L64.3831 138.698V138.599C64.7131 131.504 64.4755 125.617 64.5547 121.499C64.5547 119.439 64.6405 117.829 64.6867 116.727C64.6867 116.199 64.7461 115.783 64.7593 115.479C64.7602 115.33 64.7779 115.182 64.8121 115.037Z" fill="#263238"/>
<path d="M100.94 148.097C101.744 147.007 102.775 146.106 103.963 145.457C106.002 144.302 110.042 143.912 110.834 142.566C111.626 141.219 112.814 142.638 112.154 144.368C111.711 145.47 108.741 147.991 108.741 147.991C108.741 147.991 111.381 149.245 113.427 148.559C115.473 147.872 122.324 147.239 122.832 148.308C123.407 149.489 121.644 149.489 120.852 149.753C120.239 149.951 115.52 151.212 115.52 151.212C115.52 151.212 124.1 152.651 125.103 153.271C126.106 153.891 124.773 154.743 124.232 154.65C123.888 154.598 124.819 155.733 123.572 156.485C122.733 157 119.084 157.053 118.12 156.875L116.14 156.505L122.04 158.353C122.04 158.353 122.885 159.521 121.334 159.719C120.674 159.812 101.851 158.742 100.419 158.538C97.9372 158.181 94.4326 157.554 94.4326 157.554L96.4126 147.384L100.94 148.097Z" fill="#FFBE9D"/>
<path d="M150.909 138.818L154.605 136.284C154.605 136.284 155.826 128.965 157.449 127.466L158.32 126.536C158.32 126.536 158.446 122.873 160.518 122.47C161.343 121.249 162.148 120.86 162.927 121.81C162.927 121.81 162.973 119.045 165.528 119.23C168.082 119.414 166.353 130.793 166.353 130.793C166.353 130.793 166.491 136.073 163.666 135.479C163.666 135.479 161.686 136.904 159.885 136.7C159.885 136.7 158.703 139.584 156.268 138.871L150.909 138.818Z" fill="#FFBE9D"/>
<path d="M159.792 135.301C159.792 135.301 159.924 135.426 160.004 135.723C160.093 136.151 160.047 136.596 159.872 136.997C159.618 137.597 159.169 138.095 158.598 138.409C157.911 138.772 157.16 138.996 156.387 139.069C155.022 139.244 153.639 139.219 152.282 138.997C151.711 138.949 151.154 138.796 150.638 138.548C150.638 138.423 153.199 139.076 156.341 138.673C157.061 138.608 157.763 138.411 158.413 138.093C158.932 137.834 159.353 137.415 159.614 136.898C159.847 136.399 159.909 135.838 159.792 135.301Z" fill="#EB996E"/>
<path d="M162.861 131.788C162.736 131.788 163.224 129.511 163.264 126.686C163.304 123.861 162.934 121.584 163.053 121.564C163.256 122.031 163.381 122.529 163.422 123.036C163.795 125.457 163.748 127.924 163.284 130.329C163.218 130.834 163.075 131.326 162.861 131.788Z" fill="#EB996E"/>
<path d="M160.459 132.56C160.34 132.56 160.604 130.296 160.617 127.518C160.63 124.739 160.399 122.482 160.518 122.469C160.924 124.119 161.093 125.819 161.02 127.518C161.073 129.217 160.884 130.915 160.459 132.56Z" fill="#EB996E"/>
<path d="M164.425 133.32C164.531 133.28 164.749 134.059 164.32 134.884C163.891 135.709 163.132 135.98 163.105 135.874C163.079 135.768 163.607 135.399 163.963 134.699C164.32 134 164.34 133.32 164.425 133.32Z" fill="#EB996E"/>
<path d="M157.403 132.338C157.445 131.395 157.571 130.459 157.78 129.539C157.857 128.598 158.018 127.666 158.261 126.754C158.411 127.699 158.382 128.664 158.176 129.599C157.938 131.156 157.509 132.371 157.403 132.338Z" fill="#EB996E"/>
</svg>
