<svg width="428" height="428" viewBox="0 0 428 428" fill="none" xmlns="http://www.w3.org/2000/svg">
<path d="M428 327.334H0V327.548H428V327.334Z" fill="#EBEBEB"/>
<path d="M385.114 341.107H366.556V341.321H385.114V341.107Z" fill="#EBEBEB"/>
<path d="M295.038 336.674H265.839V336.888H295.038V336.674Z" fill="#EBEBEB"/>
<path d="M377.599 333.164H339.481V333.378H377.599V333.164Z" fill="#EBEBEB"/>
<path d="M148.105 337.479H138.569V337.693H148.105V337.479Z" fill="#EBEBEB"/>
<path d="M130.942 337.479H98.0806V337.693H130.942V337.479Z" fill="#EBEBEB"/>
<path d="M80.4724 333.865H56.7612V334.079H80.4724V333.865Z" fill="#EBEBEB"/>
<path d="M202.872 289.157H37.5867C36.2919 289.155 35.0509 288.639 34.1361 287.722C33.2213 286.806 32.7075 285.564 32.7075 284.269V51.925C32.7188 50.6376 33.2375 49.4067 34.1511 48.4995C35.0647 47.5924 36.2993 47.0823 37.5867 47.0801H202.872C204.168 47.0801 205.411 47.595 206.328 48.5117C207.245 49.4283 207.76 50.6715 207.76 51.9678V284.269C207.76 285.565 207.245 286.809 206.328 287.725C205.411 288.642 204.168 289.157 202.872 289.157ZM37.5867 47.2513C36.3486 47.2535 35.1621 47.747 34.2874 48.6232C33.4128 49.4995 32.9215 50.687 32.9215 51.925V284.269C32.9215 285.507 33.4128 286.695 34.2874 287.571C35.1621 288.447 36.3486 288.941 37.5867 288.943H202.872C204.111 288.941 205.298 288.447 206.174 287.571C207.05 286.695 207.543 285.508 207.546 284.269V51.925C207.543 50.6862 207.05 49.4987 206.174 48.6227C205.298 47.7467 204.111 47.2535 202.872 47.2513H37.5867Z" fill="#EBEBEB"/>
<path d="M388.033 289.157H222.74C221.444 289.155 220.202 288.639 219.286 287.723C218.37 286.807 217.854 285.565 217.852 284.269V51.925C217.866 50.6369 218.386 49.4059 219.301 48.499C220.216 47.5921 221.452 47.0823 222.74 47.0801H388.033C389.319 47.0845 390.552 47.5956 391.464 48.5025C392.375 49.4094 392.893 50.6391 392.904 51.925V284.269C392.904 285.562 392.391 286.803 391.479 287.719C390.566 288.635 389.327 289.152 388.033 289.157ZM222.74 47.2513C221.501 47.2535 220.313 47.7467 219.437 48.6227C218.561 49.4987 218.068 50.6862 218.066 51.925V284.269C218.068 285.508 218.561 286.695 219.437 287.571C220.313 288.447 221.501 288.941 222.74 288.943H388.033C389.272 288.941 390.46 288.447 391.336 287.571C392.212 286.695 392.705 285.508 392.707 284.269V51.925C392.705 50.6862 392.212 49.4987 391.336 48.6227C390.46 47.7467 389.272 47.2535 388.033 47.2513H222.74Z" fill="#EBEBEB"/>
<path d="M184.956 171.953L185.341 160.705L178.442 158.445C178.145 154.633 177.527 150.853 176.593 147.146L182.448 142.866L178.476 132.303L171.234 132.885C169.517 129.482 167.513 126.231 165.242 123.169L168.992 116.912L161.288 108.686L154.816 111.999C151.906 109.511 148.797 107.267 145.52 105.288L146.564 98.0972L136.292 93.4405L131.584 98.9532C127.952 97.7913 124.23 96.9324 120.456 96.3852L118.744 89.3403L107.462 88.9551L105.237 95.863C101.429 96.1624 97.6521 96.778 93.9461 97.7034L89.5976 91.8826L79.0346 95.8288L79.6167 103.071C76.2152 104.814 72.9653 106.838 69.9011 109.122L63.6009 105.288L55.3405 112.992L58.6532 119.497C56.1651 122.393 53.9313 125.497 51.9764 128.776L44.7946 127.698L40.1037 137.97L45.6506 142.669C44.4805 146.299 43.6214 150.022 43.0826 153.797L35.9521 155.586L35.5669 166.834L42.5005 169.094C42.7873 172.903 43.4031 176.681 44.3409 180.384L38.4859 184.664L42.4663 195.236L49.708 194.654C51.4206 198.06 53.4255 201.31 55.7 204.37L51.9422 210.627L59.6462 218.853L66.1175 215.54C69.0199 218.027 72.1236 220.269 75.3966 222.243L74.318 229.425L84.59 234.09L89.3237 228.577C92.9556 229.75 96.6774 230.623 100.452 231.188L102.164 238.233L113.446 238.618L115.671 231.71C119.482 231.407 123.261 230.792 126.971 229.87L131.251 235.691L141.814 231.744L141.266 224.503C144.661 222.749 147.91 220.725 150.981 218.451L157.204 222.2L165.465 214.496L162.152 207.99C164.641 205.096 166.875 201.991 168.829 198.711L176.011 199.79L180.702 189.518L175.155 184.81C176.345 181.183 177.218 177.46 177.766 173.682L184.956 171.953ZM108.952 208.393C100.125 208.095 91.5843 205.185 84.4109 200.032C77.2376 194.88 71.7536 187.715 68.6527 179.445C65.5517 171.175 64.9732 162.172 66.9901 153.573C69.0071 144.974 73.529 137.167 79.9839 131.138C86.4387 125.11 94.5365 121.131 103.253 119.706C111.969 118.28 120.913 119.472 128.952 123.13C136.991 126.788 143.764 132.748 148.415 140.256C153.067 147.764 155.386 156.483 155.082 165.31C154.675 177.14 149.588 188.324 140.937 196.403C132.287 204.482 120.781 208.795 108.952 208.393Z" fill="#EBEBEB"/>
<path d="M377.496 134.751L380.329 132.106L379.208 129.872C380.063 128.871 380.833 127.8 381.51 126.67L383.993 127.038L385.594 123.494L383.693 121.877C384.103 120.624 384.403 119.338 384.592 118.033L387.032 117.425L387.152 113.539L384.772 112.769C384.667 111.453 384.455 110.147 384.138 108.865L386.15 107.367L384.78 103.729L382.289 103.926C381.689 102.753 380.993 101.631 380.209 100.571L381.502 98.4308L378.84 95.5889L376.614 96.7273C375.611 95.8739 374.541 95.1038 373.413 94.4247L373.772 91.9423L370.237 90.3245L368.611 92.2333C367.355 91.8424 366.07 91.5561 364.767 91.3773L364.159 88.9463L360.273 88.8008L359.494 91.1976C358.183 91.2978 356.883 91.5097 355.608 91.831L354.118 89.8194L350.472 91.1805L350.677 93.68C349.501 94.2748 348.378 94.9708 347.322 95.7601L345.165 94.4675L342.323 97.1125L343.427 99.2953C342.565 100.294 341.792 101.365 341.116 102.497L338.642 102.129L337.033 105.673L338.942 107.299C338.546 108.55 338.259 109.833 338.086 111.134L335.637 111.742L335.518 115.628L337.906 116.398C338.003 117.715 338.212 119.02 338.531 120.302L336.511 121.791L337.88 125.429L340.38 125.241C340.98 126.414 341.676 127.536 342.46 128.596L341.167 130.736L343.829 133.578L346.055 132.44C347.055 133.296 348.126 134.066 349.256 134.742L348.888 137.216L352.432 138.834L354.059 136.934C355.315 137.321 356.6 137.607 357.902 137.79L358.51 140.221L362.396 140.366L363.175 137.969C364.486 137.87 365.786 137.658 367.061 137.336L368.551 139.348L372.197 137.987L372 135.487C373.174 134.891 374.294 134.195 375.347 133.407L377.496 134.751ZM357.277 118.376C356.53 117.575 356.036 116.57 355.86 115.489C355.684 114.407 355.832 113.298 356.286 112.301C356.74 111.304 357.48 110.464 358.412 109.887C359.343 109.311 360.425 109.024 361.52 109.062C362.615 109.1 363.674 109.463 364.563 110.103C365.452 110.743 366.131 111.633 366.514 112.659C366.898 113.685 366.968 114.802 366.716 115.869C366.465 116.935 365.903 117.903 365.101 118.65C364.569 119.151 363.943 119.542 363.258 119.8C362.574 120.058 361.846 120.178 361.115 120.153C360.384 120.127 359.665 119.957 359.001 119.652C358.336 119.347 357.739 118.913 357.243 118.376H357.277Z" fill="#EBEBEB"/>
<path d="M273.92 250.243L265.069 244.122C264.201 240.935 263.008 237.846 261.508 234.903L263.776 226.001L250.936 212.253L241.897 213.905C239.061 212.206 236.058 210.804 232.935 209.72L227.439 200.466L208.607 199.824L202.495 208.675C199.312 209.542 196.226 210.733 193.285 212.228L184.382 209.959L170.635 222.799L172.287 231.822C170.59 234.663 169.19 237.672 168.11 240.801L158.856 246.296L158.214 265.128L167.074 271.24C167.927 274.445 169.118 277.549 170.626 280.502L168.332 289.328L181.172 303.075L190.152 301.431C193.009 303.132 196.032 304.538 199.174 305.626L204.661 314.862L223.493 315.513L229.596 306.662C232.808 305.794 235.923 304.601 238.892 303.101L247.743 305.36L261.499 292.52L259.847 283.498C261.55 280.656 262.95 277.644 264.025 274.51L273.278 269.015L273.92 250.243ZM215.327 278.824C211.146 278.682 207.102 277.302 203.705 274.861C200.308 272.42 197.711 269.026 196.243 265.109C194.775 261.192 194.501 256.928 195.456 252.855C196.412 248.782 198.553 245.084 201.61 242.229C204.666 239.373 208.501 237.488 212.629 236.812C216.757 236.135 220.993 236.698 224.802 238.429C228.61 240.16 231.819 242.981 234.024 246.536C236.229 250.091 237.33 254.22 237.189 258.4C236.992 264.007 234.579 269.307 230.479 273.137C226.378 276.966 220.925 279.012 215.318 278.824H215.327Z" fill="#EBEBEB"/>
<path d="M294.079 196.879H294.019L279.193 196.374C278.893 196.369 278.598 196.287 278.338 196.138C278.078 195.988 277.859 195.775 277.703 195.518L273.706 188.799C271.551 188.011 269.467 187.043 267.474 185.905L261.08 187.01C260.782 187.064 260.475 187.043 260.188 186.947C259.9 186.851 259.642 186.684 259.436 186.462L249.31 175.625C249.097 175.4 248.946 175.125 248.871 174.825C248.796 174.525 248.8 174.211 248.882 173.913L250.5 167.57C249.497 165.515 248.678 163.375 248.052 161.176L241.606 156.724C241.356 156.553 241.153 156.321 241.017 156.05C240.881 155.779 240.816 155.478 240.827 155.175L241.332 140.349C241.342 140.05 241.425 139.757 241.575 139.498C241.724 139.238 241.934 139.019 242.188 138.86L248.925 134.862C249.702 132.713 250.667 130.636 251.809 128.656L250.628 122.21C250.573 121.911 250.594 121.603 250.69 121.314C250.786 121.025 250.953 120.765 251.176 120.558L262.013 110.44C262.237 110.227 262.512 110.075 262.812 109.999C263.112 109.922 263.426 109.924 263.725 110.004L270.094 111.63C272.144 110.627 274.278 109.805 276.471 109.174L280.922 102.728C281.087 102.472 281.318 102.265 281.591 102.128C281.863 101.991 282.167 101.929 282.471 101.949L297.289 102.463C297.59 102.469 297.885 102.551 298.147 102.7C298.408 102.85 298.628 103.062 298.787 103.319L302.784 110.047C304.924 110.832 306.991 111.8 308.965 112.94L315.436 111.75C315.734 111.695 316.041 111.716 316.328 111.812C316.616 111.908 316.874 112.075 317.079 112.298L327.206 123.135C327.417 123.36 327.567 123.636 327.642 123.935C327.717 124.235 327.714 124.549 327.634 124.847L326.008 131.207C327.01 133.258 327.835 135.392 328.473 137.584L334.91 142.035C335.16 142.207 335.362 142.439 335.499 142.71C335.635 142.981 335.7 143.282 335.689 143.585L335.184 158.402C335.174 158.703 335.09 158.996 334.941 159.257C334.792 159.518 334.582 159.739 334.328 159.9L327.591 163.898C326.809 166.042 325.844 168.116 324.706 170.095L325.888 176.549C325.943 176.847 325.922 177.154 325.826 177.442C325.73 177.729 325.563 177.988 325.34 178.193L314.434 188.319C314.21 188.532 313.934 188.683 313.635 188.758C313.335 188.833 313.02 188.829 312.722 188.747L306.388 187.13C304.324 188.128 302.179 188.95 299.977 189.586L295.568 196.023C295.409 196.277 295.19 196.488 294.931 196.638C294.671 196.787 294.378 196.87 294.079 196.879ZM280.306 192.796L293.146 193.233L297.426 187.078C297.663 186.719 298.026 186.462 298.444 186.359C300.853 185.7 303.19 184.803 305.421 183.68C305.81 183.492 306.252 183.447 306.67 183.551L312.662 185.084L322.078 176.31L321 170.121C320.917 169.688 320.996 169.24 321.222 168.862C322.494 166.743 323.541 164.497 324.347 162.16C324.483 161.736 324.769 161.377 325.152 161.15L331.597 157.332L332.034 144.492L325.871 140.212C325.546 139.99 325.302 139.669 325.177 139.296C325.177 139.253 325.177 139.202 325.177 139.151C324.518 136.785 323.623 134.491 322.506 132.303C322.308 131.911 322.26 131.461 322.37 131.036L323.91 124.975L315.136 115.559L308.982 116.689C308.552 116.767 308.108 116.688 307.732 116.467C305.608 115.193 303.359 114.14 301.021 113.325C300.887 113.282 300.758 113.225 300.636 113.154C300.389 113 300.183 112.789 300.036 112.538L296.176 106.075L283.336 105.63L279.056 111.802C278.801 112.163 278.424 112.422 277.994 112.529C275.61 113.181 273.299 114.073 271.095 115.191C270.707 115.39 270.259 115.438 269.837 115.328L263.776 113.787L254.36 122.561L255.49 128.699C255.557 129.086 255.5 129.485 255.328 129.837L255.242 129.983C253.969 132.111 252.922 134.366 252.118 136.711C251.976 137.113 251.697 137.453 251.33 137.67L244.884 141.496L244.448 154.336L250.62 158.616C250.971 158.857 251.226 159.215 251.339 159.626C251.98 162.03 252.873 164.36 254.001 166.577C254.062 166.703 254.111 166.835 254.146 166.971C254.211 167.252 254.211 167.545 254.146 167.827L252.606 173.819L261.38 183.235L267.491 182.113C267.918 182.035 268.359 182.114 268.733 182.336C270.873 183.607 273.135 184.66 275.486 185.477C275.911 185.603 276.269 185.889 276.488 186.274L280.306 192.796ZM288.241 176.558C287.924 176.558 287.607 176.558 287.291 176.558C280.175 176.433 273.396 173.502 268.431 168.403C263.465 163.305 260.714 156.452 260.777 149.335C260.84 142.218 263.711 135.414 268.765 130.404C273.82 125.394 280.649 122.583 287.766 122.583C294.883 122.583 301.712 125.394 306.766 130.404C311.821 135.414 314.692 142.218 314.754 149.335C314.817 156.452 312.066 163.305 307.101 168.403C302.135 173.502 295.357 176.433 288.241 176.558ZM288.241 125.977C282.022 126.084 276.098 128.643 271.758 133.098C267.417 137.552 265.012 143.54 265.065 149.759C265.119 155.979 267.627 161.925 272.044 166.303C276.461 170.682 282.428 173.139 288.647 173.139C294.867 173.139 300.834 170.682 305.251 166.303C309.668 161.925 312.176 155.979 312.229 149.759C312.283 143.54 309.878 137.552 305.537 133.098C301.197 128.643 295.272 126.084 289.054 125.977H288.241Z" fill="#EBEBEB"/>
<path d="M328.225 90.1532L322.079 88.5097L320.435 82.3636L322.84 79.9668L325.374 85.2141L330.63 87.7564L328.225 90.1532Z" fill="#E0E0E0"/>
<path d="M328.601 86.0452C328.867 85.7794 329.078 85.4638 329.222 85.1164C329.366 84.7691 329.44 84.3968 329.44 84.0208C329.44 83.6448 329.366 83.2725 329.222 82.9252C329.078 82.5778 328.867 82.2622 328.601 81.9964C328.335 81.7305 328.02 81.5196 327.672 81.3757C327.325 81.2319 326.953 81.1578 326.577 81.1578C326.201 81.1578 325.828 81.2319 325.481 81.3757C325.134 81.5196 324.818 81.7305 324.552 81.9964L327.608 77.4082L331.7 79.4797L332.599 83.7597L328.601 86.0452Z" fill="#E0E0E0"/>
<path d="M322.353 80.4635L326.855 75.9609L332.984 77.5959L334.636 83.7334L330.134 88.236L323.996 86.5839L322.353 80.4635ZM330.527 84.1443C330.928 83.7431 331.201 83.2322 331.311 82.676C331.422 82.1198 331.365 81.5434 331.148 81.0196C330.931 80.4958 330.563 80.0481 330.091 79.7331C329.62 79.4181 329.066 79.25 328.499 79.25C327.932 79.25 327.377 79.4181 326.906 79.7331C326.434 80.0481 326.067 80.4958 325.85 81.0196C325.632 81.5434 325.576 82.1198 325.686 82.676C325.796 83.2322 326.069 83.7431 326.47 84.1443C327.012 84.6763 327.742 84.9728 328.502 84.9696C329.262 84.9664 329.99 84.6637 330.527 84.1272V84.1443Z" fill="#F0F0F0"/>
<path d="M77.2281 253.983L80.5237 253.093L81.4054 249.798L80.1214 248.514L78.7603 251.33L75.9355 252.691L77.2281 253.983Z" fill="#E0E0E0"/>
<path d="M77.04 251.775C76.7824 251.481 76.6463 251.1 76.6593 250.709C76.6722 250.319 76.8333 249.947 77.1097 249.671C77.3862 249.395 77.7574 249.234 78.1482 249.221C78.539 249.208 78.9201 249.344 79.2142 249.601L77.5793 247.145L75.328 248.24L74.8486 250.551L77.04 251.775Z" fill="#E0E0E0"/>
<path d="M80.3785 248.771L77.9646 246.357L74.669 247.213L73.813 250.509L76.1841 252.949L79.4797 252.093L80.3785 248.771ZM75.9958 250.749C75.8371 250.61 75.7086 250.44 75.6183 250.249C75.528 250.058 75.4778 249.851 75.4708 249.64C75.4638 249.43 75.5002 249.22 75.5777 249.023C75.6552 248.827 75.7721 248.649 75.9213 248.5C76.0704 248.351 76.2486 248.234 76.4448 248.156C76.641 248.079 76.851 248.043 77.0618 248.05C77.2726 248.057 77.4798 248.107 77.6704 248.197C77.861 248.287 78.0311 248.416 78.17 248.574C78.4276 248.869 78.5637 249.25 78.5507 249.64C78.5378 250.031 78.3768 250.403 78.1003 250.679C77.8238 250.955 77.4526 251.116 77.0618 251.129C76.671 251.142 76.29 251.006 75.9958 250.749Z" fill="#F0F0F0"/>
<path d="M65.364 73.3255L68.1032 76.0647C68.4458 76.4014 68.9069 76.59 69.3872 76.59C69.8676 76.59 70.3287 76.4014 70.6712 76.0647C71.0059 75.7211 71.1931 75.2603 71.1931 74.7807C71.1931 74.301 71.0059 73.8403 70.6712 73.4967L67.9406 70.766C67.597 70.4314 67.1363 70.2441 66.6566 70.2441C66.1769 70.2441 65.7162 70.4314 65.3726 70.766C65.0373 71.1071 64.8488 71.5658 64.8472 72.044C64.8456 72.5223 65.0311 72.9822 65.364 73.3255Z" fill="#F0F0F0"/>
<path d="M63.4382 66.5201C64.153 66.3213 64.9103 66.3356 65.617 66.5612C66.3238 66.7868 66.9493 67.2139 67.4168 67.79C67.8842 68.3662 68.1732 69.0662 68.2484 69.8043C68.3235 70.5424 68.1815 71.2864 67.8397 71.9449C67.4979 72.6034 66.9713 73.1477 66.3244 73.5111C65.6776 73.8745 64.9388 74.041 64.1986 73.9904C63.4584 73.9397 62.7492 73.674 62.1579 73.2259C61.5666 72.7777 61.1191 72.1667 60.8702 71.4678C60.7122 70.9744 60.6534 70.4546 60.6971 69.9383C60.7408 69.422 60.8862 68.9195 61.1249 68.4597C61.3635 67.9998 61.6908 67.5917 62.0878 67.2588C62.4849 66.926 62.9438 66.6749 63.4382 66.5201Z" fill="#E0E0E0"/>
<path d="M60.459 71.0096L60.8555 72.1133L68.992 69.1904L68.5955 68.0867L60.459 71.0096Z" fill="#F0F0F0"/>
<path d="M214 365.991C305.663 365.991 379.97 361.653 379.97 356.301C379.97 350.95 305.663 346.611 214 346.611C122.338 346.611 48.0303 350.95 48.0303 356.301C48.0303 361.653 122.338 365.991 214 365.991Z" fill="#F5F5F5"/>
<path d="M74.2322 103.276C73.3762 99.5008 73.7529 96.3336 75.3793 93.7485C77.0057 91.1634 79.6593 89.4685 83.4342 88.6125C87.2092 87.7565 90.4705 88.0989 93.0214 89.6911C95.5723 91.2832 97.3014 93.9711 98.1574 97.6519C98.7618 99.9237 98.8117 102.307 98.3029 104.603C97.8053 106.509 96.7538 108.224 95.2813 109.533C93.5323 111.006 91.4331 112.002 89.1866 112.426C86.9843 113.011 84.6784 113.09 82.4413 112.658C80.4967 112.185 78.7378 111.142 77.3909 109.662C75.7816 107.857 74.6903 105.65 74.2322 103.276ZM81.3713 101.684C81.902 104.012 82.7152 105.587 83.8109 106.409C84.3765 106.786 85.0125 107.045 85.6807 107.17C86.3489 107.295 87.0354 107.283 87.6991 107.136C88.3628 106.989 88.9899 106.709 89.5426 106.314C90.0954 105.918 90.5624 105.415 90.9157 104.834C91.532 103.644 91.5406 101.752 90.9585 99.1756C90.462 97.0013 89.6602 95.5119 88.5531 94.7072C87.9957 94.3072 87.3557 94.0372 86.6802 93.9172C86.0047 93.7972 85.3108 93.8302 84.6497 94.0139C83.9881 94.1378 83.3632 94.4102 82.822 94.8105C82.2808 95.2108 81.8375 95.7287 81.5253 96.3251C80.8919 97.5834 80.832 99.2954 81.3713 101.684Z" fill="#170304"/>
<path d="M101.513 100.453C101.209 99.286 101.155 98.0684 101.354 96.8794C101.553 95.6904 102.001 94.557 102.669 93.5532C103.417 92.4867 104.369 91.5786 105.469 90.8808C106.569 90.1831 107.796 89.7094 109.08 89.4872C112.43 88.7282 115.181 89.1248 117.332 90.677C119.143 92.0805 120.373 94.1012 120.79 96.3538C121.207 98.6065 120.78 100.934 119.592 102.892C118.256 104.929 116.082 106.288 113.069 106.967C110.748 107.616 108.271 107.415 106.084 106.402C104.915 105.83 103.893 104.996 103.1 103.964C102.307 102.931 101.764 101.73 101.513 100.453ZM107.942 98.9716C108.115 100.168 108.699 101.266 109.594 102.079C109.948 102.347 110.357 102.535 110.792 102.63C111.227 102.724 111.677 102.723 112.111 102.626C112.545 102.529 112.953 102.339 113.306 102.069C113.659 101.798 113.949 101.454 114.156 101.06C114.604 99.9105 114.647 98.6422 114.276 97.4651C114.096 96.297 113.519 95.2267 112.641 94.4348C112.301 94.1588 111.901 93.965 111.473 93.8685C111.046 93.772 110.602 93.7754 110.176 93.8784C109.732 93.9705 109.314 94.1625 108.955 94.4398C108.596 94.7171 108.305 95.0726 108.104 95.4792C107.643 96.5885 107.586 97.8243 107.942 98.9716Z" fill="#170304"/>
<path d="M127.184 110.057L121.937 86.9445L127.929 85.5749L128.494 88.0488C128.917 87.0622 129.531 86.169 130.3 85.4209C131.145 84.704 132.153 84.207 133.236 83.9742C134.237 83.702 135.29 83.6863 136.299 83.9287C137.307 84.1711 138.238 84.6637 139.006 85.3609C140.698 86.9425 141.845 89.0191 142.284 91.293C142.918 94.075 142.729 96.352 141.736 98.141C141.264 98.9964 140.611 99.7388 139.824 100.317C139.036 100.895 138.132 101.294 137.174 101.488C136.251 101.707 135.295 101.745 134.358 101.599C133.459 101.442 132.602 101.101 131.841 100.598L133.656 108.584L127.184 110.057ZM130.274 93.9124C130.432 94.9815 130.966 95.9591 131.781 96.6687C132.108 96.9189 132.487 97.092 132.89 97.175C133.293 97.258 133.71 97.2488 134.109 97.148C134.48 97.0737 134.828 96.9134 135.125 96.68C135.423 96.4466 135.661 96.1465 135.821 95.8041C136.185 94.7328 136.185 93.5713 135.821 92.5C135.665 91.4255 135.149 90.4358 134.358 89.6923C134.064 89.4485 133.718 89.2754 133.347 89.1863C132.976 89.0973 132.59 89.0947 132.218 89.1787C131.824 89.2636 131.455 89.4363 131.138 89.6838C130.821 89.9313 130.564 90.2473 130.386 90.6082C129.967 91.6634 129.927 92.8314 130.274 93.9124Z" fill="#170304"/>
<path d="M145.032 94.4166L151.264 92.3707C151.595 92.9732 152.111 93.4533 152.736 93.7403C153.408 93.935 154.12 93.9506 154.8 93.7854C155.48 93.6202 156.105 93.2801 156.614 92.7987C156.756 92.6477 156.859 92.4643 156.914 92.2644C156.969 92.0645 156.975 91.8542 156.93 91.6517C156.879 91.4199 156.759 91.2089 156.587 91.0457C156.414 90.8825 156.197 90.7745 155.963 90.7358C154.996 90.6296 154.02 90.6296 153.053 90.7358C151.429 90.8738 149.797 90.8738 148.173 90.7358C147.223 90.5978 146.332 90.1909 145.605 89.563C144.83 88.8922 144.295 87.987 144.08 86.9846C143.865 85.9822 143.983 84.9371 144.416 84.0076C144.915 83.013 145.691 82.1837 146.65 81.6194C148.015 80.8437 149.499 80.2971 151.041 80.0015C152.513 79.6019 154.036 79.4174 155.561 79.4537C156.518 79.5154 157.447 79.8091 158.266 80.3097C159.138 80.8983 159.879 81.6621 160.44 82.5524L154.448 84.5298C154.224 84.0838 153.852 83.7297 153.395 83.5283C152.771 83.3049 152.093 83.2751 151.452 83.4427C150.885 83.5217 150.359 83.7831 149.954 84.1874C149.825 84.3252 149.732 84.4924 149.683 84.6744C149.634 84.8565 149.63 85.0478 149.671 85.2317C149.718 85.4341 149.824 85.6177 149.977 85.7583C150.13 85.8989 150.322 85.9898 150.527 86.0192C151.484 86.1303 152.452 86.1101 153.404 85.9593C155.054 85.7201 156.729 85.6971 158.386 85.8908C159.428 86.038 160.404 86.4874 161.193 87.1834C161.907 87.8306 162.403 88.6827 162.614 89.623C162.833 90.6312 162.753 91.6815 162.383 92.6447C161.93 93.7849 161.142 94.761 160.123 95.4438C158.622 96.4253 156.94 97.0975 155.176 97.4211C152.122 98.1173 149.84 98.1773 148.328 97.6009C146.854 97.0125 145.671 95.869 145.032 94.4166Z" fill="#170304"/>
<path d="M165.936 73.248H172.963V78.6408L171.671 89.4864H167.322L165.936 78.658V73.248ZM166.278 91.1213H172.835V96.925H166.278V91.1213Z" fill="#170304"/>
<path d="M110.15 146.872H109.996C106.144 145.374 103.841 143.918 102.643 142.164C101.705 142.341 100.734 142.209 99.8779 141.787C98.8748 141.296 98.0426 140.514 97.4896 139.544C97.199 139.767 96.8567 139.913 96.4946 139.969C96.1324 140.024 95.7621 139.987 95.4181 139.861C94.3632 139.466 93.463 138.743 92.8501 137.798C92.4668 138.083 91.9903 138.215 91.5148 138.166C88.9468 137.961 85.5228 132.893 85.2745 127.5C85.272 127.386 85.3132 127.276 85.3896 127.192C85.466 127.107 85.5719 127.055 85.6854 127.047C85.7416 127.044 85.7977 127.053 85.8505 127.072C85.9034 127.092 85.9518 127.122 85.9932 127.16C86.0345 127.198 86.0679 127.244 86.0915 127.295C86.1151 127.346 86.1283 127.401 86.1305 127.457C86.3702 132.593 89.6487 137.156 91.5918 137.31C91.7332 137.326 91.8763 137.314 92.0129 137.274C92.1496 137.234 92.277 137.168 92.3879 137.079C91.7184 135.858 91.298 134.517 91.1511 133.133C91.0041 131.749 91.1336 130.349 91.5319 129.015C92.268 126.447 92.9186 125.437 93.7061 125.591C95.1784 125.959 94.9816 131.583 94.2026 135.256C94.0846 135.918 93.8405 136.551 93.4836 137.122C93.9882 137.968 94.75 138.631 95.6578 139.013C95.8998 139.106 96.1631 139.126 96.4165 139.073C96.6699 139.02 96.9027 138.895 97.0873 138.714C96.4196 137.062 96.2313 134.802 97.19 131.926C98.3884 128.134 98.902 128.031 99.1674 127.962C99.2672 127.941 99.3708 127.948 99.4673 127.981C99.5637 128.014 99.6494 128.073 99.7152 128.151C100.511 129.05 99.5612 134.939 98.5682 137.849C98.4519 138.2 98.2908 138.533 98.0888 138.842C98.5481 139.768 99.2963 140.519 100.22 140.982C100.826 141.277 101.5 141.404 102.172 141.35C102.095 141.188 102.026 141.025 101.958 140.854C101.282 139.013 101.616 136.899 102.977 134.365C103.875 132.696 104.612 131.909 105.296 131.909C105.478 131.911 105.655 131.966 105.807 132.066C105.959 132.166 106.079 132.307 106.152 132.474C106.897 133.852 106.358 138.397 104.885 140.657C104.541 141.175 104.061 141.589 103.499 141.855C104.646 143.362 106.829 144.689 110.347 146.041C110.4 146.06 110.448 146.09 110.489 146.128C110.53 146.166 110.563 146.212 110.587 146.263C110.61 146.314 110.622 146.369 110.624 146.425C110.625 146.481 110.615 146.537 110.595 146.589C110.562 146.678 110.5 146.754 110.42 146.805C110.34 146.856 110.245 146.879 110.15 146.872ZM105.288 132.773C105.288 132.773 104.8 132.773 103.721 134.785C102.48 137.079 102.163 138.971 102.754 140.563C102.826 140.76 102.911 140.952 103.011 141.136C103.475 140.945 103.869 140.616 104.141 140.195C105.339 138.363 105.913 134.596 105.468 133.124C105.408 132.825 105.288 132.773 105.288 132.773ZM99.1417 129.169C98.6784 130.144 98.2948 131.155 97.9947 132.191C97.3382 133.988 97.225 135.938 97.6694 137.798L97.7464 137.575C98.6453 134.862 99.1245 132.027 99.1674 129.169H99.1417ZM93.5092 126.473C93.3637 126.601 92.9443 127.141 92.3536 129.229C91.6551 131.573 91.8755 134.095 92.97 136.283C93.1456 135.9 93.2749 135.498 93.3552 135.084C94.2711 130.881 94.0143 127.081 93.5349 126.473H93.5092Z" fill="#170304"/>
<path d="M142.695 191.743C141.326 191.756 139.979 191.404 138.792 190.724C138.694 190.665 138.623 190.571 138.594 190.46C138.565 190.35 138.581 190.233 138.638 190.134C138.666 190.085 138.703 190.043 138.748 190.01C138.793 189.976 138.844 189.952 138.898 189.938C138.952 189.925 139.009 189.922 139.064 189.931C139.119 189.939 139.172 189.959 139.22 189.988C142.276 191.777 146.222 190.527 147.035 189.218C147.094 189.136 147.135 189.043 147.157 188.944C147.179 188.845 147.181 188.744 147.163 188.644C145.601 188.734 144.053 188.294 142.772 187.394C140.589 186.033 140.418 185.623 140.435 185.297C140.439 185.204 140.469 185.113 140.52 185.035C140.571 184.957 140.642 184.893 140.726 184.852C141.582 184.424 145.443 186.196 147.052 187.257C147.245 187.386 147.423 187.535 147.583 187.703C148.215 187.559 148.785 187.217 149.209 186.727C149.448 186.446 149.62 186.116 149.714 185.759H149.543C148.173 185.896 146.804 185.306 145.34 183.953C144.33 183.029 143.945 182.387 144.073 181.882C144.112 181.74 144.191 181.612 144.3 181.513C144.409 181.415 144.544 181.35 144.689 181.325C145.871 181.026 148.798 182.276 149.988 183.585C150.253 183.87 150.442 184.218 150.536 184.595C151.657 184.073 152.839 182.883 154.234 180.94C154.266 180.894 154.308 180.855 154.355 180.824C154.403 180.794 154.456 180.774 154.512 180.764C154.568 180.754 154.625 180.756 154.68 180.769C154.735 180.781 154.787 180.805 154.833 180.837C154.925 180.904 154.987 181.004 155.006 181.116C155.025 181.228 155 181.343 154.936 181.437C153.318 183.697 151.965 184.981 150.613 185.503C150.543 186.135 150.283 186.732 149.868 187.215C149.375 187.788 148.727 188.207 148.002 188.422C148.043 188.626 148.043 188.836 148.002 189.041C147.96 189.245 147.879 189.439 147.763 189.611C147.043 190.836 144.972 191.743 142.695 191.743ZM141.933 185.802C142.224 186.016 142.635 186.299 143.226 186.658C144.146 187.279 145.204 187.667 146.307 187.788C144.93 186.962 143.462 186.296 141.933 185.802ZM144.921 182.164C145.167 182.627 145.508 183.033 145.922 183.354C147.189 184.527 148.345 185.066 149.457 184.929H149.731C149.67 184.663 149.541 184.418 149.355 184.219C148.156 182.866 145.52 182.027 144.921 182.164Z" fill="#170304"/>
<path d="M154.029 190.57L140.692 192.993L128.58 126.893L102.848 131.566L60.9043 206.038L65.4069 230.614L119.206 220.847L122.887 240.946L148.619 236.255L144.938 216.156L158.274 213.734L154.029 190.57ZM86.5329 202.871L108.789 163.863L114.995 197.709L86.5329 202.871Z" fill="#F7BBBD"/>
<path d="M261.448 122.407C261.043 118.252 260.123 114.163 258.709 110.235C257.254 106.472 255.233 102.953 252.717 99.8002C249.738 96.1319 246.038 93.1137 241.846 90.9321C237.28 88.4268 231.225 86.6834 223.681 85.7019C208.016 83.6589 195.81 86.4381 187.062 94.0393C178.313 101.641 172.55 116.193 169.77 137.695C168.661 145.732 168.374 153.86 168.914 161.954C169.485 169.373 170.849 175.345 173.006 179.87C175.751 185.973 180.081 191.229 185.546 195.09C190.951 198.885 198.369 201.393 207.802 202.614C224.569 204.8 237.001 201.579 245.098 192.95C253.196 184.322 258.56 169.741 261.191 149.209C262.361 140.318 262.447 131.318 261.448 122.407Z" fill="#F7BBBD"/>
<path d="M215.515 193.824C213.452 193.755 211.235 193.567 209.001 193.276C201.16 192.257 195.099 190.271 190.974 187.378C186.859 184.473 183.606 180.51 181.558 175.908L181.515 175.814C179.871 172.39 178.793 167.468 178.322 161.262C177.823 153.807 178.087 146.321 179.109 138.92C182.165 115.192 188.474 105.288 193.225 101.162C198.772 96.3511 206.262 94.1769 216.106 94.5193C218.126 94.5878 220.266 94.7675 222.466 95.05C228.783 95.906 233.791 97.2756 237.335 99.2102C240.397 100.787 243.108 102.968 245.304 105.622C247.225 108.018 248.77 110.694 249.883 113.557C251.021 116.749 251.757 120.07 252.075 123.444C252.988 131.618 252.904 139.873 251.827 148.028C249.455 166.466 244.867 179.426 238.199 186.548C233.251 191.821 225.83 194.252 215.507 193.858L215.515 193.824Z" fill="#170304"/>
<path d="M232.267 122.655L232.378 119.411L230.384 118.76C230.299 117.663 230.121 116.575 229.853 115.508L231.565 114.258L230.418 111.21L228.329 111.382C227.838 110.402 227.265 109.466 226.617 108.583L227.696 106.776L225.47 104.405L223.604 105.364C222.769 104.646 221.876 103.999 220.933 103.429L221.233 101.358L218.271 100.014L216.919 101.606C215.872 101.267 214.798 101.015 213.709 100.853L213.204 98.8242L209.951 98.7129L209.309 100.699C208.212 100.787 207.124 100.964 206.056 101.23L204.798 99.5175L201.751 100.656L201.922 102.745C200.943 103.236 200.006 103.809 199.123 104.457L197.325 103.37L194.945 105.587L195.904 107.461C195.184 108.296 194.54 109.192 193.978 110.14L191.907 109.824L190.554 112.786L192.155 114.138C191.807 115.186 191.555 116.263 191.401 117.357L189.364 117.87L189.253 121.106L191.247 121.756C191.331 122.857 191.509 123.948 191.778 125.018L190.066 126.259L191.213 129.306L193.302 129.135C193.788 130.117 194.361 131.054 195.014 131.934L193.927 133.74L196.152 136.112L198.018 135.161C198.854 135.876 199.747 136.521 200.689 137.087L200.381 139.159L203.343 140.503L204.704 138.919C205.754 139.257 206.831 139.506 207.922 139.664L208.427 141.701L211.672 141.812L212.314 139.818C213.414 139.734 214.505 139.557 215.575 139.287L216.816 140.999L219.863 139.861L219.701 137.781C220.677 137.283 221.612 136.711 222.5 136.069L224.298 137.147L226.677 134.93L225.727 133.056C226.444 132.224 227.086 131.33 227.645 130.385L229.716 130.693L231.069 127.731L229.476 126.379C229.817 125.332 230.066 124.258 230.221 123.169L232.267 122.655ZM210.353 133.158C207.818 133.066 205.367 132.224 203.309 130.74C201.252 129.255 199.68 127.195 198.793 124.818C197.906 122.441 197.742 119.854 198.324 117.385C198.905 114.915 200.205 112.673 202.059 110.942C203.914 109.21 206.239 108.067 208.743 107.656C211.246 107.246 213.816 107.586 216.126 108.634C218.437 109.682 220.385 111.391 221.725 113.545C223.065 115.699 223.737 118.202 223.656 120.738C223.601 122.428 223.214 124.091 222.515 125.631C221.817 127.171 220.821 128.558 219.585 129.712C218.349 130.866 216.897 131.764 215.313 132.356C213.729 132.947 212.043 133.22 210.353 133.158Z" fill="#F7BBBD"/>
<path opacity="0.3" d="M245.775 182.215L246.014 180.024L244.696 179.493C244.694 178.747 244.631 178.003 244.508 177.268L245.698 176.506L245.09 174.391H243.669C243.388 173.704 243.047 173.042 242.65 172.414L243.455 171.25L242.085 169.538L240.776 170.086C240.245 169.561 239.672 169.08 239.064 168.648L239.38 167.261L237.454 166.2L236.444 167.218C235.756 166.935 235.046 166.709 234.321 166.542L234.082 165.147L231.899 164.898L231.36 166.217C230.616 166.22 229.874 166.289 229.143 166.422L228.381 165.207L226.266 165.831V167.252C225.579 167.536 224.917 167.88 224.289 168.28L223.125 167.424L221.413 168.793L221.961 170.103C221.439 170.634 220.961 171.207 220.531 171.815L219.145 171.507L218.092 173.433L219.102 174.434C218.815 175.124 218.588 175.837 218.425 176.566L217.022 176.797L216.791 178.98L218.1 179.527C218.101 180.268 218.167 181.007 218.297 181.736L217.09 182.498L217.706 184.612H219.136C219.422 185.296 219.765 185.955 220.163 186.581L219.307 187.745L220.677 189.457L222.004 188.901C222.53 189.427 223.103 189.906 223.716 190.33L223.416 191.743L225.342 192.795L226.344 191.794C227.032 192.07 227.742 192.291 228.466 192.453L228.715 193.857L230.897 194.097L231.428 192.787C232.185 192.786 232.941 192.723 233.688 192.599L234.45 193.806L236.556 193.189V191.768C237.244 191.479 237.908 191.136 238.542 190.741L239.689 191.597L241.401 190.219L240.844 188.909C241.372 188.378 241.855 187.806 242.291 187.197L243.669 187.505L244.73 185.579L243.72 184.586C243.996 183.897 244.216 183.187 244.379 182.464L245.775 182.215ZM234.758 181.359C234.396 182.022 233.845 182.562 233.176 182.912C232.506 183.262 231.748 183.405 230.997 183.324C230.246 183.243 229.536 182.941 228.957 182.456C228.378 181.971 227.956 181.325 227.744 180.6C227.532 179.875 227.539 179.104 227.766 178.383C227.992 177.663 228.427 177.026 229.016 176.553C229.605 176.08 230.321 175.792 231.073 175.725C231.825 175.659 232.581 175.818 233.243 176.181C234.128 176.668 234.785 177.487 235.069 178.457C235.353 179.428 235.241 180.471 234.758 181.359Z" fill="#F7BBBD"/>
<path d="M257.904 145.22L255.336 143.456C255.083 142.54 254.739 141.651 254.309 140.803L254.959 138.235L251.262 134.271L248.694 134.751C247.879 134.266 247.019 133.862 246.126 133.544L244.542 130.873L239.123 130.693L237.36 133.261C236.442 133.51 235.553 133.855 234.707 134.289L232.139 133.629L228.175 137.336L228.655 139.904C228.163 140.715 227.758 141.576 227.448 142.472L224.785 144.056L224.597 149.474L227.165 151.237C227.414 152.161 227.758 153.056 228.192 153.908L227.542 156.476L231.24 160.439L233.808 159.969C234.623 160.453 235.483 160.857 236.376 161.176L237.951 163.838L243.378 164.026L245.133 161.458C246.058 161.207 246.956 160.863 247.812 160.431L250.38 161.081L254.343 157.383L253.872 154.815C254.359 154.002 254.763 153.141 255.079 152.247L257.741 150.664L257.904 145.22ZM241.015 153.454C239.81 153.413 238.645 153.015 237.666 152.312C236.688 151.608 235.939 150.63 235.517 149.501C235.094 148.372 235.015 147.143 235.291 145.969C235.567 144.796 236.184 143.73 237.066 142.908C237.947 142.085 239.052 141.543 240.242 141.348C241.432 141.154 242.652 141.317 243.749 141.816C244.847 142.316 245.771 143.129 246.406 144.154C247.04 145.179 247.357 146.369 247.315 147.574C247.257 149.188 246.562 150.714 245.381 151.816C244.2 152.918 242.63 153.508 241.015 153.454Z" fill="white"/>
<path d="M276.488 101.966L276.933 100.896C277.235 100.726 277.522 100.528 277.789 100.306H278.782L279.946 98.5937L279.569 97.6778C279.713 97.3727 279.828 97.0545 279.912 96.7276L280.768 95.9401L280.408 93.9285L279.33 93.4834C279.161 93.1798 278.963 92.8932 278.739 92.6274V91.6344L277.07 90.4702L276.145 90.8554C275.807 90.7364 275.457 90.656 275.101 90.6158L274.313 89.7598L272.31 90.1193L271.857 91.1978C271.539 91.3625 271.238 91.5575 270.958 91.7799H269.974L268.809 93.4919L269.186 94.4078C269.071 94.7469 268.991 95.0968 268.946 95.4522L268.09 96.2482L268.45 98.2513L269.528 98.6964C269.692 99.0015 269.887 99.2884 270.11 99.5524V100.537L271.822 101.701L272.738 101.324C273.081 101.436 273.434 101.513 273.791 101.555L274.579 102.411L276.488 101.966ZM272.208 96.4194C272.127 95.9728 272.18 95.5122 272.361 95.0959C272.542 94.6796 272.842 94.3264 273.224 94.0808C273.606 93.8353 274.052 93.7085 274.506 93.7166C274.96 93.7247 275.401 93.8672 275.774 94.1261C276.146 94.3851 276.434 94.7488 276.6 95.1712C276.766 95.5937 276.803 96.0559 276.706 96.4994C276.61 96.9428 276.383 97.3476 276.057 97.6625C275.73 97.9775 275.317 98.1883 274.87 98.2684C274.272 98.3733 273.657 98.2379 273.158 97.8917C272.66 97.5454 272.318 97.0163 272.208 96.4194Z" fill="#F7BBBD"/>
<path d="M253.042 96.2915L252.383 95.7351C253.795 93.9832 255.541 92.5285 257.519 91.4551L257.921 92.2084C256.04 93.2325 254.382 94.6204 253.042 96.2915Z" fill="#F7BBBD"/>
<path d="M259.873 91.4196L259.539 90.6321C262.7 89.2585 266.157 88.7049 269.588 89.0228L269.503 89.8788C266.214 89.5689 262.901 90.099 259.873 91.4196Z" fill="#F7BBBD"/>
<path d="M258.255 97.3437L257.553 96.8644C259.615 94.0795 262.617 92.1363 266.002 91.3945L266.165 92.2505C263.001 92.9414 260.193 94.7497 258.255 97.3437Z" fill="#F7BBBD"/>
<path d="M201.451 179.76C201.334 179.757 201.223 179.707 201.143 179.623L199.354 177.774C198.441 177.691 197.539 177.525 196.657 177.278L193.858 178.51C193.796 178.544 193.727 178.562 193.657 178.562C193.587 178.562 193.517 178.544 193.456 178.51L188.765 175.403C188.704 175.363 188.655 175.308 188.622 175.244C188.589 175.179 188.573 175.107 188.576 175.035V171.988C188.004 171.271 187.5 170.503 187.07 169.693L184.665 168.769C184.597 168.743 184.538 168.7 184.491 168.645C184.445 168.589 184.413 168.523 184.399 168.452L183.286 162.94C183.272 162.869 183.275 162.796 183.296 162.727C183.317 162.659 183.355 162.596 183.406 162.546L185.255 160.757C185.344 159.846 185.51 158.943 185.752 158.06L184.519 155.261C184.485 155.2 184.468 155.13 184.468 155.06C184.468 154.99 184.485 154.921 184.519 154.859L187.626 150.168C187.665 150.106 187.72 150.056 187.784 150.023C187.849 149.99 187.922 149.975 187.994 149.98L191.042 150.023C191.756 149.447 192.524 148.943 193.336 148.516L194.269 146.111C194.294 146.044 194.335 145.985 194.389 145.938C194.443 145.892 194.507 145.86 194.577 145.845L200.09 144.733C200.16 144.717 200.233 144.72 200.302 144.741C200.371 144.762 200.434 144.8 200.483 144.852L202.272 146.701C203.187 146.785 204.093 146.951 204.977 147.198L207.768 145.965C207.831 145.931 207.902 145.914 207.973 145.914C208.045 145.914 208.116 145.931 208.179 145.965L212.861 149.072C212.921 149.114 212.969 149.169 213.004 149.233C213.038 149.297 213.056 149.368 213.058 149.441L213.007 152.488C213.582 153.204 214.089 153.972 214.522 154.782L216.919 155.715C216.985 155.74 217.045 155.781 217.091 155.835C217.138 155.889 217.17 155.954 217.184 156.023L218.305 161.536C218.319 161.606 218.315 161.679 218.294 161.747C218.273 161.816 218.236 161.878 218.186 161.93L216.328 163.727C216.242 164.636 216.076 165.536 215.832 166.415L217.064 169.214C217.098 169.277 217.116 169.348 217.116 169.42C217.116 169.491 217.098 169.562 217.064 169.625L214 174.273C213.959 174.331 213.906 174.379 213.843 174.412C213.781 174.444 213.711 174.461 213.64 174.461L210.584 174.419C209.868 174.986 209.103 175.49 208.299 175.925L207.366 178.331C207.34 178.398 207.298 178.458 207.242 178.505C207.187 178.551 207.12 178.583 207.049 178.596L201.536 179.76H201.451ZM196.631 176.336C196.671 176.328 196.712 176.328 196.751 176.336C197.676 176.605 198.625 176.78 199.585 176.858C199.687 176.87 199.784 176.915 199.859 176.987L201.571 178.784L206.621 177.766L207.528 175.42C207.57 175.325 207.643 175.247 207.734 175.198C208.589 174.755 209.395 174.225 210.139 173.614C210.218 173.548 210.319 173.514 210.422 173.52L213.392 173.563L216.234 169.283L215.035 166.561C215.001 166.466 215.001 166.364 215.035 166.269C215.3 165.344 215.475 164.395 215.558 163.436C215.566 163.332 215.612 163.235 215.686 163.162L217.484 161.45L216.465 156.4L214.128 155.492C214.028 155.456 213.945 155.382 213.897 155.287C213.453 154.433 212.922 153.627 212.313 152.882C212.252 152.803 212.219 152.707 212.219 152.608V149.629L207.939 146.787L205.226 147.985C205.129 148.02 205.023 148.02 204.926 147.985C203.998 147.717 203.046 147.543 202.084 147.463C201.981 147.451 201.885 147.406 201.81 147.335L200.098 145.537L195.048 146.564L194.149 148.944C194.113 149.042 194.043 149.124 193.952 149.175C193.094 149.616 192.285 150.147 191.538 150.759C191.501 150.792 191.458 150.818 191.411 150.834C191.364 150.85 191.314 150.857 191.264 150.853L188.294 150.81L185.444 155.09L186.642 157.812C186.669 157.87 186.684 157.933 186.684 157.996C186.684 158.06 186.669 158.123 186.642 158.18C186.388 159.084 186.222 160.01 186.145 160.945C186.137 161.049 186.092 161.146 186.017 161.219L184.219 162.931L185.247 167.981L187.575 168.889C187.679 168.932 187.764 169.011 187.815 169.111C188.256 169.96 188.784 170.76 189.39 171.5C189.453 171.577 189.487 171.674 189.484 171.774V174.752L193.764 177.594L196.486 176.396C196.53 176.368 196.58 176.347 196.631 176.336ZM200.834 173.563C198.774 173.561 196.753 173.001 194.985 171.942C193.218 170.883 191.77 169.365 190.796 167.549C189.823 165.733 189.359 163.688 189.455 161.63C189.551 159.571 190.203 157.578 191.341 155.861C192.43 154.213 193.928 152.876 195.688 151.981C197.449 151.086 199.411 150.663 201.384 150.754C203.357 150.844 205.272 151.445 206.943 152.498C208.614 153.551 209.983 155.019 210.916 156.76C211.85 158.5 212.315 160.453 212.268 162.427C212.22 164.401 211.661 166.329 210.645 168.023C209.629 169.716 208.191 171.117 206.471 172.088C204.751 173.059 202.809 173.567 200.834 173.563ZM192.06 156.331C190.908 158.07 190.297 160.111 190.305 162.196C190.313 164.282 190.939 166.318 192.104 168.048C193.269 169.778 194.92 171.124 196.85 171.915C198.78 172.706 200.901 172.908 202.945 172.493C204.989 172.079 206.864 171.069 208.334 169.589C209.803 168.109 210.801 166.226 211.201 164.18C211.601 162.133 211.385 160.013 210.58 158.089C209.776 156.165 208.419 154.523 206.681 153.37C205.528 152.598 204.234 152.063 202.874 151.794C201.513 151.525 200.113 151.529 198.754 151.804C197.394 152.079 196.103 152.621 194.954 153.398C193.805 154.175 192.822 155.172 192.06 156.331Z" fill="white"/>
<path d="M364.51 198.291L351.071 196.477L359.956 129.871L334.037 126.379L271.164 184.262L267.859 209.026L322.036 216.336L319.331 236.597L345.25 240.09L347.955 219.837L361.394 221.652L364.51 198.291ZM296.527 189.115L329.705 158.873L325.151 192.976L296.527 189.115Z" fill="#F7BBBD"/>
<path d="M337.375 239.457H337.264C337.153 239.436 337.054 239.372 336.99 239.279C336.926 239.186 336.901 239.071 336.921 238.96L356.952 129.444C356.975 129.334 357.039 129.237 357.131 129.173C357.224 129.109 357.337 129.083 357.448 129.101C357.559 129.122 357.658 129.186 357.722 129.279C357.786 129.372 357.811 129.486 357.791 129.598L337.803 239.106C337.783 239.205 337.73 239.294 337.652 239.358C337.574 239.422 337.476 239.457 337.375 239.457Z" fill="#170304"/>
<path d="M355.094 131.285C355.087 131.471 355.007 131.647 354.87 131.774C354.734 131.9 354.553 131.968 354.367 131.961C354.18 131.954 354.005 131.874 353.878 131.737C353.751 131.601 353.684 131.42 353.69 131.233C353.697 131.047 353.778 130.871 353.914 130.745C354.051 130.618 354.232 130.55 354.418 130.557C354.604 130.564 354.78 130.644 354.907 130.781C355.034 130.917 355.101 131.099 355.094 131.285Z" fill="#170304"/>
<path d="M352.244 146.093C352.239 146.232 352.192 146.366 352.111 146.478C352.03 146.591 351.917 146.677 351.787 146.725C351.657 146.773 351.515 146.782 351.38 146.75C351.245 146.718 351.123 146.647 351.028 146.545C350.934 146.443 350.871 146.316 350.849 146.179C350.827 146.042 350.846 145.901 350.904 145.775C350.962 145.649 351.055 145.543 351.174 145.47C351.292 145.397 351.429 145.361 351.567 145.366C351.66 145.369 351.75 145.39 351.834 145.429C351.918 145.467 351.994 145.522 352.056 145.589C352.119 145.657 352.168 145.736 352.2 145.823C352.232 145.909 352.247 146.001 352.244 146.093Z" fill="#170304"/>
<path d="M349.394 160.927C349.39 161.019 349.369 161.11 349.33 161.194C349.292 161.278 349.238 161.353 349.17 161.416C349.102 161.479 349.023 161.528 348.937 161.56C348.85 161.592 348.758 161.607 348.666 161.604C348.574 161.601 348.484 161.581 348.4 161.543C348.316 161.506 348.24 161.452 348.178 161.385C348.115 161.318 348.066 161.24 348.033 161.154C348.001 161.068 347.986 160.976 347.99 160.884C347.992 160.792 348.013 160.7 348.05 160.615C348.088 160.53 348.143 160.454 348.21 160.39C348.278 160.326 348.358 160.277 348.445 160.244C348.532 160.211 348.624 160.196 348.717 160.2C348.903 160.209 349.077 160.29 349.204 160.426C349.33 160.562 349.398 160.742 349.394 160.927Z" fill="#170304"/>
<path d="M343.778 176.336C343.759 176.508 343.677 176.666 343.548 176.782C343.42 176.897 343.253 176.96 343.08 176.96C342.908 176.96 342.741 176.897 342.612 176.782C342.483 176.666 342.402 176.508 342.383 176.336C342.372 176.238 342.382 176.139 342.412 176.045C342.442 175.951 342.492 175.864 342.557 175.79C342.623 175.717 342.704 175.658 342.794 175.618C342.884 175.577 342.982 175.557 343.08 175.557C343.179 175.557 343.277 175.577 343.367 175.618C343.457 175.658 343.537 175.717 343.603 175.79C343.669 175.864 343.719 175.951 343.749 176.045C343.779 176.139 343.789 176.238 343.778 176.336Z" fill="#170304"/>
<path d="M343.684 190.518C343.681 190.611 343.661 190.702 343.623 190.786C343.585 190.871 343.53 190.947 343.463 191.01C343.395 191.073 343.315 191.122 343.228 191.153C343.141 191.185 343.049 191.199 342.956 191.194C342.817 191.189 342.683 191.143 342.571 191.062C342.458 190.98 342.373 190.868 342.324 190.737C342.276 190.607 342.267 190.466 342.299 190.331C342.331 190.196 342.403 190.073 342.504 189.979C342.606 189.884 342.733 189.822 342.87 189.8C343.007 189.778 343.148 189.797 343.274 189.855C343.4 189.912 343.507 190.006 343.58 190.124C343.652 190.242 343.689 190.379 343.684 190.518Z" fill="#170304"/>
<path d="M340.833 205.329C340.83 205.468 340.785 205.603 340.705 205.717C340.624 205.83 340.512 205.917 340.382 205.967C340.252 206.017 340.11 206.027 339.975 205.995C339.839 205.964 339.716 205.894 339.62 205.792C339.525 205.691 339.462 205.563 339.439 205.426C339.416 205.289 339.435 205.148 339.492 205.021C339.55 204.894 339.644 204.788 339.762 204.714C339.881 204.641 340.018 204.605 340.157 204.61C340.342 204.617 340.516 204.696 340.643 204.83C340.77 204.965 340.838 205.144 340.833 205.329Z" fill="#170304"/>
<path d="M337.983 220.136C337.976 220.323 337.896 220.499 337.76 220.628C337.624 220.756 337.442 220.825 337.255 220.821C337.163 220.817 337.073 220.796 336.989 220.757C336.905 220.719 336.829 220.665 336.766 220.597C336.704 220.529 336.655 220.45 336.623 220.364C336.59 220.277 336.576 220.185 336.579 220.093C336.582 220.001 336.603 219.91 336.641 219.826C336.679 219.742 336.733 219.666 336.8 219.603C336.867 219.54 336.946 219.49 337.032 219.458C337.118 219.425 337.21 219.41 337.302 219.412C337.395 219.415 337.485 219.436 337.569 219.474C337.653 219.512 337.729 219.566 337.792 219.633C337.856 219.7 337.905 219.779 337.938 219.866C337.97 219.952 337.986 220.044 337.983 220.136Z" fill="#170304"/>
<path d="M335.124 234.955C335.119 235.093 335.073 235.227 334.991 235.34C334.91 235.452 334.797 235.538 334.667 235.586C334.537 235.635 334.396 235.643 334.26 235.611C334.125 235.579 334.003 235.508 333.908 235.406C333.814 235.305 333.752 235.177 333.73 235.04C333.708 234.903 333.727 234.763 333.784 234.637C333.842 234.51 333.936 234.404 334.054 234.331C334.172 234.258 334.309 234.222 334.448 234.227C334.54 234.229 334.632 234.25 334.716 234.288C334.8 234.326 334.876 234.38 334.939 234.448C335.002 234.516 335.051 234.596 335.083 234.683C335.115 234.77 335.129 234.862 335.124 234.955Z" fill="#170304"/>
<path d="M343.076 176.72C342.98 176.72 342.886 176.687 342.811 176.626C342.736 176.565 342.685 176.48 342.665 176.386C342.652 176.331 342.651 176.274 342.66 176.218C342.67 176.162 342.69 176.109 342.721 176.061C342.751 176.014 342.79 175.972 342.837 175.94C342.883 175.907 342.935 175.884 342.99 175.872L345.113 175.419C345.169 175.406 345.227 175.405 345.283 175.415C345.339 175.425 345.393 175.446 345.44 175.477C345.488 175.508 345.529 175.549 345.561 175.596C345.593 175.643 345.616 175.697 345.627 175.752C345.638 175.808 345.638 175.864 345.628 175.92C345.617 175.975 345.596 176.027 345.565 176.074C345.534 176.121 345.494 176.161 345.447 176.193C345.4 176.224 345.348 176.246 345.293 176.258L343.17 176.711L343.076 176.72Z" fill="#170304"/>
<path d="M350.172 168.836C349.163 171.455 348.305 174.13 347.604 176.848C346.962 179.87 346.928 186.632 346.928 186.632" fill="#170304"/>
<path d="M346.928 187.061C346.814 187.056 346.707 187.009 346.627 186.928C346.548 186.846 346.502 186.738 346.5 186.624C346.5 186.35 346.551 179.776 347.193 176.763C347.89 174.021 348.748 171.323 349.761 168.682C349.778 168.626 349.807 168.574 349.845 168.529C349.883 168.484 349.931 168.448 349.983 168.422C350.036 168.396 350.094 168.382 350.153 168.379C350.212 168.377 350.27 168.387 350.325 168.408C350.38 168.429 350.43 168.461 350.472 168.503C350.514 168.544 350.547 168.594 350.568 168.649C350.59 168.703 350.601 168.762 350.599 168.821C350.597 168.88 350.583 168.937 350.557 168.991C349.549 171.59 348.691 174.245 347.989 176.943C347.365 179.887 347.322 186.564 347.313 186.633C347.314 186.739 347.275 186.842 347.203 186.921C347.132 187 347.034 187.05 346.928 187.061Z" fill="#170304"/>
<path d="M190.417 260.944C191.607 241.769 189.424 206.905 225.47 211.527C264.101 216.466 253.051 261.646 253.051 261.646L190.417 260.944Z" fill="#170304"/>
<path d="M215.292 249.422C223.982 249.422 231.026 242.378 231.026 233.688C231.026 224.999 223.982 217.955 215.292 217.955C206.603 217.955 199.559 224.999 199.559 233.688C199.559 242.378 206.603 249.422 215.292 249.422Z" fill="white"/>
<path d="M217.364 217.981C209.908 216.714 201.956 222.201 201.16 227.765L230.7 230.487C229.656 224.144 223.27 218.991 217.364 217.981Z" fill="#170304"/>
<path d="M227.336 233.294C227.122 237.412 224.88 240.639 222.329 240.502C219.778 240.365 217.878 236.932 218.049 232.798C218.22 228.663 220.506 225.453 223.056 225.59C225.607 225.727 227.542 229.185 227.336 233.294Z" fill="#170304"/>
<path d="M215.292 250.278C212.011 250.278 208.804 249.305 206.076 247.482C203.348 245.66 201.222 243.069 199.966 240.037C198.71 237.006 198.382 233.67 199.022 230.452C199.662 227.234 201.242 224.279 203.562 221.958C205.882 219.638 208.838 218.058 212.056 217.418C215.274 216.778 218.61 217.107 221.641 218.362C224.672 219.618 227.263 221.744 229.086 224.472C230.909 227.2 231.882 230.408 231.882 233.689C231.877 238.087 230.128 242.304 227.018 245.414C223.908 248.524 219.691 250.274 215.292 250.278ZM215.292 218.82C212.35 218.82 209.473 219.693 207.026 221.328C204.579 222.963 202.673 225.287 201.547 228.006C200.421 230.725 200.127 233.717 200.702 236.603C201.276 239.489 202.694 242.14 204.776 244.22C206.857 246.301 209.509 247.717 212.395 248.29C215.282 248.863 218.273 248.567 220.992 247.44C223.71 246.312 226.033 244.404 227.667 241.957C229.3 239.509 230.171 236.632 230.17 233.689C230.165 229.745 228.596 225.965 225.807 223.177C223.017 220.389 219.236 218.822 215.292 218.82Z" fill="#F7BBBD"/>
<path opacity="0.3" d="M248.66 260.464H248.557C248.502 260.452 248.45 260.429 248.404 260.396C248.358 260.364 248.319 260.322 248.289 260.274C248.26 260.226 248.24 260.173 248.232 260.117C248.223 260.062 248.226 260.005 248.24 259.95C248.24 259.839 250.996 248.232 248.163 236.496C248.136 236.382 248.155 236.263 248.216 236.163C248.277 236.064 248.375 235.993 248.488 235.965C248.602 235.938 248.722 235.957 248.821 236.018C248.921 236.079 248.992 236.177 249.019 236.291C251.904 248.275 249.122 260.036 249.096 260.147C249.071 260.242 249.013 260.325 248.934 260.383C248.854 260.441 248.758 260.469 248.66 260.464Z" fill="white"/>
<path opacity="0.3" d="M246.271 230.059C246.189 230.058 246.109 230.034 246.039 229.99C245.97 229.946 245.914 229.884 245.877 229.81C244.814 227.459 243.45 225.255 241.82 223.253C241.749 223.166 241.716 223.054 241.727 222.942C241.738 222.829 241.793 222.726 241.88 222.654C241.924 222.618 241.974 222.59 242.028 222.574C242.083 222.557 242.14 222.551 242.196 222.557C242.253 222.562 242.308 222.579 242.358 222.606C242.408 222.633 242.452 222.67 242.488 222.714C244.158 224.774 245.559 227.037 246.656 229.451C246.681 229.501 246.695 229.556 246.698 229.612C246.7 229.668 246.692 229.724 246.673 229.777C246.654 229.829 246.624 229.878 246.586 229.919C246.548 229.96 246.502 229.993 246.451 230.016C246.395 230.042 246.333 230.057 246.271 230.059Z" fill="white"/>
<path d="M110.193 350.893H109.876C108.741 350.861 107.665 350.38 106.885 349.555C106.105 348.729 105.684 347.628 105.716 346.493C105.748 345.358 106.229 344.282 107.054 343.502C107.879 342.722 108.981 342.301 110.116 342.333H110.193C112.667 342.333 118.616 339.328 131.062 319.709C131.393 319.188 131.832 318.744 132.35 318.409C132.867 318.073 133.451 317.854 134.062 317.765C134.673 317.676 135.295 317.721 135.887 317.895C136.479 318.07 137.026 318.37 137.491 318.776C147.265 327.178 157.925 334.492 169.283 340.587C169.808 340.826 170.28 341.169 170.67 341.595C171.059 342.021 171.359 342.522 171.55 343.066C171.741 343.611 171.819 344.189 171.781 344.765C171.743 345.342 171.589 345.904 171.328 346.419C171.066 346.934 170.704 347.391 170.261 347.762C169.819 348.133 169.306 348.411 168.753 348.578C168.201 348.746 167.62 348.8 167.046 348.737C166.472 348.675 165.917 348.497 165.413 348.214C154.858 342.605 144.88 335.97 135.625 328.406C125.19 344.113 117.452 350.893 110.193 350.893Z" fill="#170304"/>
<path d="M136.677 318.004H136.309C135.637 317.907 135.03 317.546 134.623 317.002C134.215 316.459 134.04 315.775 134.135 315.102C134.743 310.822 133.99 294.875 128.588 282.463C128.349 281.914 128.308 281.299 128.474 280.724C128.64 280.149 129.001 279.65 129.496 279.313C141.223 271.326 166.201 270.368 167.262 270.333C167.6 270.322 167.936 270.378 168.252 270.496C168.567 270.615 168.857 270.795 169.103 271.025C169.35 271.256 169.548 271.532 169.688 271.84C169.827 272.147 169.905 272.479 169.916 272.816C169.927 273.153 169.872 273.489 169.753 273.805C169.635 274.121 169.455 274.41 169.224 274.657C168.994 274.903 168.717 275.102 168.41 275.241C168.102 275.381 167.771 275.458 167.434 275.469C167.202 275.469 145.366 276.325 134.152 282.489C138.929 294.849 140.016 310.249 139.22 315.821C139.128 316.429 138.82 316.984 138.354 317.384C137.887 317.785 137.292 318.005 136.677 318.004Z" fill="#170304"/>
<path d="M140.992 314.685C139.28 310.653 131.576 311.106 127.065 314.565C124.651 316.405 121.381 321.961 121.073 323.981C120.97 324.461 120.985 324.958 121.117 325.431C121.25 325.904 121.495 326.337 121.831 326.695C122.168 327.052 122.587 327.322 123.051 327.481C123.515 327.64 124.011 327.685 124.497 327.61C127.45 327.353 131.499 323.065 131.499 323.065C128.802 325.71 132.286 327.576 137.491 323.75C140.333 321.618 142.901 319.196 140.992 314.685Z" fill="#F7BBBD"/>
<path d="M288.224 262.073C288.184 262.082 288.143 262.082 288.104 262.073C288.049 262.058 287.998 262.033 287.954 261.998C287.909 261.963 287.872 261.919 287.845 261.87C287.818 261.82 287.801 261.766 287.795 261.709C287.79 261.653 287.796 261.596 287.813 261.542C288.951 257.571 290.192 255.148 291.827 253.838C291.571 252.918 291.619 251.939 291.964 251.048C292.363 250.008 293.067 249.112 293.985 248.48C293.735 248.21 293.558 247.882 293.47 247.526C293.382 247.17 293.385 246.797 293.479 246.443C293.789 245.37 294.431 244.423 295.311 243.738C294.994 243.382 294.82 242.922 294.823 242.445C294.823 239.877 299.54 236.008 304.89 235.272C305.003 235.256 305.119 235.286 305.21 235.355C305.302 235.424 305.362 235.526 305.378 235.64C305.394 235.753 305.364 235.869 305.295 235.96C305.226 236.052 305.123 236.112 305.01 236.128C299.925 236.821 295.662 240.502 295.679 242.445C295.678 242.735 295.788 243.014 295.988 243.224C297.139 242.443 298.435 241.899 299.798 241.625C301.162 241.35 302.567 241.349 303.931 241.623C306.559 242.128 307.629 242.685 307.509 243.481C307.27 244.979 301.68 245.296 297.931 244.85C297.259 244.789 296.605 244.601 296.005 244.294C295.197 244.869 294.597 245.688 294.293 246.631C294.219 246.88 294.22 247.146 294.294 247.395C294.369 247.644 294.514 247.866 294.712 248.035C296.304 247.179 298.538 246.871 301.492 247.521C305.369 248.377 305.515 248.848 305.609 249.13C305.639 249.23 305.642 249.336 305.616 249.437C305.59 249.538 305.538 249.631 305.463 249.704C304.65 250.56 298.701 250.158 295.714 249.421C295.353 249.339 295.005 249.21 294.678 249.036C293.794 249.574 293.113 250.39 292.743 251.356C292.496 251.981 292.428 252.663 292.546 253.325C292.699 253.234 292.856 253.151 293.017 253.077C294.789 252.221 296.929 252.375 299.574 253.505C301.286 254.249 302.142 254.917 302.228 255.593C302.232 255.767 302.188 255.938 302.102 256.089C302.016 256.239 301.891 256.364 301.74 256.449C300.43 257.305 295.859 257.185 293.479 255.918C292.932 255.621 292.476 255.18 292.161 254.643C290.766 255.927 289.636 258.213 288.609 261.799C288.578 261.877 288.525 261.944 288.457 261.993C288.388 262.041 288.307 262.069 288.224 262.073ZM292.863 254.087C293.101 254.529 293.465 254.893 293.907 255.131C295.842 256.158 299.643 256.389 301.064 255.816C301.355 255.696 301.397 255.602 301.397 255.602C301.397 255.602 301.355 255.122 299.257 254.224C296.861 253.196 294.977 253.051 293.411 253.778C293.222 253.869 293.039 253.972 292.863 254.087ZM295.722 248.463L295.936 248.523C298.724 249.165 301.592 249.381 304.445 249.165C303.433 248.789 302.39 248.503 301.329 248.309C299.485 247.809 297.536 247.863 295.722 248.463ZM296.801 243.652C297.196 243.794 297.607 243.886 298.025 243.926C302.305 244.431 306.063 243.84 306.585 243.301C306.439 243.173 305.866 242.805 303.743 242.402C301.354 241.926 298.873 242.372 296.801 243.652Z" fill="#170304"/>
<path d="M176.79 349.462C177.355 349.283 177.166 348.735 176.533 348.735H164.943C142.875 346.398 127.458 349.531 137.174 350.267C146.89 351.003 136.489 350.849 129.393 353.537C122.297 356.225 182.165 356.901 187.601 353.537C192.6 350.438 168.966 351.97 176.79 349.462Z" fill="#170304"/>
<path d="M259.77 352.879L158.933 349.532L154.748 251.76L273.826 254.422L259.77 352.879Z" fill="#F7BBBD"/>
<path d="M190.417 351.004C190.309 351.004 190.205 350.964 190.126 350.891C190.047 350.818 189.998 350.718 189.989 350.61L181.909 252.41C181.901 252.297 181.938 252.185 182.012 252.099C182.085 252.013 182.19 251.959 182.302 251.948C182.415 251.943 182.525 251.98 182.611 252.054C182.697 252.127 182.752 252.23 182.765 252.341L190.888 350.542C190.893 350.598 190.886 350.655 190.869 350.708C190.852 350.762 190.824 350.812 190.787 350.855C190.751 350.898 190.706 350.933 190.656 350.959C190.605 350.984 190.551 351 190.494 351.004H190.417Z" fill="#170304"/>
<path d="M259.77 352.879L286.871 348.753L295.405 257.837L273.826 254.422L259.77 352.879Z" fill="#F7BBBD"/>
<path opacity="0.2" d="M259.77 352.879L286.871 348.753L295.405 257.837L273.826 254.422L259.77 352.879Z" fill="black"/>
<path d="M167.545 330.69L165.062 272.593C165.001 271.158 165.235 269.726 165.749 268.384C166.264 267.043 167.048 265.822 168.053 264.796C169.058 263.769 170.264 262.96 171.594 262.418C172.924 261.877 174.352 261.613 175.788 261.645L251.167 263.357C252.652 263.391 254.112 263.738 255.452 264.378C256.792 265.017 257.981 265.933 258.941 267.065C259.902 268.198 260.611 269.521 261.022 270.947C261.433 272.374 261.538 273.871 261.328 275.341L252.973 333.84C252.612 336.402 251.318 338.741 249.338 340.407C247.359 342.074 244.834 342.951 242.248 342.871L177.714 340.731C175.065 340.649 172.544 339.569 170.658 337.707C168.772 335.844 167.66 333.338 167.545 330.69Z" fill="#170304"/>
<path d="M175.694 279.477L187.353 279.845L187.258 282.849L179.957 282.618L179.888 284.861L186.659 285.075L186.565 287.951L179.794 287.728L179.709 290.51L187.216 290.75L187.113 293.934L175.24 293.558L175.694 279.477Z" fill="white"/>
<path d="M189.518 294.011L189.963 279.93L197.222 280.161C198.263 280.155 199.299 280.306 200.295 280.606C201.002 280.842 201.606 281.314 202.007 281.941C202.305 282.398 202.505 282.912 202.595 283.45C202.686 283.987 202.664 284.538 202.533 285.067C202.401 285.596 202.162 286.093 201.83 286.526C201.498 286.958 201.08 287.318 200.603 287.582C200.117 287.833 199.594 288.006 199.054 288.096C199.452 288.224 199.83 288.409 200.175 288.644C200.425 288.876 200.649 289.134 200.843 289.414C201.063 289.681 201.258 289.967 201.425 290.27L203.402 294.422L198.489 294.259L196.298 289.885C196.124 289.467 195.868 289.089 195.544 288.772C195.237 288.55 194.87 288.425 194.491 288.413H194.106L193.926 294.122L189.518 294.011ZM194.158 285.776L195.989 285.836C196.378 285.812 196.765 285.758 197.145 285.673C197.432 285.63 197.691 285.48 197.873 285.254C198.058 285.026 198.163 284.743 198.172 284.449C198.188 284.254 198.161 284.057 198.091 283.873C198.022 283.689 197.912 283.524 197.77 283.388C197.292 283.079 196.728 282.932 196.161 282.969L194.243 282.909L194.158 285.776Z" fill="white"/>
<path d="M204.824 294.464L205.269 280.383L212.519 280.614C213.56 280.608 214.596 280.758 215.592 281.059C216.3 281.293 216.905 281.765 217.304 282.394C217.739 283.08 217.943 283.887 217.886 284.697C217.889 285.38 217.706 286.051 217.358 286.639C217.01 287.227 216.509 287.709 215.909 288.035C215.422 288.285 214.899 288.458 214.36 288.549C214.755 288.677 215.13 288.861 215.472 289.097C215.728 289.322 215.955 289.578 216.149 289.859C216.367 290.126 216.562 290.413 216.731 290.715L218.708 294.858L213.795 294.704L211.603 290.33C211.428 289.913 211.172 289.534 210.85 289.217C210.544 288.986 210.172 288.86 209.789 288.857H209.412L209.224 294.575L204.824 294.464ZM209.455 286.229L211.295 286.281C211.684 286.266 212.071 286.214 212.451 286.127C212.735 286.084 212.993 285.934 213.17 285.707C213.361 285.483 213.468 285.198 213.469 284.902C213.488 284.707 213.462 284.511 213.394 284.327C213.326 284.143 213.217 283.977 213.076 283.841C212.598 283.525 212.029 283.377 211.458 283.422L209.549 283.362L209.455 286.229Z" fill="white"/>
<path d="M219.41 287.924C219.344 286.942 219.496 285.957 219.856 285.04C220.216 284.123 220.775 283.298 221.491 282.622C222.208 281.947 223.066 281.439 224.003 281.135C224.939 280.831 225.932 280.738 226.909 280.862C227.894 280.83 228.877 280.996 229.797 281.35C230.718 281.704 231.558 282.24 232.267 282.925C232.9 283.654 233.379 284.505 233.673 285.424C233.967 286.344 234.071 287.314 233.979 288.275C233.986 289.674 233.657 291.054 233.02 292.299C232.443 293.317 231.58 294.145 230.538 294.678C229.31 295.266 227.95 295.525 226.592 295.432C225.237 295.443 223.898 295.15 222.671 294.576C221.627 294.009 220.775 293.145 220.223 292.093C219.576 290.804 219.295 289.362 219.41 287.924ZM223.759 288.078C223.63 289.157 223.875 290.248 224.452 291.169C224.722 291.47 225.05 291.714 225.416 291.886C225.782 292.058 226.179 292.154 226.583 292.169C226.987 292.184 227.39 292.118 227.768 291.974C228.146 291.83 228.491 291.611 228.783 291.331C229.418 290.37 229.719 289.227 229.639 288.078C229.754 287.047 229.503 286.007 228.929 285.142C228.669 284.843 228.348 284.604 227.988 284.44C227.628 284.276 227.236 284.191 226.84 284.192C226.441 284.164 226.04 284.226 225.668 284.374C225.296 284.522 224.962 284.753 224.692 285.048C224.043 285.922 223.714 286.991 223.759 288.078Z" fill="white"/>
<path d="M236.179 295.5L236.624 281.41L243.874 281.641C244.915 281.64 245.95 281.79 246.947 282.086C247.652 282.327 248.255 282.797 248.659 283.422C249.091 284.109 249.295 284.915 249.241 285.724C249.245 286.409 249.064 287.082 248.715 287.671C248.367 288.261 247.865 288.745 247.264 289.071C246.775 289.314 246.253 289.484 245.715 289.576C246.111 289.707 246.486 289.894 246.827 290.133C247.083 290.358 247.31 290.614 247.504 290.895C247.724 291.161 247.919 291.448 248.086 291.751L250.063 295.902L245.15 295.748L242.958 291.365C242.784 290.95 242.528 290.575 242.205 290.261C241.898 290.031 241.527 289.903 241.144 289.893H240.767L240.579 295.611L236.179 295.5ZM240.81 287.257L242.65 287.317C243.039 287.302 243.426 287.25 243.806 287.162C244.089 287.117 244.345 286.967 244.525 286.743C244.727 286.504 244.833 286.2 244.824 285.887C244.843 285.693 244.817 285.498 244.749 285.315C244.681 285.133 244.572 284.968 244.431 284.834C243.953 284.518 243.384 284.37 242.813 284.415L240.904 284.355L240.81 287.257Z" fill="white"/>
<path d="M243.104 319.425C242.943 319.428 242.784 319.397 242.636 319.333C242.489 319.27 242.356 319.175 242.248 319.057L234.92 311.036L227.011 318.261C226.792 318.461 226.502 318.567 226.205 318.554C225.908 318.541 225.628 318.411 225.427 318.192L218.1 310.172L210.191 317.396C209.971 317.597 209.682 317.702 209.385 317.69C209.088 317.677 208.808 317.547 208.607 317.328L201.271 309.307L193.37 316.532C193.255 316.636 193.12 316.716 192.972 316.766C192.825 316.816 192.669 316.835 192.514 316.823C192.217 316.805 191.938 316.673 191.735 316.455L184.408 308.442L176.507 315.658C176.286 315.86 175.995 315.966 175.697 315.953C175.398 315.94 175.117 315.809 174.915 315.59C174.815 315.481 174.738 315.354 174.687 315.215C174.637 315.077 174.615 314.929 174.622 314.782C174.629 314.635 174.665 314.49 174.729 314.357C174.793 314.224 174.882 314.105 174.992 314.006L183.723 306.02C183.944 305.819 184.235 305.713 184.533 305.726C184.832 305.738 185.113 305.869 185.315 306.088L192.643 314.109L200.543 306.884C200.768 306.688 201.058 306.583 201.357 306.593C201.655 306.609 201.934 306.742 202.136 306.962L209.463 314.982L217.372 307.758C217.48 307.657 217.607 307.579 217.746 307.528C217.884 307.477 218.031 307.454 218.179 307.46C218.326 307.467 218.471 307.502 218.604 307.565C218.737 307.628 218.857 307.717 218.956 307.826L226.283 315.847L234.193 308.622C234.412 308.421 234.702 308.316 234.999 308.329C235.296 308.341 235.575 308.472 235.776 308.691L243.96 317.576C244.106 317.739 244.202 317.942 244.235 318.159C244.268 318.375 244.237 318.597 244.146 318.797C244.056 318.996 243.909 319.165 243.724 319.283C243.538 319.401 243.323 319.462 243.104 319.459V319.425Z" fill="white"/>
<path d="M107.642 354.958L102.283 352.399L97.5068 329.142L100.101 326.291L107.642 354.958Z" fill="#F7BBBD"/>
<path d="M107.642 354.958L114.755 350.798L108.661 331.641L100.101 326.291L107.642 354.958Z" fill="#F7BBBD"/>
<path opacity="0.2" d="M107.642 354.958L114.755 350.798L108.661 331.641L100.101 326.291L107.642 354.958Z" fill="black"/>
<path d="M224.272 359.186H223.681C222.546 359.155 221.47 358.675 220.689 357.851C219.908 357.026 219.486 355.926 219.517 354.791C219.547 353.655 220.028 352.579 220.852 351.798C221.676 351.017 222.777 350.595 223.912 350.626C230.503 350.84 244.456 346.791 252.434 339.053C252.916 338.58 253.502 338.228 254.146 338.026C267.662 333.968 272.687 342.16 272.893 342.511L265.531 346.868C265.557 346.923 265.588 346.974 265.625 347.022C265.548 346.911 263.631 344.454 257.536 345.961C247.529 355.086 232.173 359.186 224.272 359.186Z" fill="#170304"/>
<path d="M223.75 364.871L208.162 363.895L206.938 335.15L227.884 335.929L223.75 364.871Z" fill="#F7BBBD"/>
<path d="M223.75 364.871L227.396 361.242L229.656 343.326L227.884 335.93L223.75 364.871Z" fill="#F7BBBD"/>
<path opacity="0.2" d="M223.75 364.871L227.396 361.242L229.656 343.326L227.884 335.93L223.75 364.871Z" fill="black"/>
<path d="M314.075 353.991C313.516 353.99 312.971 353.807 312.526 353.469C303.623 346.706 291.597 334.696 286.983 323.115C286.913 322.947 286.865 322.772 286.837 322.593C284.586 309.205 282.437 281.034 282.343 279.844C282.318 279.507 282.359 279.168 282.465 278.847C282.571 278.525 282.739 278.228 282.959 277.972C283.405 277.454 284.037 277.134 284.719 277.083C285.4 277.032 286.073 277.254 286.591 277.699C287.109 278.145 287.428 278.778 287.479 279.459C287.479 279.741 289.679 308.186 291.87 321.463C296.476 332.728 308.99 344.292 315.65 349.377C316.079 349.702 316.395 350.154 316.553 350.669C316.711 351.183 316.703 351.734 316.531 352.244C316.359 352.754 316.031 353.197 315.593 353.511C315.155 353.824 314.63 353.992 314.092 353.991H314.075Z" fill="#170304"/>
<path d="M325.948 355.284C323.962 355.284 321.71 354.385 319.254 352.613C318.702 352.214 318.332 351.611 318.224 350.939C318.117 350.266 318.281 349.578 318.68 349.027C319.08 348.475 319.682 348.105 320.355 347.997C321.027 347.89 321.715 348.054 322.267 348.453C324.39 349.985 325.545 350.165 325.948 350.165C326.629 350.165 327.282 350.436 327.763 350.917C328.245 351.399 328.516 352.052 328.516 352.733C328.516 353.414 328.245 354.067 327.763 354.549C327.282 355.031 326.629 355.301 325.948 355.301V355.284Z" fill="#170304"/>
<path d="M319.973 352.535C322.721 344.378 333.985 345.987 337.872 347.202C341.191 348.166 344.375 349.547 347.348 351.311C349.445 352.681 349.479 354.983 346.68 356.293C343.256 357.902 334.559 356.473 334.559 356.473C339.044 358.433 334.559 361.609 326.675 358.493C324.116 357.483 319.005 355.531 319.973 352.535Z" fill="#F7BBBD"/>
<path d="M292.632 283.336C291.613 290.27 285.87 295.38 281.196 294.695C276.522 294.01 276.334 287.847 277.352 280.879C278.371 273.911 280.22 268.895 284.894 269.58C289.568 270.265 293.651 276.428 292.632 283.336Z" fill="#170304"/>
<path d="M179.657 255.689C180.045 255.689 180.359 255.375 180.359 254.987C180.359 254.599 180.045 254.285 179.657 254.285C179.269 254.285 178.955 254.599 178.955 254.987C178.955 255.375 179.269 255.689 179.657 255.689Z" fill="#170304"/>
<path d="M186.788 260.036C186.788 260.175 186.746 260.31 186.669 260.426C186.592 260.541 186.483 260.631 186.354 260.684C186.226 260.738 186.085 260.751 185.949 260.724C185.813 260.697 185.688 260.63 185.589 260.532C185.491 260.434 185.424 260.309 185.397 260.173C185.37 260.037 185.384 259.896 185.437 259.767C185.49 259.639 185.58 259.529 185.696 259.452C185.811 259.375 185.947 259.334 186.086 259.334C186.272 259.334 186.45 259.408 186.582 259.54C186.714 259.671 186.788 259.85 186.788 260.036Z" fill="#170304"/>
<path d="M187.575 342.983C187.575 343.122 187.534 343.258 187.457 343.373C187.38 343.489 187.27 343.579 187.142 343.632C187.014 343.685 186.873 343.699 186.736 343.672C186.6 343.645 186.475 343.578 186.377 343.48C186.279 343.381 186.212 343.256 186.185 343.12C186.158 342.984 186.172 342.843 186.225 342.715C186.278 342.586 186.368 342.477 186.483 342.4C186.599 342.322 186.734 342.281 186.873 342.281C187.059 342.281 187.238 342.355 187.37 342.487C187.501 342.618 187.575 342.797 187.575 342.983Z" fill="#170304"/>
<path d="M194.004 348.042C194.004 348.181 193.963 348.316 193.886 348.432C193.809 348.547 193.699 348.637 193.571 348.69C193.442 348.743 193.301 348.757 193.165 348.73C193.029 348.703 192.904 348.636 192.806 348.538C192.708 348.44 192.641 348.315 192.614 348.179C192.587 348.043 192.6 347.901 192.654 347.773C192.707 347.645 192.797 347.535 192.912 347.458C193.027 347.381 193.163 347.34 193.302 347.34C193.488 347.34 193.667 347.414 193.798 347.545C193.93 347.677 194.004 347.856 194.004 348.042Z" fill="#170304"/>
<path d="M70.6284 356.456C69.396 356.398 68.1924 356.064 67.1064 355.479C66.0203 354.894 65.0797 354.072 64.3539 353.074C64.3183 353.029 64.2924 352.976 64.2779 352.92C64.2633 352.863 64.2603 352.805 64.2691 352.747C64.2779 352.69 64.2983 352.635 64.329 352.586C64.3597 352.537 64.4002 352.494 64.4479 352.461C64.4956 352.428 64.5495 352.405 64.6064 352.393C64.6633 352.381 64.722 352.381 64.7788 352.393C64.8357 352.405 64.8896 352.428 64.9372 352.461C64.9848 352.495 65.0252 352.537 65.0558 352.587C66.6565 354.898 70.1918 356.122 71.7326 355.394C71.8869 355.329 72.0245 355.229 72.1349 355.103C71.3564 354.761 70.6742 354.231 70.1487 353.563C69.6232 352.894 69.2705 352.106 69.1218 351.268C68.9249 350.181 68.7709 348.7 69.6611 348.512C70.8937 348.238 72.503 351.208 73.0851 353.46C73.1905 353.832 73.2282 354.221 73.1964 354.607C73.6901 354.754 74.2094 354.795 74.7201 354.727C74.9502 354.709 75.1741 354.643 75.3774 354.534C75.5808 354.425 75.7593 354.275 75.9013 354.093C75.338 353.668 74.8707 353.129 74.5299 352.511C74.1892 351.893 73.9827 351.21 73.924 350.506C73.5987 348.161 73.8469 347.759 74.1037 347.553C74.1869 347.489 74.2862 347.45 74.3906 347.439C74.4949 347.429 74.6001 347.448 74.6944 347.493C75.6103 347.879 76.7145 351.2 76.9285 353.083C76.9542 353.279 76.9542 353.478 76.9285 353.674C77.2976 353.816 77.6888 353.891 78.0841 353.896C78.81 353.924 79.5279 353.737 80.1471 353.357C80.0273 353.28 79.916 353.194 79.8047 353.109C78.9487 352.347 78.5549 351.131 78.709 349.402C78.8289 348.058 79.1285 347.322 79.6677 347.091C79.8417 347.021 80.0322 347.003 80.2161 347.04C80.4 347.076 80.5693 347.166 80.7035 347.296C81.2813 347.935 81.7131 348.691 81.9689 349.513C82.2246 350.335 82.2982 351.203 82.1844 352.056C82.1101 352.411 81.9613 352.747 81.7478 353.04C83.3229 353.314 85.5313 352.869 87.4402 352.398C87.4964 352.385 87.5547 352.382 87.6118 352.392C87.6689 352.401 87.7237 352.421 87.7729 352.451C87.8222 352.481 87.8651 352.521 87.899 352.568C87.933 352.614 87.9574 352.667 87.9709 352.724C87.9844 352.78 87.9867 352.838 87.9777 352.895C87.9686 352.952 87.9484 353.007 87.9182 353.056C87.888 353.106 87.8484 353.148 87.8016 353.182C87.7549 353.216 87.7019 353.241 87.6457 353.254C85.3259 353.828 82.8264 354.299 81.063 353.785C80.2022 354.439 79.1482 354.789 78.067 354.778C77.5872 354.772 77.1122 354.682 76.6632 354.513C76.464 354.821 76.1969 355.079 75.8822 355.267C75.5676 355.456 75.214 355.569 74.8485 355.6C74.205 355.682 73.5513 355.627 72.931 355.437C72.7313 355.773 72.4322 356.04 72.075 356.199C71.6159 356.384 71.1232 356.472 70.6284 356.456ZM69.8922 349.368C69.7738 349.95 69.7973 350.552 69.9607 351.123C70.0814 351.807 70.3655 352.453 70.7887 353.004C71.2119 353.555 71.7617 353.996 72.3917 354.29C72.3798 354.087 72.3453 353.886 72.289 353.691C71.6213 351.243 70.3373 349.556 69.8922 349.368ZM74.6601 348.623C74.6657 349.214 74.7143 349.803 74.8057 350.387C74.9 351.43 75.361 352.407 76.1068 353.143C75.8961 351.563 75.4063 350.032 74.6601 348.623ZM80.0444 347.879C80.0444 347.879 79.7191 348.041 79.5993 349.471C79.4794 350.9 79.7277 351.885 80.3953 352.458C80.5533 352.586 80.7257 352.695 80.9089 352.783C81.134 352.543 81.2932 352.248 81.3712 351.927C81.5236 350.58 81.1596 349.225 80.3525 348.135C80.1728 347.913 80.0701 347.879 80.0444 347.879Z" fill="#170304"/>
<path d="M195.913 362.927L198.232 358.904L195.913 354.881H193.43L194.834 358.904L193.43 362.927H195.913Z" fill="#170304"/>
<path d="M193.593 361.001C193.306 361.019 193.02 360.978 192.75 360.882C192.48 360.785 192.233 360.633 192.024 360.437C191.815 360.241 191.648 360.004 191.534 359.741C191.42 359.478 191.361 359.194 191.361 358.908C191.361 358.621 191.42 358.337 191.534 358.074C191.648 357.811 191.815 357.574 192.024 357.378C192.233 357.182 192.48 357.031 192.75 356.934C193.02 356.837 193.306 356.797 193.593 356.815L189.655 356.027L188.602 359.212L190.365 361.899L193.593 361.001Z" fill="#170304"/>
<path d="M193.935 354.881H189.287L186.967 358.904L189.287 362.927H193.935L196.255 358.904L193.935 354.881ZM191.615 361.001C191.2 361.003 190.794 360.881 190.448 360.652C190.102 360.423 189.832 360.096 189.672 359.713C189.512 359.33 189.469 358.908 189.549 358.5C189.629 358.093 189.828 357.718 190.121 357.424C190.414 357.13 190.787 356.929 191.195 356.848C191.602 356.766 192.024 356.807 192.407 356.966C192.791 357.124 193.119 357.393 193.35 357.738C193.581 358.083 193.704 358.489 193.704 358.904C193.704 359.459 193.484 359.991 193.093 360.384C192.701 360.777 192.17 360.999 191.615 361.001Z" fill="#F7BBBD"/>
<path d="M357.714 354.606L355.993 351.618L357.714 348.631H359.554L358.518 351.618L359.554 354.606H357.714Z" fill="#F7BBBD"/>
<path d="M359.434 353.178C359.648 353.194 359.863 353.165 360.065 353.094C360.267 353.023 360.452 352.912 360.61 352.766C360.767 352.62 360.892 352.443 360.978 352.247C361.063 352.05 361.107 351.838 361.107 351.624C361.107 351.41 361.063 351.198 360.978 351.001C360.892 350.805 360.767 350.628 360.61 350.482C360.452 350.336 360.267 350.225 360.065 350.154C359.863 350.083 359.648 350.054 359.434 350.07L362.362 349.488L363.141 351.851L361.839 353.845L359.434 353.178Z" fill="#F7BBBD"/>
<path d="M359.186 348.631H362.61L364.322 351.618L362.61 354.606H359.186L357.474 351.618L359.186 348.631ZM360.898 353.176C361.207 353.178 361.509 353.088 361.766 352.918C362.023 352.748 362.224 352.505 362.344 352.22C362.463 351.936 362.495 351.622 362.436 351.32C362.377 351.017 362.229 350.738 362.011 350.52C361.794 350.301 361.516 350.152 361.214 350.091C360.911 350.03 360.598 350.061 360.312 350.178C360.027 350.296 359.783 350.496 359.612 350.752C359.44 351.008 359.349 351.31 359.349 351.618C359.348 351.823 359.387 352.026 359.465 352.216C359.543 352.405 359.658 352.578 359.803 352.722C359.947 352.867 360.12 352.982 360.309 353.06C360.499 353.138 360.702 353.177 360.907 353.176H360.898Z" fill="#170304"/>
<path d="M293.608 358.578H297.477C297.961 358.575 298.425 358.381 298.767 358.038C299.108 357.695 299.3 357.23 299.3 356.746C299.3 356.262 299.108 355.797 298.767 355.454C298.425 355.11 297.961 354.916 297.477 354.914H293.608C293.122 354.914 292.656 355.107 292.312 355.451C291.969 355.794 291.776 356.26 291.776 356.746C291.776 357.232 291.969 357.698 292.312 358.041C292.656 358.385 293.122 358.578 293.608 358.578Z" fill="#170304"/>
<path d="M287.385 355.121C287.744 354.468 288.286 353.934 288.945 353.586C289.603 353.237 290.35 353.089 291.092 353.16C291.834 353.23 292.539 353.517 293.12 353.983C293.701 354.449 294.133 355.076 294.362 355.785C294.592 356.494 294.609 357.255 294.411 357.973C294.213 358.692 293.81 359.337 293.25 359.828C292.69 360.32 291.998 360.638 291.26 360.741C290.522 360.845 289.77 360.73 289.097 360.411C288.171 359.934 287.471 359.11 287.151 358.119C286.83 357.128 286.914 356.05 287.385 355.121Z" fill="#F7BBBD"/>
<path d="M288.429 360.41L289.489 360.91L293.176 353.09L292.115 352.59L288.429 360.41Z" fill="#170304"/>
</svg>
