<svg width="1440" height="49" viewBox="0 0 1440 49" fill="none" xmlns="http://www.w3.org/2000/svg">
<g opacity="0.1">
<rect x="1326.71" y="62.9325" width="88" height="88" transform="rotate(-45 1326.71 62.9325)" stroke="#A91418"/>
<rect x="1289.71" y="62.9325" width="88" height="88" transform="rotate(-45 1289.71 62.9325)" stroke="#A91418"/>
<rect x="1252.71" y="62.9325" width="88" height="88" transform="rotate(-45 1252.71 62.9325)" stroke="#A91418"/>
<rect x="1215.71" y="62.9325" width="88" height="88" transform="rotate(-45 1215.71 62.9325)" stroke="#A91418"/>
<rect x="1178.71" y="62.9325" width="88" height="88" transform="rotate(-45 1178.71 62.9325)" stroke="#A91418"/>
<rect x="1141.71" y="62.9325" width="88" height="88" transform="rotate(-45 1141.71 62.9325)" stroke="#A91418"/>
<rect x="1104.71" y="62.9325" width="88" height="88" transform="rotate(-45 1104.71 62.9325)" stroke="#A91418"/>
<rect x="1067.71" y="62.9325" width="88" height="88" transform="rotate(-45 1067.71 62.9325)" stroke="#A91418"/>
<rect x="1030.71" y="62.9325" width="88" height="88" transform="rotate(-45 1030.71 62.9325)" stroke="#A91418"/>
<rect x="993.707" y="62.9325" width="88" height="88" transform="rotate(-45 993.707 62.9325)" stroke="#A91418"/>
<rect x="956.707" y="62.9325" width="88" height="88" transform="rotate(-45 956.707 62.9325)" stroke="#A91418"/>
<rect x="919.707" y="62.9325" width="88" height="88" transform="rotate(-45 919.707 62.9325)" stroke="#A91418"/>
<rect x="882.707" y="62.9325" width="88" height="88" transform="rotate(-45 882.707 62.9325)" stroke="#A91418"/>
<rect x="845.707" y="62.9325" width="88" height="88" transform="rotate(-45 845.707 62.9325)" stroke="#A91418"/>
<rect x="808.707" y="62.9325" width="88" height="88" transform="rotate(-45 808.707 62.9325)" stroke="#A91418"/>
<rect x="771.707" y="62.9325" width="88" height="88" transform="rotate(-45 771.707 62.9325)" stroke="#A91418"/>
<rect x="734.707" y="62.9325" width="88" height="88" transform="rotate(-45 734.707 62.9325)" stroke="#A91418"/>
<rect x="697.707" y="62.9325" width="88" height="88" transform="rotate(-45 697.707 62.9325)" stroke="#A91418"/>
<rect x="660.707" y="62.9325" width="88" height="88" transform="rotate(-45 660.707 62.9325)" stroke="#A91418"/>
<rect x="623.707" y="62.9325" width="88" height="88" transform="rotate(-45 623.707 62.9325)" stroke="#A91418"/>
<rect x="586.707" y="62.9325" width="88" height="88" transform="rotate(-45 586.707 62.9325)" stroke="#A91418"/>
<rect x="549.707" y="62.9325" width="88" height="88" transform="rotate(-45 549.707 62.9325)" stroke="#A91418"/>
<rect x="512.707" y="62.9325" width="88" height="88" transform="rotate(-45 512.707 62.9325)" stroke="#A91418"/>
<rect x="475.707" y="62.9325" width="88" height="88" transform="rotate(-45 475.707 62.9325)" stroke="#A91418"/>
<rect x="438.707" y="62.9325" width="88" height="88" transform="rotate(-45 438.707 62.9325)" stroke="#A91418"/>
<rect x="401.707" y="62.9325" width="88" height="88" transform="rotate(-45 401.707 62.9325)" stroke="#A91418"/>
<rect x="364.707" y="62.9325" width="88" height="88" transform="rotate(-45 364.707 62.9325)" stroke="#A91418"/>
<rect x="327.707" y="62.9325" width="88" height="88" transform="rotate(-45 327.707 62.9325)" stroke="#A91418"/>
<rect x="290.707" y="62.9325" width="88" height="88" transform="rotate(-45 290.707 62.9325)" stroke="#A91418"/>
<rect x="253.707" y="62.9325" width="88" height="88" transform="rotate(-45 253.707 62.9325)" stroke="#A91418"/>
<rect x="216.707" y="62.9325" width="88" height="88" transform="rotate(-45 216.707 62.9325)" stroke="#A91418"/>
<rect x="179.707" y="62.9325" width="88" height="88" transform="rotate(-45 179.707 62.9325)" stroke="#A91418"/>
<rect x="142.707" y="62.9325" width="88" height="88" transform="rotate(-45 142.707 62.9325)" stroke="#A91418"/>
<rect x="105.707" y="62.9325" width="88" height="88" transform="rotate(-45 105.707 62.9325)" stroke="#A91418"/>
<rect x="68.7071" y="62.9325" width="88" height="88" transform="rotate(-45 68.7071 62.9325)" stroke="#A91418"/>
<rect x="31.7071" y="62.9325" width="88" height="88" transform="rotate(-45 31.7071 62.9325)" stroke="#A91418"/>
<rect x="-5.29289" y="62.9325" width="88" height="88" transform="rotate(-45 -5.29289 62.9325)" stroke="#A91418"/>
</g>
</svg>
