<svg width="32" height="32" viewBox="0 0 32 32" fill="none" xmlns="http://www.w3.org/2000/svg">
<path d="M2.66663 22.7466H16" stroke="#A91418" stroke-width="1.5" stroke-miterlimit="10" stroke-linecap="round" stroke-linejoin="round"/>
<path d="M5.62659 18H13.04C15.4133 18 16 18.5867 16 20.9333V26.4133C16 28.76 15.4133 29.3467 13.04 29.3467H5.62659C3.25325 29.3467 2.66663 28.76 2.66663 26.4133V20.9333C2.66663 18.5867 3.25325 18 5.62659 18Z" stroke="#A91418" stroke-width="1.5" stroke-linecap="round" stroke-linejoin="round"/>
<path opacity="0.4" d="M29.3333 20C29.3333 25.16 25.16 29.3333 20 29.3333L21.4 27" stroke="#A91418" stroke-width="1.5" stroke-linecap="round" stroke-linejoin="round"/>
<path opacity="0.4" d="M2.66663 12.0001C2.66663 6.84008 6.83996 2.66675 12 2.66675L10.6 5.00008" stroke="#A91418" stroke-width="1.5" stroke-linecap="round" stroke-linejoin="round"/>
<path d="M24.6666 14.6667C27.9803 14.6667 30.6666 11.9805 30.6666 8.66675C30.6666 5.35304 27.9803 2.66675 24.6666 2.66675C21.3529 2.66675 18.6666 5.35304 18.6666 8.66675C18.6666 11.9805 21.3529 14.6667 24.6666 14.6667Z" stroke="#A91418" stroke-width="1.5" stroke-linecap="round" stroke-linejoin="round"/>
</svg>
