<svg width="12" height="12" viewBox="0 0 12 12" fill="none" xmlns="http://www.w3.org/2000/svg">
<path d="M1.5 11H10.5" stroke="#9B9798" stroke-linecap="round" stroke-linejoin="round"/>
<path d="M2.7998 4.69V8.99957H2V4.69H2.7998Z" stroke="#9B9798" stroke-linecap="round" stroke-linejoin="round"/>
<path d="M6.39996 2.59497H5.59998C5.32498 2.59497 5.09998 2.81997 5.09998 3.09497V8.99997C5.09998 9.27497 5.32498 9.49997 5.59998 9.49997H6.39996C6.67496 9.49997 6.89996 9.27497 6.89996 8.99997V3.09497C6.89996 2.81997 6.67496 2.59497 6.39996 2.59497Z" stroke="#9B9798" stroke-linecap="round" stroke-linejoin="round"/>
<path d="M10 1H9.20001C8.92501 1 8.70001 1.225 8.70001 1.5V9C8.70001 9.275 8.92501 9.5 9.20001 9.5H10C10.275 9.5 10.5 9.275 10.5 9V1.5C10.5 1.225 10.275 1 10 1Z" stroke="#9B9798" stroke-linecap="round" stroke-linejoin="round"/>
</svg>
