<svg width="708" height="768" viewBox="0 0 708 768" fill="none" xmlns="http://www.w3.org/2000/svg">
<g opacity="0.08">
<line x1="220.428" y1="-461.65" x2="-521.647" y2="280.424" stroke="#F7BBBD"/>
<line x1="234.806" y1="-447.256" x2="-507.269" y2="294.819" stroke="#F7BBBD"/>
<line x1="249.19" y1="-432.885" x2="-492.884" y2="309.19" stroke="#F7BBBD"/>
</g>
<g opacity="0.08">
<line x1="306.712" y1="-375.352" x2="-435.363" y2="366.723" stroke="#F7BBBD"/>
<line x1="321.092" y1="-360.978" x2="-420.982" y2="381.096" stroke="#F7BBBD"/>
<line x1="335.477" y1="-346.596" x2="-406.598" y2="395.479" stroke="#F7BBBD"/>
</g>
<g opacity="0.08">
<line x1="393" y1="-289.07" x2="-349.075" y2="453.005" stroke="#F7BBBD"/>
<line x1="407.382" y1="-274.687" x2="-334.693" y2="467.387" stroke="#F7BBBD"/>
<line x1="421.765" y1="-260.307" x2="-320.31" y2="481.768" stroke="#F7BBBD"/>
</g>
<g opacity="0.08">
<line x1="479.282" y1="-202.785" x2="-262.793" y2="539.29" stroke="#F7BBBD"/>
<line x1="493.668" y1="-188.406" x2="-248.407" y2="553.669" stroke="#F7BBBD"/>
<line x1="508.048" y1="-174.023" x2="-234.026" y2="568.051" stroke="#F7BBBD"/>
</g>
<g opacity="0.08">
<line x1="565.578" y1="-116.49" x2="-176.497" y2="625.585" stroke="#F7BBBD"/>
<line x1="579.962" y1="-102.121" x2="-162.113" y2="639.954" stroke="#F7BBBD"/>
<line x1="594.34" y1="-87.7343" x2="-147.734" y2="654.34" stroke="#F7BBBD"/>
</g>
<g opacity="0.08">
<line x1="651.865" y1="-30.2011" x2="-90.2095" y2="711.874" stroke="#F7BBBD"/>
<line x1="666.248" y1="-15.8261" x2="-75.8272" y2="726.249" stroke="#F7BBBD"/>
<line x1="680.626" y1="-1.45699" x2="-61.4488" y2="740.618" stroke="#F7BBBD"/>
</g>
<g opacity="0.08">
<line x1="738.155" y1="56.086" x2="-3.91949" y2="798.161" stroke="#F7BBBD"/>
<line x1="752.538" y1="70.4551" x2="10.4633" y2="812.53" stroke="#F7BBBD"/>
<line x1="766.914" y1="84.8418" x2="24.8393" y2="826.917" stroke="#F7BBBD"/>
</g>
<g opacity="0.08">
<line x1="824.441" y1="142.367" x2="82.3666" y2="884.442" stroke="#F7BBBD"/>
<line x1="838.819" y1="156.75" x2="96.7446" y2="898.825" stroke="#F7BBBD"/>
<line x1="853.206" y1="171.131" x2="111.131" y2="913.206" stroke="#F7BBBD"/>
</g>
<g opacity="0.08">
<line x1="910.728" y1="228.645" x2="168.653" y2="970.719" stroke="#F7BBBD"/>
<line x1="925.111" y1="243.039" x2="183.037" y2="985.114" stroke="#F7BBBD"/>
<line x1="939.49" y1="257.418" x2="197.415" y2="999.493" stroke="#F7BBBD"/>
</g>
<g opacity="0.08">
<line x1="997.013" y1="314.943" x2="254.938" y2="1057.02" stroke="#F7BBBD"/>
<line x1="1011.39" y1="329.32" x2="269.319" y2="1071.4" stroke="#F7BBBD"/>
<line x1="1025.78" y1="343.703" x2="283.705" y2="1085.78" stroke="#F7BBBD"/>
</g>
<g opacity="0.08">
<line x1="1083.31" y1="401.229" x2="341.232" y2="1143.3" stroke="#F7BBBD"/>
<line x1="1097.69" y1="415.607" x2="355.613" y2="1157.68" stroke="#F7BBBD"/>
<line x1="1112.07" y1="429.998" x2="369.991" y2="1172.07" stroke="#F7BBBD"/>
</g>
<g opacity="0.08">
<line x1="1169.59" y1="487.518" x2="427.518" y2="1229.59" stroke="#F7BBBD"/>
<line x1="1183.97" y1="501.9" x2="441.9" y2="1243.98" stroke="#F7BBBD"/>
<line x1="1198.35" y1="516.283" x2="456.279" y2="1258.36" stroke="#F7BBBD"/>
</g>
</svg>
