<svg width="16" height="16" viewBox="0 0 16 16" fill="none" xmlns="http://www.w3.org/2000/svg">
<path d="M12.4199 4.76676C12.4466 5.17343 12.4132 5.63343 12.3332 6.14676L11.8466 9.27343C11.4332 11.8801 10.2266 12.7601 7.61991 12.3534L4.49325 11.8601C3.59325 11.7201 2.89991 11.4801 2.39325 11.1201C1.42658 10.4468 1.14658 9.34009 1.41325 7.63343L1.90658 4.50676C2.31991 1.90009 3.52658 1.02009 6.13325 1.42676L9.25991 1.92009C11.3532 2.24676 12.3332 3.10009 12.4199 4.76676Z" stroke="#484647" stroke-linecap="round" stroke-linejoin="round"/>
<path d="M13.6666 8.98091L12.6666 11.9876C11.8333 14.4942 10.5 15.1609 7.99331 14.3276L4.98664 13.3276C3.47331 12.8276 2.63331 12.1342 2.39331 11.1209C2.89998 11.4809 3.59331 11.7209 4.49331 11.8609L7.61998 12.3542C10.2266 12.7609 11.4333 11.8809 11.8466 9.27424L12.3333 6.14758C12.4133 5.63424 12.4466 5.17424 12.42 4.76758C14.0133 5.61424 14.36 6.89424 13.6666 8.98091Z" stroke="#484647" stroke-linecap="round" stroke-linejoin="round"/>
<path d="M5.49325 5.98602C6.1339 5.98602 6.65325 5.46667 6.65325 4.82602C6.65325 4.18537 6.1339 3.66602 5.49325 3.66602C4.8526 3.66602 4.33325 4.18537 4.33325 4.82602C4.33325 5.46667 4.8526 5.98602 5.49325 5.98602Z" stroke="#484647" stroke-linecap="round" stroke-linejoin="round"/>
</svg>
