<svg width="20" height="21" viewBox="0 0 20 21" fill="none" xmlns="http://www.w3.org/2000/svg">
<path d="M13.3337 11.25V14.75C13.3337 17.6667 12.167 18.8333 9.25033 18.8333H5.75033C2.83366 18.8333 1.66699 17.6667 1.66699 14.75V11.25C1.66699 8.33332 2.83366 7.16666 5.75033 7.16666H9.25033C12.167 7.16666 13.3337 8.33332 13.3337 11.25Z" stroke="#A91418" stroke-width="1.5" stroke-linecap="round" stroke-linejoin="round"/>
<path opacity="0.4" d="M18.3337 6.24999V9.74999C18.3337 12.6667 17.167 13.8333 14.2503 13.8333H13.3337V11.25C13.3337 8.33332 12.167 7.16666 9.25033 7.16666H6.66699V6.24999C6.66699 3.33332 7.83366 2.16666 10.7503 2.16666H14.2503C17.167 2.16666 18.3337 3.33332 18.3337 6.24999Z" stroke="#A91418" stroke-width="1.5" stroke-linecap="round" stroke-linejoin="round"/>
</svg>
