<svg width="20" height="21" viewBox="0 0 20 21" fill="none" xmlns="http://www.w3.org/2000/svg">
<path d="M16.6667 12.1666C17.5871 12.1666 18.3333 11.4205 18.3333 10.5C18.3333 9.57951 17.5871 8.83331 16.6667 8.83331C15.7462 8.83331 15 9.57951 15 10.5C15 11.4205 15.7462 12.1666 16.6667 12.1666Z" stroke="#484647" stroke-width="1.5" stroke-linecap="round" stroke-linejoin="round"/>
<path d="M16.6667 5.50002C17.5871 5.50002 18.3333 4.75383 18.3333 3.83335C18.3333 2.91288 17.5871 2.16669 16.6667 2.16669C15.7462 2.16669 15 2.91288 15 3.83335C15 4.75383 15.7462 5.50002 16.6667 5.50002Z" stroke="#484647" stroke-width="1.5" stroke-linecap="round" stroke-linejoin="round"/>
<path d="M16.6667 18.8333C17.5871 18.8333 18.3333 18.0871 18.3333 17.1667C18.3333 16.2462 17.5871 15.5 16.6667 15.5C15.7462 15.5 15 16.2462 15 17.1667C15 18.0871 15.7462 18.8333 16.6667 18.8333Z" stroke="#484647" stroke-width="1.5" stroke-linecap="round" stroke-linejoin="round"/>
<path d="M3.33317 12.1666C4.25365 12.1666 4.99984 11.4205 4.99984 10.5C4.99984 9.57951 4.25365 8.83331 3.33317 8.83331C2.4127 8.83331 1.6665 9.57951 1.6665 10.5C1.6665 11.4205 2.4127 12.1666 3.33317 12.1666Z" stroke="#484647" stroke-width="1.5" stroke-linecap="round" stroke-linejoin="round"/>
<g opacity="0.4">
<path d="M5 10.5H15" stroke="#484647" stroke-width="1.5" stroke-linecap="round" stroke-linejoin="round"/>
<path d="M14.9998 3.83331H11.6665C9.99984 3.83331 9.1665 4.66665 9.1665 6.33331V14.6666C9.1665 16.3333 9.99984 17.1666 11.6665 17.1666H14.9998" stroke="#484647" stroke-width="1.5" stroke-linecap="round" stroke-linejoin="round"/>
</g>
</svg>
