<svg width="20" height="20" viewBox="0 0 20 20" fill="none" xmlns="http://www.w3.org/2000/svg">
<path d="M16.6419 8.33398H3.30859V15.0007C3.30859 17.5007 4.14193 18.334 6.64193 18.334H13.3086C15.8086 18.334 16.6419 17.5007 16.6419 15.0007V8.33398Z" stroke="#F3F3F3" stroke-width="1.5" stroke-miterlimit="10" stroke-linecap="round" stroke-linejoin="round"/>
<path d="M17.9173 5.83268V6.66602C17.9173 7.58268 17.4757 8.33268 16.2507 8.33268H3.75065C2.47565 8.33268 2.08398 7.58268 2.08398 6.66602V5.83268C2.08398 4.91602 2.47565 4.16602 3.75065 4.16602H16.2507C17.4757 4.16602 17.9173 4.91602 17.9173 5.83268Z" stroke="#F3F3F3" stroke-width="1.5" stroke-miterlimit="10" stroke-linecap="round" stroke-linejoin="round"/>
<path opacity="0.4" d="M9.70096 4.16784H5.10096C4.81763 3.85951 4.82596 3.38451 5.12596 3.08451L6.30929 1.90117C6.61763 1.59284 7.12596 1.59284 7.43429 1.90117L9.70096 4.16784Z" stroke="#F3F3F3" stroke-width="1.5" stroke-miterlimit="10" stroke-linecap="round" stroke-linejoin="round"/>
<path opacity="0.4" d="M14.891 4.16784H10.291L12.5577 1.90117C12.866 1.59284 13.3743 1.59284 13.6827 1.90117L14.866 3.08451C15.166 3.38451 15.1743 3.85951 14.891 4.16784Z" stroke="#F3F3F3" stroke-width="1.5" stroke-miterlimit="10" stroke-linecap="round" stroke-linejoin="round"/>
<path opacity="0.4" d="M7.44922 8.33398V12.6173C7.44922 13.284 8.18255 13.6757 8.74089 13.3173L9.52422 12.8007C9.80755 12.6173 10.1659 12.6173 10.4409 12.8007L11.1826 13.3007C11.7326 13.6673 12.4742 13.2757 12.4742 12.609V8.33398H7.44922Z" stroke="#F3F3F3" stroke-width="1.5" stroke-miterlimit="10" stroke-linecap="round" stroke-linejoin="round"/>
</svg>
