<svg width="25" height="26" viewBox="0 0 25 26" fill="none" xmlns="http://www.w3.org/2000/svg">
<mask id="mask0_1605_35061" style="mask-type:luminance" maskUnits="userSpaceOnUse" x="0" y="0" width="25" height="26">
<path d="M24.2695 10.681H12.7556V15.4868H19.3716C19.2652 16.167 19.0264 16.836 18.6767 17.4461C18.276 18.1451 17.7807 18.6773 17.2729 19.0825C15.7521 20.2965 13.979 20.5447 12.7476 20.5447C9.63691 20.5447 6.97903 18.4505 5.95011 15.6048C5.90859 15.5015 5.88102 15.3948 5.84745 15.2894C5.62007 14.5651 5.49584 13.7981 5.49584 13.0008C5.49584 12.1711 5.63037 11.3768 5.87566 10.6267C6.84319 7.66814 9.56099 5.4584 12.7498 5.4584C13.3912 5.4584 14.0089 5.53793 14.5946 5.69655C15.9333 6.05907 16.8801 6.77304 17.4603 7.33779L20.9613 3.76641C18.8317 1.73247 16.0555 0.5 12.744 0.5C10.0967 0.499941 7.6525 1.35915 5.6496 2.81123C4.02531 3.98884 2.69316 5.5655 1.79412 7.39662C0.957891 9.09444 0.5 10.9759 0.5 12.9989C0.5 15.022 0.958591 16.923 1.79483 18.6052V18.6165C2.6781 20.4023 3.96975 21.9399 5.5396 23.1121C6.91104 24.1361 9.37017 25.5 12.744 25.5C14.6842 25.5 16.4038 25.1356 17.9203 24.4527C19.0142 23.9601 19.9835 23.3176 20.8611 22.4919C22.0206 21.4008 22.9288 20.0512 23.5486 18.4984C24.1684 16.9457 24.5 15.1898 24.5 13.2861C24.5 12.3995 24.4145 11.4992 24.2695 10.6809V10.681Z" fill="white"/>
</mask>
<g mask="url(#mask0_1605_35061)">
<g filter="url(#filter0_f_1605_35061)">
<path d="M0.324219 13.084C0.336945 15.0751 0.881619 17.1295 1.70607 18.7879V18.7993C2.30178 20.0037 3.11594 20.9551 4.04325 21.8977L9.644 19.769C8.58437 19.2083 8.42268 18.8647 7.6631 18.2378C6.88688 17.4225 6.30836 16.4865 5.94807 15.389H5.93356L5.94807 15.3776C5.71105 14.6528 5.68767 13.8835 5.67892 13.084H0.324219Z" fill="url(#paint0_radial_1605_35061)"/>
</g>
<g filter="url(#filter1_f_1605_35061)">
<path d="M12.7544 0.408203C12.2009 2.43403 12.4125 4.4032 12.7544 5.54895C13.3937 5.54944 14.0095 5.62882 14.5934 5.78695C15.932 6.14946 16.8788 6.86346 17.459 7.42821L21.0496 3.76559C18.9225 1.73407 16.3627 0.411404 12.7544 0.408203Z" fill="url(#paint1_radial_1605_35061)"/>
</g>
<g filter="url(#filter2_f_1605_35061)">
<path d="M12.7427 0.392578C10.0274 0.392517 7.52047 1.27378 5.46616 2.76315C4.70339 3.31616 4.00341 3.95497 3.38013 4.66534C3.21684 6.26103 4.60245 8.22229 7.34637 8.20606C8.67771 6.59288 10.6467 5.54916 12.8382 5.54916C12.8402 5.54916 12.8422 5.54933 12.8442 5.54934L12.7547 0.392943C12.7506 0.39294 12.7467 0.392578 12.7427 0.392578Z" fill="url(#paint2_radial_1605_35061)"/>
</g>
<g filter="url(#filter3_f_1605_35061)">
<path d="M21.7037 13.6602L19.28 15.3946C19.1737 16.0747 18.9347 16.7438 18.585 17.3539C18.1843 18.0529 17.689 18.5851 17.1813 18.9903C15.6636 20.2018 13.8952 20.4512 12.6641 20.4522C11.3917 22.7097 11.1686 23.8405 12.7536 25.6625C14.7149 25.661 16.4537 25.2922 17.9874 24.6016C19.096 24.1024 20.0783 23.4512 20.9676 22.6144C22.1427 21.5086 23.0632 20.1409 23.6913 18.5673C24.3195 16.9937 24.6554 15.2144 24.6554 13.2852L21.7037 13.6602Z" fill="url(#paint3_radial_1605_35061)"/>
</g>
<g filter="url(#filter4_f_1605_35061)">
<path d="M12.5742 10.498V15.6691H24.2348C24.3373 14.9609 24.6765 14.0445 24.6765 13.2858C24.6765 12.3993 24.5911 11.3164 24.4461 10.498H12.5742Z" fill="#3086FF"/>
</g>
<g filter="url(#filter5_f_1605_35061)">
<path d="M3.43614 4.48242C2.71656 5.30254 2.10182 6.22049 1.6144 7.21323C0.778183 8.91105 0.320312 10.9751 0.320312 12.9981C0.320312 13.0266 0.322578 13.0545 0.32276 13.083C0.693097 13.8226 5.43829 13.681 5.67746 13.083C5.67716 13.0551 5.67415 13.0279 5.67415 12.9999C5.67415 12.1702 5.80872 11.5586 6.05401 10.8084C6.3566 9.88316 6.8304 9.0311 7.43626 8.29697C7.5736 8.11433 7.93993 7.72168 8.04681 7.48616C8.08753 7.39645 7.9729 7.34609 7.96649 7.31452C7.95932 7.2792 7.80563 7.3076 7.7712 7.28129C7.66188 7.19776 7.44539 7.15415 7.31394 7.11538C7.03296 7.0325 6.56731 6.84975 6.30867 6.6603C5.49113 6.06147 4.21527 5.34617 3.43614 4.48242Z" fill="url(#paint4_radial_1605_35061)"/>
</g>
<g filter="url(#filter6_f_1605_35061)">
<path d="M6.3262 7.31744C8.22201 8.51368 8.76721 6.71363 10.0277 6.15036L7.83507 1.41406C7.02851 1.76718 6.26648 2.2059 5.55943 2.7185C4.50351 3.48404 3.57105 4.41821 2.80078 5.48131L6.3262 7.31744Z" fill="url(#paint5_radial_1605_35061)"/>
</g>
<g filter="url(#filter7_f_1605_35061)">
<path d="M7.09942 19.4022C4.55454 20.3592 4.15613 20.3935 3.92188 22.0364C4.36953 22.4914 4.85049 22.9123 5.36159 23.294C6.73303 24.318 9.37109 25.6819 12.7449 25.6819C12.7489 25.6819 12.7527 25.6815 12.7566 25.6815V20.3612C12.7541 20.3612 12.7512 20.3614 12.7486 20.3614C11.4852 20.3614 10.4756 20.0158 9.44052 19.4147C9.18531 19.2665 8.72228 19.6644 8.4869 19.4865C8.16226 19.2411 7.38099 19.6979 7.09942 19.4022Z" fill="url(#paint6_radial_1605_35061)"/>
</g>
<g opacity="0.5" filter="url(#filter8_f_1605_35061)">
<path d="M11.2656 20.1934V25.589C11.7377 25.6466 12.229 25.6816 12.7443 25.6816C13.261 25.6816 13.7608 25.6539 14.2464 25.6031V20.2297C13.7022 20.3266 13.1896 20.3611 12.748 20.3611C12.2394 20.3611 11.7448 20.2994 11.2656 20.1934Z" fill="url(#paint7_linear_1605_35061)"/>
</g>
</g>
<defs>
<filter id="filter0_f_1605_35061" x="-0.145861" y="12.6139" width="10.2605" height="9.75461" filterUnits="userSpaceOnUse" color-interpolation-filters="sRGB">
<feFlood flood-opacity="0" result="BackgroundImageFix"/>
<feBlend mode="normal" in="SourceGraphic" in2="BackgroundImageFix" result="shape"/>
<feGaussianBlur stdDeviation="0.23504" result="effect1_foregroundBlur_1605_35061"/>
</filter>
<filter id="filter1_f_1605_35061" x="11.944" y="-0.0618762" width="9.57688" height="7.95969" filterUnits="userSpaceOnUse" color-interpolation-filters="sRGB">
<feFlood flood-opacity="0" result="BackgroundImageFix"/>
<feBlend mode="normal" in="SourceGraphic" in2="BackgroundImageFix" result="shape"/>
<feGaussianBlur stdDeviation="0.23504" result="effect1_foregroundBlur_1605_35061"/>
</filter>
<filter id="filter2_f_1605_35061" x="2.89711" y="-0.0775012" width="10.4167" height="8.75461" filterUnits="userSpaceOnUse" color-interpolation-filters="sRGB">
<feFlood flood-opacity="0" result="BackgroundImageFix"/>
<feBlend mode="normal" in="SourceGraphic" in2="BackgroundImageFix" result="shape"/>
<feGaussianBlur stdDeviation="0.23504" result="effect1_foregroundBlur_1605_35061"/>
</filter>
<filter id="filter3_f_1605_35061" x="11.1666" y="12.8151" width="13.9597" height="13.3171" filterUnits="userSpaceOnUse" color-interpolation-filters="sRGB">
<feFlood flood-opacity="0" result="BackgroundImageFix"/>
<feBlend mode="normal" in="SourceGraphic" in2="BackgroundImageFix" result="shape"/>
<feGaussianBlur stdDeviation="0.23504" result="effect1_foregroundBlur_1605_35061"/>
</filter>
<filter id="filter4_f_1605_35061" x="12.1041" y="10.028" width="13.0417" height="6.11203" filterUnits="userSpaceOnUse" color-interpolation-filters="sRGB">
<feFlood flood-opacity="0" result="BackgroundImageFix"/>
<feBlend mode="normal" in="SourceGraphic" in2="BackgroundImageFix" result="shape"/>
<feGaussianBlur stdDeviation="0.23504" result="effect1_foregroundBlur_1605_35061"/>
</filter>
<filter id="filter5_f_1605_35061" x="-0.149767" y="4.01234" width="8.67453" height="10.0437" filterUnits="userSpaceOnUse" color-interpolation-filters="sRGB">
<feFlood flood-opacity="0" result="BackgroundImageFix"/>
<feBlend mode="normal" in="SourceGraphic" in2="BackgroundImageFix" result="shape"/>
<feGaussianBlur stdDeviation="0.23504" result="effect1_foregroundBlur_1605_35061"/>
</filter>
<filter id="filter6_f_1605_35061" x="-0.504069" y="-1.89079" width="13.8363" height="12.9144" filterUnits="userSpaceOnUse" color-interpolation-filters="sRGB">
<feFlood flood-opacity="0" result="BackgroundImageFix"/>
<feBlend mode="normal" in="SourceGraphic" in2="BackgroundImageFix" result="shape"/>
<feGaussianBlur stdDeviation="1.65243" result="effect1_foregroundBlur_1605_35061"/>
</filter>
<filter id="filter7_f_1605_35061" x="3.4518" y="18.9108" width="9.7761" height="7.24094" filterUnits="userSpaceOnUse" color-interpolation-filters="sRGB">
<feFlood flood-opacity="0" result="BackgroundImageFix"/>
<feBlend mode="normal" in="SourceGraphic" in2="BackgroundImageFix" result="shape"/>
<feGaussianBlur stdDeviation="0.23504" result="effect1_foregroundBlur_1605_35061"/>
</filter>
<filter id="filter8_f_1605_35061" x="10.7955" y="19.7233" width="3.92063" height="6.42844" filterUnits="userSpaceOnUse" color-interpolation-filters="sRGB">
<feFlood flood-opacity="0" result="BackgroundImageFix"/>
<feBlend mode="normal" in="SourceGraphic" in2="BackgroundImageFix" result="shape"/>
<feGaussianBlur stdDeviation="0.23504" result="effect1_foregroundBlur_1605_35061"/>
</filter>
<radialGradient id="paint0_radial_1605_35061" cx="0" cy="0" r="1" gradientUnits="userSpaceOnUse" gradientTransform="translate(9.53188 21.7101) rotate(-92.2939) scale(12.4599 17.9466)">
<stop offset="0.141612" stop-color="#1ABD4D"/>
<stop offset="0.247515" stop-color="#6EC30D"/>
<stop offset="0.311547" stop-color="#8AC502"/>
<stop offset="0.366013" stop-color="#A2C600"/>
<stop offset="0.445673" stop-color="#C8C903"/>
<stop offset="0.540305" stop-color="#EBCB03"/>
<stop offset="0.615636" stop-color="#F7CD07"/>
<stop offset="0.699345" stop-color="#FDCD04"/>
<stop offset="0.771242" stop-color="#FDCE05"/>
<stop offset="0.860566" stop-color="#FFCE0A"/>
</radialGradient>
<radialGradient id="paint1_radial_1605_35061" cx="0" cy="0" r="1" gradientUnits="userSpaceOnUse" gradientTransform="translate(20.7137 7.1632) scale(8.46967 11.1555)">
<stop offset="0.408458" stop-color="#FB4E5A"/>
<stop offset="1" stop-color="#FF4540"/>
</radialGradient>
<radialGradient id="paint2_radial_1605_35061" cx="0" cy="0" r="1" gradientUnits="userSpaceOnUse" gradientTransform="translate(16.0886 -1.22222) rotate(150.539) scale(13.6289 18.6858)">
<stop offset="0.231273" stop-color="#FF4541"/>
<stop offset="0.311547" stop-color="#FF4540"/>
<stop offset="0.457516" stop-color="#FF4640"/>
<stop offset="0.540305" stop-color="#FF473F"/>
<stop offset="0.699346" stop-color="#FF5138"/>
<stop offset="0.771242" stop-color="#FF5B33"/>
<stop offset="0.860566" stop-color="#FF6C29"/>
<stop offset="1" stop-color="#FF8C18"/>
</radialGradient>
<radialGradient id="paint3_radial_1605_35061" cx="0" cy="0" r="1" gradientUnits="userSpaceOnUse" gradientTransform="translate(12.93 24.0445) rotate(-126.911) scale(35.8329 13.1568)">
<stop offset="0.131546" stop-color="#0CBA65"/>
<stop offset="0.209784" stop-color="#0BB86D"/>
<stop offset="0.297297" stop-color="#09B479"/>
<stop offset="0.396257" stop-color="#08AD93"/>
<stop offset="0.477124" stop-color="#0AA6A9"/>
<stop offset="0.568425" stop-color="#0D9CC6"/>
<stop offset="0.667385" stop-color="#1893DD"/>
<stop offset="0.768727" stop-color="#258BF1"/>
<stop offset="0.858506" stop-color="#3086FF"/>
</radialGradient>
<radialGradient id="paint4_radial_1605_35061" cx="0" cy="0" r="1" gradientUnits="userSpaceOnUse" gradientTransform="translate(11.7034 2.75339) rotate(96.4899) scale(13.474 18.2765)">
<stop offset="0.366013" stop-color="#FF4E3A"/>
<stop offset="0.457516" stop-color="#FF8A1B"/>
<stop offset="0.540305" stop-color="#FFA312"/>
<stop offset="0.615636" stop-color="#FFB60C"/>
<stop offset="0.771242" stop-color="#FFCD0A"/>
<stop offset="0.860566" stop-color="#FECF0A"/>
<stop offset="0.915033" stop-color="#FECF08"/>
<stop offset="1" stop-color="#FDCD01"/>
</radialGradient>
<radialGradient id="paint5_radial_1605_35061" cx="0" cy="0" r="1" gradientUnits="userSpaceOnUse" gradientTransform="translate(9.56171 2.61391) rotate(131.559) scale(6.6358 18.676)">
<stop offset="0.315904" stop-color="#FF4C3C"/>
<stop offset="0.603818" stop-color="#FF692C"/>
<stop offset="0.726837" stop-color="#FF7825"/>
<stop offset="0.884534" stop-color="#FF8D1B"/>
<stop offset="1" stop-color="#FF9F13"/>
</radialGradient>
<radialGradient id="paint6_radial_1605_35061" cx="0" cy="0" r="1" gradientUnits="userSpaceOnUse" gradientTransform="translate(16.0905 27.2207) rotate(-150.539) scale(13.6289 18.6858)">
<stop offset="0.231273" stop-color="#0FBC5F"/>
<stop offset="0.311547" stop-color="#0FBC5F"/>
<stop offset="0.366013" stop-color="#0FBC5E"/>
<stop offset="0.457516" stop-color="#0FBC5D"/>
<stop offset="0.540305" stop-color="#12BC58"/>
<stop offset="0.699346" stop-color="#28BF3C"/>
<stop offset="0.771242" stop-color="#38C02B"/>
<stop offset="0.860566" stop-color="#52C218"/>
<stop offset="0.915033" stop-color="#67C30F"/>
<stop offset="1" stop-color="#86C504"/>
</radialGradient>
<linearGradient id="paint7_linear_1605_35061" x1="11.2656" y1="22.9375" x2="14.2464" y2="22.9375" gradientUnits="userSpaceOnUse">
<stop stop-color="#0FBC5C"/>
<stop offset="1" stop-color="#0CBA65"/>
</linearGradient>
</defs>
</svg>
