<svg width="24" height="24" viewBox="0 0 24 24" fill="none" xmlns="http://www.w3.org/2000/svg">
<g clip-path="url(#clip0_269_3332)">
<path d="M19.8206 5.58785C19.8206 4.79122 19.175 4.14795 18.3813 4.14795C17.5876 4.14795 16.9414 4.79122 16.9414 5.58785C16.9414 6.38155 17.5876 7.02479 18.3813 7.02479C19.175 7.02479 19.8206 6.38155 19.8206 5.58785Z" fill="url(#paint0_linear_269_3332)"/>
<path d="M21.7394 16.8273C21.6861 17.996 21.4906 18.6309 21.3284 19.0526C21.1103 19.6117 20.8503 20.0116 20.4286 20.4309C20.0116 20.8503 19.6118 21.1097 19.0527 21.3253C18.631 21.4899 17.9937 21.686 16.825 21.7417C15.5617 21.7974 15.1873 21.8092 11.9836 21.8092C8.78274 21.8092 8.40539 21.7974 7.14202 21.7417C5.97344 21.686 5.33906 21.4899 4.9173 21.3253C4.35522 21.1097 3.9584 20.8503 3.53904 20.4309C3.11671 20.0116 2.85671 19.6117 2.6417 19.0526C2.47938 18.6309 2.28098 17.996 2.23061 16.8273C2.16904 15.5639 2.15776 15.1837 2.15776 11.9864C2.15776 8.78262 2.16904 8.40532 2.23061 7.1419C2.28098 5.97332 2.47938 5.33898 2.6417 4.91368C2.85671 4.35513 3.11671 3.95768 3.53904 3.53833C3.9584 3.1196 4.35522 2.85955 4.9173 2.64161C5.33906 2.47636 5.97344 2.28325 7.14202 2.22759C8.40539 2.17188 8.78274 2.15766 11.9836 2.15766C15.1873 2.15766 15.5617 2.17188 16.825 2.22759C17.9937 2.28325 18.631 2.47636 19.0527 2.64161C19.6118 2.85955 20.0116 3.1196 20.4286 3.53833C20.8503 3.95768 21.1103 4.35513 21.3284 4.91368C21.4906 5.33898 21.6861 5.97332 21.7394 7.1419C21.798 8.40532 21.8122 8.78262 21.8122 11.9864C21.8122 15.1837 21.798 15.5639 21.7394 16.8273ZM23.8972 7.04361C23.8386 5.76658 23.6371 4.89413 23.338 4.13422C23.0336 3.34584 22.6255 2.67772 21.9573 2.0096C21.2922 1.34446 20.6241 0.936347 19.8357 0.62836C19.0729 0.332193 18.2033 0.128424 16.9257 0.0727629C15.6481 0.0111481 15.24 -9.15527e-05 11.9836 -9.15527e-05C8.72998 -9.15527e-05 8.31897 0.0111481 7.04135 0.0727629C5.7667 0.128424 4.89775 0.332193 4.13133 0.62836C3.34594 0.936347 2.67782 1.34446 2.01267 2.0096C1.34455 2.67772 0.936436 3.34584 0.629029 4.13422C0.332861 4.89413 0.131492 5.76658 0.0698773 7.04361C0.0142153 8.32123 0 8.7299 0 11.9864C0 15.24 0.0142153 15.648 0.0698773 16.9256C0.131492 18.2003 0.332861 19.0721 0.629029 19.8357C0.936436 20.621 1.34455 21.2922 2.01267 21.9573C2.67782 22.6224 3.34594 23.0335 4.13133 23.3409C4.89775 23.637 5.7667 23.8384 7.04135 23.8971C8.31897 23.9557 8.72998 23.9699 11.9836 23.9699C15.24 23.9699 15.6481 23.9557 16.9257 23.8971C18.2033 23.8384 19.0729 23.637 19.8357 23.3409C20.6241 23.0335 21.2922 22.6224 21.9573 21.9573C22.6255 21.2922 23.0336 20.621 23.338 19.8357C23.6371 19.0721 23.8386 18.2003 23.8972 16.9256C23.9558 15.648 23.97 15.24 23.97 11.9864C23.97 8.7299 23.9558 8.32123 23.8972 7.04361Z" fill="url(#paint1_linear_269_3332)"/>
<path d="M11.9843 15.9781C9.77913 15.9781 7.98978 14.1917 7.98978 11.9865C7.98978 9.77781 9.77913 7.98909 11.9843 7.98909C14.1901 7.98909 15.9818 9.77781 15.9818 11.9865C15.9818 14.1917 14.1901 15.9781 11.9843 15.9781ZM11.9843 5.82837C8.58506 5.82837 5.83203 8.58729 5.83203 11.9865C5.83203 15.3828 8.58506 18.1388 11.9843 18.1388C15.3835 18.1388 18.1395 15.3828 18.1395 11.9865C18.1395 8.58729 15.3835 5.82837 11.9843 5.82837Z" fill="url(#paint2_linear_269_3332)"/>
</g>
<defs>
<linearGradient id="paint0_linear_269_3332" x1="0.215304" y1="23.7222" x2="21.9727" y2="1.96492" gradientUnits="userSpaceOnUse">
<stop stop-color="#FFD521"/>
<stop offset="0.05" stop-color="#FFD521"/>
<stop offset="0.501119" stop-color="#F50000"/>
<stop offset="0.95" stop-color="#B900B4"/>
<stop offset="0.950079" stop-color="#B900B4"/>
<stop offset="1" stop-color="#B900B4"/>
</linearGradient>
<linearGradient id="paint1_linear_269_3332" x1="0.216206" y1="23.752" x2="21.9915" y2="1.97673" gradientUnits="userSpaceOnUse">
<stop stop-color="#FFD521"/>
<stop offset="0.05" stop-color="#FFD521"/>
<stop offset="0.501119" stop-color="#F50000"/>
<stop offset="0.95" stop-color="#B900B4"/>
<stop offset="0.950079" stop-color="#B900B4"/>
<stop offset="1" stop-color="#B900B4"/>
</linearGradient>
<linearGradient id="paint2_linear_269_3332" x1="0.222622" y1="23.7527" x2="21.9926" y2="1.98269" gradientUnits="userSpaceOnUse">
<stop stop-color="#FFD521"/>
<stop offset="0.05" stop-color="#FFD521"/>
<stop offset="0.501119" stop-color="#F50000"/>
<stop offset="0.95" stop-color="#B900B4"/>
<stop offset="0.950079" stop-color="#B900B4"/>
<stop offset="1" stop-color="#B900B4"/>
</linearGradient>
<clipPath id="clip0_269_3332">
<rect width="24" height="24" fill="white"/>
</clipPath>
</defs>
</svg>
