<svg width="20" height="20" viewBox="0 0 20 20" fill="none" xmlns="http://www.w3.org/2000/svg">
<path opacity="0.4" d="M8.9584 2.04194C9.5334 1.55027 10.4751 1.55027 11.0584 2.04194L12.3751 3.17526C12.6251 3.39192 13.0917 3.56695 13.4251 3.56695H14.8417C15.7251 3.56695 16.4501 4.29195 16.4501 5.17528V6.5919C16.4501 6.9169 16.6251 7.39191 16.8417 7.64191L17.9751 8.95859C18.4667 9.53359 18.4667 10.4753 17.9751 11.0586L16.8417 12.3752C16.6251 12.6252 16.4501 13.0919 16.4501 13.4252V14.8419C16.4501 15.7253 15.7251 16.4503 14.8417 16.4503H13.4251C13.1001 16.4503 12.6251 16.6253 12.3751 16.8419L11.0584 17.9753C10.4834 18.4669 9.54173 18.4669 8.9584 17.9753L7.64174 16.8419C7.39174 16.6253 6.92507 16.4503 6.59173 16.4503H5.15006C4.26672 16.4503 3.54173 15.7253 3.54173 14.8419V13.4169C3.54173 13.0919 3.36674 12.6252 3.1584 12.3752L2.0334 11.0503C1.55007 10.4753 1.55007 9.54193 2.0334 8.96693L3.1584 7.64191C3.36674 7.39191 3.54173 6.92525 3.54173 6.60025V5.17528C3.54173 4.29195 4.26672 3.56695 5.15006 3.56695H6.59173C6.91673 3.56695 7.39174 3.39192 7.64174 3.17526L8.9584 2.04194Z" fill="#34C759"/>
<path d="M13.817 9.22477C13.6587 8.99977 13.3921 8.87479 13.0754 8.87479H11.4504C11.342 8.87479 11.2421 8.8331 11.1754 8.74977C11.1087 8.66643 11.0754 8.5581 11.092 8.44144L11.292 7.14144C11.3754 6.75811 11.1171 6.31643 10.7337 6.19143C10.3754 6.05809 9.95037 6.24142 9.78371 6.49142L8.16704 8.89142V8.59143C8.16704 8.0081 7.91706 7.76644 7.30039 7.76644H6.89204C6.27537 7.76644 6.02539 8.0081 6.02539 8.59143V12.5748C6.02539 13.1581 6.27537 13.3998 6.89204 13.3998H7.30039C7.88372 13.3998 8.13372 13.1748 8.15872 12.6414L9.38372 13.5831C9.55039 13.7498 9.92539 13.8414 10.1921 13.8414H11.7337C12.267 13.8414 12.8004 13.4414 12.917 12.9497L13.8921 9.98308C14.0004 9.71642 13.9754 9.44144 13.817 9.22477Z" fill="#34C759"/>
</svg>
