<svg width="32" height="32" viewBox="0 0 32 32" fill="none" xmlns="http://www.w3.org/2000/svg">
<path d="M16.0013 20.668C18.948 20.668 21.3346 18.2813 21.3346 15.3346V8.0013C21.3346 5.05464 18.948 2.66797 16.0013 2.66797C13.0546 2.66797 10.668 5.05464 10.668 8.0013V15.3346C10.668 18.2813 13.0546 20.668 16.0013 20.668Z" stroke="#170304" stroke-width="1.5" stroke-linecap="round" stroke-linejoin="round"/>
<path d="M5.80078 12.8672V15.1339C5.80078 20.7605 10.3741 25.3339 16.0008 25.3339C21.6274 25.3339 26.2008 20.7605 26.2008 15.1339V12.8672" stroke="#170304" stroke-width="1.5" stroke-linecap="round" stroke-linejoin="round"/>
<path d="M14.1484 8.57219C15.3484 8.13219 16.6551 8.13219 17.8551 8.57219" stroke="#170304" stroke-width="1.5" stroke-linecap="round" stroke-linejoin="round"/>
<path d="M14.9336 11.4017C15.6403 11.2151 16.3736 11.2151 17.0803 11.4017" stroke="#170304" stroke-width="1.5" stroke-linecap="round" stroke-linejoin="round"/>
<path d="M16 25.332V29.332" stroke="#170304" stroke-width="1.5" stroke-linecap="round" stroke-linejoin="round"/>
</svg>
