<svg width="16" height="16" viewBox="0 0 16 16" fill="none" xmlns="http://www.w3.org/2000/svg">
<path d="M6.33325 9.16682C6.33325 9.81349 6.83326 10.3335 7.44659 10.3335H8.69991C9.23324 10.3335 9.66659 9.88015 9.66659 9.31349C9.66659 8.70682 9.39992 8.48682 9.00659 8.34682L6.99992 7.64682C6.60659 7.50682 6.33993 7.29349 6.33993 6.68016C6.33993 6.12016 6.77325 5.66016 7.30658 5.66016H8.55992C9.17325 5.66016 9.67326 6.18016 9.67326 6.82682" stroke="#170304" stroke-linecap="round" stroke-linejoin="round"/>
<path d="M8 5V11" stroke="#170304" stroke-linecap="round" stroke-linejoin="round"/>
<path d="M14.6666 7.99967C14.6666 11.6797 11.6799 14.6663 7.99992 14.6663C4.31992 14.6663 1.33325 11.6797 1.33325 7.99967C1.33325 4.31967 4.31992 1.33301 7.99992 1.33301" stroke="#292D32" stroke-linecap="round" stroke-linejoin="round"/>
<path d="M14.6667 3.99967V1.33301H12" stroke="#292D32" stroke-linecap="round" stroke-linejoin="round"/>
<path d="M11.3333 4.66634L14.6666 1.33301" stroke="#292D32" stroke-linecap="round" stroke-linejoin="round"/>
</svg>
