<svg width="12" height="12" viewBox="0 0 12 12" fill="none" xmlns="http://www.w3.org/2000/svg">
<path d="M5 8.47502H3.105C1.42 8.47502 1 8.05501 1 6.37001V3.37001C1 1.68501 1.42 1.26501 3.105 1.26501H8.37C10.055 1.26501 10.475 1.68501 10.475 3.37001" stroke="#9B9798" stroke-linecap="round" stroke-linejoin="round"/>
<path d="M5 10.735V8.47498" stroke="#9B9798" stroke-linecap="round" stroke-linejoin="round"/>
<path d="M1 6.47498H5" stroke="#9B9798" stroke-linecap="round" stroke-linejoin="round"/>
<path d="M3.37 10.735H5" stroke="#9B9798" stroke-linecap="round" stroke-linejoin="round"/>
<path d="M11 6.39998V9.25498C11 10.44 10.705 10.735 9.52002 10.735H7.74501C6.56001 10.735 6.26501 10.44 6.26501 9.25498V6.39998C6.26501 5.21498 6.56001 4.91998 7.74501 4.91998H9.52002C10.705 4.91998 11 5.21498 11 6.39998Z" stroke="#9B9798" stroke-linecap="round" stroke-linejoin="round"/>
<path d="M8.62225 9.125H8.62674" stroke="#9B9798" stroke-linecap="round" stroke-linejoin="round"/>
</svg>
