<svg width="20" height="20" viewBox="0 0 20 20" fill="none" xmlns="http://www.w3.org/2000/svg">
<path d="M8.33317 14.125H5.17484C2.3665 14.125 1.6665 13.425 1.6665 10.6167V5.61666C1.6665 2.80833 2.3665 2.10833 5.17484 2.10833H13.9498C16.7582 2.10833 17.4582 2.80833 17.4582 5.61666" stroke="#170304" stroke-width="1.5" stroke-linecap="round" stroke-linejoin="round"/>
<path d="M8.3335 17.8917V14.125" stroke="#170304" stroke-width="1.5" stroke-linecap="round" stroke-linejoin="round"/>
<path d="M1.6665 10.7917H8.33317" stroke="#170304" stroke-width="1.5" stroke-linecap="round" stroke-linejoin="round"/>
<path d="M5.6167 17.8917H8.33337" stroke="#170304" stroke-width="1.5" stroke-linecap="round" stroke-linejoin="round"/>
<path d="M18.3336 10.6667V15.425C18.3336 17.4 17.8419 17.8917 15.8669 17.8917H12.9086C10.9336 17.8917 10.4419 17.4 10.4419 15.425V10.6667C10.4419 8.69166 10.9336 8.2 12.9086 8.2H15.8669C17.8419 8.2 18.3336 8.69166 18.3336 10.6667Z" stroke="#170304" stroke-width="1.5" stroke-linecap="round" stroke-linejoin="round"/>
<path d="M14.3706 15.2083H14.3781" stroke="#170304" stroke-width="2" stroke-linecap="round" stroke-linejoin="round"/>
</svg>
