<svg width="24" height="24" viewBox="0 0 24 24" fill="none" xmlns="http://www.w3.org/2000/svg">
<path d="M5 11C5.54772 11 6 11.4523 6 12C6 12.5477 5.54772 13 5 13C4.45228 13 4 12.5477 4 12C4 11.4523 4.45228 11 5 11Z" stroke="#9B9798" stroke-width="2"/>
<path d="M19 11C19.5477 11 20 11.4523 20 12C20 12.5477 19.5477 13 19 13C18.4523 13 18 12.5477 18 12C18 11.4523 18.4523 11 19 11Z" stroke="#9B9798" stroke-width="2"/>
<path d="M12 11C12.5477 11 13 11.4523 13 12C13 12.5477 12.5477 13 12 13C11.4523 13 11 12.5477 11 12C11 11.4523 11.4523 11 12 11Z" stroke="#9B9798" stroke-width="2"/>
</svg>
