<svg width="385" height="385" viewBox="0 0 385 385" fill="none" xmlns="http://www.w3.org/2000/svg">
<path d="M297.574 99.5764C295.042 94.558 292.251 89.6747 289.212 84.9464C253.707 30.8 158.62 1.3475 111.496 57.3111C100.269 70.6475 96.3497 86.7636 88.796 102.063C71.6019 136.86 39.516 157.658 19.342 189.844C3.72641 214.83 5.81311 246.854 14.5218 273.85C23.9851 303.188 40.6402 323.677 67.2822 339.254C97.1428 356.718 129.09 351.867 161.369 345.792C175.891 343.058 190.86 340.271 205.705 341.31C224.293 342.619 242.665 347.878 261.076 350.435C280.257 353.099 300.153 353.723 318.626 347.932C377.785 329.375 391.776 242.442 367.474 192.592C358.858 174.959 344.267 161.361 330.715 147.555C316.085 132.656 307.114 118.08 297.574 99.5764Z" fill="#EB474E"/>
<path opacity="0.8" d="M297.574 99.5764C295.042 94.558 292.251 89.6747 289.212 84.9464C253.707 30.8 158.62 1.3475 111.496 57.3111C100.269 70.6475 96.3497 86.7636 88.796 102.063C71.6019 136.86 39.516 157.658 19.342 189.844C3.72641 214.83 5.81311 246.854 14.5218 273.85C23.9851 303.188 40.6402 323.677 67.2822 339.254C97.1428 356.718 129.09 351.867 161.369 345.792C175.891 343.058 190.86 340.271 205.705 341.31C224.293 342.619 242.665 347.878 261.076 350.435C280.257 353.099 300.153 353.723 318.626 347.932C377.785 329.375 391.776 242.442 367.474 192.592C358.858 174.959 344.267 161.361 330.715 147.555C316.085 132.656 307.114 118.08 297.574 99.5764Z" fill="white"/>
<path opacity="0.4" d="M181.15 376.692C220.831 376.692 252.999 372.631 252.999 367.621C252.999 362.612 220.831 358.551 181.15 358.551C141.47 358.551 109.302 362.612 109.302 367.621C109.302 372.631 141.47 376.692 181.15 376.692Z" fill="#4E0A0B" stroke="#4E0A0B" stroke-linecap="round" stroke-linejoin="round"/>
<path d="M314.822 81.9902L309.078 85.7632" stroke="#4E0A0B" stroke-linecap="round" stroke-linejoin="round"/>
<path d="M345.976 61.5695L318.472 79.6029" stroke="#4E0A0B" stroke-linecap="round" stroke-linejoin="round"/>
<path d="M240.047 25.0713L229.236 42.2115" stroke="#4E0A0B" stroke-linecap="round" stroke-linejoin="round"/>
<path d="M246.777 14.3916L242.473 21.2215" stroke="#4E0A0B" stroke-linecap="round" stroke-linejoin="round"/>
<path d="M97.9824 34.9502L102.826 39.7935" stroke="#4E0A0B" stroke-linecap="round" stroke-linejoin="round"/>
<path d="M83.4678 20.4365L94.9562 31.9326" stroke="#4E0A0B" stroke-linecap="round" stroke-linejoin="round"/>
<path d="M64.9188 106.707L70.7631 108.139" stroke="#4E0A0B" stroke-linecap="round" stroke-linejoin="round"/>
<path d="M38.708 100.277L59.0822 105.275" stroke="#4E0A0B" stroke-linecap="round" stroke-linejoin="round"/>
<path d="M173.589 14.3916L175.406 30.7233" stroke="#4E0A0B" stroke-linecap="round" stroke-linejoin="round"/>
<path d="M56.5183 225.957C58.9746 224.009 62.1239 217.726 62.1239 217.726C62.1239 217.726 57.3499 216.902 57.0419 216.894C53.4768 216.74 46.4929 218.557 45.1069 222.284C44.8919 222.915 44.8125 223.585 44.8739 224.249C44.9352 224.913 45.1359 225.557 45.4629 226.138C45.7899 226.72 46.2358 227.225 46.7715 227.623C47.3072 228.02 47.9207 228.3 48.5719 228.444C51.3054 229.152 54.4316 227.62 56.5183 225.957Z" fill="#EB474E"/>
<path d="M75.6297 233.31C77.4084 230.877 78.7097 224.486 78.8406 223.978C82.4926 224.74 86.1919 225.255 89.9132 225.518C92.0846 225.695 94.2714 225.803 96.4659 225.88C95.4572 225.995 94.5563 226.103 94.4331 226.126C90.9527 226.935 84.6926 230.523 84.3538 234.512C84.3152 235.175 84.4166 235.839 84.6516 236.461C84.8865 237.082 85.2496 237.648 85.7173 238.12C86.185 238.592 86.7469 238.96 87.3663 239.201C87.9857 239.441 88.6489 239.549 89.3126 239.517C92.1385 239.47 94.7488 237.168 96.3196 235.012C97.8904 232.856 99.1609 227.404 99.4766 225.965C100.316 225.965 101.155 226.018 102.002 226.034C106.045 226.119 110.08 226.196 114.037 226.38C115.431 226.45 116.802 226.565 118.172 226.673C117.271 226.781 116.524 226.873 116.409 226.896C112.929 227.666 106.668 231.293 106.33 235.282C106.291 235.945 106.392 236.608 106.627 237.23C106.862 237.851 107.226 238.416 107.693 238.887C108.161 239.359 108.723 239.726 109.343 239.966C109.962 240.206 110.625 240.312 111.288 240.279C114.114 240.24 116.717 237.93 118.295 235.782C119.874 233.634 121.014 228.698 121.375 226.989C122.777 227.143 124.178 227.297 125.533 227.512C126.45 227.682 127.343 227.782 128.259 227.997L130.962 228.59C132.664 229.029 134.419 229.468 136.075 229.938C137.222 230.253 138.315 230.577 139.409 230.9C138.023 230.816 135.305 230.715 135.081 230.731C131.516 230.993 124.787 233.603 123.847 237.491C123.707 238.141 123.706 238.814 123.844 239.464C123.981 240.114 124.254 240.728 124.645 241.266C125.036 241.804 125.536 242.253 126.112 242.585C126.689 242.916 127.328 243.122 127.99 243.189C130.793 243.574 133.719 241.688 135.597 239.801C137.676 237.715 139.894 231.855 140.163 231.116C141.981 231.663 143.744 232.202 145.399 232.741C146.886 233.218 148.279 233.695 149.611 234.15L150.789 231.94C149.319 231.462 147.763 230.977 146.108 230.477C144.26 229.922 142.258 229.368 140.24 228.814C140.453 226.806 140.551 224.788 140.533 222.769C143.451 221.999 148.195 218.58 148.811 218.149C150.027 219.597 151.198 221.029 152.276 222.392C153.025 223.321 153.739 224.227 154.416 225.11L155.656 222.8C155.155 222.184 154.647 221.568 154.116 220.929C152.884 219.45 151.544 217.887 150.15 216.309C150.635 215.716 154.624 210.865 155.394 208.024C156.095 205.444 156.272 201.971 154.539 199.738C154.152 199.198 153.655 198.745 153.081 198.409C152.507 198.074 151.869 197.863 151.208 197.79C150.547 197.717 149.878 197.785 149.244 197.988C148.611 198.191 148.028 198.525 147.532 198.968C144.637 201.725 145.731 208.855 147.278 212.058C147.371 212.251 148.587 214.199 149.38 215.416C148.811 214.777 148.256 214.145 147.656 213.483C146.485 212.174 145.276 210.903 143.975 209.533L142.004 207.592C141.365 206.938 140.602 206.314 139.894 205.667C138.215 204.197 136.452 202.795 134.643 201.409C135.782 200.378 139.786 196.658 140.872 194.21C141.958 191.761 142.651 188.358 141.28 185.894C140.979 185.301 140.556 184.779 140.039 184.361C139.522 183.943 138.923 183.639 138.281 183.468C137.638 183.298 136.967 183.264 136.311 183.37C135.655 183.477 135.029 183.72 134.473 184.084C131.185 186.394 131.185 193.586 132.232 197.005C132.294 197.213 133.318 199.584 133.903 200.855C132.81 200.039 131.724 199.215 130.585 198.422C127.312 196.112 123.924 193.909 120.575 191.676C119.543 190.999 118.519 190.306 117.495 189.621C117.903 189.251 122.761 184.931 123.978 182.19C125.056 179.749 125.757 176.338 124.386 173.874C124.085 173.281 123.662 172.757 123.144 172.339C122.627 171.92 122.027 171.615 121.384 171.445C120.74 171.274 120.068 171.241 119.411 171.348C118.755 171.454 118.128 171.699 117.572 172.065C114.291 174.375 114.291 181.566 115.331 184.977C115.416 185.239 116.871 188.643 117.31 189.49C115.054 187.95 112.821 186.41 110.68 184.87C107.773 182.72 105.011 180.382 102.41 177.87C102.603 177.701 107.685 173.25 108.932 170.401C110.01 167.968 110.711 164.557 109.34 162.085C109.038 161.494 108.615 160.973 108.098 160.555C107.581 160.138 106.982 159.834 106.34 159.664C105.698 159.493 105.028 159.459 104.372 159.565C103.716 159.67 103.09 159.913 102.534 160.276C99.2456 162.586 99.2456 169.778 100.293 173.196C100.37 173.466 101.964 177.131 102.295 177.77C102.149 177.624 101.979 177.493 101.833 177.339C99.2926 174.76 96.9912 171.956 94.9567 168.961C93.8094 167.329 92.8007 165.697 91.8767 164.087C92.9085 163.317 97.5901 159.922 98.9915 157.519C100.393 155.117 101.402 151.898 100.308 149.296C100.073 148.674 99.7096 148.109 99.2417 147.637C98.7738 147.166 98.2119 146.797 97.5924 146.557C96.9729 146.317 96.3097 146.209 95.646 146.242C94.9823 146.275 94.333 146.447 93.7401 146.747C90.2212 148.657 89.4358 155.833 90.098 159.344C90.098 159.537 90.714 161.431 91.1529 162.809C90.7371 162.078 90.2982 161.331 89.9132 160.622C88.4733 157.966 87.3106 155.44 86.3019 153.2C85.7398 151.914 85.2547 150.751 84.8158 149.65C85.4549 148.395 87.9497 143.313 88.0806 140.579C88.2115 137.846 87.634 134.481 85.4703 132.671C84.9748 132.228 84.3914 131.894 83.7582 131.691C83.1249 131.488 82.456 131.42 81.795 131.493C81.134 131.566 80.4957 131.777 79.9216 132.112C79.3476 132.448 78.8507 132.901 78.4633 133.441C76.2226 136.76 78.8252 143.451 81.0274 146.3C81.2199 146.547 84.6387 150.004 84.6695 149.935L84.708 149.865C85.1084 150.928 85.555 152.068 86.0632 153.3C87.0257 155.571 88.1345 158.128 89.5282 160.823C90.9941 163.751 92.6293 166.592 94.4254 169.331C96.4276 172.403 98.6977 175.291 101.209 177.963L101.302 178.055C100.277 177.485 97.3514 175.999 97.1204 175.907C93.7709 174.659 86.5714 174.205 84.0843 177.339C83.6828 177.872 83.3985 178.483 83.2498 179.134C83.1012 179.784 83.0916 180.458 83.2217 181.113C83.3519 181.767 83.6188 182.386 84.0049 182.93C84.3911 183.474 84.8878 183.93 85.4626 184.269C87.8419 185.809 91.2915 185.309 93.794 184.385C96.6122 183.337 101.248 178.74 101.617 178.371C104.239 181.026 107.035 183.503 109.987 185.786C111.704 187.126 113.468 188.427 115.254 189.698C114.353 189.243 113.545 188.835 113.421 188.789C110.11 187.534 102.872 187.11 100.393 190.19C99.9903 190.723 99.7049 191.334 99.5555 191.985C99.4062 192.635 99.3963 193.31 99.5265 193.965C99.6567 194.619 99.9241 195.239 100.311 195.783C100.698 196.327 101.196 196.783 101.771 197.12C104.151 198.66 107.592 198.16 110.095 197.236C112.597 196.312 116.663 192.454 117.718 191.422L119.782 192.878C123.108 195.188 126.434 197.459 129.63 199.808C130.754 200.632 131.832 201.486 132.918 202.341C132.148 201.933 131.432 201.571 131.324 201.571C127.982 200.324 120.775 199.869 118.295 203.003C117.894 203.536 117.61 204.148 117.461 204.798C117.312 205.448 117.303 206.123 117.433 206.777C117.563 207.431 117.83 208.05 118.216 208.594C118.602 209.138 119.099 209.595 119.674 209.933C122.053 211.473 125.495 210.965 127.997 210.041C130.5 209.117 134.157 205.629 135.428 204.412C136.514 205.313 137.599 206.222 138.608 207.146C139.278 207.793 139.971 208.37 140.618 209.055L142.543 211.034C143.721 212.343 144.945 213.675 146.062 214.977C146.832 215.878 147.602 216.755 148.318 217.626C147.201 216.794 144.991 215.208 144.799 215.092C141.997 213.665 138.878 212.976 135.736 213.09C135.434 212.912 135.114 212.768 134.781 212.659C134.16 212.422 133.495 212.319 132.831 212.357C132.168 212.394 131.519 212.571 130.928 212.877C130.337 213.182 129.818 213.608 129.403 214.128C128.988 214.648 128.688 215.249 128.521 215.893C127.62 219.789 132.471 225.133 135.536 226.966C135.721 227.073 137.846 228.028 139.147 228.606C138.308 228.39 137.499 228.159 136.637 227.943C134.943 227.505 133.226 227.112 131.393 226.681L128.675 226.149C127.774 225.957 126.796 225.865 125.849 225.711C123.647 225.41 121.391 225.21 119.127 225.056C119.504 223.562 120.79 218.257 120.344 215.608C119.897 212.959 118.603 209.748 116.101 208.447C115.522 208.119 114.881 207.917 114.218 207.854C113.556 207.79 112.888 207.867 112.257 208.079C111.627 208.291 111.048 208.634 110.558 209.085C110.069 209.536 109.68 210.084 109.417 210.696C107.939 214.415 111.928 220.428 114.676 222.708C114.854 222.846 116.986 224.248 118.211 225.018C116.848 224.941 115.485 224.856 114.099 224.817C110.103 224.709 106.052 224.725 102.018 224.733C100.778 224.733 99.5459 224.733 98.3139 224.733C98.4525 224.201 100.116 217.918 99.6152 214.961C99.1763 212.328 97.875 209.102 95.3725 207.793C94.7939 207.466 94.1531 207.265 93.4917 207.202C92.8302 207.139 92.163 207.217 91.5334 207.429C90.9038 207.641 90.3258 207.983 89.8371 208.433C89.3483 208.883 88.9598 209.431 88.6966 210.041C87.2105 213.76 91.1991 219.782 93.948 222.053C94.1559 222.222 97.2667 224.255 98.0829 224.725C95.3648 224.725 92.6929 224.656 89.9902 224.502C86.3731 224.313 82.7721 223.889 79.2102 223.231C79.2795 222.985 81.0505 216.44 80.5346 213.406C80.088 210.772 78.7944 207.546 76.2842 206.245C75.7056 205.918 75.0648 205.717 74.4034 205.654C73.7419 205.592 73.0747 205.669 72.4451 205.881C71.8155 206.093 71.2375 206.435 70.7487 206.885C70.26 207.335 69.8715 207.883 69.6083 208.493C68.1299 212.212 72.1108 218.226 74.8674 220.505C75.083 220.682 78.4325 222.862 79.0639 223.208C78.8637 223.17 78.6404 223.154 78.4402 223.116C74.9007 222.358 71.435 221.288 68.0837 219.92C66.2203 219.15 64.4801 218.38 62.8092 217.556C63.2635 216.37 65.2809 210.927 65.1192 208.147C64.9575 205.367 64.0335 202.133 61.685 200.562C61.1458 200.174 60.5308 199.903 59.8801 199.768C59.2294 199.633 58.5576 199.637 57.9083 199.778C57.259 199.92 56.6468 200.197 56.1115 200.59C55.5762 200.984 55.1298 201.486 54.8012 202.064C52.9224 205.598 56.218 212.012 58.7128 214.584C58.8437 214.723 60.376 215.985 61.5079 216.894C60.7379 216.509 59.9679 216.124 59.2672 215.747C56.5953 214.33 54.2391 212.859 52.1601 211.55C50.982 210.78 49.9348 210.079 48.9569 209.41C48.7952 208.008 48.0791 202.395 46.6469 200.039C45.2147 197.683 42.9124 195.203 40.1019 194.895C39.4463 194.802 38.7783 194.847 38.1414 195.029C37.5045 195.21 36.9128 195.523 36.4047 195.948C35.8965 196.373 35.4833 196.899 35.1916 197.494C34.9 198.089 34.7366 198.738 34.7119 199.4C34.7119 203.396 40.5562 207.577 43.9519 208.709C44.2445 208.801 49.0031 209.802 48.9954 209.733C48.9877 209.664 48.9954 209.664 48.9954 209.648C49.9194 210.31 50.9127 211.019 52.0215 211.766C54.0774 213.129 56.4105 214.646 59.0593 216.132C61.898 217.763 64.8289 219.229 67.8373 220.521C71.2008 221.979 74.6872 223.136 78.2554 223.978H78.3863C77.2159 224.07 73.9588 224.448 73.7124 224.502C70.232 225.272 63.9719 228.898 63.6331 232.887C63.5944 233.55 63.6958 234.214 63.9308 234.835C64.1658 235.456 64.5291 236.021 64.9969 236.493C65.4648 236.964 66.0267 237.332 66.6461 237.571C67.2655 237.811 67.9286 237.918 68.5919 237.884C71.4486 237.799 74.0589 235.489 75.6297 233.31Z" fill="#EB474E"/>
<path d="M91.1375 163.903C91.1991 163.903 87.6109 160.592 87.3645 160.407C84.4693 158.32 77.6394 155.979 74.4131 158.351C73.8886 158.759 73.456 159.274 73.1434 159.86C72.8308 160.447 72.6452 161.093 72.5987 161.756C72.5522 162.419 72.6459 163.085 72.8736 163.709C73.1013 164.334 73.4579 164.903 73.9203 165.381C75.8145 167.475 79.2641 167.914 81.9206 167.691C85.0468 167.414 91.1375 163.91 91.1375 163.903Z" fill="#EB474E"/>
<path d="M320.459 219.381C317.379 218.858 311.581 214.877 311.573 214.877C311.566 214.877 315.354 211.859 315.616 211.697C318.696 209.841 325.664 208.055 328.706 210.673C329.196 211.122 329.586 211.669 329.85 212.278C330.115 212.888 330.249 213.546 330.242 214.211C330.235 214.876 330.089 215.531 329.813 216.135C329.536 216.74 329.135 217.279 328.636 217.718C326.565 219.659 323.092 219.82 320.459 219.381Z" fill="#EB474E"/>
<path d="M307.3 235.074C304.566 233.811 300.316 228.86 299.977 228.459C297.16 230.899 294.181 233.144 291.06 235.182C289.251 236.383 287.387 237.538 285.501 238.662C286.44 238.277 287.28 237.938 287.403 237.892C290.837 236.914 298.052 237.037 300.277 240.364C300.631 240.926 300.863 241.556 300.957 242.214C301.052 242.871 301.007 243.542 300.825 244.181C300.643 244.82 300.329 245.413 299.903 245.923C299.477 246.433 298.949 246.847 298.352 247.14C295.857 248.464 292.462 247.709 290.044 246.585C287.626 245.461 283.884 241.295 282.906 240.187L280.735 241.465C277.231 243.498 273.735 245.507 270.363 247.586C269.177 248.318 268.053 249.088 266.882 249.842C267.722 249.504 268.422 249.219 268.538 249.188C271.972 248.202 279.187 248.325 281.412 251.652C281.766 252.214 281.998 252.844 282.092 253.502C282.187 254.16 282.142 254.83 281.96 255.469C281.778 256.108 281.464 256.702 281.038 257.211C280.612 257.721 280.084 258.136 279.487 258.428C276.992 259.76 273.597 258.998 271.171 257.873C268.746 256.749 265.373 252.992 264.241 251.675C263.086 252.491 261.931 253.3 260.853 254.147C260.137 254.732 259.398 255.255 258.705 255.887L256.626 257.712C255.348 258.913 254.016 260.153 252.776 261.362C251.921 262.193 251.128 263.002 250.32 263.818C251.49 263.048 253.823 261.67 254.031 261.577C257.28 260.083 264.426 259.113 267.121 262.062C267.557 262.564 267.882 263.152 268.076 263.788C268.269 264.423 268.327 265.093 268.245 265.752C268.163 266.411 267.943 267.046 267.599 267.615C267.256 268.184 266.796 268.674 266.251 269.054C263.987 270.74 260.514 270.509 257.95 269.762C255.124 268.946 250.35 264.88 249.757 264.372C248.425 265.72 247.147 267.052 245.961 268.322C244.891 269.462 243.898 270.548 242.951 271.595L240.833 270.27C241.896 269.139 243.02 267.96 244.229 266.728C245.576 265.35 247.039 263.903 248.556 262.432C247.402 260.779 246.343 259.062 245.384 257.288C242.458 258.058 236.644 257.288 235.897 257.227C235.536 259.09 235.197 260.9 234.912 262.617C234.704 263.795 234.527 264.927 234.35 266.028L232.132 264.572C232.271 263.802 232.417 263.032 232.579 262.193C232.941 260.299 233.349 258.289 233.819 256.226C233.102 255.948 227.258 253.623 225.21 251.506C223.354 249.588 221.522 246.631 221.961 243.844C222.04 243.184 222.257 242.548 222.598 241.977C222.939 241.407 223.397 240.915 223.941 240.533C224.485 240.15 225.103 239.887 225.756 239.76C226.408 239.633 227.08 239.644 227.728 239.794C231.578 240.803 234.088 247.579 234.288 251.144C234.288 251.359 234.173 253.654 234.073 255.101C234.257 254.262 234.435 253.438 234.642 252.576C235.035 250.866 235.482 249.165 235.959 247.34C236.221 246.462 236.483 245.584 236.729 244.691C236.976 243.798 237.345 242.889 237.653 241.981C238.423 239.886 239.27 237.8 240.186 235.713C238.693 235.366 233.387 234.042 231.254 232.425C229.121 230.808 226.865 228.159 226.873 225.333C226.852 224.669 226.971 224.007 227.222 223.392C227.473 222.776 227.851 222.221 228.331 221.761C228.811 221.301 229.382 220.948 230.008 220.723C230.634 220.499 231.3 220.409 231.963 220.459C235.944 220.875 239.424 227.197 240.163 230.692C240.209 230.908 240.464 233.472 240.571 234.889C241.133 233.642 241.688 232.394 242.296 231.147C244.06 227.559 245.946 223.978 247.825 220.405L249.519 217.11C248.98 216.986 242.643 215.57 240.279 213.737C238.154 212.128 235.89 209.479 235.897 206.653C235.871 205.984 235.988 205.316 236.238 204.695C236.489 204.074 236.868 203.513 237.351 203.049C237.834 202.585 238.41 202.228 239.04 202.003C239.671 201.777 240.343 201.688 241.01 201.74C244.991 202.156 248.472 208.47 249.219 211.966C249.272 212.228 249.627 215.924 249.665 216.871C250.905 214.453 252.121 212.028 253.222 209.594C254.721 206.313 256.007 202.938 257.072 199.492C256.826 199.43 250.204 197.952 247.756 196.104C245.63 194.495 243.367 191.846 243.374 189.02C243.354 188.356 243.474 187.695 243.725 187.08C243.977 186.465 244.355 185.91 244.835 185.451C245.314 184.991 245.885 184.637 246.511 184.413C247.136 184.188 247.801 184.097 248.464 184.146C252.445 184.562 255.925 190.876 256.672 194.372C256.726 194.649 257.103 198.622 257.119 199.346C257.18 199.146 257.265 198.945 257.327 198.745C258.297 195.258 258.956 191.692 259.298 188.088C259.506 186.102 259.598 184.184 259.644 182.321C258.389 182.175 252.63 181.443 250.243 180.011C247.856 178.579 245.415 176.261 245.107 173.451C245.016 172.793 245.064 172.125 245.247 171.487C245.431 170.85 245.747 170.258 246.173 169.75C246.6 169.242 247.128 168.829 247.725 168.538C248.321 168.247 248.971 168.085 249.634 168.061C253.631 168.061 257.789 173.936 258.874 177.301C258.936 177.485 259.344 179.434 259.644 180.85C259.644 180.011 259.683 179.141 259.644 178.34C259.644 175.314 259.413 172.542 259.213 170.093C259.09 168.7 258.944 167.437 258.797 166.243C257.635 165.473 252.992 162.209 251.559 159.883C250.127 157.558 249.003 154.332 250.019 151.698C250.238 151.07 250.587 150.495 251.043 150.01C251.499 149.526 252.052 149.143 252.666 148.887C253.28 148.63 253.941 148.506 254.606 148.522C255.271 148.538 255.925 148.694 256.526 148.98C260.091 150.805 261.061 157.951 260.491 161.477C260.437 161.785 259.121 166.467 259.059 166.421L258.99 166.374C259.152 167.506 259.313 168.684 259.459 170.04C259.721 172.496 259.983 175.268 260.076 178.302C260.202 181.572 260.141 184.848 259.891 188.111C259.625 191.77 259.035 195.398 258.127 198.953C258.127 198.992 258.127 199.038 258.089 199.076C258.713 198.083 260.553 195.365 260.715 195.18C263.025 192.462 269.123 188.581 272.819 190.129C273.425 190.402 273.966 190.8 274.407 191.297C274.849 191.793 275.181 192.377 275.382 193.011C275.583 193.644 275.649 194.312 275.575 194.973C275.501 195.633 275.289 196.27 274.952 196.843C273.604 199.33 270.332 200.57 267.714 200.963C264.734 201.417 258.474 199.631 257.958 199.484C256.948 203.078 255.698 206.6 254.216 210.026C253.361 212.028 252.445 214.014 251.49 215.993C252.06 215.154 252.576 214.407 252.66 214.314C254.97 211.596 261.069 207.716 264.757 209.263C265.363 209.536 265.905 209.933 266.348 210.43C266.79 210.926 267.123 211.51 267.324 212.144C267.525 212.778 267.591 213.446 267.516 214.107C267.441 214.768 267.228 215.405 266.89 215.978C265.542 218.465 262.27 219.705 259.652 220.105C257.034 220.505 251.59 219.089 250.173 218.696C249.804 219.466 249.442 220.236 249.064 220.967C247.27 224.594 245.461 228.198 243.798 231.794C243.205 233.064 242.674 234.327 242.142 235.597C242.643 234.827 243.074 234.227 243.151 234.134C245.461 231.424 251.559 227.543 255.248 229.091C255.854 229.364 256.396 229.761 256.838 230.257C257.281 230.753 257.614 231.337 257.815 231.971C258.017 232.604 258.084 233.273 258.01 233.933C257.936 234.594 257.725 235.232 257.388 235.805C256.041 238.285 252.768 239.532 250.15 239.925C247.532 240.317 242.612 239.055 240.91 238.593C240.394 239.909 239.886 241.226 239.447 242.52C239.17 243.413 238.839 244.252 238.616 245.161C238.392 246.069 238.123 246.947 237.884 247.825C237.484 249.542 237.06 251.305 236.706 252.984C236.46 254.147 236.236 255.294 236.013 256.387C236.583 255.125 237.753 252.668 237.876 252.468C239.62 249.855 242.007 247.734 244.806 246.308C244.99 246.007 245.201 245.723 245.438 245.461C245.869 244.955 246.401 244.546 247.001 244.259C247.6 243.973 248.253 243.815 248.918 243.797C249.582 243.779 250.243 243.9 250.857 244.154C251.471 244.407 252.025 244.787 252.483 245.269C255.155 248.248 253.492 255.279 251.713 258.359C251.605 258.543 250.235 260.384 249.349 261.539C249.973 260.938 250.574 260.353 251.221 259.744C252.499 258.536 253.808 257.365 255.209 256.102L257.327 254.331C258.02 253.723 258.867 253.169 259.59 252.576C261.377 251.244 263.248 249.981 265.165 248.726C264.103 247.602 260.414 243.575 259.529 241.026C258.643 238.477 258.22 235.058 259.783 232.702C260.131 232.136 260.595 231.65 261.143 231.275C261.692 230.9 262.314 230.645 262.968 230.527C263.621 230.408 264.293 230.429 264.938 230.588C265.584 230.746 266.188 231.039 266.713 231.447C269.793 233.98 269.231 241.18 267.914 244.499C267.837 244.706 266.628 246.986 265.935 248.225C267.098 247.494 268.245 246.762 269.439 246.062C272.888 244.037 276.438 242.096 279.98 240.148L283.206 238.331C282.829 237.938 278.332 233.249 277.339 230.415C276.461 227.897 276.03 224.44 277.593 222.084C277.942 221.519 278.406 221.033 278.955 220.659C279.503 220.285 280.125 220.03 280.778 219.912C281.432 219.794 282.103 219.814 282.748 219.972C283.393 220.13 283.998 220.422 284.523 220.829C287.603 223.37 287.033 230.562 285.724 233.919C285.624 234.165 283.884 237.445 283.414 238.254C285.778 236.922 288.127 235.574 290.39 234.15C293.459 232.264 296.404 230.183 299.207 227.92C299.03 227.736 294.317 222.862 293.301 219.959C292.423 217.441 291.992 213.983 293.555 211.635C293.904 211.07 294.368 210.585 294.917 210.211C295.465 209.837 296.086 209.582 296.739 209.463C297.393 209.344 298.064 209.363 298.709 209.52C299.354 209.676 299.959 209.967 300.485 210.372C303.565 212.913 302.995 220.105 301.686 223.462C301.586 223.724 299.707 227.243 299.322 227.859C299.476 227.728 299.661 227.605 299.823 227.474C302.557 225.1 305.075 222.487 307.346 219.666C308.616 218.126 309.748 216.586 310.819 215.046C309.848 214.23 305.429 210.426 304.25 207.931C303.072 205.436 302.295 202.133 303.588 199.623C303.873 199.022 304.281 198.489 304.785 198.056C305.29 197.623 305.88 197.302 306.517 197.112C307.154 196.923 307.823 196.87 308.482 196.956C309.141 197.042 309.774 197.266 310.341 197.613C313.691 199.8 313.906 207.007 312.967 210.457C312.921 210.642 312.197 212.497 311.635 213.829C312.112 213.136 312.613 212.428 313.044 211.75C314.699 209.217 316.055 206.792 317.24 204.636C317.903 203.404 318.48 202.279 319.004 201.217C318.472 199.916 316.386 194.649 316.47 191.915C316.555 189.182 317.41 185.878 319.712 184.215C320.241 183.811 320.85 183.524 321.498 183.371C322.146 183.218 322.819 183.204 323.473 183.329C324.127 183.454 324.747 183.716 325.293 184.096C325.839 184.477 326.299 184.969 326.642 185.54C328.613 189.02 325.479 195.55 323.054 198.152C322.846 198.376 319.165 201.556 319.134 201.486V201.409C318.649 202.433 318.11 203.535 317.51 204.728C316.37 206.907 315.061 209.348 313.46 211.951C311.763 214.752 309.904 217.451 307.892 220.036C305.656 222.94 303.164 225.638 300.447 228.098L300.339 228.182C301.409 227.697 304.443 226.45 304.689 226.38C308.124 225.395 315.338 225.518 317.564 228.844C317.918 229.407 318.149 230.037 318.244 230.695C318.338 231.352 318.293 232.022 318.111 232.661C317.93 233.301 317.616 233.894 317.19 234.404C316.764 234.914 316.235 235.328 315.639 235.62C313.113 236.96 309.717 236.198 307.3 235.074Z" fill="#EB474E"/>
<path d="M260.16 181.79C260.091 181.79 261.647 177.17 261.777 176.9C263.317 173.674 268.145 168.322 272.119 168.838C272.777 168.94 273.406 169.179 273.965 169.54C274.525 169.902 275.002 170.377 275.365 170.935C275.728 171.493 275.97 172.121 276.074 172.779C276.178 173.437 276.142 174.109 275.969 174.752C275.322 177.501 272.519 179.557 270.078 180.642C267.191 181.913 260.168 181.79 260.16 181.79Z" fill="#EB474E"/>
<path d="M101.764 129.06C103.103 128.352 105.167 125.634 105.167 125.634C105.167 125.634 102.965 124.818 102.857 124.787C101.163 124.394 97.6749 124.633 96.697 126.327C96.5419 126.609 96.4474 126.92 96.4197 127.241C96.392 127.562 96.4316 127.885 96.536 128.189C96.6404 128.494 96.8073 128.773 97.026 129.009C97.2446 129.245 97.5102 129.433 97.8058 129.561C98.9916 130.131 100.616 129.669 101.764 129.06Z" fill="#EB474E"/>
<path d="M110.218 134.288C111.28 133.287 112.528 130.354 112.582 130.123C114.255 130.816 115.973 131.395 117.725 131.855C118.742 132.132 119.774 132.379 120.805 132.625L119.82 132.564C118.087 132.641 114.776 133.796 114.26 135.644C114.185 135.956 114.176 136.281 114.234 136.597C114.291 136.913 114.414 137.214 114.595 137.48C114.775 137.746 115.009 137.971 115.282 138.142C115.554 138.312 115.859 138.424 116.178 138.47C117.533 138.701 118.98 137.83 119.928 136.93C120.875 136.029 121.96 133.557 122.238 132.895L123.431 133.157C125.356 133.557 127.281 133.927 129.137 134.396C129.799 134.55 130.446 134.727 131.085 134.904L130.23 134.851C128.498 134.928 125.187 136.083 124.671 137.931C124.596 138.243 124.587 138.568 124.644 138.884C124.702 139.2 124.825 139.501 125.005 139.767C125.186 140.033 125.42 140.258 125.692 140.429C125.965 140.599 126.27 140.711 126.588 140.756C127.943 140.987 129.391 140.117 130.338 139.216C131.285 138.316 132.263 136.083 132.594 135.305C133.249 135.505 133.903 135.698 134.527 135.921C134.95 136.083 135.374 136.213 135.79 136.398L137.022 136.922C137.792 137.284 138.562 137.646 139.332 138.023C139.855 138.277 140.34 138.523 140.872 138.793C140.217 138.631 138.931 138.339 138.816 138.323C137.099 138.131 133.657 138.778 132.856 140.549C132.735 140.846 132.677 141.166 132.687 141.487C132.697 141.808 132.773 142.123 132.912 142.413C133.05 142.703 133.247 142.961 133.491 143.17C133.735 143.379 134.019 143.535 134.327 143.629C135.628 144.06 137.191 143.421 138.261 142.689C139.332 141.958 141.01 139.286 141.21 138.955C142.027 139.378 142.82 139.794 143.52 140.194C144.221 140.595 144.814 140.91 145.407 141.249L146.177 140.294C145.522 139.94 144.822 139.524 144.075 139.178C143.328 138.831 142.35 138.308 141.426 137.861C141.713 136.925 141.94 135.97 142.104 135.005C143.621 134.722 145.09 134.226 146.469 133.534C146.916 134.304 147.347 135.12 147.74 135.844C148.017 136.36 148.271 136.853 148.51 137.33L149.28 136.321C149.103 135.982 148.91 135.644 148.718 135.289C148.264 134.473 147.755 133.611 147.232 132.733C147.524 132.494 149.857 130.531 150.481 129.253C151.105 127.974 151.436 126.442 150.812 125.218C150.673 124.927 150.474 124.669 150.229 124.459C149.984 124.25 149.698 124.094 149.389 124.002C149.08 123.91 148.755 123.883 148.435 123.924C148.115 123.965 147.808 124.073 147.532 124.24C145.907 125.295 145.792 128.791 146.246 130.462C146.246 130.562 146.677 131.601 146.947 132.256L146.3 131.178C145.853 130.408 145.391 129.738 144.891 128.968L144.121 127.867C143.875 127.489 143.559 127.097 143.282 126.758C142.619 125.911 141.903 125.079 141.156 124.263C141.796 123.87 144.036 122.454 144.775 121.383C145.515 120.313 146.146 118.75 145.715 117.449C145.622 117.141 145.466 116.857 145.256 116.613C145.047 116.369 144.789 116.172 144.499 116.034C144.209 115.895 143.894 115.819 143.573 115.809C143.252 115.799 142.932 115.857 142.635 115.978C140.864 116.748 140.217 120.221 140.41 121.938C140.41 122.045 140.702 123.27 140.864 123.94C140.417 123.447 139.971 122.954 139.501 122.477C138.146 121.091 136.721 119.735 135.32 118.373L134.034 117.11C134.265 116.971 136.96 115.346 137.784 114.145C138.554 113.083 139.154 111.52 138.723 110.218C138.63 109.911 138.474 109.626 138.265 109.383C138.055 109.139 137.798 108.942 137.508 108.803C137.218 108.665 136.902 108.588 136.581 108.579C136.26 108.569 135.941 108.627 135.643 108.748C133.872 109.518 133.233 112.983 133.426 114.707C133.426 114.838 133.841 116.594 133.965 117.017C133.025 116.093 132.094 115.162 131.216 114.207C130.025 112.925 128.919 111.567 127.905 110.141C128.013 110.08 130.838 108.393 131.678 107.161C132.448 106.099 133.048 104.536 132.617 103.234C132.524 102.927 132.368 102.642 132.159 102.399C131.949 102.155 131.691 101.958 131.402 101.819C131.112 101.681 130.796 101.604 130.475 101.595C130.154 101.585 129.835 101.643 129.537 101.764C127.766 102.534 127.127 105.999 127.32 107.723C127.32 107.862 127.766 109.749 127.866 110.087C127.812 110.003 127.743 109.926 127.681 109.841C126.705 108.377 125.857 106.831 125.148 105.221C124.748 104.335 124.417 103.473 124.109 102.618C124.671 102.357 127.189 101.148 128.09 100.124C128.99 99.0994 129.745 97.6595 129.452 96.3197C129.394 96.0034 129.27 95.7029 129.089 95.4373C128.907 95.1717 128.672 94.9469 128.399 94.7773C128.126 94.6076 127.82 94.497 127.502 94.4523C127.183 94.4076 126.859 94.43 126.55 94.5179C124.702 95.1108 123.685 98.468 123.685 100.201C123.685 100.293 123.793 101.248 123.878 101.948C123.747 101.563 123.6 101.178 123.485 100.793C123.031 99.3997 122.715 98.0907 122.422 96.9434C122.268 96.2812 122.145 95.6806 122.03 95.1185C122.445 94.5795 124.093 92.3773 124.401 91.0837C124.709 89.7901 124.732 88.1423 123.855 87.0797C123.656 86.827 123.408 86.6184 123.124 86.4672C122.841 86.3161 122.529 86.2256 122.209 86.2017C121.889 86.1778 121.567 86.2209 121.264 86.3284C120.962 86.4358 120.685 86.6051 120.451 86.8256C119.08 88.2039 119.727 91.6458 120.528 93.1858C120.597 93.3167 121.914 95.2725 121.937 95.2417C122.037 95.7884 122.145 96.3659 122.276 97.005C122.538 98.1677 122.838 99.4921 123.262 100.901C123.684 102.427 124.199 103.926 124.802 105.39C125.478 107.036 126.3 108.619 127.258 110.118L127.296 110.164C126.858 109.802 125.602 108.832 125.495 108.771C124.009 107.877 120.613 107.015 119.15 108.293C118.915 108.513 118.728 108.779 118.601 109.076C118.475 109.372 118.412 109.691 118.417 110.013C118.421 110.335 118.492 110.652 118.627 110.945C118.761 111.237 118.955 111.499 119.196 111.712C120.189 112.644 121.876 112.721 123.154 112.482C124.594 112.236 127.212 110.457 127.42 110.311C128.435 111.812 129.549 113.245 130.754 114.6C131.447 115.37 132.178 116.14 132.917 116.91C132.525 116.609 132.147 116.34 132.147 116.309C130.661 115.416 127.266 114.553 125.803 115.832C125.567 116.051 125.379 116.317 125.253 116.613C125.126 116.908 125.062 117.228 125.066 117.549C125.069 117.871 125.14 118.189 125.274 118.482C125.407 118.775 125.6 119.036 125.841 119.25C126.842 120.19 128.528 120.259 129.807 120.02C131.085 119.782 133.364 118.326 133.957 117.934L134.812 118.804C136.198 120.205 137.576 121.591 138.893 122.993C139.355 123.485 139.794 123.986 140.232 124.486L139.547 123.97C138.061 123.077 134.665 122.215 133.202 123.493C132.964 123.71 132.774 123.973 132.644 124.268C132.513 124.562 132.446 124.881 132.446 125.202C132.446 125.524 132.513 125.843 132.644 126.137C132.774 126.431 132.964 126.695 133.202 126.912C134.203 127.844 135.89 127.921 137.168 127.682C138.446 127.443 140.502 126.142 141.21 125.664C141.649 126.188 142.088 126.719 142.481 127.243C142.75 127.613 143.027 127.951 143.251 128.336L144.021 129.453C144.467 130.184 144.929 130.931 145.345 131.647C145.638 132.148 145.915 132.625 146.185 133.11C145.73 132.618 144.814 131.663 144.729 131.57C143.525 130.636 142.101 130.026 140.594 129.799C140.464 129.69 140.325 129.593 140.179 129.507C139.902 129.34 139.594 129.233 139.274 129.192C138.954 129.152 138.629 129.179 138.32 129.272C138.011 129.365 137.725 129.521 137.48 129.732C137.235 129.942 137.037 130.201 136.898 130.492C136.128 132.271 137.961 135.259 139.262 136.406C139.339 136.468 140.248 137.114 140.802 137.507L139.67 136.968C138.9 136.606 138.13 136.267 137.276 135.898L136.028 135.405C135.62 135.228 135.158 135.097 134.719 134.943C133.695 134.596 132.64 134.304 131.57 134.027C131.886 133.349 132.971 130.947 132.994 129.63C133.018 128.313 132.686 126.681 131.608 125.834C131.361 125.629 131.073 125.478 130.764 125.391C130.455 125.303 130.131 125.281 129.813 125.326C129.495 125.371 129.19 125.482 128.917 125.652C128.644 125.821 128.409 126.046 128.228 126.311C127.189 127.951 128.552 131.178 129.66 132.51C129.73 132.594 130.631 133.457 131.139 133.927C130.5 133.765 129.853 133.603 129.198 133.465C127.296 133.056 125.348 132.695 123.439 132.34L121.675 132.002C121.791 131.763 123.146 128.922 123.169 127.459C123.169 126.165 122.861 124.509 121.783 123.662C121.536 123.458 121.248 123.307 120.939 123.219C120.63 123.132 120.306 123.11 119.988 123.155C119.67 123.2 119.364 123.311 119.091 123.48C118.819 123.65 118.584 123.874 118.403 124.14C117.363 125.78 118.726 129.006 119.835 130.338C119.92 130.438 121.221 131.678 121.568 131.978C120.274 131.724 118.988 131.463 117.718 131.147C116.014 130.746 114.34 130.231 112.705 129.607C112.759 129.499 114.183 126.527 114.245 125.041C114.245 123.747 113.937 122.092 112.859 121.245C112.611 121.039 112.323 120.887 112.013 120.798C111.703 120.71 111.378 120.688 111.059 120.733C110.74 120.778 110.434 120.889 110.16 121.059C109.887 121.23 109.652 121.455 109.471 121.722C108.431 123.362 109.794 126.588 110.911 127.882C110.996 127.982 112.397 129.322 112.666 129.545L112.382 129.445C110.774 128.764 109.228 127.945 107.762 126.997C106.938 126.481 106.183 125.942 105.452 125.403C105.775 124.879 107.223 122.461 107.392 121.121C107.561 119.782 107.392 118.157 106.429 117.194C106.206 116.964 105.937 116.782 105.64 116.661C105.342 116.54 105.023 116.483 104.702 116.492C104.381 116.501 104.065 116.578 103.775 116.716C103.486 116.854 103.228 117.051 103.018 117.295C101.802 118.835 102.803 122.169 103.788 123.616C103.835 123.693 104.458 124.432 104.913 124.964C104.589 124.717 104.25 124.463 103.95 124.194C102.803 123.277 101.802 122.369 100.932 121.553C100.439 121.083 99.9999 120.652 99.5995 120.251C99.6457 119.566 99.7997 116.825 99.3454 115.577C98.8911 114.33 97.9979 112.936 96.6812 112.536C96.3761 112.434 96.0531 112.398 95.7329 112.428C95.4128 112.459 95.1025 112.556 94.822 112.713C94.5415 112.87 94.2969 113.084 94.104 113.342C93.911 113.599 93.7738 113.894 93.7013 114.207C93.324 116.109 95.7572 118.627 97.2741 119.466C97.405 119.535 99.5841 120.436 99.5841 120.405V120.367C99.9614 120.767 100.354 121.191 100.839 121.645C101.694 122.477 102.672 123.408 103.804 124.355C105.011 125.387 106.279 126.346 107.6 127.228C109.059 128.225 110.605 129.088 112.22 129.807C112.22 129.807 112.258 129.807 112.281 129.807C111.712 129.753 110.125 129.638 109.971 129.638C108.239 129.715 104.936 130.87 104.42 132.718C104.345 133.03 104.336 133.355 104.393 133.671C104.451 133.987 104.574 134.288 104.754 134.554C104.935 134.82 105.169 135.045 105.441 135.216C105.714 135.386 106.019 135.498 106.337 135.544C107.8 136.036 109.278 135.174 110.218 134.288Z" fill="#EB474E"/>
<path d="M123.809 102.557C123.809 102.557 122.423 100.663 122.323 100.555C121.121 99.2996 118.08 97.5748 116.332 98.4141C116.046 98.5635 115.795 98.771 115.595 99.0232C115.394 99.2754 115.249 99.5668 115.167 99.8787C115.086 100.19 115.071 100.516 115.123 100.834C115.175 101.152 115.293 101.455 115.47 101.725C116.178 102.888 117.78 103.411 119.073 103.535C120.59 103.681 123.809 102.557 123.809 102.557Z" fill="#EB474E"/>
<path d="M290.93 125.98C289.521 125.51 286.995 123.2 286.987 123.2C286.98 123.2 289.02 122.014 289.159 121.96C290.753 121.291 294.241 120.929 295.504 122.399C295.705 122.651 295.852 122.942 295.935 123.253C296.017 123.565 296.034 123.891 295.983 124.209C295.932 124.527 295.816 124.832 295.64 125.102C295.465 125.373 295.235 125.603 294.965 125.78C293.84 126.55 292.162 126.38 290.93 125.98Z" fill="#EB474E"/>
<path d="M283.491 132.571C282.274 131.801 280.588 129.091 280.457 128.875C278.923 129.839 277.328 130.704 275.683 131.462C274.728 131.909 273.75 132.325 272.765 132.733C273.242 132.61 273.673 132.51 273.735 132.502C275.452 132.279 278.902 132.848 279.733 134.604C279.862 134.9 279.927 135.219 279.924 135.541C279.922 135.864 279.852 136.182 279.72 136.475C279.587 136.769 279.394 137.032 279.154 137.247C278.914 137.461 278.631 137.624 278.324 137.723C277.038 138.177 275.46 137.576 274.382 136.86C273.304 136.144 271.795 133.88 271.417 133.28L270.278 133.742C268.453 134.465 266.628 135.182 264.888 135.936C264.264 136.206 263.663 136.491 263.055 136.768L263.894 136.575C265.612 136.344 269.069 136.922 269.9 138.677C270.022 138.971 270.083 139.287 270.077 139.604C270.071 139.922 270 140.236 269.868 140.525C269.736 140.814 269.545 141.073 269.308 141.285C269.071 141.497 268.793 141.658 268.491 141.757C267.198 142.219 265.619 141.611 264.541 140.903C263.463 140.194 262.108 138.138 261.646 137.43C261.038 137.738 260.422 138.046 259.844 138.369C259.459 138.6 259.074 138.801 258.689 139.055L257.557 139.778C256.857 140.264 256.133 140.764 255.463 141.257C254.993 141.596 254.554 141.927 254.108 142.258C254.724 141.988 255.94 141.488 256.048 141.488C257.711 141.003 261.215 141.049 262.301 142.658C262.472 142.931 262.585 143.236 262.632 143.555C262.679 143.874 262.658 144.199 262.572 144.509C262.486 144.819 262.335 145.108 262.131 145.357C261.926 145.606 261.672 145.809 261.384 145.954C260.175 146.601 258.528 146.239 257.349 145.7C256.171 145.161 254.054 142.812 253.8 142.527C253.068 143.082 252.36 143.621 251.698 144.152C251.035 144.683 250.55 145.068 250.019 145.507L249.11 144.699C249.703 144.229 250.327 143.744 250.997 143.243C251.667 142.743 252.537 142.088 253.376 141.488C252.94 140.612 252.555 139.712 252.221 138.793C250.679 138.768 249.147 138.53 247.671 138.084C247.363 138.955 247.078 139.802 246.816 140.602C246.631 141.157 246.462 141.688 246.3 142.196L245.337 141.342C245.468 140.98 245.592 140.572 245.722 140.233C246.03 139.347 246.377 138.416 246.747 137.453C246.423 137.268 243.79 135.736 242.958 134.581C242.127 133.426 241.534 131.971 241.942 130.662C242.027 130.348 242.178 130.056 242.384 129.805C242.59 129.553 242.847 129.348 243.137 129.203C243.428 129.058 243.746 128.975 244.071 128.961C244.396 128.947 244.72 129.002 245.022 129.122C246.808 129.892 247.517 133.31 247.332 135.035C247.332 135.135 247.093 136.229 246.939 136.922L247.393 135.751C247.709 134.981 248.048 134.173 248.402 133.326C248.587 132.925 248.779 132.556 248.972 132.117C249.164 131.678 249.395 131.293 249.603 130.877C250.119 129.93 250.681 128.991 251.266 128.051C250.573 127.782 248.125 126.765 247.216 125.834C246.308 124.902 245.414 123.478 245.622 122.122C245.661 121.803 245.766 121.495 245.931 121.218C246.095 120.942 246.316 120.703 246.578 120.516C246.841 120.33 247.139 120.201 247.455 120.136C247.77 120.072 248.095 120.075 248.41 120.143C250.296 120.629 251.49 123.909 251.621 125.641C251.621 125.749 251.559 126.996 251.513 127.682C251.875 127.127 252.229 126.565 252.606 126.011C253.707 124.417 254.87 122.838 256.025 121.252L257.08 119.789C256.826 119.697 253.892 118.557 252.876 117.479C251.967 116.555 251.074 115.123 251.274 113.768C251.314 113.448 251.42 113.14 251.585 112.864C251.751 112.588 251.972 112.349 252.235 112.164C252.499 111.978 252.798 111.849 253.113 111.786C253.429 111.723 253.755 111.727 254.069 111.797C255.948 112.274 257.149 115.562 257.272 117.287C257.272 117.418 257.188 119.219 257.142 119.674C257.912 118.603 258.682 117.525 259.367 116.44C260.324 114.957 261.183 113.414 261.939 111.82C261.823 111.82 258.751 110.603 257.704 109.51C256.803 108.586 255.91 107.154 256.11 105.798C256.148 105.478 256.253 105.169 256.419 104.892C256.584 104.615 256.805 104.375 257.068 104.189C257.332 104.003 257.631 103.873 257.947 103.81C258.264 103.746 258.59 103.749 258.905 103.819C260.784 104.305 261.985 107.585 262.108 109.317C262.108 109.456 262.016 111.389 261.969 111.735C262.016 111.643 262.07 111.558 262.108 111.466C262.825 109.862 263.397 108.197 263.817 106.491C264.064 105.552 264.241 104.636 264.403 103.75C263.802 103.588 261.092 102.818 260.052 101.964C259.013 101.109 258.004 99.8232 258.058 98.4526C258.061 98.1306 258.132 97.8129 258.266 97.5199C258.399 97.2268 258.593 96.965 258.833 96.7511C259.074 96.5372 259.357 96.376 259.664 96.2778C259.97 96.1797 260.294 96.1467 260.614 96.1811C262.539 96.4506 264.11 99.5768 264.403 101.286C264.403 101.379 264.48 102.341 264.51 103.042C264.572 102.641 264.649 102.226 264.703 101.841C264.911 100.385 265.011 99.0455 265.088 97.852C265.126 97.1744 265.15 96.5661 265.165 95.9886C264.664 95.5266 262.662 93.6401 262.139 92.4158C261.615 91.1915 261.315 89.5745 261.993 88.381C262.144 88.0974 262.353 87.8485 262.606 87.6503C262.859 87.4521 263.151 87.3089 263.463 87.2299C263.774 87.1509 264.099 87.1378 264.416 87.1915C264.733 87.2452 265.035 87.3645 265.304 87.5417C266.89 88.6736 266.844 92.1617 266.32 93.8249C266.274 93.9635 265.304 96.1349 265.28 96.1349C265.28 96.6893 265.28 97.2822 265.28 97.929C265.227 99.1225 265.157 100.47 264.98 101.933C264.817 103.513 264.56 105.081 264.21 106.63C263.823 108.366 263.282 110.064 262.593 111.704C262.593 111.704 262.593 111.704 262.593 111.766C262.963 111.335 264.041 110.157 264.133 110.08C265.442 108.94 268.638 107.515 270.293 108.54C270.563 108.715 270.792 108.945 270.968 109.215C271.143 109.484 271.26 109.788 271.312 110.105C271.363 110.423 271.348 110.747 271.267 111.058C271.185 111.37 271.04 111.66 270.84 111.912C270.008 113.006 268.36 113.367 267.067 113.375C265.612 113.375 262.724 112.074 262.493 111.966C261.75 113.617 260.899 115.217 259.944 116.755C259.39 117.656 258.805 118.542 258.212 119.427C258.543 119.065 258.843 118.742 258.889 118.704C260.198 117.564 263.394 116.139 265.049 117.164C265.32 117.339 265.551 117.57 265.727 117.84C265.903 118.11 266.021 118.414 266.072 118.733C266.124 119.051 266.108 119.377 266.026 119.689C265.944 120.001 265.798 120.292 265.596 120.544C264.772 121.637 263.124 121.999 261.823 122.007C260.522 122.015 258.027 120.944 257.38 120.652C257.142 120.99 256.918 121.329 256.68 121.66C255.563 123.27 254.439 124.871 253.384 126.481C253.007 127.043 252.66 127.62 252.314 128.182C252.606 127.867 252.86 127.597 252.907 127.559C254.216 126.419 257.411 124.994 259.067 126.019C259.322 126.204 259.537 126.44 259.698 126.711C259.858 126.983 259.962 127.285 260.002 127.598C260.041 127.911 260.016 128.229 259.928 128.532C259.84 128.835 259.691 129.117 259.49 129.36C258.666 130.454 257.018 130.816 255.725 130.823C254.431 130.831 252.167 129.861 251.39 129.522C251.051 130.115 250.712 130.708 250.412 131.301C250.212 131.709 249.996 132.071 249.819 132.51C249.642 132.949 249.457 133.334 249.28 133.734C248.964 134.504 248.633 135.343 248.348 136.129C248.148 136.668 247.963 137.191 247.771 137.715C248.14 137.145 248.872 136.052 248.941 135.967C249.972 134.841 251.273 133.999 252.722 133.518C252.831 133.386 252.952 133.265 253.084 133.156C253.328 132.946 253.613 132.789 253.921 132.695C254.229 132.601 254.554 132.573 254.874 132.612C255.193 132.652 255.501 132.757 255.778 132.923C256.054 133.088 256.293 133.309 256.479 133.572C257.55 135.189 256.248 138.439 255.163 139.794C255.101 139.871 254.308 140.664 253.8 141.149L254.832 140.425C255.525 139.932 256.241 139.47 257.003 138.962L258.143 138.262C258.52 138.023 258.951 137.815 259.359 137.584C260.306 137.068 261.3 136.598 262.301 136.144C261.877 135.536 260.391 133.334 260.145 132.055C259.898 130.777 259.944 129.099 260.868 128.082C261.077 127.838 261.335 127.641 261.624 127.502C261.914 127.363 262.229 127.286 262.55 127.276C262.871 127.266 263.191 127.322 263.488 127.443C263.786 127.563 264.056 127.744 264.279 127.974C265.581 129.414 264.795 132.825 263.925 134.327C263.871 134.419 263.155 135.428 262.709 135.975C263.317 135.705 263.925 135.436 264.549 135.205C266.343 134.481 268.191 133.803 270.024 133.118L271.702 132.479C271.548 132.263 269.731 129.691 269.454 128.259C269.215 126.989 269.254 125.302 270.17 124.286C270.379 124.041 270.637 123.842 270.927 123.702C271.217 123.563 271.534 123.486 271.855 123.475C272.177 123.465 272.498 123.522 272.796 123.644C273.095 123.765 273.365 123.947 273.589 124.178C274.89 125.618 274.097 129.022 273.235 130.523C273.165 130.639 272.095 132.063 271.81 132.44C273.042 131.971 274.259 131.493 275.452 130.97C277.059 130.276 278.62 129.481 280.126 128.59C280.049 128.49 278.139 125.811 277.862 124.348C277.616 123.077 277.662 121.383 278.578 120.367C278.787 120.122 279.045 119.923 279.335 119.783C279.626 119.644 279.942 119.566 280.264 119.556C280.586 119.546 280.906 119.603 281.205 119.724C281.503 119.845 281.773 120.027 281.997 120.259C283.298 121.699 282.505 125.11 281.635 126.611C281.566 126.727 280.419 128.29 280.188 128.552C280.272 128.498 280.372 128.459 280.457 128.406C281.938 127.46 283.332 126.386 284.623 125.195C285.347 124.548 286.001 123.886 286.617 123.231C286.209 122.769 284.376 120.636 283.976 119.343C283.576 118.049 283.452 116.424 284.253 115.316C284.434 115.05 284.668 114.824 284.94 114.654C285.213 114.484 285.518 114.372 285.836 114.327C286.154 114.281 286.479 114.302 286.788 114.389C287.098 114.476 287.385 114.626 287.634 114.83C289.089 116.116 288.673 119.597 287.98 121.183C287.942 121.268 287.456 122.107 287.102 122.723L287.926 121.822C288.896 120.721 289.72 119.658 290.444 118.742C290.852 118.195 291.214 117.695 291.537 117.202C291.376 116.54 290.767 113.86 290.983 112.582C291.199 111.304 291.869 109.748 293.093 109.132C293.376 108.979 293.688 108.887 294.009 108.862C294.33 108.836 294.653 108.878 294.956 108.985C295.26 109.091 295.538 109.26 295.773 109.481C296.008 109.701 296.194 109.968 296.319 110.264C297.012 112.074 295.041 114.969 293.693 116.055C293.578 116.155 291.584 117.41 291.576 117.379V117.341C291.268 117.795 290.929 118.288 290.552 118.811C289.851 119.782 289.05 120.867 288.096 121.991C287.082 123.215 285.997 124.377 284.846 125.472C283.565 126.707 282.176 127.825 280.696 128.814H280.642C281.189 128.66 282.729 128.275 282.852 128.259C284.577 128.036 288.026 128.606 288.858 130.361C288.98 130.655 289.04 130.971 289.034 131.288C289.029 131.606 288.958 131.92 288.825 132.209C288.693 132.498 288.502 132.757 288.266 132.969C288.029 133.181 287.751 133.342 287.449 133.441C286.147 133.888 284.577 133.28 283.491 132.571Z" fill="#EB474E"/>
<path d="M264.68 103.627C264.68 103.627 265.727 101.525 265.812 101.402C266.774 99.9618 269.477 97.7365 271.348 98.2678C271.65 98.3675 271.928 98.5284 272.165 98.7405C272.402 98.9526 272.592 99.2113 272.724 99.5004C272.857 99.7895 272.928 100.103 272.933 100.421C272.939 100.739 272.879 101.054 272.757 101.348C272.257 102.618 270.763 103.404 269.515 103.75C268.045 104.189 264.687 103.627 264.68 103.627Z" fill="#EB474E"/>
<path d="M278.263 316.64C277.439 315.369 276.962 312.02 276.962 312.02C276.962 312.02 279.272 312.381 279.426 312.42C281.089 312.905 284.046 314.822 284.046 316.763C284.048 317.087 283.981 317.407 283.851 317.704C283.721 318 283.529 318.266 283.29 318.484C283.05 318.701 282.768 318.866 282.46 318.968C282.153 319.069 281.827 319.105 281.505 319.073C280.165 318.919 278.972 317.733 278.263 316.64Z" fill="#EB474E"/>
<path d="M268.338 317.079C267.891 315.693 268.269 312.544 268.3 312.297C266.504 312.083 264.724 311.751 262.971 311.304C261.947 311.05 260.923 310.757 259.891 310.457C260.338 310.665 260.738 310.85 260.784 310.881C262.263 311.789 264.588 314.415 264.126 316.271C264.041 316.584 263.89 316.876 263.684 317.128C263.478 317.379 263.221 317.584 262.93 317.729C262.64 317.875 262.322 317.957 261.997 317.971C261.672 317.985 261.348 317.93 261.046 317.811C259.753 317.349 258.913 315.886 258.521 314.654C258.128 313.422 258.39 310.711 258.474 310.034L257.304 309.679C255.425 309.094 253.562 308.501 251.714 307.978C251.059 307.793 250.412 307.631 249.766 307.47L250.536 307.847C252.014 308.755 254.332 311.373 253.87 313.237C253.784 313.55 253.634 313.842 253.428 314.094C253.222 314.345 252.965 314.55 252.674 314.696C252.383 314.841 252.065 314.923 251.741 314.937C251.416 314.951 251.092 314.897 250.79 314.777C249.496 314.322 248.649 312.86 248.264 311.62C247.879 310.38 248.11 307.947 248.195 307.1C247.533 306.954 246.863 306.807 246.208 306.7C245.754 306.638 245.33 306.538 244.876 306.499L243.544 306.353C242.689 306.291 241.812 306.222 240.98 306.184L239.301 306.114C239.948 306.291 241.219 306.661 241.319 306.707C242.913 307.377 245.608 309.618 245.438 311.55C245.4 311.87 245.295 312.178 245.13 312.454C244.965 312.731 244.745 312.97 244.482 313.156C244.22 313.343 243.921 313.472 243.606 313.536C243.291 313.601 242.965 313.598 242.651 313.529C241.303 313.275 240.248 311.951 239.679 310.796C239.047 309.518 238.909 306.476 238.909 306.091C237.992 306.091 237.099 306.037 236.252 306.03H234.096L233.896 304.828C234.666 304.828 235.436 304.828 236.275 304.882C237.115 304.936 238.208 304.959 239.232 305.021C239.432 304.067 239.69 303.126 240.002 302.203C238.822 301.211 237.786 300.06 236.922 298.784C236.152 299.269 235.382 299.739 234.674 300.201L233.265 301.117L233.057 299.847L234.058 299.223C234.828 298.738 235.713 298.23 236.599 297.683C236.46 297.336 235.382 294.487 235.467 293.063C235.544 291.769 235.998 290.145 237.138 289.382C237.403 289.197 237.703 289.07 238.021 289.008C238.338 288.946 238.665 288.952 238.98 289.025C239.295 289.097 239.591 289.235 239.849 289.429C240.108 289.623 240.322 289.87 240.479 290.152C241.388 291.862 239.779 294.972 238.57 296.22C238.501 296.289 237.638 296.99 237.084 297.436L238.177 296.813C238.947 296.389 239.671 295.997 240.487 295.565L241.688 294.98C242.089 294.772 242.535 294.61 242.959 294.418C243.96 294.002 244.992 293.648 246.039 293.278C245.677 292.624 244.414 290.291 244.291 288.997C244.168 287.704 244.376 286.033 245.392 285.109C245.624 284.885 245.899 284.713 246.202 284.602C246.504 284.491 246.826 284.445 247.147 284.466C247.468 284.487 247.781 284.575 248.067 284.724C248.352 284.873 248.603 285.08 248.803 285.332C249.958 286.872 248.803 290.206 247.833 291.615C247.771 291.708 246.932 292.639 246.462 293.155C247.094 292.947 247.725 292.739 248.364 292.547C250.228 292 252.13 291.507 254.024 291.007L255.756 290.537C255.625 290.306 254.062 287.565 253.924 286.117C253.808 284.831 254.008 283.153 255.025 282.229C255.256 282.005 255.532 281.833 255.834 281.722C256.136 281.611 256.458 281.565 256.78 281.586C257.101 281.607 257.414 281.695 257.699 281.844C257.984 281.993 258.235 282.2 258.436 282.452C259.591 283.992 258.474 287.326 257.466 288.735C257.389 288.843 256.187 290.183 255.864 290.506C257.135 290.16 258.397 289.798 259.629 289.39C261.295 288.854 262.923 288.208 264.503 287.457C264.442 287.349 262.802 284.5 262.663 283.014C262.54 281.728 262.748 280.05 263.757 279.164C263.988 278.941 264.264 278.768 264.566 278.658C264.868 278.547 265.19 278.5 265.511 278.522C265.833 278.543 266.146 278.63 266.431 278.78C266.716 278.929 266.967 279.136 267.168 279.388C268.33 280.928 267.214 284.262 266.205 285.671C266.12 285.786 264.827 287.211 264.573 287.465C264.667 287.429 264.76 287.387 264.85 287.342C266.417 286.548 267.909 285.616 269.308 284.554C270.078 283.977 270.81 283.384 271.487 282.791C271.125 282.291 269.501 279.988 269.231 278.664C268.962 277.339 268.993 275.707 269.893 274.683C270.099 274.435 270.354 274.232 270.643 274.088C270.931 273.945 271.247 273.863 271.569 273.848C271.891 273.834 272.212 273.887 272.512 274.004C272.813 274.121 273.085 274.3 273.312 274.529C274.637 275.946 273.89 279.372 273.043 280.881C272.997 280.966 272.434 281.752 272.019 282.314C272.319 282.044 272.642 281.767 272.927 281.497C273.998 280.496 274.922 279.519 275.73 278.641C276.192 278.14 276.592 277.678 276.97 277.239C276.87 276.569 276.508 273.844 276.87 272.565C277.232 271.287 278.017 269.832 279.295 269.331C279.591 269.21 279.908 269.151 280.228 269.159C280.547 269.166 280.862 269.24 281.151 269.376C281.441 269.511 281.699 269.705 281.909 269.945C282.12 270.185 282.279 270.467 282.375 270.771C282.891 272.642 280.65 275.337 279.203 276.285C279.08 276.369 276.97 277.432 276.97 277.393V277.355C276.616 277.786 276.238 278.24 275.815 278.725C275.045 279.619 274.113 280.627 273.058 281.651C271.931 282.771 270.738 283.823 269.485 284.801C268.092 285.907 266.602 286.886 265.035 287.727H264.973C265.535 287.627 267.114 287.396 267.237 287.388C268.969 287.334 272.35 288.235 273.004 290.068C273.103 290.374 273.137 290.697 273.103 291.017C273.069 291.337 272.969 291.647 272.809 291.926C272.649 292.205 272.432 292.448 272.173 292.638C271.913 292.829 271.617 292.963 271.303 293.032C269.97 293.363 268.461 292.609 267.453 291.792C266.321 290.876 264.904 288.042 264.788 287.819C263.17 288.632 261.501 289.339 259.791 289.937C258.798 290.283 257.781 290.607 256.765 290.915C257.25 290.845 257.689 290.784 257.751 290.784C259.483 290.722 262.863 291.631 263.518 293.455C263.617 293.762 263.65 294.085 263.617 294.405C263.583 294.725 263.483 295.035 263.323 295.314C263.162 295.593 262.946 295.836 262.686 296.026C262.427 296.217 262.13 296.351 261.816 296.42C260.484 296.751 258.975 295.997 257.966 295.18C256.957 294.364 255.656 291.969 255.356 291.33L254.178 291.677C252.299 292.223 250.412 292.763 248.58 293.34C247.933 293.548 247.309 293.771 246.678 293.995L247.533 293.879C249.265 293.825 252.645 294.726 253.308 296.551C253.406 296.858 253.44 297.182 253.406 297.502C253.371 297.823 253.271 298.133 253.11 298.412C252.949 298.691 252.731 298.933 252.471 299.124C252.21 299.314 251.913 299.447 251.598 299.515C250.274 299.854 248.765 299.092 247.748 298.283C246.732 297.475 245.592 295.296 245.2 294.541C244.56 294.795 243.921 295.042 243.321 295.311C242.905 295.504 242.497 295.658 242.096 295.881L241.011 296.451C240.241 296.867 239.471 297.298 238.785 297.721C238.285 298.014 237.815 298.299 237.338 298.591C237.977 298.376 239.24 297.991 239.348 297.968C240.858 297.747 242.399 297.911 243.829 298.445C243.994 298.414 244.162 298.399 244.329 298.399C244.651 298.389 244.972 298.446 245.27 298.566C245.569 298.687 245.839 298.869 246.063 299.101C246.287 299.332 246.46 299.607 246.571 299.91C246.682 300.212 246.729 300.534 246.709 300.855C246.524 302.788 243.467 304.49 241.773 304.859C241.673 304.859 240.564 304.998 239.856 305.059L241.111 305.136C241.966 305.198 242.813 305.283 243.721 305.375L245.053 305.545C245.5 305.598 245.962 305.706 246.424 305.783C247.479 305.983 248.549 306.238 249.612 306.553C249.666 305.783 249.897 303.165 250.513 302.018C251.129 300.871 252.222 299.592 253.593 299.385C253.908 299.326 254.233 299.335 254.545 299.409C254.858 299.484 255.151 299.622 255.407 299.817C255.663 300.011 255.875 300.256 256.031 300.537C256.186 300.818 256.282 301.128 256.311 301.448C256.418 303.389 253.654 305.537 252.037 306.16C251.937 306.199 250.728 306.515 250.058 306.669C250.697 306.846 251.336 307.015 251.976 307.215C253.831 307.785 255.695 308.417 257.55 309.04L259.26 309.61C259.26 309.341 259.475 306.191 260.168 304.913C260.777 303.766 261.87 302.488 263.248 302.272C263.565 302.213 263.891 302.221 264.205 302.295C264.519 302.369 264.814 302.508 265.07 302.703C265.327 302.899 265.54 303.145 265.696 303.428C265.852 303.71 265.946 304.022 265.974 304.343C266.082 306.276 263.318 308.432 261.701 309.048C261.577 309.094 259.83 309.549 259.391 309.641C260.646 310.049 261.893 310.411 263.148 310.788C264.834 311.262 266.55 311.622 268.284 311.866C268.284 311.743 268.492 308.455 269.193 307.146C269.809 305.999 270.902 304.721 272.273 304.505C272.589 304.447 272.914 304.456 273.227 304.53C273.54 304.605 273.834 304.745 274.09 304.94C274.346 305.135 274.558 305.381 274.713 305.663C274.868 305.945 274.963 306.256 274.991 306.576C275.099 308.509 272.334 310.665 270.717 311.281C270.594 311.335 268.715 311.812 268.369 311.882L268.669 311.928C270.415 312.131 272.175 312.175 273.928 312.059C274.898 312.013 275.822 311.912 276.716 311.789C276.716 311.181 276.608 308.363 277.108 307.108C277.609 305.853 278.541 304.513 279.865 304.151C280.173 304.058 280.497 304.03 280.817 304.069C281.136 304.109 281.444 304.214 281.72 304.38C281.996 304.545 282.235 304.766 282.421 305.029C282.606 305.292 282.735 305.591 282.799 305.906C283.114 307.824 280.604 310.265 279.064 311.058C278.979 311.104 278.079 311.443 277.424 311.689L278.625 311.512C280.073 311.266 281.39 310.958 282.545 310.673C283.207 310.511 283.8 310.349 284.346 310.188C284.639 309.572 285.84 307.108 286.841 306.23C287.842 305.352 289.313 304.59 290.653 304.875C290.969 304.934 291.27 305.059 291.535 305.241C291.8 305.423 292.025 305.659 292.194 305.933C292.363 306.207 292.472 306.513 292.516 306.832C292.56 307.151 292.536 307.476 292.447 307.785C291.846 309.633 288.497 310.642 286.756 310.642C286.61 310.642 284.269 310.365 284.285 310.326C283.753 310.488 283.191 310.657 282.568 310.827C281.413 311.135 280.104 311.474 278.648 311.751C277.092 312.061 275.518 312.28 273.936 312.405C272.163 312.567 270.38 312.567 268.608 312.405H268.546C269.07 312.629 270.509 313.298 270.617 313.368C272.096 314.269 274.413 316.894 273.959 318.758C273.874 319.071 273.723 319.363 273.517 319.615C273.311 319.866 273.054 320.071 272.763 320.216C272.473 320.362 272.155 320.444 271.83 320.458C271.505 320.472 271.181 320.417 270.879 320.298C269.57 319.782 268.731 318.319 268.338 317.079Z" fill="#EB474E"/>
<path d="M271.941 282.752C271.941 282.752 274.074 281.774 274.251 281.728C275.907 281.22 279.41 281.197 280.527 282.783C280.703 283.053 280.821 283.356 280.873 283.674C280.925 283.992 280.91 284.318 280.829 284.629C280.748 284.941 280.602 285.233 280.402 285.485C280.201 285.737 279.95 285.944 279.664 286.094C278.471 286.764 276.815 286.433 275.63 285.917C274.205 285.308 271.941 282.752 271.941 282.752Z" fill="#EB474E"/>
<path d="M82.7056 305.082C83.5295 303.812 84.0069 300.462 84.0069 300.462C84.0069 300.462 81.6969 300.824 81.5429 300.862C79.8797 301.348 76.9229 303.265 76.9229 305.205C76.9213 305.529 76.9877 305.85 77.118 306.146C77.2482 306.443 77.4394 306.708 77.679 306.926C77.9186 307.144 78.2013 307.309 78.5088 307.41C78.8163 307.512 79.1417 307.548 79.4639 307.515C80.8037 307.361 81.9972 306.175 82.7056 305.082Z" fill="#EB474E"/>
<path d="M92.6311 305.521C93.0777 304.135 92.7004 300.985 92.6311 300.739C94.4271 300.524 96.207 300.193 97.9595 299.746C98.9836 299.491 100.008 299.199 101.04 298.899L100.139 299.322C98.6679 300.231 96.3425 302.856 96.8045 304.712C96.89 305.026 97.0407 305.318 97.2467 305.569C97.4527 305.82 97.7095 306.025 98.0002 306.171C98.2909 306.316 98.609 306.398 98.9337 306.412C99.2584 306.426 99.5824 306.372 99.8845 306.252C101.17 305.79 102.017 304.327 102.41 303.095C102.803 301.863 102.533 299.153 102.456 298.475L103.627 298.121C105.506 297.536 107.369 296.943 109.217 296.419C109.871 296.234 110.518 296.073 111.165 295.911C110.765 296.096 110.434 296.257 110.395 296.288C108.917 297.197 106.599 299.815 107.053 301.678C107.139 301.992 107.289 302.284 107.495 302.535C107.701 302.787 107.958 302.992 108.249 303.137C108.54 303.282 108.858 303.365 109.182 303.379C109.507 303.393 109.831 303.338 110.133 303.218C111.427 302.764 112.266 301.301 112.659 300.061C113.052 298.822 112.813 296.388 112.72 295.541C113.39 295.395 114.06 295.249 114.715 295.141C115.161 295.079 115.593 294.979 116.047 294.941L117.379 294.794C118.226 294.733 119.104 294.664 119.935 294.625L121.622 294.556C120.975 294.733 119.704 295.102 119.604 295.149C118.01 295.819 115.315 298.059 115.485 299.992C115.523 300.311 115.628 300.619 115.793 300.896C115.958 301.172 116.178 301.412 116.441 301.598C116.703 301.784 117.002 301.914 117.317 301.978C117.632 302.042 117.958 302.04 118.272 301.971C119.62 301.717 120.675 300.392 121.244 299.237C121.876 297.959 122.014 294.918 122.014 294.533C122.931 294.533 123.824 294.479 124.671 294.471H126.827L127.019 293.27C126.249 293.27 125.479 293.27 124.64 293.324C123.801 293.378 122.715 293.401 121.691 293.462C121.487 292.509 121.23 291.569 120.921 290.644C122.098 289.65 123.135 288.5 124.001 287.225C124.771 287.71 125.541 288.18 126.249 288.642L127.658 289.558L127.866 288.288L126.865 287.664C126.095 287.179 125.21 286.671 124.324 286.124C124.455 285.778 125.541 282.929 125.456 281.504C125.379 280.211 124.925 278.586 123.785 277.824C123.52 277.638 123.22 277.511 122.902 277.449C122.585 277.388 122.258 277.393 121.943 277.466C121.628 277.539 121.332 277.676 121.074 277.871C120.815 278.065 120.601 278.311 120.444 278.594C119.535 280.303 121.144 283.414 122.353 284.661C122.422 284.731 123.285 285.431 123.839 285.878L122.746 285.254C121.976 284.831 121.252 284.438 120.436 284.007L119.227 283.422C118.834 283.214 118.388 283.052 117.956 282.859C116.963 282.444 115.931 282.089 114.876 281.72C115.246 281.065 116.509 278.732 116.632 277.439C116.755 276.145 116.547 274.474 115.531 273.55C115.299 273.327 115.024 273.154 114.721 273.043C114.419 272.933 114.097 272.886 113.776 272.907C113.455 272.928 113.142 273.016 112.856 273.165C112.571 273.315 112.32 273.522 112.12 273.773C110.965 275.313 112.081 278.648 113.09 280.057C113.152 280.149 113.991 281.081 114.461 281.597C113.829 281.389 113.198 281.181 112.551 280.988C110.695 280.442 108.793 279.949 106.899 279.448L105.167 278.979C105.298 278.748 106.861 276.006 106.999 274.559C107.115 273.273 106.915 271.594 105.898 270.67C105.667 270.447 105.391 270.274 105.089 270.164C104.786 270.053 104.464 270.007 104.143 270.028C103.822 270.049 103.509 270.136 103.224 270.286C102.939 270.435 102.688 270.642 102.487 270.894C101.332 272.434 102.449 275.768 103.457 277.177C103.534 277.285 104.736 278.624 105.059 278.948C103.788 278.601 102.526 278.239 101.294 277.831C99.6281 277.295 97.9998 276.65 96.4195 275.899C96.4811 275.791 98.1212 272.942 98.2598 271.456C98.383 270.17 98.1751 268.491 97.1664 267.606C96.9348 267.382 96.6591 267.21 96.3569 267.099C96.0547 266.988 95.7327 266.942 95.4115 266.963C95.0903 266.984 94.7771 267.072 94.4919 267.221C94.2067 267.37 93.9558 267.577 93.7553 267.829C92.5926 269.369 93.7091 272.703 94.7178 274.112C94.7948 274.228 96.0961 275.652 96.3502 275.906L96.0653 275.783C94.5006 274.986 93.0088 274.053 91.607 272.996C90.837 272.418 90.1132 271.825 89.4356 271.232C89.7975 270.732 91.4145 268.43 91.6917 267.105C91.9689 265.781 91.9304 264.148 91.0295 263.124C90.824 262.876 90.5687 262.674 90.2802 262.53C89.9917 262.386 89.6763 262.304 89.3543 262.29C89.0323 262.275 88.7108 262.328 88.4105 262.446C88.1102 262.563 87.8378 262.742 87.6107 262.97C86.2863 264.387 87.0332 267.814 87.8802 269.323C87.9264 269.408 88.4885 270.193 88.9043 270.755C88.604 270.486 88.2806 270.208 87.9957 269.939C86.9254 268.938 86.0014 267.96 85.1852 267.082C84.7309 266.582 84.3305 266.12 83.9532 265.681C84.0533 265.011 84.4152 262.285 84.0533 261.007C83.6914 259.729 82.906 258.273 81.6278 257.773C81.3323 257.651 81.0147 257.593 80.6952 257.6C80.3758 257.608 80.0614 257.682 79.7719 257.817C79.4824 257.952 79.2242 258.146 79.0135 258.386C78.8028 258.627 78.6442 258.908 78.5478 259.213C78.0319 261.084 80.2726 263.779 81.7202 264.726C81.8434 264.811 83.9532 265.873 83.9532 265.835V265.796C84.3074 266.227 84.7232 266.682 85.1082 267.167C85.8782 268.06 86.8099 269.069 87.8648 270.093C88.9906 271.214 90.1838 272.266 91.4376 273.242C92.8311 274.348 94.3205 275.327 95.8882 276.168H95.9421C95.3877 276.068 93.8092 275.837 93.686 275.829C91.9535 275.775 88.5732 276.676 87.9187 278.509C87.82 278.815 87.7864 279.139 87.82 279.459C87.8536 279.779 87.9538 280.088 88.114 280.368C88.2742 280.647 88.491 280.889 88.7504 281.08C89.0098 281.27 89.3062 281.404 89.6204 281.473C90.9525 281.805 92.4617 281.05 93.4704 280.234C94.61 279.317 96.0268 276.484 96.1423 276.261C97.7602 277.074 99.4295 277.782 101.14 278.378C102.133 278.725 103.149 279.048 104.166 279.356C103.681 279.287 103.242 279.225 103.18 279.225C101.448 279.163 98.0673 280.072 97.4128 281.897C97.3141 282.203 97.2805 282.527 97.3141 282.847C97.3477 283.167 97.4479 283.476 97.6081 283.756C97.7683 284.035 97.9851 284.277 98.2445 284.468C98.5039 284.658 98.8003 284.792 99.1145 284.861C100.439 285.193 101.948 284.438 102.965 283.622C103.981 282.806 105.275 280.411 105.575 279.772C105.968 279.887 106.345 280.01 106.745 280.118C108.632 280.665 110.518 281.204 112.351 281.781C112.99 281.989 113.621 282.213 114.253 282.436L113.398 282.32C111.666 282.267 108.285 283.167 107.623 284.992C107.524 285.299 107.491 285.622 107.524 285.942C107.558 286.262 107.658 286.572 107.818 286.851C107.978 287.13 108.195 287.373 108.455 287.563C108.714 287.753 109.01 287.888 109.325 287.957C110.657 288.296 112.166 287.533 113.175 286.725C114.183 285.916 115.331 283.737 115.723 282.983C116.355 283.237 116.994 283.483 117.602 283.753C118.01 283.945 118.418 284.099 118.827 284.322L120.012 284.931C120.782 285.347 121.552 285.778 122.245 286.201C122.746 286.494 123.216 286.779 123.693 287.071C123.046 286.856 121.791 286.471 121.676 286.448C120.168 286.227 118.629 286.391 117.202 286.925C117.034 286.894 116.864 286.878 116.694 286.879C116.372 286.87 116.053 286.928 115.755 287.049C115.458 287.17 115.189 287.352 114.966 287.583C114.742 287.815 114.57 288.09 114.459 288.391C114.348 288.693 114.302 289.014 114.322 289.335C114.507 291.268 117.564 292.97 119.258 293.339C119.358 293.339 120.467 293.478 121.167 293.539L119.92 293.616C119.065 293.678 118.218 293.763 117.31 293.855L115.978 294.024C115.531 294.078 115.069 294.186 114.607 294.263C113.544 294.463 112.482 294.717 111.411 295.033C111.358 294.263 111.134 291.645 110.518 290.498C109.902 289.351 108.809 288.072 107.438 287.864C107.122 287.806 106.798 287.815 106.486 287.889C106.173 287.964 105.88 288.102 105.624 288.297C105.368 288.491 105.156 288.736 105 289.017C104.844 289.298 104.749 289.608 104.72 289.928C104.612 291.868 107.377 294.017 108.994 294.64C109.094 294.679 110.303 294.995 110.973 295.149C110.333 295.326 109.694 295.495 109.048 295.695C107.2 296.265 105.336 296.897 103.48 297.52L101.771 298.09C101.771 297.821 101.548 294.671 100.862 293.393C100.254 292.253 99.153 290.968 97.7824 290.752C97.4654 290.693 97.1396 290.7 96.8257 290.775C96.5119 290.849 96.2172 290.988 95.9604 291.183C95.7036 291.378 95.4906 291.625 95.3349 291.908C95.1793 292.19 95.0845 292.502 95.0566 292.823C94.9488 294.756 97.7131 296.912 99.3301 297.528C99.4533 297.574 101.201 298.028 101.64 298.121C100.385 298.529 99.1299 298.929 97.8825 299.268C96.1966 299.742 94.4808 300.102 92.7466 300.346C92.7466 300.223 92.5387 296.935 91.838 295.626C91.222 294.479 90.1286 293.201 88.758 292.985C88.441 292.926 88.1152 292.933 87.8014 293.008C87.4875 293.082 87.1928 293.221 86.936 293.416C86.6792 293.611 86.4662 293.858 86.3105 294.141C86.1549 294.423 86.0601 294.735 86.0322 295.056C85.9321 296.989 88.6887 299.145 90.3134 299.761C90.4366 299.815 92.3154 300.292 92.6234 300.362L92.3154 300.408C90.5726 300.611 88.8148 300.655 87.064 300.539C86.0938 300.492 85.1698 300.392 84.2689 300.269C84.2689 299.661 84.3844 296.843 83.8839 295.588C83.3834 294.332 82.4517 292.993 81.1273 292.631C80.8192 292.537 80.495 292.51 80.1756 292.549C79.8561 292.588 79.5483 292.694 79.2721 292.86C78.9959 293.025 78.7573 293.246 78.5715 293.509C78.3858 293.772 78.2571 294.071 78.1936 294.386C77.8779 296.304 80.3881 298.745 81.9281 299.538C82.0128 299.584 82.9137 299.923 83.5682 300.169L82.3593 299.992C80.9117 299.746 79.6027 299.438 78.4477 299.153C77.7855 298.991 77.1926 298.829 76.6459 298.668C76.3533 298.052 75.1521 295.588 74.1434 294.71C73.1347 293.832 71.6794 293.07 70.3396 293.355C70.0232 293.414 69.7227 293.539 69.4573 293.721C69.1919 293.903 68.9676 294.139 68.7986 294.413C68.6297 294.687 68.5199 294.993 68.4763 295.312C68.4328 295.631 68.4563 295.956 68.5455 296.265C69.1461 298.113 72.4956 299.122 74.2281 299.122C74.3821 299.122 76.7229 298.845 76.7075 298.806C77.2311 298.968 77.8009 299.137 78.4246 299.307C79.5796 299.615 80.8886 299.953 82.3362 300.231C83.8954 300.541 85.4715 300.76 87.0563 300.885C88.8288 301.047 90.6123 301.047 92.3847 300.885H92.4463C91.9227 301.108 90.4828 301.778 90.375 301.848C88.8966 302.749 86.5789 305.374 87.0332 307.238C87.1187 307.551 87.2694 307.843 87.4754 308.095C87.6814 308.346 87.9382 308.551 88.2289 308.696C88.5196 308.842 88.8377 308.924 89.1624 308.938C89.4871 308.952 89.8111 308.897 90.1132 308.778C91.3991 308.223 92.2384 306.76 92.6311 305.521Z" fill="#EB474E"/>
<path d="M89.0277 271.194C89.0277 271.194 86.8948 270.216 86.7177 270.17C85.0622 269.662 81.5587 269.639 80.4422 271.225C80.2659 271.495 80.1479 271.798 80.0959 272.116C80.0438 272.434 80.0589 272.76 80.1401 273.072C80.2214 273.383 80.3669 273.675 80.5675 273.927C80.768 274.179 81.0191 274.387 81.3046 274.536C82.4981 275.206 84.1536 274.875 85.3394 274.359C86.7639 273.751 89.02 271.194 89.0277 271.194Z" fill="#EB474E"/>
<path d="M139.909 93.0469C139.909 93.0469 123.362 71.4869 123.246 69.4233C123.131 67.3597 127.697 60.6376 127.92 59.1515C128.143 57.6654 128.69 52.0752 128.69 52.0752L114.06 59.498C114.06 59.498 112.12 67.3674 113.375 69.9931C114.63 72.6188 132.317 105.598 132.317 105.598C132.317 105.598 139.855 100.008 140.309 96.6967C140.764 93.3857 139.909 93.0469 139.909 93.0469Z" fill="white" stroke="#4E0A0B" stroke-linecap="round" stroke-linejoin="round"/>
<path d="M112.52 56.2097C112.52 56.2097 112.058 58.7199 113.205 60.0597C114.352 61.3995 115.369 62.2234 116.624 62.3697C117.879 62.516 161.014 23.0997 161.014 23.0997C161.014 23.0997 161.361 22.6454 158.851 19.9042C156.34 17.163 155.001 16.8242 155.001 16.8242L112.52 56.2097Z" fill="white" stroke="#4E0A0B" stroke-linecap="round" stroke-linejoin="round"/>
<path d="M129.638 40.3242C129.638 40.3242 131.116 44.8903 135.343 46.2532L133.21 48.2552C133.21 48.2552 128.76 46.7152 127.959 42.0336L129.638 40.3242Z" fill="#EB474E" stroke="#4E0A0B" stroke-linecap="round" stroke-linejoin="round"/>
<path d="M111.835 53.33C111.835 53.33 109.894 55.5014 110.464 56.41C111.034 57.3186 112.52 56.1867 112.52 56.1867L114.345 54.5851L111.835 53.33Z" fill="white" stroke="#4E0A0B" stroke-linecap="round" stroke-linejoin="round"/>
<path d="M114.46 50.4805C114.46 50.4805 111.95 52.5364 111.835 53.3295C111.825 53.5162 111.853 53.7029 111.916 53.8789C111.98 54.0548 112.077 54.2166 112.203 54.3547C112.329 54.4928 112.481 54.6047 112.65 54.6838C112.82 54.7629 113.003 54.8077 113.19 54.8156C113.76 54.7001 115.585 53.1062 115.585 53.1062L114.46 50.4805Z" fill="white" stroke="#4E0A0B" stroke-linecap="round" stroke-linejoin="round"/>
<path d="M120.39 48.8793C120.39 48.8793 116.74 48.1093 116.286 48.5405C115.831 48.9717 114.114 51.0507 114.114 51.9593C114.114 52.8679 115.6 53.1297 115.6 53.1297L120.39 48.8793Z" fill="white" stroke="#4E0A0B" stroke-linecap="round" stroke-linejoin="round"/>
<path d="M122.792 62.2312C122.792 62.2312 121.76 53.561 121.306 53.2145C120.851 52.868 119.481 50.25 118.996 49.7957C118.693 49.6635 118.357 49.6256 118.032 49.6868C117.707 49.748 117.408 49.9055 117.174 50.1389C116.94 50.3722 116.781 50.6706 116.719 50.9953C116.657 51.32 116.693 51.6559 116.824 51.9594C117.51 54.1308 117.964 55.1549 117.964 55.1549C117.964 55.1549 115.454 61.5459 115.569 64.9724C115.613 66.9576 116.205 68.8922 117.279 70.5626" fill="white"/>
<path d="M122.792 62.2312C122.792 62.2312 121.76 53.561 121.306 53.2145C120.851 52.868 119.481 50.25 118.996 49.7957C118.693 49.6635 118.357 49.6256 118.032 49.6868C117.707 49.748 117.408 49.9055 117.174 50.1389C116.94 50.3722 116.781 50.6706 116.719 50.9953C116.657 51.32 116.693 51.6559 116.824 51.9594C117.51 54.1308 117.964 55.1549 117.964 55.1549C117.964 55.1549 115.454 61.5459 115.569 64.9724C115.613 66.9576 116.205 68.8922 117.279 70.5626" stroke="#4E0A0B" stroke-linecap="round" stroke-linejoin="round"/>
<path d="M147.024 133.325C147.024 133.325 134.704 206.059 136.629 211.257C138.554 216.454 156.595 233.41 156.595 233.41C156.595 233.41 170.54 251.728 172.18 253.099C173.82 254.469 186.402 242.157 186.948 226.025C187.495 209.894 170.008 151.097 168.076 146.446C166.143 141.795 149.48 128.128 147.024 133.325Z" fill="#4E0A0B" stroke="#4E0A0B" stroke-linecap="round" stroke-linejoin="round"/>
<path d="M159.598 118.287L139.909 92.3076C139.909 92.3076 140.733 96.404 136.629 100.239C134.373 102.374 132 104.381 129.521 106.252L140.186 125.117C140.186 125.117 149.21 140.433 155.501 147.54C161.792 154.647 171.086 169.693 171.086 169.693C171.086 169.693 162.339 125.395 159.598 118.287Z" fill="#EB474E" stroke="#4E0A0B" stroke-linecap="round" stroke-linejoin="round"/>
<path d="M135.243 287.148C135.243 287.148 127.936 283.036 126.257 284.252C124.578 285.469 119.258 296.28 116.516 305.42C113.775 314.56 116.817 323.838 118.649 323.838C120.482 323.838 126.257 312.573 128.544 308.307C130.831 304.041 137.06 302.679 137.06 302.679L135.243 287.148Z" fill="white" stroke="#4E0A0B" stroke-linecap="round" stroke-linejoin="round"/>
<path d="M118.649 323.839C119.927 323.839 123.161 318.287 125.764 313.505C122.214 312.427 118.996 308.885 119.712 305.42C120.428 301.955 128.883 290.151 132.217 285.616C129.999 284.599 127.212 283.56 126.257 284.253C124.586 285.47 119.258 296.28 116.516 305.42C113.775 314.56 116.817 323.839 118.649 323.839Z" fill="#4E0A0B" stroke="#4E0A0B" stroke-linecap="round" stroke-linejoin="round"/>
<path d="M175.744 335.258C175.445 338.394 174.883 341.501 174.066 344.544C172.849 348.656 172.087 350.488 174.374 353.838C176.661 357.187 179.409 363.578 179.409 363.578C179.409 363.578 186.262 369.823 188.696 369.823C191.129 369.823 193.269 363.732 192.199 359.466C191.129 355.201 184.892 350.026 184.13 347.439C183.367 344.852 184.9 339.216 184.9 339.216L175.744 335.258Z" fill="white" stroke="#4E0A0B" stroke-linecap="round" stroke-linejoin="round"/>
<path d="M190.359 355.832V356.88C190.359 360.075 183.052 361.145 180.919 359.621C178.786 358.096 178.178 354.747 175.283 351.397C174.607 350.642 174.117 349.741 173.85 348.764C173.582 347.787 173.546 346.762 173.743 345.769C172.765 349.056 172.364 350.835 174.412 353.838C176.722 357.188 179.433 363.579 179.433 363.579C179.433 363.579 186.286 369.823 188.719 369.823C191.152 369.823 193.293 363.733 192.223 359.467C191.815 358.157 191.185 356.928 190.359 355.832Z" fill="#4E0A0B" stroke="#4E0A0B" stroke-linecap="round" stroke-linejoin="round"/>
<path d="M140.263 309.07C140.263 309.07 160.06 330.384 175.136 338.153C190.213 345.922 202.856 346.831 202.856 346.831C202.856 346.831 205.444 336.474 208.493 320.943C211.542 305.413 212.15 299.63 212.15 299.63C212.15 299.63 191.422 308 166.759 307.545C142.096 307.091 138.138 304.35 138.138 304.35L140.263 309.07Z" fill="#EB474E" stroke="#4E0A0B" stroke-linecap="round" stroke-linejoin="round"/>
<path d="M248.348 113.582C248.348 113.582 249.519 137.937 256.141 160.552C262.763 183.167 270.363 216.854 270.363 221.921C270.363 226.988 267.052 230.299 262.177 226.402C259.303 224.137 257.038 221.192 255.586 217.832C255.586 217.832 252.245 201.077 250.882 189.389C249.519 177.7 241.334 142.626 241.334 142.626L237.63 122.168L248.348 113.582Z" fill="#4E0A0B" stroke="#4E0A0B" stroke-linecap="round" stroke-linejoin="round"/>
<path d="M253.021 74.1276C253.021 74.1276 256.794 64.1176 256.871 63.4169C256.948 62.7162 254.946 55.2934 255.031 54.7082C255.716 52.2397 256.528 49.8084 257.464 47.424C258.134 45.884 260.059 44.7444 260.644 45.2526C261.228 45.9909 261.705 46.8073 262.061 47.6781C262.061 47.6781 263.994 47.5934 264.579 48.8485C264.898 49.4458 265.097 50.0998 265.164 50.7735C265.164 50.7735 267.174 51.0276 267.474 51.7822L267.813 52.5522C268.326 52.6787 268.779 52.9769 269.099 53.3972C269.418 53.8175 269.584 54.3345 269.569 54.8622C269.367 57.9373 268.787 60.9759 267.844 63.9097C267.21 65.4642 266.477 66.9765 265.649 68.4373C265.48 68.9378 259.874 84.1761 259.874 84.1761L253.021 74.1276Z" fill="white" stroke="#4E0A0B" stroke-linecap="round" stroke-linejoin="round"/>
<path d="M256.41 51.4434C256.41 51.4434 259.344 47.6781 259.49 46.6694C259.636 45.6607 262.085 45.4143 261.169 48.6791C260.699 50.4294 260.084 52.1371 259.328 53.7842C259.328 53.7842 262.839 56.3021 263.094 57.3878C263.348 58.4735 262.755 60.9837 262.755 60.9837" stroke="#4E0A0B" stroke-linecap="round" stroke-linejoin="round"/>
<path d="M262.062 47.6777C261.599 49.7652 260.955 51.8083 260.137 53.7838" stroke="#4E0A0B" stroke-linecap="round" stroke-linejoin="round"/>
<path d="M265.165 50.7736C265.165 50.7736 264.665 54.2925 262.901 55.794" stroke="#4E0A0B" stroke-linecap="round" stroke-linejoin="round"/>
<path d="M267.844 52.5292C267.844 52.5292 266.92 56.5486 266.081 57.719C265.242 58.8894 262.655 58.1425 263.07 57.3879" stroke="#4E0A0B" stroke-linecap="round" stroke-linejoin="round"/>
<path d="M265.835 58.3888C265.978 58.648 266.183 58.8679 266.432 59.0291C266.68 59.1903 266.964 59.2877 267.259 59.3128" stroke="#4E0A0B" stroke-linecap="round" stroke-linejoin="round"/>
<path d="M238.962 98.7672L253.484 72.8721L266.774 94.5168L241.703 129.59L238.962 98.7672Z" fill="#EB474E" stroke="#4E0A0B" stroke-linecap="round" stroke-linejoin="round"/>
<path d="M212.651 128.128C212.651 128.128 224.139 122.661 225.779 119.658C227.419 116.655 239.47 97.4971 239.47 97.4971C239.47 97.4971 244.667 142.35 249.041 151.921C253.414 161.492 252.321 186.101 253.961 201.971L255.609 217.825C255.609 217.825 250.989 208.531 249.041 207.707C247.093 206.883 239.47 204.157 237.83 201.424C236.189 198.69 231.539 189.936 231.539 189.936C231.539 189.936 241.911 264.88 244.09 281.82C246.269 298.76 246.823 302.879 246.823 302.879C246.823 302.879 241.356 303.695 237.799 303.973C234.241 304.25 230.961 304.242 230.961 304.242C230.961 304.242 226.588 309.44 224.678 310.263C222.768 311.087 204.442 314.113 195.418 314.113C186.394 314.113 179.825 314.937 161.538 313.836C143.25 312.735 136.652 306.182 135.011 299.892C133.371 293.601 134.195 286.494 134.195 286.494C134.195 286.494 137.198 285.677 138.292 284.853C139.385 284.03 141.58 281.003 142.912 280.749C144.244 280.495 147.285 278.563 147.285 278.563C147.285 278.563 156.856 258.057 157.134 254.777C157.411 251.497 156.587 233.448 156.587 233.448C156.587 233.448 174.089 253.137 174.636 247.662C175.182 242.188 185.847 233.718 176.822 197.073C167.798 160.429 162.601 146.762 160.96 137.46C159.944 131.134 159.486 124.732 159.59 118.326C159.59 118.326 169.161 126.526 171.91 128.99C174.659 131.454 184.492 131.177 184.492 131.177L212.651 128.128Z" fill="#4E0A0B" stroke="#4E0A0B" stroke-linecap="round" stroke-linejoin="round"/>
<path d="M203.35 158.75C203.35 158.75 205.814 177.892 207.454 195.125C209.094 212.358 212.374 249.795 212.374 249.795C212.374 249.795 214.291 222.999 213.745 216.985C213.198 210.972 206.091 156.001 206.091 156.001L204.72 150.812H200.87L203.35 158.75Z" fill="#EB474E" stroke="#4E0A0B" stroke-linecap="round" stroke-linejoin="round"/>
<path d="M190.675 88.7345C190.675 88.7345 179.048 90.9906 175.668 93.9859C172.287 96.9812 170.547 103.611 171.294 107.114C172.041 110.618 176.8 135.366 178.424 139.739C180.049 144.113 187.172 154.739 193.547 156.741C199.923 158.743 207.176 158.119 209.17 154.493C210.488 152.013 211.576 149.417 212.42 146.739C212.42 146.739 216.801 139.863 216.801 136.867C216.801 133.872 217.571 131.362 216.424 128.112C215.277 124.863 214.299 118.102 212.173 110.741C210.048 103.38 210.672 97.3585 207.423 93.1158C204.173 88.8731 196.673 88.4881 190.675 88.7345Z" fill="#EB474E" stroke="#4E0A0B" stroke-linecap="round" stroke-linejoin="round"/>
<path d="M179.41 126.487C179.41 126.487 181.043 136.497 185.293 141.24C187.798 144.069 190.976 146.219 194.533 147.493" stroke="#4E0A0B" stroke-linecap="round" stroke-linejoin="round"/>
<path d="M209.925 126.11C209.925 126.11 207.923 135.243 203.049 142.742C198.175 150.242 193.924 151.744 189.543 148.494" stroke="#4E0A0B" stroke-linecap="round" stroke-linejoin="round"/>
<path d="M210.425 113.112C210.425 113.112 212.519 125.509 211.295 137.113C210.071 148.717 207.045 153.614 202.825 154.115" stroke="#4E0A0B" stroke-linecap="round" stroke-linejoin="round"/>
<path d="M212.674 144.867C213.843 138.218 213.97 131.427 213.051 124.739" stroke="#4E0A0B" stroke-linecap="round" stroke-linejoin="round"/>
<path d="M207.3 100.484C207.3 100.484 209.425 105.613 209.802 108.739" stroke="#4E0A0B" stroke-linecap="round" stroke-linejoin="round"/>
<path d="M174.42 107.615C174.42 107.615 176.545 128.613 179.171 136.236" stroke="#4E0A0B" stroke-linecap="round" stroke-linejoin="round"/>
<path d="M181.674 129.991C181.674 129.991 185.3 139.739 190.798 142.365" stroke="#4E0A0B" stroke-linecap="round" stroke-linejoin="round"/>
<path d="M205.675 132.116C205.675 132.116 200.2 142.989 195.426 143.99" stroke="#4E0A0B" stroke-linecap="round" stroke-linejoin="round"/>
<path d="M189.921 92.8613C189.921 92.8613 175.56 103.988 175.422 106.113C175.283 108.238 177.793 123.862 179.418 126.487C181.043 129.113 193.047 137.614 194.818 137.991C196.527 138.377 198.312 138.245 199.946 137.614C201.324 136.99 208.824 126.487 209.571 123.754C210.318 121.02 207.569 103.88 206.945 102.124C206.322 100.369 205.944 98.875 201.817 96.8807C197.69 94.8864 189.921 92.8613 189.921 92.8613Z" fill="white" stroke="#4E0A0B" stroke-linecap="round" stroke-linejoin="round"/>
<path d="M192.169 122.114C192.169 122.114 194.294 122.992 195.549 122.361C196.233 122.05 196.832 121.58 197.297 120.99" stroke="#4E0A0B" stroke-linecap="round" stroke-linejoin="round"/>
<path d="M189.051 125.864C189.051 125.864 194.048 126.865 195.919 126.11C197.79 125.356 201.309 123.492 201.309 123.492C201.309 123.492 198.306 129.237 196.427 129.652C194.425 130.014 189.674 126.742 189.051 125.864Z" stroke="#4E0A0B" stroke-linecap="round" stroke-linejoin="round"/>
<path d="M198.799 113.859C198.799 113.859 200.924 111.488 203.55 112.612" stroke="#4E0A0B" stroke-width="2" stroke-linecap="round" stroke-linejoin="round"/>
<path d="M196.049 109.117C196.049 109.117 199.175 106.861 201.547 107.238C203.919 107.615 204.173 108.239 204.173 108.239C204.173 108.239 198.921 108.116 196.419 109.987C196.419 109.987 195.918 109.864 196.049 109.117Z" fill="#4E0A0B" stroke="#4E0A0B" stroke-linecap="round" stroke-linejoin="round"/>
<path d="M188.188 115.238C188.188 115.238 185.193 114.137 183.406 116.362" stroke="#4E0A0B" stroke-width="2" stroke-linecap="round" stroke-linejoin="round"/>
<path d="M188.396 109.756C188.396 109.756 184.546 109.232 182.652 110.672C180.758 112.112 180.804 112.79 180.804 112.79C180.804 112.79 185.385 110.218 188.504 110.703C188.473 110.703 188.85 110.364 188.396 109.756Z" fill="#4E0A0B" stroke="#4E0A0B" stroke-linecap="round" stroke-linejoin="round"/>
<path d="M173.297 96.7351C173.297 96.7351 188.419 89.3585 205.552 91.3451L204.42 84.7231C204.42 84.7231 222.053 77.3465 221.676 76.9692C221.298 76.5919 208.17 73.843 199.923 71.3482C191.676 68.8534 185.67 64.7185 184.669 65.1882C183.668 65.6579 165.042 77 160.16 79.8644C155.279 82.7288 151.413 83.6143 152.291 83.9839C153.169 84.3535 172.788 89.7358 172.788 89.7358L173.297 96.7351Z" fill="#4E0A0B" stroke="#4E0A0B" stroke-linecap="round" stroke-linejoin="round"/>
<path d="M160.299 87.7337C159.738 88.3018 159.414 89.0611 159.39 89.8589C159.267 91.3989 160.391 111.488 160.391 111.488L161.392 110.241C161.392 110.241 162.162 112.366 162.393 111.488C162.624 110.61 162.763 109.987 162.763 109.987C162.763 109.987 163.387 111.735 163.764 111.242C164.015 110.782 164.145 110.265 164.141 109.74C164.141 109.74 165.142 111.735 165.265 110.51C165.389 109.286 164.018 93.6319 163.14 91.2603C162.72 90.0399 162.176 88.8659 161.515 87.7568L161.261 79.1328L162.516 78.3628C162.516 78.3628 160.391 77.8623 160.137 79.9028C160.047 82.5141 160.101 85.1283 160.299 87.7337Z" fill="#4E0A0B" stroke="#4E0A0B" stroke-linecap="round" stroke-linejoin="round"/>
</svg>
