<svg width="80" height="21" viewBox="0 0 80 21" fill="none" xmlns="http://www.w3.org/2000/svg">
<path d="M69.7912 4.85872L68.084 15.5588C68.0776 15.5981 68.0799 15.6383 68.0907 15.6767C68.1015 15.715 68.1206 15.7505 68.1467 15.7806C68.1727 15.8108 68.205 15.8349 68.2414 15.8513C68.2777 15.8677 68.3173 15.876 68.3572 15.8755H70.3776C70.4489 15.8761 70.518 15.8512 70.5725 15.8054C70.627 15.7595 70.6632 15.6957 70.6746 15.6255L72.3818 4.92537C72.3882 4.88608 72.3859 4.84587 72.3751 4.80756C72.3643 4.76924 72.3452 4.73376 72.3192 4.70359C72.2931 4.67342 72.2608 4.64929 72.2244 4.6329C72.1881 4.61651 72.1486 4.60825 72.1086 4.6087H70.0882C70.0167 4.60729 69.9472 4.63188 69.8925 4.67789C69.8378 4.7239 69.8018 4.78818 69.7912 4.85872ZM67.6338 7.98127H65.7167C65.6455 7.98057 65.5764 8.00538 65.522 8.05118C65.4676 8.09698 65.4314 8.16074 65.4201 8.23087L65.3567 8.6248C65.3567 8.6248 63.8678 7.01428 61.2316 8.10268C59.7193 8.72583 58.9933 10.0133 58.6844 10.9565C58.6844 10.9565 57.704 13.8231 59.9214 15.4009C59.9214 15.4009 61.9776 16.9185 64.2929 15.3075L64.2529 15.5588C64.2436 15.6179 64.254 15.6783 64.2825 15.7309C64.3109 15.7835 64.3558 15.8253 64.4104 15.85C64.4465 15.867 64.4861 15.8755 64.5261 15.8755H66.4444C66.5159 15.8769 66.5855 15.8523 66.6401 15.8063C66.6948 15.7603 66.7308 15.696 66.7414 15.6255L67.9082 8.29794C67.9148 8.25869 67.9125 8.21849 67.9015 8.18024C67.8905 8.14199 67.8712 8.10665 67.8448 8.07678C67.8188 8.04635 67.7865 8.02198 67.75 8.0054C67.7135 7.98882 67.6738 7.98087 67.6338 7.98127ZM64.8129 12.0309C64.7381 12.5429 64.4786 13.01 64.0831 13.3447C63.6859 13.6806 63.1804 13.862 62.6597 13.8554C62.4555 13.8577 62.2522 13.8282 62.0572 13.7679C61.2295 13.5047 60.7572 12.7177 60.8929 11.8645C60.9683 11.3528 61.2281 10.886 61.6235 10.5516C62.0204 10.2155 62.5255 10.0335 63.0461 10.0392C63.2503 10.0371 63.4536 10.0669 63.6487 10.1275C64.4814 10.389 64.9516 11.1773 64.815 12.0313H64.8129V12.0309ZM54.5763 12.2334C55.6159 12.2334 56.6214 11.8649 57.4112 11.1951C58.1993 10.5275 58.7212 9.59995 58.8818 8.58108C59.2176 6.4616 57.5457 4.61167 55.1755 4.61167H51.3572C51.2859 4.61099 51.2168 4.63586 51.1623 4.68174C51.1079 4.72763 51.0718 4.79149 51.0606 4.8617L49.3529 15.5618C49.3436 15.6208 49.354 15.6813 49.3825 15.7339C49.4109 15.7865 49.4558 15.8283 49.5104 15.853C49.5469 15.87 49.5861 15.8785 49.6261 15.8785H51.6478C51.7191 15.8792 51.7882 15.8543 51.8426 15.8084C51.8971 15.7625 51.9332 15.6987 51.9444 15.6285L52.4457 12.4864C52.4562 12.4158 52.4922 12.3514 52.5468 12.3053C52.6015 12.2592 52.6711 12.2345 52.7427 12.2359L54.5763 12.2334ZM56.2674 8.48472C56.1427 9.26833 55.5308 9.84521 54.3601 9.84521H52.8635L53.318 6.99561H54.7878C55.998 6.99773 56.3921 7.7045 56.2674 8.48684V8.48472Z" fill="#0070E0"/>
<path d="M47.0493 8.16293L44.737 12.0279L43.5634 8.19137C43.545 8.13015 43.5072 8.07654 43.4556 8.03864C43.404 8.00074 43.3415 7.9806 43.2774 7.98125H41.1906C41.1366 7.98052 41.0842 7.99928 41.043 8.03408C41.0018 8.06887 40.9746 8.11734 40.9664 8.17057C40.9613 8.20587 40.9649 8.24186 40.977 8.27542L43.08 14.7379L41.1778 17.7831C41.1617 17.8082 41.1509 17.8363 41.146 17.8657C41.1411 17.8951 41.1423 17.9252 41.1494 17.9541C41.1566 17.983 41.1696 18.0102 41.1877 18.0339C41.2057 18.0577 41.2284 18.0775 41.2544 18.0922C41.2892 18.1121 41.3288 18.1224 41.3689 18.1219H43.6166C43.6807 18.1221 43.7438 18.1058 43.7998 18.0746C43.8558 18.0434 43.9028 17.9982 43.9361 17.9436L49.8102 8.32169C49.8315 8.28819 49.8432 8.24951 49.844 8.20985C49.8448 8.1702 49.8347 8.13107 49.8149 8.09671C49.795 8.06224 49.7663 8.0337 49.7316 8.01407C49.697 7.99443 49.6577 7.98442 49.6178 7.98507H47.371C47.3066 7.98448 47.2431 8.00055 47.1867 8.03172C47.1303 8.06289 47.083 8.1081 47.0493 8.16293ZM40.0076 7.98125H38.0889C38.0175 7.98057 37.9483 8.00548 37.8938 8.05145C37.8393 8.09741 37.8031 8.16138 37.7919 8.2317L37.7298 8.6252C37.7298 8.6252 36.2396 7.01469 33.6034 8.10308C32.0915 8.72623 31.3651 10.0137 31.0574 10.9569C31.0574 10.9569 30.0761 13.8235 32.2932 15.4013C32.2932 15.4013 34.3498 16.9189 36.6651 15.3079L36.6251 15.5592C36.6157 15.6183 36.626 15.6788 36.6544 15.7314C36.6829 15.784 36.7279 15.8259 36.7825 15.8504C36.8187 15.8674 36.8583 15.8759 36.8983 15.8759H38.8166C38.8878 15.8764 38.9568 15.8515 39.0112 15.8056C39.0656 15.7598 39.1018 15.696 39.1132 15.6259L40.2804 8.29835C40.2899 8.23923 40.2796 8.17864 40.2512 8.12593C40.2227 8.07322 40.1777 8.03133 40.123 8.00672C40.0867 7.99005 40.0476 7.98137 40.0076 7.98125ZM37.1864 12.0317C37.1108 12.5431 36.8513 13.0095 36.4561 13.3438C36.0592 13.6797 35.5541 13.8615 35.0336 13.8558C34.8297 13.858 34.6267 13.8285 34.4319 13.7683C33.6047 13.5051 33.1327 12.7181 33.2685 11.8645C33.3441 11.3517 33.6048 10.884 34.0017 10.5494C34.4001 10.2133 34.9068 10.0323 35.4285 10.0396C35.6327 10.0375 35.8366 10.0672 36.0315 10.1279C36.8557 10.3894 37.3251 11.1772 37.1889 12.0317H37.1864ZM26.9502 12.2338C27.988 12.2333 28.9919 11.8648 29.7825 11.1942C30.5699 10.5266 31.0912 9.59943 31.2515 8.58106C31.5876 6.462 29.9153 4.61208 27.5459 4.61208H23.7272C23.656 4.61136 23.5868 4.63615 23.5323 4.68195C23.4778 4.72774 23.4416 4.79151 23.4302 4.86168L21.7281 15.5588C21.7186 15.6179 21.7288 15.6785 21.7573 15.7312C21.7857 15.7839 21.8308 15.8258 21.8855 15.8504C21.9217 15.867 21.9613 15.8759 22.0013 15.8759H24.0217C24.0931 15.8766 24.1623 15.8517 24.2168 15.8057C24.2713 15.7598 24.3075 15.6958 24.3187 15.6255L24.8191 12.4834C24.8298 12.4128 24.8658 12.3486 24.9204 12.3026C24.9751 12.2565 25.0446 12.232 25.1161 12.2334L26.9502 12.2338ZM28.6413 8.4847C28.5166 9.26831 27.9051 9.84519 26.7344 9.84519H25.2378L25.6915 6.99559H27.1613C28.3719 6.99771 28.7655 7.70491 28.6413 8.48682V8.4847Z" fill="#003087"/>
<path d="M13.8886 5.16188C13.9342 2.79917 11.9805 0.986603 9.29416 0.986603H3.73757C3.60808 0.986542 3.48283 1.03261 3.38437 1.1165C3.28591 1.2004 3.22072 1.31661 3.20055 1.4442L0.974163 15.322C0.964201 15.3849 0.968021 15.4492 0.985359 15.5105C1.0027 15.5718 1.03314 15.6286 1.07459 15.677C1.11605 15.7254 1.16753 15.7643 1.22549 15.7909C1.28344 15.8176 1.34651 15.8314 1.41033 15.8314H4.70225L4.18778 19.0448C4.17782 19.1077 4.18164 19.172 4.19898 19.2333C4.21631 19.2946 4.24676 19.3514 4.28821 19.3998C4.32966 19.4482 4.38114 19.4871 4.4391 19.5137C4.49706 19.5404 4.56012 19.5542 4.62395 19.5542H7.30565C7.43501 19.5542 7.55033 19.5079 7.64906 19.4243C7.74693 19.3403 7.7631 19.2244 7.78352 19.0966L8.57076 14.4765C8.59076 14.3491 8.65587 14.1836 8.75416 14.0995C8.85246 14.0155 8.93842 13.9696 9.06821 13.9696H10.7091C13.3401 13.9696 15.572 12.104 15.9801 9.50951C16.2691 7.66807 15.4776 5.99261 13.8886 5.16188Z" fill="#001C64"/>
<path d="M5.41446 10.7133L4.59446 15.8997L4.07956 19.153C4.06967 19.2159 4.07355 19.2802 4.09094 19.3414C4.10833 19.4027 4.13883 19.4594 4.18032 19.5078C4.22181 19.5562 4.27332 19.595 4.3313 19.6216C4.38927 19.6482 4.45234 19.662 4.51616 19.662H7.35446C7.48382 19.6619 7.60892 19.6158 7.70721 19.5319C7.80551 19.448 7.87055 19.3318 7.89063 19.2044L8.63871 14.476C8.65888 14.3484 8.72401 14.2323 8.82238 14.1484C8.92074 14.0645 9.0459 14.0184 9.17531 14.0184H10.8459C13.477 14.0184 15.7089 12.1039 16.1174 9.50943C16.4068 7.66799 15.4774 5.9921 13.8885 5.16138C13.8842 5.35749 13.8672 5.55318 13.837 5.74717C13.4289 8.34081 11.1962 10.2557 8.56595 10.2557H5.95105C5.8216 10.2558 5.69644 10.302 5.59809 10.386C5.49973 10.4699 5.43462 10.5857 5.41446 10.7133Z" fill="#0070E0"/>
<path d="M4.59492 15.8998H1.29279C1.22898 15.8998 1.16593 15.886 1.10799 15.8593C1.05004 15.8326 0.998587 15.7937 0.957166 15.7453C0.915745 15.6969 0.885343 15.6401 0.868059 15.5788C0.850774 15.5175 0.847018 15.4532 0.857048 15.3904L3.08343 1.30666C3.1036 1.17914 3.16873 1.06299 3.26709 0.9791C3.36546 0.895213 3.49061 0.8491 3.62003 0.84906H9.29492C11.9813 0.84906 13.9349 2.79917 13.8894 5.16145C13.2209 4.81167 12.4353 4.61174 11.5749 4.61174H6.84386C6.71437 4.61168 6.58912 4.65774 6.49066 4.74164C6.3922 4.82554 6.32701 4.94175 6.30684 5.06934L5.41577 10.7134L4.59449 15.8998H4.59492Z" fill="#003087"/>
</svg>
