<svg width="20" height="21" viewBox="0 0 20 21" fill="none" xmlns="http://www.w3.org/2000/svg">
<path opacity="0.4" d="M14.9979 6.46669C14.9479 6.45836 14.8896 6.45836 14.8396 6.46669C13.6896 6.42502 12.7729 5.48336 12.7729 4.31669C12.7729 3.12502 13.7313 2.16669 14.9229 2.16669C16.1146 2.16669 17.0729 3.13336 17.0729 4.31669C17.0646 5.48336 16.1479 6.42502 14.9979 6.46669Z" stroke="#484647" stroke-width="1.5" stroke-linecap="round" stroke-linejoin="round"/>
<path opacity="0.4" d="M14.1397 12.5334C15.2814 12.725 16.5398 12.525 17.4231 11.9334C18.5981 11.15 18.5981 9.8667 17.4231 9.08337C16.5314 8.4917 15.2564 8.29169 14.1147 8.49169" stroke="#484647" stroke-width="1.5" stroke-linecap="round" stroke-linejoin="round"/>
<path opacity="0.4" d="M4.97295 6.46669C5.02295 6.45836 5.08128 6.45836 5.13128 6.46669C6.28128 6.42502 7.19795 5.48336 7.19795 4.31669C7.19795 3.12502 6.23962 2.16669 5.04795 2.16669C3.85628 2.16669 2.89795 3.13336 2.89795 4.31669C2.90628 5.48336 3.82295 6.42502 4.97295 6.46669Z" stroke="#484647" stroke-width="1.5" stroke-linecap="round" stroke-linejoin="round"/>
<path opacity="0.4" d="M5.83109 12.5334C4.68942 12.725 3.43109 12.525 2.54775 11.9334C1.37275 11.15 1.37275 9.8667 2.54775 9.08337C3.43942 8.4917 4.71442 8.29169 5.85609 8.49169" stroke="#484647" stroke-width="1.5" stroke-linecap="round" stroke-linejoin="round"/>
<path d="M9.9999 12.6917C9.9499 12.6833 9.89157 12.6833 9.84157 12.6917C8.69157 12.65 7.7749 11.7083 7.7749 10.5417C7.7749 9.35 8.73323 8.39166 9.9249 8.39166C11.1166 8.39166 12.0749 9.35833 12.0749 10.5417C12.0666 11.7083 11.1499 12.6583 9.9999 12.6917Z" stroke="#484647" stroke-width="1.5" stroke-linecap="round" stroke-linejoin="round"/>
<path d="M7.5751 15.3167C6.4001 16.1 6.4001 17.3833 7.5751 18.1667C8.90843 19.0583 11.0918 19.0583 12.4251 18.1667C13.6001 17.3833 13.6001 16.1 12.4251 15.3167C11.1001 14.4333 8.90843 14.4333 7.5751 15.3167Z" stroke="#484647" stroke-width="1.5" stroke-linecap="round" stroke-linejoin="round"/>
</svg>
