<svg width="297" height="222" viewBox="0 0 297 222" fill="none" xmlns="http://www.w3.org/2000/svg">
<path d="M296.596 194.547H0V194.695H296.596V194.547Z" fill="#EBEBEB"/>
<path d="M266.879 204.092H234.117V204.24H266.879V204.092Z" fill="#EBEBEB"/>
<path d="M196.051 200.983H190.896V201.131H196.051V200.983Z" fill="#EBEBEB"/>
<path d="M232.329 198.586H220.945V198.735H232.329V198.586Z" fill="#EBEBEB"/>
<path d="M56.7391 199.583H31.1191V199.731H56.7391V199.583Z" fill="#EBEBEB"/>
<path d="M154.855 203.415H127.734V203.563H154.855V203.415Z" fill="#EBEBEB"/>
<path d="M138.891 200.906H83.3203V201.055H138.891V200.906Z" fill="#EBEBEB"/>
<path d="M143.98 164.704C143.98 165.149 143.892 165.59 143.722 166.001C143.551 166.412 143.301 166.786 142.986 167.101C142.671 167.415 142.296 167.665 141.885 167.835C141.473 168.004 141.032 168.091 140.587 168.091H26.0472C25.1499 168.089 24.2899 167.732 23.656 167.096C23.0221 166.461 22.666 165.601 22.666 164.704V3.69317C22.6738 2.80102 23.0333 1.94798 23.6664 1.31934C24.2995 0.690695 25.155 0.337222 26.0472 0.335693H140.587C141.485 0.335693 142.347 0.692551 142.982 1.32776C143.617 1.96297 143.974 2.8245 143.974 3.72282M143.826 3.72282C143.829 3.29522 143.747 2.87122 143.586 2.47519C143.425 2.07916 143.187 1.71892 142.886 1.41518C142.585 1.11143 142.227 0.870179 141.832 0.705283C141.438 0.540387 141.014 0.455103 140.587 0.454332H26.0472C25.1893 0.455904 24.367 0.797829 23.7608 1.40506C23.1547 2.01229 22.8143 2.8352 22.8143 3.69317V164.704C22.8143 165.561 23.1547 166.384 23.7608 166.992C24.367 167.599 25.1893 167.941 26.0472 167.942H140.587C141.445 167.941 142.268 167.599 142.875 166.992C143.482 166.385 143.824 165.562 143.826 164.704" fill="#EBEBEB"/>
<path d="M268.899 168.091H154.354C153.456 168.089 152.595 167.732 151.961 167.097C151.326 166.462 150.968 165.601 150.967 164.704V3.69317C150.976 2.80048 151.337 1.94744 151.971 1.31897C152.605 0.690487 153.461 0.337205 154.354 0.335693H268.899C269.791 0.338781 270.645 0.692943 271.276 1.32142C271.908 1.94989 272.267 2.80204 272.275 3.69317V164.704C272.275 165.6 271.92 166.46 271.287 167.094C270.654 167.729 269.796 168.088 268.899 168.091ZM154.354 0.454332C153.495 0.4559 152.673 0.797637 152.065 1.4047C151.458 2.01176 151.117 2.83465 151.115 3.69317V164.704C151.117 165.562 151.458 166.385 152.065 166.992C152.673 167.599 153.495 167.941 154.354 167.942H268.899C269.758 167.941 270.581 167.599 271.188 166.992C271.795 166.385 272.137 165.562 272.138 164.704V3.69317C272.137 2.83465 271.795 2.01176 271.188 1.4047C270.581 0.797637 269.758 0.4559 268.899 0.454332H154.354Z" fill="#EBEBEB"/>
<path d="M201.395 41.7407H162.037V87.375H201.395V41.7407Z" fill="#E6E6E6"/>
<path d="M204.141 41.7407H162.629V87.375H204.141V41.7407Z" fill="#F0F0F0"/>
<path d="M200.664 83.9048V45.2227H166.111V83.9048H200.664Z" fill="white"/>
<path d="M191.79 73.2983H182.821C180.651 73.2951 178.571 72.4315 177.038 70.8968C175.504 69.3621 174.642 67.2818 174.641 65.1122V56.1491C174.641 56.061 174.676 55.9765 174.738 55.9142C174.8 55.8519 174.885 55.8169 174.973 55.8169H183.942C186.112 55.8185 188.194 56.6814 189.729 58.2163C191.263 59.7511 192.126 61.8324 192.128 64.003V72.972C192.127 73.0157 192.118 73.0587 192.1 73.0987C192.083 73.1387 192.058 73.1749 192.026 73.2052C191.995 73.2355 191.958 73.2593 191.917 73.2753C191.877 73.2913 191.833 73.2991 191.79 73.2983ZM175.305 56.4813V65.1122C175.308 67.1046 176.101 69.0144 177.51 70.4232C178.919 71.832 180.828 72.6248 182.821 72.628H191.458V64.003C191.456 62.0101 190.664 60.0994 189.255 58.6903C187.845 57.2811 185.935 56.4888 183.942 56.4872L175.305 56.4813Z" fill="#F0F0F0"/>
<path d="M258.264 58.8956H213.199L217.191 25.8311H254.272L258.264 58.8956Z" fill="#EBEBEB"/>
<path d="M220.661 58.8896H219.938V71.5543H220.661V58.8896Z" fill="#E0E0E0"/>
<path d="M220.298 72.4206C220.776 72.4206 221.164 72.0328 221.164 71.5545C221.164 71.0762 220.776 70.6885 220.298 70.6885C219.819 70.6885 219.432 71.0762 219.432 71.5545C219.432 72.0328 219.819 72.4206 220.298 72.4206Z" fill="#E0E0E0"/>
<path d="M248.377 58.8956H240.629L238.986 25.8311H246.134L248.377 58.8956Z" fill="#F5F5F5"/>
<path d="M237.989 58.8896H233.48V194.541H237.989V58.8896Z" fill="#F0F0F0"/>
<path d="M242.866 194.547H228.6C228.6 193.741 228.919 192.968 229.489 192.397C230.058 191.827 230.831 191.505 231.637 191.504H239.829C240.635 191.505 241.407 191.827 241.977 192.397C242.546 192.968 242.866 193.741 242.866 194.547Z" fill="#F0F0F0"/>
<path d="M237.989 58.8896H233.48V61.6421H237.989V58.8896Z" fill="#E0E0E0"/>
<path d="M230.502 130.44C230.14 130.44 229.778 130.44 229.411 130.476C227.126 130.635 224.904 131.298 222.906 132.418C220.908 133.538 219.183 135.086 217.854 136.952C216.526 138.818 215.627 140.956 215.223 143.21C214.82 145.465 214.92 147.781 215.518 149.992C217.21 156.593 218.028 163.388 217.95 170.202V190.05C217.949 190.393 218.016 190.732 218.147 191.048C218.277 191.364 218.469 191.652 218.711 191.894C218.953 192.135 219.24 192.327 219.557 192.458C219.873 192.588 220.212 192.655 220.554 192.655H263.264V130.44H230.502Z" fill="#F0F0F0"/>
<path d="M278.8 145.953C278.799 143.743 278.326 141.559 277.414 139.547C276.501 137.535 275.169 135.741 273.507 134.285C271.845 132.829 269.891 131.744 267.777 131.104C265.662 130.464 263.435 130.283 261.244 130.573C259.054 130.863 256.951 131.618 255.075 132.786C253.2 133.955 251.596 135.51 250.37 137.349C249.144 139.187 248.325 141.266 247.968 143.447C247.611 145.627 247.723 147.859 248.298 149.992C249.99 156.593 250.807 163.388 250.73 170.202V190.051C250.729 190.393 250.796 190.732 250.926 191.048C251.057 191.364 251.249 191.652 251.491 191.894C251.733 192.136 252.02 192.327 252.336 192.458C252.653 192.589 252.992 192.655 253.334 192.655H273.229C273.92 192.655 274.582 192.38 275.071 191.892C275.559 191.404 275.834 190.741 275.834 190.051V169.04C275.766 162.648 276.564 156.277 278.206 150.099C278.592 148.75 278.791 147.355 278.8 145.953Z" fill="#F5F5F5"/>
<path d="M255.404 154.88H184.66V192.655H255.404V154.88Z" fill="#F0F0F0"/>
<path d="M211.081 105.39H158.88C157.375 105.363 155.882 105.657 154.5 106.251C153.117 106.845 151.877 107.726 150.862 108.837C149.846 109.947 149.079 111.261 148.61 112.691C148.141 114.12 147.982 115.634 148.143 117.13L152.117 163.399H227.785L223.811 117.13C223.491 113.955 222.019 111.008 219.673 108.845C217.328 106.681 214.271 105.453 211.081 105.39Z" fill="#E0E0E0"/>
<path d="M226.43 105.391H173.102C171.67 105.363 170.247 105.641 168.93 106.206C167.614 106.771 166.432 107.61 165.465 108.667C164.498 109.725 163.767 110.976 163.322 112.338C162.876 113.7 162.726 115.142 162.882 116.566L166.909 163.429H242.613L238.585 116.566C238.283 113.537 236.877 110.724 234.636 108.664C232.395 106.603 229.475 105.438 226.43 105.391Z" fill="#F5F5F5"/>
<path d="M185.827 151.434H254.21C255.241 151.434 256.229 151.843 256.958 152.572C257.686 153.3 258.096 154.289 258.096 155.319V162.93C258.096 163.96 257.686 164.948 256.958 165.677C256.229 166.406 255.241 166.815 254.21 166.815H185.827C185.512 166.815 185.211 166.69 184.988 166.468C184.766 166.245 184.641 165.943 184.641 165.629V152.578C184.651 152.271 184.781 151.98 185.002 151.766C185.224 151.553 185.519 151.433 185.827 151.434Z" fill="#E0E0E0"/>
<path d="M146.55 130.441C146.186 130.441 145.824 130.453 145.464 130.477C143.18 130.638 140.959 131.302 138.962 132.423C136.965 133.543 135.24 135.091 133.912 136.957C132.584 138.822 131.684 140.958 131.279 143.212C130.873 145.466 130.971 147.781 131.566 149.993C133.261 156.593 134.078 163.388 133.998 170.203V190.051C133.998 190.742 134.272 191.404 134.76 191.892C135.249 192.381 135.911 192.655 136.602 192.655H179.312V130.441H146.55Z" fill="#F0F0F0"/>
<path d="M194.827 145.952C194.82 143.747 194.343 141.568 193.427 139.561C192.512 137.554 191.179 135.766 189.518 134.315C187.857 132.863 185.905 131.783 183.794 131.146C181.682 130.508 179.459 130.328 177.272 130.618C175.086 130.907 172.986 131.659 171.113 132.824C169.24 133.989 167.637 135.54 166.411 137.374C165.184 139.207 164.363 141.281 164.001 143.457C163.639 145.633 163.746 147.861 164.313 149.992C166.008 156.593 166.826 163.388 166.745 170.202V190.05C166.745 190.393 166.813 190.732 166.944 191.048C167.075 191.365 167.267 191.652 167.51 191.894C167.752 192.136 168.04 192.327 168.357 192.458C168.673 192.589 169.013 192.655 169.355 192.655H189.245C189.587 192.655 189.926 192.588 190.242 192.458C190.559 192.327 190.846 192.135 191.088 191.894C191.33 191.652 191.522 191.364 191.652 191.048C191.783 190.732 191.85 190.393 191.849 190.05V169.04C191.793 162.646 192.603 156.275 194.257 150.099C194.632 148.748 194.823 147.354 194.827 145.952Z" fill="#F5F5F5"/>
<path d="M255.392 194.548H147.656C147.154 194.548 146.673 194.348 146.318 193.993C145.963 193.638 145.764 193.157 145.764 192.655H257.284C257.284 193.157 257.085 193.638 256.73 193.993C256.375 194.348 255.894 194.548 255.392 194.548Z" fill="#E0E0E0"/>
<path d="M40.3563 20.9963H27.3535V194.547H40.3563V20.9963Z" fill="#E6E6E6"/>
<path d="M40.3504 194.547H154.463L154.463 20.9964H40.3504L40.3504 194.547Z" fill="#F5F5F5"/>
<path d="M152.334 194.547V23.553L42.4865 23.553L42.4865 194.547H152.334Z" fill="#E6E6E6"/>
<path d="M51.6777 194.547L51.6777 23.553H42.4832L42.4832 194.547H51.6777Z" fill="#E0E0E0"/>
<path d="M153.49 164.062V161.512H42.4861V164.062H153.49Z" fill="#F5F5F5"/>
<path d="M153.49 128.234V125.684H42.486V128.234H153.49Z" fill="#F5F5F5"/>
<path d="M153.49 92.4112V89.8545H42.486V92.4112H153.49Z" fill="#F5F5F5"/>
<path d="M153.49 56.5761V54.0254L42.486 54.0254V56.5761L153.49 56.5761Z" fill="#F5F5F5"/>
<path d="M52.2727 54.0312H68.7812V29.6926L52.2727 29.6926V54.0312Z" fill="#FAFAFA"/>
<path d="M70.5361 29.687H67.3684C66.8705 29.687 66.4668 30.0907 66.4668 30.5887V53.1241C66.4668 53.622 66.8705 54.0257 67.3684 54.0257H70.5361C71.0341 54.0257 71.4378 53.622 71.4378 53.1241V30.5887C71.4378 30.0907 71.0341 29.687 70.5361 29.687Z" fill="#F0F0F0"/>
<path d="M46.7082 54.0312H63.2168V29.6926L46.7082 29.6926V54.0312Z" fill="#FAFAFA"/>
<path d="M64.9873 29.687H61.8196C61.3217 29.687 60.918 30.0907 60.918 30.5887V53.1241C60.918 53.622 61.3217 54.0257 61.8196 54.0257H64.9873C65.4852 54.0257 65.8889 53.622 65.8889 53.1241V30.5887C65.8889 30.0907 65.4852 29.687 64.9873 29.687Z" fill="#E6E6E6"/>
<path d="M42.4863 29.687H56.7348L55.6018 54.0316H42.4863V29.687Z" fill="#FAFAFA"/>
<path d="M58.5759 29.687H55.248C55.0058 29.7109 54.7817 29.8259 54.621 30.0087C54.4602 30.1914 54.3748 30.4284 54.382 30.6717L53.338 53.0469C53.3223 53.1629 53.3301 53.2809 53.3609 53.3938C53.3918 53.5068 53.445 53.6123 53.5176 53.7042C53.5901 53.7961 53.6803 53.8724 53.783 53.9287C53.8857 53.985 53.9986 54.02 54.1151 54.0316H57.4429C57.684 54.0051 57.9065 53.8893 58.0667 53.7072C58.227 53.525 58.3133 53.2895 58.3089 53.0469L59.3529 30.6717C59.3695 30.5556 59.3623 30.4373 59.3318 30.324C59.3013 30.2108 59.2481 30.1049 59.1754 30.0128C59.1028 29.9207 59.0122 29.8444 58.9091 29.7884C58.806 29.7324 58.6927 29.6979 58.5759 29.687Z" fill="#F0F0F0"/>
<path d="M128.618 54.0254H141.135V33.4772H128.618V54.0254Z" fill="#FAFAFA"/>
<path d="M142.43 33.4834H140.099C139.702 33.4834 139.381 33.8048 139.381 34.2012V53.3138C139.381 53.7102 139.702 54.0316 140.099 54.0316H142.43C142.826 54.0316 143.148 53.7102 143.148 53.3138V34.2012C143.148 33.8048 142.826 33.4834 142.43 33.4834Z" fill="#F0F0F0"/>
<path d="M124.4 54.0254H136.916V33.4772H124.4V54.0254Z" fill="#FAFAFA"/>
<path d="M138.219 33.4834H135.888C135.491 33.4834 135.17 33.8048 135.17 34.2012V53.3138C135.17 53.7102 135.491 54.0316 135.888 54.0316H138.219C138.615 54.0316 138.937 53.7102 138.937 53.3138V34.2012C138.937 33.8048 138.615 33.4834 138.219 33.4834Z" fill="#E6E6E6"/>
<path d="M121.195 33.4834H131.997L131.137 54.0316H121.195V33.4834Z" fill="#FAFAFA"/>
<path d="M133.388 33.4834H130.867C130.523 33.4834 130.233 33.8571 130.209 34.3139L129.42 53.2011C129.42 53.6579 129.663 54.0316 130.013 54.0316H132.54C132.884 54.0316 133.175 53.6579 133.193 53.2011L133.988 34.3139C133.999 33.8571 133.732 33.4834 133.388 33.4834Z" fill="#F0F0F0"/>
<path d="M112.474 54.0259H124.99V33.4777H112.474V54.0259Z" fill="#FAFAFA"/>
<path d="M126.289 33.4834H123.958C123.562 33.4834 123.24 33.8048 123.24 34.2012V53.3138C123.24 53.7102 123.562 54.0316 123.958 54.0316H126.289C126.686 54.0316 127.007 53.7102 127.007 53.3138V34.2012C127.007 33.8048 126.686 33.4834 126.289 33.4834Z" fill="#F0F0F0"/>
<path d="M108.263 54.0254H120.779V33.4772H108.263V54.0254Z" fill="#FAFAFA"/>
<path d="M122.078 33.4834H119.747C119.351 33.4834 119.029 33.8048 119.029 34.2012V53.3138C119.029 53.7102 119.351 54.0316 119.747 54.0316H122.078C122.475 54.0316 122.796 53.7102 122.796 53.3138V34.2012C122.796 33.8048 122.475 33.4834 122.078 33.4834Z" fill="#E6E6E6"/>
<path d="M105.059 33.4834H115.855L115.001 54.0316H105.059V33.4834Z" fill="#FAFAFA"/>
<path d="M117.257 33.4834H114.73C114.386 33.4834 114.096 33.8571 114.078 34.3139L113.301 53.2011C113.301 53.6579 113.55 54.0316 113.894 54.0316H116.415C116.759 54.0316 117.05 53.6579 117.073 53.2011L117.862 34.3139C117.862 33.8571 117.601 33.4834 117.257 33.4834Z" fill="#F0F0F0"/>
<path d="M88.8952 54.0312H97.6211V31.9467H88.8952V54.0312Z" fill="#FAFAFA"/>
<path d="M98.4073 31.9409H97.0252C96.6812 31.9409 96.4023 32.2198 96.4023 32.5638V53.4026C96.4023 53.7466 96.6812 54.0255 97.0252 54.0255H98.4073C98.7513 54.0255 99.0302 53.7466 99.0302 53.4026V32.5638C99.0302 32.2198 98.7513 31.9409 98.4073 31.9409Z" fill="#F0F0F0"/>
<path d="M81.6265 54.0312H91.2422V29.6926H81.6265V54.0312Z" fill="#FAFAFA"/>
<path d="M92.111 29.687H90.5924C90.2124 29.687 89.9043 29.9951 89.9043 30.3751V53.3376C89.9043 53.7176 90.2124 54.0257 90.5924 54.0257H92.111C92.491 54.0257 92.7991 53.7176 92.7991 53.3376V30.3751C92.7991 29.9951 92.491 29.687 92.111 29.687Z" fill="#F5F5F5"/>
<path d="M79.168 29.687H87.4667L86.8083 54.0316H79.168V29.687Z" fill="#FAFAFA"/>
<path d="M88.539 29.687H86.6052C86.3442 29.687 86.1129 30.126 86.101 30.6717L85.5078 53.0469C85.5078 53.5868 85.6917 54.0316 85.9586 54.0316H87.8984C88.1594 54.0316 88.3848 53.5868 88.4026 53.0469L88.9958 30.6717C88.978 30.126 88.8 29.687 88.539 29.687Z" fill="#F0F0F0"/>
<path d="M96.22 89.8604H112.729V65.5216H96.22V89.8604Z" fill="#FAFAFA"/>
<path d="M114.493 65.5156H111.325C110.828 65.5156 110.424 65.9193 110.424 66.4173V88.9527C110.424 89.4506 110.828 89.8543 111.325 89.8543H114.493C114.991 89.8543 115.395 89.4506 115.395 88.9527V66.4173C115.395 65.9193 114.991 65.5156 114.493 65.5156Z" fill="#F0F0F0"/>
<path d="M90.6692 89.8604H107.178V65.5216H90.6692V89.8604Z" fill="#FAFAFA"/>
<path d="M108.936 65.5156H105.769C105.271 65.5156 104.867 65.9193 104.867 66.4173V88.9527C104.867 89.4506 105.271 89.8543 105.769 89.8543H108.936C109.434 89.8543 109.838 89.4506 109.838 88.9527V66.4173C109.838 65.9193 109.434 65.5156 108.936 65.5156Z" fill="#E6E6E6"/>
<path d="M86.4414 65.5156H100.684L99.551 89.8603H86.4414V65.5156Z" fill="#FAFAFA"/>
<path d="M102.526 65.5156H99.1981C98.9559 65.5396 98.7318 65.6545 98.571 65.8373C98.4103 66.0201 98.3249 66.257 98.3321 66.5003L97.2821 88.8756C97.2656 88.9917 97.2727 89.11 97.3033 89.2232C97.3338 89.3365 97.387 89.4424 97.4596 89.5344C97.5323 89.6265 97.6229 89.7029 97.726 89.7589C97.829 89.8149 97.9424 89.8494 98.0592 89.8603H101.387C101.628 89.8337 101.851 89.7179 102.011 89.5358C102.171 89.3536 102.258 89.1181 102.253 88.8756L103.291 66.5003C103.309 66.385 103.302 66.2673 103.273 66.1544C103.244 66.0416 103.191 65.9358 103.12 65.8437C103.048 65.7516 102.959 65.675 102.857 65.6186C102.755 65.5622 102.642 65.5272 102.526 65.5156Z" fill="#F0F0F0"/>
<path d="M121.529 89.8545H131.643V69.3063H121.529V89.8545Z" fill="#FAFAFA"/>
<path d="M132.625 69.312H130.875C130.518 69.312 130.229 69.6015 130.229 69.9586V89.2136C130.229 89.5707 130.518 89.8602 130.875 89.8602H132.625C132.982 89.8602 133.272 89.5707 133.272 89.2136V69.9586C133.272 69.6015 132.982 69.312 132.625 69.312Z" fill="#F0F0F0"/>
<path d="M118.122 89.8545H128.236V69.3063H118.122V89.8545Z" fill="#FAFAFA"/>
<path d="M129.219 69.312H127.469C127.112 69.312 126.822 69.6015 126.822 69.9586V89.2136C126.822 89.5707 127.112 89.8602 127.469 89.8602H129.219C129.576 89.8602 129.865 89.5707 129.865 89.2136V69.9586C129.865 69.6015 129.576 69.312 129.219 69.312Z" fill="#E6E6E6"/>
<path d="M115.529 69.312H124.261L123.567 89.8602H115.529V69.312Z" fill="#FAFAFA"/>
<path d="M125.387 69.312H123.346C123.067 69.312 122.83 69.6857 122.818 70.1425L122.195 89.0297C122.195 89.4865 122.391 89.8602 122.67 89.8602H124.71C124.989 89.8602 125.227 89.4865 125.238 89.0297L125.879 70.1425C125.879 69.6857 125.665 69.312 125.387 69.312Z" fill="#F0F0F0"/>
<path d="M138.405 89.8604H146.781V72.8416H138.405V89.8604Z" fill="#FAFAFA"/>
<path d="M147.593 72.8359H146.139C145.844 72.8359 145.605 73.075 145.605 73.3698V89.3208C145.605 89.6156 145.844 89.8546 146.139 89.8546H147.593C147.888 89.8546 148.127 89.6156 148.127 89.3208V73.3698C148.127 73.075 147.888 72.8359 147.593 72.8359Z" fill="#F0F0F0"/>
<path d="M135.579 89.8604H143.955V72.8416H135.579V89.8604Z" fill="#FAFAFA"/>
<path d="M144.776 72.8359H143.323C143.028 72.8359 142.789 73.075 142.789 73.3698V89.3208C142.789 89.6156 143.028 89.8546 143.323 89.8546H144.776C145.071 89.8546 145.31 89.6156 145.31 89.3208V73.3698C145.31 73.075 145.071 72.8359 144.776 72.8359Z" fill="#E6E6E6"/>
<path d="M133.436 72.8359H140.667L140.091 89.8606H133.436V72.8359Z" fill="#FAFAFA"/>
<path d="M141.601 72.8359H139.91C139.679 72.8359 139.483 73.1444 139.471 73.524L138.943 89.1725C138.943 89.5521 139.104 89.8606 139.335 89.8606H141.025C141.251 89.8606 141.453 89.5521 141.464 89.1725L141.992 73.524C142.004 73.1444 141.826 72.8359 141.601 72.8359Z" fill="#F0F0F0"/>
<path d="M69.7571 89.8545H82.2734V69.3063H69.7571V89.8545Z" fill="#FAFAFA"/>
<path d="M83.5822 69.312H81.251C80.8546 69.312 80.5332 69.6334 80.5332 70.0298V89.1425C80.5332 89.5389 80.8546 89.8602 81.251 89.8602H83.5822C83.9786 89.8602 84.3 89.5389 84.3 89.1425V70.0298C84.3 69.6334 83.9786 69.312 83.5822 69.312Z" fill="#F0F0F0"/>
<path d="M65.5539 89.8545H78.0703V69.3063H65.5539V89.8545Z" fill="#FAFAFA"/>
<path d="M79.3635 69.312H77.0322C76.6358 69.312 76.3145 69.6334 76.3145 70.0298V89.1425C76.3145 89.5389 76.6358 89.8602 77.0322 89.8602H79.3635C79.7599 89.8602 80.0812 89.5389 80.0812 89.1425V70.0298C80.0812 69.6334 79.7599 69.312 79.3635 69.312Z" fill="#E6E6E6"/>
<path d="M62.3457 69.312H73.1477L72.2876 89.8602H62.3457V69.312Z" fill="#FAFAFA"/>
<path d="M74.5405 69.312H72.0194C71.8262 69.344 71.6517 69.4467 71.53 69.6002C71.4083 69.7537 71.3481 69.947 71.361 70.1425L70.5898 89.0297C70.5898 89.4865 70.8331 89.8602 71.183 89.8602H73.7041C73.8974 89.8282 74.0718 89.7255 74.1935 89.572C74.3152 89.4185 74.3755 89.2252 74.3626 89.0297L75.1515 70.1425C75.1515 69.6857 74.8846 69.312 74.5405 69.312Z" fill="#F0F0F0"/>
<path d="M52.2116 89.8604H60.9375V67.7758H52.2116V89.8604Z" fill="#FAFAFA"/>
<path d="M61.7218 67.7695H60.3397C59.9957 67.7695 59.7168 68.0484 59.7168 68.3924V89.2313C59.7168 89.5752 59.9957 89.8541 60.3397 89.8541H61.7218C62.0658 89.8541 62.3446 89.5752 62.3446 89.2313V68.3924C62.3446 68.0484 62.0658 67.7695 61.7218 67.7695Z" fill="#F0F0F0"/>
<path d="M44.9449 89.8604H54.5605V65.5216H44.9449V89.8604Z" fill="#FAFAFA"/>
<path d="M55.4215 65.5156H53.9029C53.5229 65.5156 53.2148 65.8237 53.2148 66.2037V89.1662C53.2148 89.5463 53.5229 89.8543 53.9029 89.8543H55.4215C55.8016 89.8543 56.1096 89.5463 56.1096 89.1662V66.2037C56.1096 65.8237 55.8016 65.5156 55.4215 65.5156Z" fill="#F5F5F5"/>
<path d="M42.4863 65.5156H50.7851L50.1267 89.8603H42.4863V65.5156Z" fill="#FAFAFA"/>
<path d="M51.8555 65.5156H49.9158C49.6488 65.5156 49.4234 65.9546 49.4116 66.5003L48.8184 88.8756C48.8184 89.4154 49.0082 89.8603 49.2751 89.8603H51.1911C51.4581 89.8603 51.6835 89.4154 51.6953 88.8756L52.2885 66.5003C52.3182 65.9546 52.1165 65.5156 51.8555 65.5156Z" fill="#F0F0F0"/>
<path d="M52.2727 125.689H68.7812V101.351H52.2727V125.689Z" fill="#FAFAFA"/>
<path d="M70.5361 101.345H67.3684C66.8705 101.345 66.4668 101.748 66.4668 102.246V124.782C66.4668 125.28 66.8705 125.683 67.3684 125.683H70.5361C71.0341 125.683 71.4378 125.28 71.4378 124.782V102.246C71.4378 101.748 71.0341 101.345 70.5361 101.345Z" fill="#F0F0F0"/>
<path d="M46.7082 125.689H63.2168V101.351H46.7082V125.689Z" fill="#FAFAFA"/>
<path d="M64.9873 101.345H61.8196C61.3217 101.345 60.918 101.748 60.918 102.246V124.782C60.918 125.28 61.3217 125.683 61.8196 125.683H64.9873C65.4852 125.683 65.8889 125.28 65.8889 124.782V102.246C65.8889 101.748 65.4852 101.345 64.9873 101.345Z" fill="#E6E6E6"/>
<path d="M42.4863 101.344H56.7348L55.6018 125.689H42.4863V101.344Z" fill="#FAFAFA"/>
<path d="M58.5759 101.345H55.248C55.0058 101.369 54.7817 101.484 54.621 101.666C54.4602 101.849 54.3748 102.086 54.382 102.329L53.338 124.705C53.3223 124.821 53.3301 124.939 53.3609 125.052C53.3918 125.164 53.445 125.27 53.5176 125.362C53.5901 125.454 53.6803 125.53 53.783 125.586C53.8857 125.643 53.9986 125.678 54.1151 125.689H57.4429C57.684 125.663 57.9065 125.547 58.0667 125.365C58.227 125.183 58.3133 124.947 58.3089 124.705L59.3529 102.329C59.3695 102.213 59.3623 102.095 59.3318 101.982C59.3013 101.869 59.2481 101.763 59.1754 101.671C59.1028 101.578 59.0122 101.502 58.9091 101.446C58.806 101.39 58.6927 101.356 58.5759 101.345Z" fill="#F0F0F0"/>
<path d="M128.618 125.684H141.135V105.135H128.618V125.684Z" fill="#FAFAFA"/>
<path d="M142.43 105.141H140.099C139.702 105.141 139.381 105.462 139.381 105.858V124.971C139.381 125.367 139.702 125.689 140.099 125.689H142.43C142.826 125.689 143.148 125.367 143.148 124.971V105.858C143.148 105.462 142.826 105.141 142.43 105.141Z" fill="#F0F0F0"/>
<path d="M124.4 125.684H136.916V105.135H124.4V125.684Z" fill="#FAFAFA"/>
<path d="M138.219 105.141H135.888C135.491 105.141 135.17 105.462 135.17 105.858V124.971C135.17 125.367 135.491 125.689 135.888 125.689H138.219C138.615 125.689 138.937 125.367 138.937 124.971V105.858C138.937 105.462 138.615 105.141 138.219 105.141Z" fill="#E6E6E6"/>
<path d="M121.195 105.141H131.997L131.137 125.689H121.195V105.141Z" fill="#FAFAFA"/>
<path d="M133.388 105.141H130.867C130.523 105.141 130.233 105.514 130.209 105.971L129.42 124.858C129.42 125.315 129.663 125.689 130.013 125.689H132.54C132.884 125.689 133.175 125.315 133.193 124.858L133.988 105.971C133.999 105.514 133.732 105.141 133.388 105.141Z" fill="#F0F0F0"/>
<path d="M112.474 125.683H124.99V105.135H112.474V125.683Z" fill="#FAFAFA"/>
<path d="M126.289 105.141H123.958C123.562 105.141 123.24 105.462 123.24 105.858V124.971C123.24 125.367 123.562 125.689 123.958 125.689H126.289C126.686 125.689 127.007 125.367 127.007 124.971V105.858C127.007 105.462 126.686 105.141 126.289 105.141Z" fill="#F0F0F0"/>
<path d="M108.263 125.683H120.779V105.135H108.263V125.683Z" fill="#FAFAFA"/>
<path d="M122.078 105.141H119.747C119.351 105.141 119.029 105.462 119.029 105.858V124.971C119.029 125.367 119.351 125.689 119.747 125.689H122.078C122.475 125.689 122.796 125.367 122.796 124.971V105.858C122.796 105.462 122.475 105.141 122.078 105.141Z" fill="#E6E6E6"/>
<path d="M105.059 105.141H115.855L115.001 125.689H105.059V105.141Z" fill="#FAFAFA"/>
<path d="M117.257 105.141H114.73C114.386 105.141 114.096 105.514 114.078 105.971L113.301 124.858C113.301 125.315 113.55 125.689 113.894 125.689H116.415C116.759 125.689 117.05 125.315 117.073 124.858L117.862 105.971C117.862 105.514 117.601 105.141 117.257 105.141Z" fill="#F0F0F0"/>
<path d="M88.8952 125.689H97.6211V103.605H88.8952V125.689Z" fill="#FAFAFA"/>
<path d="M98.4073 103.599H97.0252C96.6812 103.599 96.4023 103.877 96.4023 104.221V125.06C96.4023 125.404 96.6812 125.683 97.0252 125.683H98.4073C98.7513 125.683 99.0302 125.404 99.0302 125.06V104.221C99.0302 103.877 98.7513 103.599 98.4073 103.599Z" fill="#F0F0F0"/>
<path d="M81.6265 125.689H91.2422V101.351H81.6265V125.689Z" fill="#FAFAFA"/>
<path d="M92.111 101.345H90.5924C90.2124 101.345 89.9043 101.653 89.9043 102.033V124.995C89.9043 125.375 90.2124 125.683 90.5924 125.683H92.111C92.491 125.683 92.7991 125.375 92.7991 124.995V102.033C92.7991 101.653 92.491 101.345 92.111 101.345Z" fill="#F5F5F5"/>
<path d="M79.168 101.345H87.4667L86.8083 125.689H79.168V101.345Z" fill="#FAFAFA"/>
<path d="M88.539 101.345H86.6052C86.3442 101.345 86.1129 101.784 86.101 102.329L85.5078 124.705C85.5078 125.244 85.6917 125.689 85.9586 125.689H87.8984C88.1594 125.689 88.3848 125.244 88.4026 124.705L88.9958 102.329C88.978 101.772 88.8 101.345 88.539 101.345Z" fill="#F0F0F0"/>
<path d="M48.7495 194.547H59.3262V170.208H48.7495V194.547Z" fill="#FAFAFA"/>
<path d="M60.3173 170.203H58.5674C58.171 170.203 57.8496 170.524 57.8496 170.92V193.824C57.8496 194.22 58.171 194.541 58.5674 194.541H60.3173C60.7137 194.541 61.0351 194.22 61.0351 193.824V170.92C61.0351 170.524 60.7137 170.203 60.3173 170.203Z" fill="#F0F0F0"/>
<path d="M45.1968 194.547H55.7734V170.208H45.1968V194.547Z" fill="#FAFAFA"/>
<path d="M56.7567 170.203H55.0068C54.6104 170.203 54.2891 170.524 54.2891 170.92V193.824C54.2891 194.22 54.6104 194.541 55.0068 194.541H56.7567C57.1532 194.541 57.4745 194.22 57.4745 193.824V170.92C57.4745 170.524 57.1532 170.203 56.7567 170.203Z" fill="#E6E6E6"/>
<path d="M42.4863 170.208H51.6096L50.8859 194.547H42.4863V170.208Z" fill="#FAFAFA"/>
<path d="M52.795 170.203H50.6595C50.3688 170.203 50.1197 170.648 50.1019 171.187L49.4375 193.563C49.4375 194.108 49.6451 194.547 49.9358 194.547H52.0653C52.356 194.547 52.6052 194.108 52.6229 193.563L53.2873 171.175C53.3051 170.648 53.0797 170.203 52.795 170.203Z" fill="#F0F0F0"/>
<path d="M137.24 194.547H148.268V173.999H137.24V194.547Z" fill="#FAFAFA"/>
<path d="M149.372 173.999H147.403C147.029 173.999 146.727 174.302 146.727 174.675V193.871C146.727 194.244 147.029 194.547 147.403 194.547H149.372C149.746 194.547 150.048 194.244 150.048 193.871V174.675C150.048 174.302 149.746 173.999 149.372 173.999Z" fill="#F0F0F0"/>
<path d="M133.527 194.547H144.555V173.999H133.527V194.547Z" fill="#FAFAFA"/>
<path d="M145.659 173.999H143.69C143.316 173.999 143.014 174.302 143.014 174.675V193.871C143.014 194.244 143.316 194.547 143.69 194.547H145.659C146.033 194.547 146.336 194.244 146.336 193.871V174.675C146.336 174.302 146.033 173.999 145.659 173.999Z" fill="#E6E6E6"/>
<path d="M130.705 173.999H140.22L139.461 194.547H130.705V173.999Z" fill="#FAFAFA"/>
<path d="M141.451 173.999H139.227C138.924 173.999 138.633 174.373 138.633 174.829L137.951 193.717C137.951 194.174 138.165 194.547 138.467 194.547H140.692C140.994 194.547 141.255 194.174 141.285 193.717L141.979 174.829C141.985 174.373 141.771 173.999 141.451 173.999Z" fill="#F0F0F0"/>
<path d="M123.016 194.547H134.043V173.999H123.016V194.547Z" fill="#FAFAFA"/>
<path d="M135.144 173.999H133.174C132.801 173.999 132.498 174.302 132.498 174.675V193.871C132.498 194.244 132.801 194.547 133.174 194.547H135.144C135.517 194.547 135.82 194.244 135.82 193.871V174.675C135.82 174.302 135.517 173.999 135.144 173.999Z" fill="#F0F0F0"/>
<path d="M119.305 194.547H130.332V173.999H119.305V194.547Z" fill="#FAFAFA"/>
<path d="M131.433 173.999H129.463C129.09 173.999 128.787 174.302 128.787 174.675V193.871C128.787 194.244 129.09 194.547 129.463 194.547H131.433C131.806 194.547 132.109 194.244 132.109 193.871V174.675C132.109 174.302 131.806 173.999 131.433 173.999Z" fill="#E6E6E6"/>
<path d="M116.479 173.999H125.993L125.24 194.547H116.479V173.999Z" fill="#FAFAFA"/>
<path d="M127.23 173.999H125.006C124.703 173.999 124.442 174.373 124.413 174.829L123.73 193.717C123.73 194.174 123.944 194.547 124.247 194.547H126.471C126.774 194.547 127.064 194.174 127.064 193.717L127.758 174.829C127.764 174.373 127.539 173.999 127.23 173.999Z" fill="#F0F0F0"/>
<path d="M111.691 194.547H119.379V172.462H111.691V194.547Z" fill="#FAFAFA"/>
<path d="M118.894 172.463H120.039C120.196 172.463 120.347 172.525 120.458 172.637C120.57 172.748 120.632 172.899 120.632 173.056V193.972C120.632 194.129 120.57 194.28 120.458 194.392C120.347 194.503 120.196 194.565 120.039 194.565H118.894C118.737 194.565 118.586 194.503 118.475 194.392C118.363 194.28 118.301 194.129 118.301 193.972V173.044C118.304 172.889 118.368 172.741 118.479 172.632C118.59 172.524 118.739 172.463 118.894 172.463Z" fill="#F0F0F0"/>
<path d="M105.293 194.547H113.764V170.208H105.293V194.547Z" fill="#FAFAFA"/>
<path d="M114.48 170.203H113.223C112.866 170.203 112.576 170.492 112.576 170.849V193.895C112.576 194.252 112.866 194.541 113.223 194.541H114.48C114.837 194.541 115.127 194.252 115.127 193.895V170.849C115.127 170.492 114.837 170.203 114.48 170.203Z" fill="#F5F5F5"/>
<path d="M103.121 170.208H110.435L109.854 194.547H103.121V170.208Z" fill="#FAFAFA"/>
<path d="M111.377 170.203H109.668C109.437 170.203 109.235 170.648 109.223 171.187L108.689 193.563C108.689 194.108 108.856 194.547 109.087 194.547H110.795C111.027 194.547 111.228 194.108 111.24 193.563L111.774 171.187C111.786 170.648 111.608 170.203 111.377 170.203Z" fill="#F0F0F0"/>
<path d="M96.22 161.518H112.729V137.179H96.22V161.518Z" fill="#FAFAFA"/>
<path d="M114.493 137.173H111.325C110.828 137.173 110.424 137.577 110.424 138.075V160.61C110.424 161.108 110.828 161.512 111.325 161.512H114.493C114.991 161.512 115.395 161.108 115.395 160.61V138.075C115.395 137.577 114.991 137.173 114.493 137.173Z" fill="#F0F0F0"/>
<path d="M90.6692 161.518H107.178V137.179H90.6692V161.518Z" fill="#FAFAFA"/>
<path d="M108.936 137.173H105.769C105.271 137.173 104.867 137.577 104.867 138.075V160.61C104.867 161.108 105.271 161.512 105.769 161.512H108.936C109.434 161.512 109.838 161.108 109.838 160.61V138.075C109.838 137.577 109.434 137.173 108.936 137.173Z" fill="#E6E6E6"/>
<path d="M86.4414 137.173H100.684L99.551 161.517H86.4414V137.173Z" fill="#FAFAFA"/>
<path d="M102.526 137.173H99.1981C98.9565 137.199 98.7332 137.314 98.5727 137.496C98.4122 137.679 98.3263 137.915 98.3321 138.158L97.2821 160.533C97.2656 160.649 97.2727 160.768 97.3033 160.881C97.3338 160.994 97.387 161.1 97.4596 161.192C97.5323 161.284 97.6229 161.361 97.726 161.417C97.829 161.473 97.9424 161.507 98.0592 161.518H101.387C101.628 161.491 101.851 161.376 102.011 161.193C102.171 161.011 102.258 160.776 102.253 160.533L103.291 138.158C103.308 138.043 103.301 137.925 103.271 137.813C103.241 137.7 103.189 137.595 103.118 137.503C103.046 137.411 102.957 137.335 102.855 137.278C102.754 137.221 102.642 137.186 102.526 137.173Z" fill="#F0F0F0"/>
<path d="M121.529 161.512H131.643V140.964H121.529V161.512Z" fill="#FAFAFA"/>
<path d="M132.625 140.97H130.875C130.518 140.97 130.229 141.259 130.229 141.616V160.871C130.229 161.228 130.518 161.518 130.875 161.518H132.625C132.982 161.518 133.272 161.228 133.272 160.871V141.616C133.272 141.259 132.982 140.97 132.625 140.97Z" fill="#F0F0F0"/>
<path d="M118.122 161.512H128.236V140.964H118.122V161.512Z" fill="#FAFAFA"/>
<path d="M129.219 140.97H127.469C127.112 140.97 126.822 141.26 126.822 141.617V160.872C126.822 161.229 127.112 161.518 127.469 161.518H129.219C129.576 161.518 129.865 161.229 129.865 160.872V141.617C129.865 141.26 129.576 140.97 129.219 140.97Z" fill="#E6E6E6"/>
<path d="M115.529 140.97H124.261L123.567 161.518H115.529V140.97Z" fill="#FAFAFA"/>
<path d="M125.387 140.97H123.346C123.067 140.97 122.83 141.344 122.818 141.801L122.195 160.688C122.195 161.145 122.391 161.518 122.67 161.518H124.71C124.989 161.518 125.227 161.145 125.238 160.688L125.879 141.801C125.879 141.344 125.665 140.97 125.387 140.97Z" fill="#F0F0F0"/>
<path d="M138.405 161.518H146.781V144.499H138.405V161.518Z" fill="#FAFAFA"/>
<path d="M147.593 144.493H146.139C145.844 144.493 145.605 144.732 145.605 145.027V160.978C145.605 161.273 145.844 161.512 146.139 161.512H147.593C147.888 161.512 148.127 161.273 148.127 160.978V145.027C148.127 144.732 147.888 144.493 147.593 144.493Z" fill="#F0F0F0"/>
<path d="M135.579 161.518H143.955V144.499H135.579V161.518Z" fill="#FAFAFA"/>
<path d="M144.776 144.493H143.323C143.028 144.493 142.789 144.732 142.789 145.027V160.978C142.789 161.273 143.028 161.512 143.323 161.512H144.776C145.071 161.512 145.31 161.273 145.31 160.978V145.027C145.31 144.732 145.071 144.493 144.776 144.493Z" fill="#E6E6E6"/>
<path d="M133.436 144.493H140.667L140.091 161.518H133.436V144.493Z" fill="#FAFAFA"/>
<path d="M141.601 144.481H139.91C139.679 144.481 139.483 144.79 139.471 145.17L138.943 160.818C138.943 161.198 139.104 161.506 139.335 161.506H141.025C141.251 161.506 141.453 161.198 141.464 160.818L141.992 145.17C142.004 144.802 141.826 144.481 141.601 144.481Z" fill="#F0F0F0"/>
<path d="M69.7571 161.512H82.2734V140.964H69.7571V161.512Z" fill="#FAFAFA"/>
<path d="M83.5822 140.97H81.251C80.8546 140.97 80.5332 141.291 80.5332 141.688V160.8C80.5332 161.197 80.8546 161.518 81.251 161.518H83.5822C83.9786 161.518 84.3 161.197 84.3 160.8V141.688C84.3 141.291 83.9786 140.97 83.5822 140.97Z" fill="#F0F0F0"/>
<path d="M65.5539 161.512H78.0703V140.964H65.5539V161.512Z" fill="#FAFAFA"/>
<path d="M79.3635 140.97H77.0322C76.6358 140.97 76.3145 141.291 76.3145 141.688V160.8C76.3145 161.197 76.6358 161.518 77.0322 161.518H79.3635C79.7599 161.518 80.0812 161.197 80.0812 160.8V141.688C80.0812 141.291 79.7599 140.97 79.3635 140.97Z" fill="#E6E6E6"/>
<path d="M62.3457 140.97H73.1477L72.2876 161.518H62.3457V140.97Z" fill="#FAFAFA"/>
<path d="M74.5405 140.97H72.0194C71.8262 141.002 71.6517 141.104 71.53 141.258C71.4083 141.411 71.3481 141.605 71.361 141.8L70.5898 160.687C70.5898 161.144 70.8331 161.518 71.183 161.518H73.7041C73.8974 161.486 74.0718 161.383 74.1935 161.23C74.3152 161.076 74.3755 160.883 74.3626 160.687L75.1515 141.8C75.1515 141.343 74.8846 140.97 74.5405 140.97Z" fill="#F0F0F0"/>
<path d="M52.2116 161.518H60.9375V139.434H52.2116V161.518Z" fill="#FAFAFA"/>
<path d="M61.7218 139.428H60.3397C59.9957 139.428 59.7168 139.707 59.7168 140.051V160.889C59.7168 161.233 59.9957 161.512 60.3397 161.512H61.7218C62.0658 161.512 62.3446 161.233 62.3446 160.889V140.051C62.3446 139.707 62.0658 139.428 61.7218 139.428Z" fill="#F0F0F0"/>
<path d="M44.9449 161.518H54.5605V137.179H44.9449V161.518Z" fill="#FAFAFA"/>
<path d="M55.4215 137.173H53.9029C53.5229 137.173 53.2148 137.481 53.2148 137.861V160.823C53.2148 161.203 53.5229 161.512 53.9029 161.512H55.4215C55.8016 161.512 56.1096 161.203 56.1096 160.823V137.861C56.1096 137.481 55.8016 137.173 55.4215 137.173Z" fill="#F5F5F5"/>
<path d="M42.4863 137.173H50.7851L50.1267 161.518H42.4863V137.173Z" fill="#FAFAFA"/>
<path d="M51.8555 137.173H49.9158C49.6488 137.173 49.4234 137.618 49.4116 138.158L48.8184 160.533C48.8184 161.073 49.0082 161.517 49.2751 161.517H51.1911C51.4581 161.517 51.6835 161.073 51.6953 160.533L52.2885 138.158C52.3182 137.618 52.1165 137.173 51.8555 137.173Z" fill="#F0F0F0"/>
<path d="M91.5515 194.547H103.789V168.257H91.5515V194.547Z" fill="#FAFAFA"/>
<path d="M104.959 168.257H102.889C102.443 168.257 102.082 168.618 102.082 169.064V193.74C102.082 194.186 102.443 194.547 102.889 194.547H104.959C105.405 194.547 105.766 194.186 105.766 193.74V169.064C105.766 168.618 105.405 168.257 104.959 168.257Z" fill="#F0F0F0"/>
<path d="M87.4382 194.547H99.6758V168.257H87.4382V194.547Z" fill="#FAFAFA"/>
<path d="M100.838 168.257H98.7677C98.3221 168.257 97.9609 168.618 97.9609 169.064V193.74C97.9609 194.186 98.3221 194.547 98.7677 194.547H100.838C101.283 194.547 101.645 194.186 101.645 193.74V169.064C101.645 168.618 101.283 168.257 100.838 168.257Z" fill="#E6E6E6"/>
<path d="M84.2969 168.257H94.8557L94.0193 194.547H84.2969V168.257Z" fill="#FAFAFA"/>
<path d="M96.2272 168.257H93.7595C93.4214 168.257 93.1307 168.731 93.1129 169.319L92.3418 193.485C92.3418 194.079 92.5791 194.547 92.935 194.547H95.4027C95.7408 194.547 95.9959 194.073 96.0433 193.485L96.8145 169.319C96.8204 168.731 96.5594 168.257 96.2272 168.257Z" fill="#F0F0F0"/>
<path d="M73.3042 194.547H83.8809V171.662H73.3042V194.547Z" fill="#FAFAFA"/>
<path d="M84.8898 171.662H83.1043C82.7177 171.662 82.4043 171.975 82.4043 172.362V193.848C82.4043 194.234 82.7177 194.547 83.1043 194.547H84.8898C85.2764 194.547 85.5897 194.234 85.5897 193.848V172.362C85.5897 171.975 85.2764 171.662 84.8898 171.662Z" fill="#F0F0F0"/>
<path d="M69.7437 194.547H80.3203V171.662H69.7437V194.547Z" fill="#FAFAFA"/>
<path d="M81.3331 171.662H79.5476C79.161 171.662 78.8477 171.975 78.8477 172.362V193.848C78.8477 194.234 79.161 194.547 79.5476 194.547H81.3331C81.7197 194.547 82.0331 194.234 82.0331 193.848V172.362C82.0331 171.975 81.7197 171.662 81.3331 171.662Z" fill="#E6E6E6"/>
<path d="M67.041 171.662H76.1643L75.4406 194.547H67.041V171.662Z" fill="#FAFAFA"/>
<path d="M77.3476 171.662H75.2181C74.9274 171.662 74.6783 172.077 74.6605 172.587L73.9961 193.622C73.9961 194.132 74.1978 194.547 74.4884 194.547H76.6239C76.9146 194.547 77.1637 194.132 77.1756 193.622L77.8459 172.587C77.8637 172.077 77.6383 171.662 77.3476 171.662Z" fill="#F0F0F0"/>
<path d="M148.299 221.336C211.82 221.336 263.314 218.329 263.314 214.621C263.314 210.912 211.82 207.906 148.299 207.906C84.7788 207.906 33.2852 210.912 33.2852 214.621C33.2852 218.329 84.7788 221.336 148.299 221.336Z" fill="#F5F5F5"/>
<path d="M136.513 213.067C136.573 213.25 136.588 213.444 136.555 213.634C136.523 213.824 136.446 214.003 136.329 214.156C136.212 214.309 136.06 214.431 135.885 214.512C135.711 214.593 135.519 214.631 135.327 214.621H52.6951C50.1147 214.621 50.1147 197.816 52.6951 197.816H135.351C135.542 197.807 135.733 197.844 135.907 197.925C136.081 198.005 136.233 198.127 136.349 198.279C136.466 198.431 136.544 198.61 136.577 198.799C136.609 198.987 136.596 199.182 136.537 199.364C135.505 202.567 135.505 209.869 136.513 213.067Z" fill="#A91418"/>
<path opacity="0.8" d="M136.394 199.779H86.251C84.2757 199.779 84.2757 212.658 86.251 212.658H136.394C135.545 209.425 135.545 203.006 136.394 199.779Z" fill="white"/>
<path opacity="0.2" d="M83.7546 213.067C83.8145 213.25 83.829 213.444 83.7969 213.634C83.7648 213.824 83.687 214.003 83.5702 214.156C83.4534 214.309 83.3012 214.431 83.1267 214.512C82.9521 214.593 82.7605 214.631 82.5683 214.621H52.6951C50.1147 214.621 50.1147 197.816 52.6951 197.816H82.592C82.7835 197.807 82.9744 197.844 83.1483 197.925C83.3223 198.005 83.474 198.127 83.5906 198.279C83.7073 198.431 83.7853 198.61 83.818 198.799C83.8507 198.987 83.8371 199.182 83.7784 199.364C82.7462 202.567 82.7462 209.869 83.7546 213.067Z" fill="black"/>
<path d="M65.4368 197.816H58.6091C56.0287 197.816 56.0287 214.621 58.6091 214.621H65.4368C62.8801 214.621 62.8801 197.816 65.4368 197.816Z" fill="#A91418"/>
<path d="M70.8196 197.816H68.1384C65.558 197.816 65.558 214.621 68.1384 214.621H70.8196C68.2215 214.621 68.2215 197.816 70.8196 197.816Z" fill="#A91418"/>
<path d="M47.8787 196.422C47.594 197.11 48.2939 197.816 49.243 197.816H123.558C126.589 197.816 126.589 182.708 123.558 182.708H49.2371C48.288 182.708 47.588 183.407 47.8728 184.102C49.0592 186.979 49.0592 193.545 47.8787 196.422Z" fill="#263238"/>
<path opacity="0.2" d="M47.8787 196.422C47.594 197.11 48.2939 197.816 49.243 197.816H85.6829C88.7141 197.816 88.7141 182.708 85.6829 182.708H49.2371C48.288 182.708 47.588 183.407 47.8728 184.102C49.0592 186.979 49.0592 193.545 47.8787 196.422Z" fill="black"/>
<path opacity="0.8" d="M48.0098 184.469H84.1945C86.5139 184.469 86.5139 196.048 84.1945 196.048H48.0098C49.0063 193.123 49.0063 187.375 48.0098 184.469Z" fill="white"/>
<path opacity="0.2" d="M96.2148 186.076C95.9893 185.406 96.6419 184.753 97.5435 184.753H118.347C120.553 184.753 120.553 195.763 118.347 195.763H97.5435C96.6419 195.763 95.9893 195.116 96.2148 194.446C96.9266 191.702 96.9266 188.821 96.2148 186.076Z" fill="white"/>
<path d="M246.61 189.677C246.676 189.878 246.694 190.091 246.665 190.3C246.636 190.509 246.559 190.709 246.44 190.883C246.321 191.058 246.164 191.203 245.981 191.308C245.798 191.412 245.593 191.473 245.382 191.486H158.064C155.335 191.486 155.335 171.911 158.064 171.911H245.382C245.589 171.925 245.791 171.986 245.971 172.089C246.152 172.192 246.307 172.334 246.425 172.505C246.543 172.676 246.621 172.871 246.653 173.077C246.685 173.282 246.67 173.492 246.61 173.691C245.548 177.457 245.548 185.958 246.61 189.677Z" fill="#A91418"/>
<path opacity="0.5" d="M246.61 189.677C246.676 189.878 246.694 190.091 246.665 190.3C246.636 190.509 246.559 190.709 246.44 190.883C246.321 191.058 246.164 191.203 245.981 191.308C245.798 191.412 245.593 191.473 245.382 191.486H158.064C155.335 191.486 155.335 171.911 158.064 171.911H245.382C245.589 171.925 245.791 171.986 245.971 172.089C246.152 172.192 246.307 172.334 246.425 172.505C246.543 172.676 246.621 172.871 246.653 173.077C246.685 173.282 246.67 173.492 246.61 173.691C245.548 177.457 245.548 185.958 246.61 189.677Z" fill="white"/>
<path opacity="0.8" d="M246.491 174.212H193.513C191.425 174.212 191.425 189.196 193.513 189.196H246.491C245.584 185.442 245.584 177.973 246.491 174.212Z" fill="white"/>
<path opacity="0.6" d="M190.874 189.677C190.939 189.878 190.958 190.091 190.929 190.3C190.899 190.509 190.822 190.709 190.704 190.883C190.585 191.058 190.428 191.203 190.245 191.308C190.061 191.412 189.856 191.473 189.646 191.486H158.064C155.335 191.486 155.335 171.911 158.064 171.911H189.646C189.853 171.925 190.054 171.986 190.235 172.089C190.415 172.192 190.57 172.334 190.688 172.505C190.806 172.676 190.884 172.871 190.916 173.077C190.948 173.282 190.934 173.492 190.874 173.691C189.824 177.457 189.824 185.958 190.874 189.677Z" fill="#A91418"/>
<path opacity="0.5" d="M178.06 173.376C178.122 173.223 178.147 173.057 178.133 172.893C178.119 172.728 178.067 172.569 177.981 172.428C177.894 172.287 177.776 172.169 177.635 172.082C177.494 171.995 177.335 171.943 177.17 171.929H165.129C162.4 171.929 162.4 191.504 165.129 191.504H177.17C177.335 191.489 177.494 191.436 177.635 191.349C177.776 191.261 177.894 191.142 177.98 191.001C178.067 190.86 178.119 190.7 178.133 190.535C178.147 190.37 178.122 190.204 178.06 190.051C176.844 186.414 176.844 177.001 178.06 173.376Z" fill="white"/>
<path d="M240.347 212.468C240.417 212.728 240.424 213.001 240.368 213.265C240.312 213.528 240.194 213.774 240.023 213.983C239.853 214.192 239.635 214.357 239.388 214.465C239.141 214.573 238.872 214.62 238.603 214.603H147.88C144.006 214.603 144.001 191.469 147.88 191.469H238.639C238.908 191.452 239.177 191.499 239.424 191.607C239.671 191.715 239.888 191.88 240.059 192.089C240.229 192.297 240.347 192.544 240.404 192.807C240.46 193.071 240.453 193.344 240.383 193.604C238.834 198.012 238.84 208.066 240.347 212.468Z" fill="#A91418"/>
<path opacity="0.2" d="M240.347 212.468C240.417 212.728 240.424 213.001 240.368 213.265C240.312 213.528 240.194 213.774 240.023 213.983C239.853 214.192 239.635 214.357 239.388 214.465C239.141 214.573 238.872 214.62 238.603 214.603H147.88C144.006 214.603 144.001 191.469 147.88 191.469H238.639C238.908 191.452 239.177 191.499 239.424 191.607C239.671 191.715 239.888 191.88 240.059 192.089C240.229 192.297 240.347 192.544 240.404 192.807C240.46 193.071 240.453 193.344 240.383 193.604C238.834 198.012 238.84 208.066 240.347 212.468Z" fill="white"/>
<path opacity="0.8" d="M240.169 194.174H185.316C182.35 194.174 182.35 211.898 185.316 211.898H240.175C238.905 207.455 238.905 198.623 240.169 194.174Z" fill="white"/>
<path opacity="0.6" d="M181.567 212.479C181.639 212.739 181.647 213.012 181.592 213.276C181.536 213.539 181.419 213.786 181.249 213.995C181.079 214.204 180.861 214.369 180.614 214.477C180.367 214.585 180.098 214.632 179.829 214.615H147.88C144.006 214.615 144.001 191.48 147.88 191.48H179.829C180.098 191.464 180.367 191.511 180.614 191.619C180.861 191.727 181.079 191.892 181.25 192.1C181.42 192.309 181.538 192.555 181.595 192.819C181.651 193.083 181.644 193.356 181.573 193.616C180.061 198.023 180.061 208.072 181.567 212.479Z" fill="#A91418"/>
<path opacity="0.5" d="M162.43 192.287C162.48 192.202 162.505 192.106 162.503 192.007C162.501 191.909 162.472 191.814 162.42 191.731C162.367 191.648 162.292 191.582 162.204 191.538C162.116 191.495 162.018 191.477 161.92 191.486H156.493C152.625 191.486 152.625 214.621 156.493 214.621H161.944C162.042 214.63 162.14 214.612 162.228 214.568C162.316 214.525 162.391 214.459 162.443 214.376C162.496 214.293 162.525 214.197 162.527 214.099C162.529 214.001 162.504 213.905 162.454 213.82C160.099 210.243 160.099 195.858 162.43 192.287Z" fill="white"/>
<path opacity="0.5" d="M170.901 192.287C170.95 192.202 170.975 192.105 170.972 192.007C170.97 191.909 170.942 191.813 170.889 191.73C170.837 191.647 170.762 191.58 170.675 191.536C170.587 191.492 170.489 191.473 170.391 191.481H164.963C161.096 191.481 161.096 214.615 164.963 214.615H170.391C170.488 214.623 170.586 214.604 170.673 214.56C170.76 214.517 170.834 214.45 170.886 214.367C170.938 214.285 170.966 214.19 170.968 214.092C170.969 213.995 170.944 213.899 170.895 213.814C168.57 210.243 168.57 195.852 170.901 192.287Z" fill="white"/>
<path d="M239.455 159.62C239.35 157.973 238.963 156.356 238.311 154.839L238.844 154.578C239.523 156.159 239.924 157.844 240.031 159.561L239.455 159.62Z" fill="#A91418"/>
<path d="M235.733 152.271H220.998V152.864H235.733V152.271Z" fill="#A91418"/>
<path d="M139.705 170.31C139.403 171.116 140.144 171.929 141.147 171.929H235.737C238.934 171.929 238.934 154.347 235.737 154.347H141.147C140.144 154.347 139.403 155.165 139.705 155.972C140.951 159.312 140.951 166.958 139.705 170.31Z" fill="#A91418"/>
<path opacity="0.2" d="M139.705 170.31C139.403 171.116 140.144 171.929 141.147 171.929H195.72C198.924 171.929 198.924 154.347 195.72 154.347H141.147C140.144 154.347 139.403 155.165 139.705 155.972C140.951 159.312 140.951 166.958 139.705 170.31Z" fill="black"/>
<path opacity="0.8" d="M139.844 156.405H194.133C196.589 156.405 196.589 169.877 194.133 169.877H139.844C140.894 166.495 140.894 159.786 139.844 156.405Z" fill="white"/>
<path opacity="0.2" d="M206.842 158.268C206.605 157.491 207.293 156.737 208.242 156.737H230.226C232.557 156.737 232.557 169.544 230.226 169.544H208.242C207.293 169.544 206.605 168.791 206.842 168.008C207.619 165.546 207.619 160.735 206.842 158.268Z" fill="white"/>
<path d="M130.857 25.8431C128.182 28.7082 121.651 25.8431 120.654 33.7326C119.574 42.2389 123.668 46.326 118.382 48.5624C110.077 52.0326 104.146 65.9014 115.677 71.1037C127.209 76.306 151.767 70.8546 149.003 60.2542C146.238 49.6538 146.784 43.9651 150.047 38.9704C154.347 32.3682 153.428 23.8855 149.922 20.8128C144.465 16.0079 136.925 19.318 130.857 25.8431Z" fill="#263238"/>
<path d="M145.13 59.9698C145.085 59.9715 145.04 59.9559 145.006 59.9261C144.972 59.8964 144.951 59.8547 144.946 59.8096C144.942 59.7857 144.943 59.7613 144.948 59.7377C144.954 59.7142 144.964 59.692 144.978 59.6726C144.993 59.6531 145.011 59.6368 145.032 59.6247C145.053 59.6126 145.076 59.6048 145.1 59.602C147.39 59.2876 148.754 58.7241 149.395 57.8224C150.19 56.7013 149.846 55.0344 149.395 52.9226C148.695 49.488 147.728 44.784 150.813 38.8402C154.556 31.6329 153.186 23.7316 149.68 21.1453C149.641 21.1168 149.614 21.074 149.607 21.0263C149.599 20.9785 149.61 20.9296 149.638 20.8902C149.668 20.8507 149.712 20.8243 149.76 20.8166C149.809 20.8088 149.859 20.8203 149.899 20.8487C153.553 23.524 154.965 31.6389 151.139 39.0123C148.12 44.8374 149.069 49.4702 149.757 52.8514C150.208 55.0463 150.564 56.7843 149.674 58.0359C148.974 59.0266 147.532 59.6376 145.136 59.9698H145.13Z" fill="#263238"/>
<path d="M115.221 49.695C114.846 49.6935 114.471 49.6697 114.099 49.6238C114.075 49.6209 114.052 49.6132 114.031 49.6012C114.009 49.5891 113.991 49.5729 113.976 49.5536C113.961 49.5343 113.95 49.5122 113.944 49.4886C113.937 49.465 113.936 49.4404 113.939 49.4162C113.942 49.392 113.95 49.3686 113.962 49.3474C113.974 49.3262 113.99 49.3076 114.009 49.2926C114.029 49.2777 114.051 49.2668 114.074 49.2605C114.098 49.2543 114.123 49.2527 114.147 49.2561C115.831 49.4637 117.053 49.2145 117.878 48.4908C119.42 47.1324 119.444 44.291 119.462 40.9988C119.462 37.2736 119.515 33.056 121.93 30.179C121.945 30.1603 121.964 30.1448 121.986 30.1335C122.007 30.1222 122.031 30.1153 122.055 30.1131C122.079 30.1109 122.104 30.1135 122.127 30.1207C122.15 30.1279 122.172 30.1397 122.191 30.1553C122.209 30.1708 122.225 30.1899 122.236 30.2115C122.247 30.233 122.254 30.2566 122.256 30.2808C122.259 30.3051 122.256 30.3295 122.249 30.3527C122.242 30.376 122.23 30.3976 122.214 30.4163C119.883 33.1924 119.841 37.3388 119.841 41.0048C119.841 44.38 119.8 47.2985 118.133 48.7696C117.311 49.4298 116.273 49.7598 115.221 49.695Z" fill="#263238"/>
<path d="M173.441 154.335C169.485 154.287 167.93 154.038 166.109 154.068C164.288 154.097 163.855 154.418 161.957 154.335C160.676 154.281 160.67 152.757 161.162 151.713C161.548 150.894 162.022 150.07 162.461 149.049L167.48 149.417C168.156 151.327 171.513 152.146 174.456 152.822C175.624 153.101 175.025 154.352 173.441 154.335Z" fill="#A91418"/>
<path d="M147.275 81.4613C147.275 81.4613 160.551 92.8803 173.969 104.993C179.64 110.124 167.746 149.245 167.746 149.245C167.497 150.082 163.072 148.89 162.408 148.231C162.408 148.231 161.731 117.866 164.608 111.75C134.854 104.228 130.203 89.6177 130.203 89.6177L132.339 80.5537L147.275 81.4613Z" fill="#263238"/>
<path opacity="0.2" d="M132.164 93.2176C133.83 95.5455 135.803 97.6368 138.031 99.4343C140.997 95.9641 140.166 90.3584 140.166 90.3584L132.164 93.2176Z" fill="black"/>
<path d="M168.782 147.554C168.699 148.147 168.556 149.197 168.479 149.974C168.467 150.1 168.408 150.217 168.313 150.3C168.218 150.384 168.095 150.429 167.969 150.425C165.984 150.269 164.018 149.928 162.096 149.405C162.004 149.379 161.922 149.324 161.863 149.248C161.804 149.173 161.772 149.08 161.77 148.984L161.729 146.818C161.728 146.748 161.743 146.678 161.771 146.614C161.799 146.549 161.841 146.492 161.893 146.444C161.945 146.397 162.006 146.36 162.073 146.338C162.139 146.316 162.21 146.308 162.28 146.314L168.402 147.056C168.46 147.062 168.516 147.08 168.567 147.109C168.618 147.138 168.663 147.177 168.698 147.224C168.734 147.27 168.76 147.324 168.774 147.38C168.788 147.437 168.791 147.496 168.782 147.554Z" fill="#263238"/>
<path opacity="0.3" d="M168.782 147.554C168.699 148.147 168.556 149.197 168.479 149.974C168.467 150.1 168.408 150.217 168.313 150.3C168.218 150.384 168.095 150.429 167.969 150.425C165.984 150.269 164.018 149.928 162.096 149.405C162.004 149.379 161.922 149.324 161.863 149.248C161.804 149.173 161.772 149.08 161.77 148.984L161.729 146.818C161.728 146.748 161.743 146.678 161.771 146.614C161.799 146.549 161.841 146.492 161.893 146.444C161.945 146.397 162.006 146.36 162.073 146.338C162.139 146.316 162.21 146.308 162.28 146.314L168.402 147.056C168.46 147.062 168.516 147.08 168.567 147.109C168.618 147.138 168.663 147.177 168.698 147.224C168.734 147.27 168.76 147.324 168.774 147.38C168.788 147.437 168.791 147.496 168.782 147.554Z" fill="white"/>
<path d="M115.357 182.707C111.335 182.707 110.018 181.195 107.77 180.779C105.872 180.423 105.368 180.59 103.837 180.323C102.556 180.097 102.455 179.219 103.244 177.92C103.759 177.022 104.195 176.081 104.549 175.108L110.647 175.512C111.282 177.143 112.747 180.459 114.983 180.851C117.089 181.26 116.959 182.707 115.357 182.707Z" fill="#A91418"/>
<path d="M146.356 81.4253C146.356 81.4253 132.327 106.369 126.68 121.798C120.748 138.004 111.304 164.508 110.622 175.512C109.614 175.992 106.304 175.808 104.524 175.108C104.524 175.108 102.875 137.144 114.294 121.934C117.017 89.3622 121.537 84.154 126.342 80.1855L146.356 81.4253Z" fill="#263238"/>
<path d="M111.358 173.263C111.285 174.014 111.265 174.769 111.298 175.523C111.307 175.654 111.263 175.783 111.176 175.882C111.089 175.981 110.967 176.042 110.836 176.051C108.564 176.259 105.396 175.529 104.394 175.28C104.301 175.256 104.218 175.203 104.158 175.128C104.098 175.053 104.064 174.961 104.062 174.865L103.984 172.741C103.983 172.671 103.997 172.602 104.024 172.538C104.051 172.473 104.092 172.415 104.142 172.367C104.193 172.319 104.253 172.282 104.319 172.259C104.385 172.235 104.455 172.226 104.524 172.231L110.954 172.782C111.013 172.787 111.069 172.803 111.121 172.83C111.173 172.856 111.22 172.893 111.257 172.938C111.295 172.983 111.323 173.034 111.34 173.09C111.358 173.146 111.364 173.205 111.358 173.263Z" fill="#263238"/>
<path opacity="0.3" d="M111.358 173.263C111.285 174.014 111.265 174.769 111.298 175.523C111.307 175.654 111.263 175.783 111.176 175.882C111.089 175.981 110.967 176.042 110.836 176.051C108.564 176.259 105.396 175.529 104.394 175.28C104.301 175.256 104.218 175.203 104.158 175.128C104.098 175.053 104.064 174.961 104.062 174.865L103.984 172.741C103.983 172.671 103.997 172.602 104.024 172.538C104.051 172.473 104.092 172.415 104.142 172.367C104.193 172.319 104.253 172.282 104.319 172.259C104.385 172.235 104.455 172.226 104.524 172.231L110.954 172.782C111.013 172.787 111.069 172.803 111.121 172.83C111.173 172.856 111.22 172.893 111.257 172.938C111.295 172.983 111.323 173.034 111.34 173.09C111.358 173.146 111.364 173.205 111.358 173.263Z" fill="white"/>
<path d="M150.076 56.956C150.669 58.0772 151.309 59.3288 151.962 60.5152C152.614 61.7016 153.273 62.888 153.937 64.0447C155.278 66.3759 156.678 68.6597 158.179 70.813L157.372 70.0953C157.967 70.5137 158.623 70.8379 159.317 71.0562C160.157 71.3379 161.018 71.5521 161.892 71.6969C162.805 71.863 163.755 71.9757 164.721 72.0647C165.688 72.1536 166.703 72.207 167.628 72.2664H167.753C168.138 72.2885 168.504 72.4441 168.787 72.7064C169.07 72.9688 169.252 73.3215 169.304 73.7041C169.355 74.0866 169.271 74.475 169.067 74.8026C168.863 75.1302 168.552 75.3765 168.186 75.4993C167.126 75.8519 166.041 76.1255 164.941 76.3179C163.835 76.5145 162.717 76.6354 161.595 76.6797C160.405 76.7254 159.213 76.6539 158.036 76.4662C156.708 76.2661 155.424 75.8408 154.24 75.2086C153.993 75.0741 153.774 74.8951 153.593 74.6807L153.433 74.4908C152.49 73.3638 151.57 72.213 150.728 71.0325C149.886 69.8521 149.061 68.6597 148.296 67.4734C147.531 66.287 146.789 65.0235 146.089 63.7718C145.389 62.5202 144.725 61.2804 144.09 59.9101C143.757 59.1315 143.734 58.255 144.025 57.4598C144.317 56.6646 144.901 56.0107 145.659 55.632C146.416 55.2532 147.29 55.1781 148.101 55.422C148.912 55.6659 149.599 56.2104 150.022 56.9442L150.076 56.956Z" fill="#FFB573"/>
<path d="M146.802 52.1689C150.675 53.4443 151.304 55.1824 153.428 61.6007C152.016 65.4505 146.309 67.4021 146.309 67.4021C146.309 67.4021 139.571 56.4281 146.802 52.1689Z" fill="#A91418"/>
<path d="M152.107 60.5214C151.887 62.645 151.342 65.178 150.197 70.1549C149.307 74.3784 149.295 82.6119 147.872 83.0449C145.137 84.3974 138.291 83.8754 126.345 80.1858C126.724 74.0165 127.442 69.8286 125.39 55.675C125.26 54.933 125.298 54.1716 125.5 53.4461C125.703 52.7205 126.064 52.0493 126.558 51.481C127.053 50.9128 127.668 50.462 128.358 50.1614C129.049 49.8607 129.798 49.7178 130.55 49.7431C131.416 49.7431 132.33 49.8143 133.261 49.8973C136.547 50.0949 139.814 50.5291 143.037 51.1964C144.087 51.4337 145.173 51.7125 146.205 51.9972C148.022 52.5164 149.604 53.6496 150.68 55.2038C151.756 56.758 152.261 58.6372 152.107 60.5214Z" fill="#A91418"/>
<path d="M110.286 85.0557L111.472 83.9702C111.693 83.7684 111.862 83.5165 111.966 83.2357C112.069 82.9549 112.103 82.6535 112.066 82.3567L111.739 79.5272C111.677 78.971 111.483 78.4378 111.174 77.9715C110.864 77.5053 110.448 77.1194 109.96 76.8459L109.367 76.5078C107.249 78.1747 106.187 81.5322 106.187 81.5322L105.778 82.4575C105.688 82.6446 105.636 82.8477 105.625 83.055C105.614 83.2624 105.645 83.4697 105.715 83.6651C105.785 83.8605 105.893 84.04 106.033 84.1932C106.174 84.3464 106.343 84.4702 106.531 84.5574L108.352 85.3879C108.672 85.5244 109.025 85.5656 109.368 85.5067C109.711 85.4478 110.03 85.2912 110.286 85.0557Z" fill="#FFB573"/>
<path d="M172.554 70.807L171.036 70.2138C170.755 70.1076 170.452 70.0705 170.154 70.1056C169.856 70.1407 169.57 70.247 169.321 70.4155L166.949 72.0053C166.483 72.3185 166.099 72.739 165.83 73.2314C165.56 73.7238 165.413 74.2737 165.4 74.8348V75.5407C167.85 76.6559 171.332 76.0509 171.332 76.0509L172.341 75.9915C172.548 75.9847 172.752 75.9368 172.941 75.8506C173.13 75.7644 173.3 75.6417 173.441 75.4894C173.582 75.3372 173.692 75.1585 173.764 74.9637C173.836 74.7689 173.868 74.5618 173.859 74.3543L173.764 72.3553C173.737 72.0069 173.608 71.6743 173.392 71.399C173.177 71.1237 172.886 70.9178 172.554 70.807Z" fill="#FFB573"/>
<path d="M128.923 57.5853L128.164 57.9353L127.334 58.3149C126.782 58.5819 126.236 58.8606 125.69 59.1454C124.593 59.7386 123.525 60.3318 122.475 60.9546C121.425 61.5775 120.411 62.2715 119.426 62.9774C118.442 63.6833 117.528 64.4545 116.638 65.2434L117.03 64.7451C116.741 65.1706 116.487 65.6189 116.271 66.0857C116.01 66.6255 115.766 67.2128 115.529 67.8119C115.054 68.9983 114.592 70.2677 114.165 71.5431C113.738 72.8185 113.305 74.1116 112.883 75.4048L111.602 79.3021C111.478 79.6849 111.219 80.0096 110.873 80.2158C110.528 80.422 110.119 80.4957 109.723 80.4232C109.327 80.3507 108.971 80.1369 108.721 79.8216C108.471 79.5063 108.344 79.1109 108.363 78.7089C108.429 77.2793 108.559 75.8912 108.719 74.4913C108.879 73.0913 109.081 71.6973 109.312 70.2974C109.544 68.8975 109.846 67.4916 110.232 66.0679C110.422 65.3561 110.629 64.6443 110.89 63.8969C111.166 63.0742 111.52 62.2796 111.946 61.5241C112.021 61.4003 112.106 61.2832 112.201 61.1741L112.344 61.0258C113.321 59.9485 114.367 58.9359 115.476 57.9946C116.568 57.0659 117.713 56.2004 118.904 55.4023C120.08 54.6055 121.298 53.8728 122.552 53.2075C123.181 52.8753 123.816 52.5609 124.463 52.2525C124.789 52.1042 125.109 51.95 125.447 51.8076C125.785 51.6652 126.094 51.5407 126.515 51.3805C127.323 51.0575 128.225 51.065 129.028 51.4013C129.83 51.7375 130.468 52.3756 130.804 53.178C131.14 53.9804 131.148 54.8828 130.825 55.6906C130.502 56.4984 129.874 57.1469 129.078 57.4963L128.923 57.5853Z" fill="#FFB573"/>
<path d="M134.65 51.2852C131.743 49.2031 129.975 48.9777 122.94 52.0326C122.104 56.4579 124.844 62.9533 124.844 62.9533C124.844 62.9533 134.205 58.0773 134.65 51.2852Z" fill="#A91418"/>
<path d="M135.412 38.9585C135.845 42.2151 136.124 48.1174 133.799 49.9444C133.799 49.9444 136.836 49.891 142.643 54.6425C144.82 52.2697 143.575 51.2435 143.575 51.2435C140.116 49.9326 140.36 47.3166 141.113 44.926L135.412 38.9585Z" fill="#FFB573"/>
<path d="M141.416 53.6816C139.299 53.6816 138.225 56.7603 138.225 56.7603C138.225 56.7603 133.135 52.7029 132.441 49.8496C133.117 49.5771 133.778 49.2703 134.423 48.9302C134.423 48.9302 140.361 52.3173 141.416 53.6816Z" fill="white"/>
<path d="M143.447 53.6044C143.447 53.6044 145.048 54.1976 145.576 56.5703C146.662 52.0502 144.544 51.3384 144.544 51.3384C144.013 50.9405 143.354 50.7544 142.693 50.8164C143.126 51.1186 143.439 51.5636 143.577 52.0734C143.715 52.5832 143.669 53.1252 143.447 53.6044Z" fill="white"/>
<path opacity="0.2" d="M137.737 41.3906L141.107 44.9498C140.923 45.5062 140.79 46.0779 140.709 46.6582C139.38 46.2845 137.625 44.5583 137.565 43.099C137.517 42.5238 137.575 41.9446 137.737 41.3906Z" fill="black"/>
<path d="M131.758 34.219C132.944 39.2849 133.377 41.45 136.42 43.7635C140.994 47.2396 146.932 44.9855 147.252 39.7416C147.537 34.9961 145.508 27.5219 140.134 26.0982C138.995 25.7559 137.785 25.7238 136.63 26.0052C135.474 26.2867 134.415 26.8715 133.561 27.6993C132.707 28.5271 132.09 29.5678 131.773 30.714C131.456 31.8601 131.451 33.0701 131.758 34.219Z" fill="#FFB573"/>
<path d="M132.752 37.8614C134.615 36.9479 136.59 32.4574 133.938 30.3338C136.127 30.7431 138.636 30.1558 140.956 28.3644C143.981 25.9916 148.436 31.882 146.971 28.4237C144.859 23.4409 138.494 22.1952 132.734 26.3357C126.974 30.4761 127.384 35.5124 132.752 37.8614Z" fill="#263238"/>
<path d="M131.173 36.8465C131.153 36.8445 131.134 36.836 131.119 36.8224C131.104 36.8087 131.094 36.7906 131.09 36.7707C131.086 36.7508 131.088 36.7301 131.097 36.7117C131.106 36.6933 131.12 36.6782 131.138 36.6686C132.621 36.0279 138.914 34.6873 139.181 34.6339C139.194 34.6304 139.206 34.6295 139.219 34.6312C139.231 34.633 139.243 34.6374 139.254 34.6441C139.264 34.6509 139.274 34.6598 139.281 34.6703C139.287 34.6808 139.292 34.6927 139.294 34.7051C139.298 34.7286 139.292 34.7526 139.279 34.7723C139.266 34.7921 139.246 34.8062 139.223 34.8119C139.158 34.8119 132.698 36.2059 131.209 36.8406L131.173 36.8465Z" fill="white"/>
<path opacity="0.2" d="M138.804 34.7413C138.168 34.4617 137.447 34.4447 136.799 34.6939C137.458 34.8397 138.139 34.8559 138.804 34.7413Z" fill="black"/>
<path opacity="0.2" d="M138.752 35.1913C138.444 35.1262 138.125 35.1291 137.817 35.1998C137.51 35.2705 137.222 35.4072 136.973 35.6006C137.588 35.5908 138.194 35.4513 138.752 35.1913Z" fill="black"/>
<path d="M139.909 34.6695C139.992 35.1025 140.282 35.4228 140.561 35.3872C140.84 35.3516 140.994 34.9779 140.911 34.5449C140.828 34.1119 140.532 33.7975 140.259 33.8271C139.986 33.8568 139.826 34.2424 139.909 34.6695Z" fill="#263238"/>
<path d="M145.116 34.1067C145.199 34.5338 145.496 34.8541 145.769 34.8245C146.042 34.7948 146.202 34.4092 146.119 33.9821C146.036 33.555 145.745 33.2288 145.466 33.2644C145.187 33.3 145.033 33.6737 145.116 34.1067Z" fill="#263238"/>
<path d="M145.33 33.3055L146.291 32.8784C146.291 32.8784 145.923 33.7504 145.33 33.3055Z" fill="#263238"/>
<path d="M144.146 34.9307C144.66 35.8984 145.294 36.7973 146.033 37.606C145.831 37.7758 145.593 37.8985 145.338 37.9652C145.082 38.0319 144.815 38.0409 144.556 37.9915L144.146 34.9307Z" fill="#ED893E"/>
<path d="M142.278 39.9081C142.517 39.9284 142.757 39.9284 142.996 39.9081C143.012 39.906 143.028 39.9006 143.042 39.8921C143.056 39.8837 143.068 39.8724 143.078 39.859C143.087 39.8456 143.094 39.8304 143.097 39.8144C143.1 39.7983 143.1 39.7818 143.097 39.7657C143.091 39.7316 143.072 39.7011 143.045 39.6801C143.017 39.6592 142.983 39.6495 142.948 39.653C142.412 39.7181 141.867 39.6629 141.354 39.4916C140.841 39.3203 140.373 39.037 139.983 38.6624C139.971 38.6506 139.957 38.6412 139.942 38.6347C139.927 38.6283 139.91 38.625 139.894 38.625C139.877 38.625 139.861 38.6283 139.845 38.6347C139.83 38.6412 139.816 38.6506 139.805 38.6624C139.782 38.6865 139.77 38.7183 139.77 38.7514C139.77 38.7844 139.782 38.8162 139.805 38.8404C140.472 39.4853 141.351 39.8649 142.278 39.9081Z" fill="#263238"/>
<path d="M130.552 38.7572C130.838 39.165 131.206 39.5091 131.631 39.7674C132.057 40.0258 132.532 40.1928 133.026 40.2579C134.26 40.3588 134.527 38.9233 133.898 37.6479C133.334 36.503 132.012 35.0616 130.932 35.5599C129.852 36.0581 129.751 37.7072 130.552 38.7572Z" fill="#FFB573"/>
<path d="M138.241 31.4012C138.274 31.4012 138.307 31.3938 138.337 31.3794C138.367 31.365 138.393 31.3441 138.413 31.3182C138.604 31.0738 138.852 30.8804 139.136 30.7552C139.419 30.63 139.73 30.5768 140.039 30.6004C140.071 30.6054 140.104 30.6037 140.135 30.5956C140.166 30.5874 140.196 30.5728 140.221 30.5528C140.247 30.5328 140.268 30.5077 140.284 30.4792C140.299 30.4506 140.309 30.4192 140.312 30.3868C140.314 30.3187 140.292 30.2519 140.25 30.1986C140.207 30.1452 140.147 30.1089 140.08 30.0962C139.69 30.0616 139.297 30.1242 138.937 30.2784C138.577 30.4327 138.26 30.6737 138.016 30.98C137.987 31.0205 137.97 31.0682 137.967 31.1177C137.964 31.1672 137.975 31.2166 137.998 31.2603C138.022 31.3041 138.057 31.3404 138.1 31.3653C138.143 31.3902 138.192 31.4026 138.241 31.4012Z" fill="#263238"/>
<path d="M146.077 31.182C146.108 31.1855 146.14 31.1826 146.171 31.1734C146.202 31.1642 146.23 31.149 146.255 31.1286C146.278 31.1054 146.297 31.0777 146.31 31.0471C146.323 31.0166 146.329 30.9838 146.329 30.9506C146.329 30.9175 146.323 30.8847 146.31 30.8541C146.297 30.8235 146.278 30.7958 146.255 30.7727C145.998 30.4508 145.671 30.1923 145.299 30.0174C144.926 29.8425 144.519 29.7559 144.107 29.7642C144.074 29.7669 144.043 29.7765 144.014 29.7924C143.985 29.8084 143.96 29.8303 143.94 29.8566C143.921 29.883 143.907 29.9133 143.9 29.9454C143.893 29.9776 143.893 30.0108 143.9 30.043C143.91 30.1101 143.945 30.1709 143.997 30.2137C144.05 30.2565 144.117 30.2781 144.184 30.2744C144.51 30.2709 144.833 30.3423 145.127 30.4832C145.421 30.6241 145.679 30.8307 145.881 31.087C145.904 31.1163 145.934 31.14 145.968 31.1564C146.002 31.1728 146.039 31.1815 146.077 31.182Z" fill="#263238"/>
<path d="M141.516 37.3567C140.264 37.3567 139.179 36.0279 139.06 34.3255C138.988 33.5236 139.173 32.7197 139.588 32.0298C139.752 31.7374 139.983 31.4884 140.263 31.3037C140.543 31.1189 140.862 31.0039 141.196 30.968C142.507 30.879 143.657 32.2374 143.782 33.9992C143.906 35.761 142.94 37.2618 141.64 37.3508L141.516 37.3567ZM141.32 31.1816H141.213C140.908 31.2165 140.616 31.3235 140.36 31.4937C140.104 31.6639 139.892 31.8923 139.742 32.1603C139.348 32.8165 139.174 33.5812 139.244 34.3433C139.357 35.9983 140.43 37.2736 141.617 37.1965C142.803 37.1194 143.699 35.6957 143.586 34.0407C143.473 32.3857 142.477 31.1816 141.32 31.1816Z" fill="white"/>
<path d="M147.064 37.0363C145.812 37.0363 144.721 35.7135 144.602 34.011C144.533 33.2094 144.718 32.4063 145.13 31.7154C145.295 31.4228 145.528 31.1738 145.808 30.9892C146.089 30.8045 146.409 30.6894 146.743 30.6535C148.043 30.5646 149.205 31.923 149.324 33.6788C149.393 34.4805 149.208 35.2835 148.796 35.9745C148.632 36.2677 148.399 36.5171 148.118 36.7019C147.838 36.8867 147.517 37.0014 147.182 37.0363H147.064ZM146.868 30.8374H146.755C146.45 30.8724 146.158 30.9794 145.902 31.1496C145.646 31.3197 145.434 31.5482 145.284 31.8162C144.896 32.4745 144.721 33.2374 144.786 33.9992C144.899 35.6008 145.907 36.8524 147.064 36.8524H147.171C147.476 36.8188 147.769 36.7124 148.025 36.5421C148.281 36.3718 148.493 36.1426 148.642 35.8736C149.032 35.2184 149.207 34.4566 149.14 33.6966C149.027 32.0891 148.019 30.8374 146.868 30.8374Z" fill="white"/>
<path d="M144.74 34.2544C144.724 34.2536 144.709 34.2488 144.695 34.2405C144.682 34.2322 144.671 34.2207 144.663 34.207C144.437 33.8511 143.779 34.2366 143.773 34.2366C143.763 34.2431 143.752 34.2474 143.74 34.2494C143.728 34.2514 143.716 34.251 143.704 34.2483C143.693 34.2455 143.682 34.2404 143.672 34.2333C143.662 34.2262 143.654 34.2173 143.648 34.207C143.633 34.1897 143.625 34.1676 143.625 34.1447C143.625 34.1218 143.633 34.0997 143.648 34.0824C143.684 34.0824 144.467 33.596 144.787 34.0824C144.795 34.0922 144.8 34.1034 144.802 34.1154C144.805 34.1274 144.805 34.1398 144.802 34.1517C144.799 34.1636 144.793 34.1747 144.786 34.1843C144.778 34.1938 144.769 34.2016 144.758 34.207C144.758 34.2157 144.757 34.2243 144.753 34.2325C144.75 34.2406 144.746 34.2481 144.74 34.2544Z" fill="white"/>
<path d="M140.139 33.8689L141.094 33.4478C141.094 33.4478 140.732 34.3197 140.139 33.8689Z" fill="#263238"/>
</svg>
