<svg width="20" height="20" viewBox="0 0 20 20" fill="none" xmlns="http://www.w3.org/2000/svg">
<path d="M14.1328 5.14167C15.7995 6.3 16.9495 8.14167 17.1828 10.2667" stroke="#9B9798" stroke-width="1.5" stroke-linecap="round" stroke-linejoin="round"/>
<path d="M2.9082 10.3083C3.12487 8.19167 4.2582 6.35 5.9082 5.18333" stroke="#9B9798" stroke-width="1.5" stroke-linecap="round" stroke-linejoin="round"/>
<path d="M6.82422 17.45C7.79089 17.9417 8.89089 18.2167 10.0492 18.2167C11.1659 18.2167 12.2159 17.9667 13.1576 17.5083" stroke="#9B9798" stroke-width="1.5" stroke-linecap="round" stroke-linejoin="round"/>
<path d="M10.0491 6.41667C11.3285 6.41667 12.3658 5.37946 12.3658 4.1C12.3658 2.82054 11.3285 1.78333 10.0491 1.78333C8.76963 1.78333 7.73242 2.82054 7.73242 4.1C7.73242 5.37946 8.76963 6.41667 10.0491 6.41667Z" stroke="#9B9798" stroke-width="1.5" stroke-linecap="round" stroke-linejoin="round"/>
<path d="M4.02565 16.6C5.30511 16.6 6.34232 15.5628 6.34232 14.2833C6.34232 13.0039 5.30511 11.9667 4.02565 11.9667C2.74619 11.9667 1.70898 13.0039 1.70898 14.2833C1.70898 15.5628 2.74619 16.6 4.02565 16.6Z" stroke="#9B9798" stroke-width="1.5" stroke-linecap="round" stroke-linejoin="round"/>
<path d="M15.9749 16.6C17.2543 16.6 18.2915 15.5628 18.2915 14.2833C18.2915 13.0039 17.2543 11.9667 15.9749 11.9667C14.6954 11.9667 13.6582 13.0039 13.6582 14.2833C13.6582 15.5628 14.6954 16.6 15.9749 16.6Z" stroke="#9B9798" stroke-width="1.5" stroke-linecap="round" stroke-linejoin="round"/>
</svg>
