<svg width="54" height="40" viewBox="0 0 54 40" fill="none" xmlns="http://www.w3.org/2000/svg">
<g opacity="0.08">
<path d="M45.0489 -7.07295C45.3483 -7.99426 46.6517 -7.99426 46.9511 -7.07295L47.5716 -5.16312C47.7055 -4.7511 48.0894 -4.47214 48.5227 -4.47214H50.5308C51.4995 -4.47214 51.9023 -3.23252 51.1186 -2.66312L49.494 -1.48278C49.1435 -1.22813 48.9968 -0.776768 49.1307 -0.364745L49.7512 1.54508C50.0506 2.46639 48.9961 3.23252 48.2124 2.66312L46.5878 1.48278C46.2373 1.22813 45.7627 1.22814 45.4122 1.48278L43.7876 2.66312C43.0039 3.23252 41.9494 2.4664 42.2488 1.54508L42.8693 -0.364744C43.0032 -0.776767 42.8565 -1.22814 42.506 -1.48278L40.8814 -2.66312C40.0977 -3.23252 40.5005 -4.47214 41.4692 -4.47214H43.4773C43.9106 -4.47214 44.2945 -4.7511 44.4284 -5.16312L45.0489 -7.07295Z" fill="#A91418"/>
<path d="M35.0489 14.927C35.3483 14.0057 36.6517 14.0057 36.9511 14.9271L37.5716 16.8369C37.7055 17.2489 38.0894 17.5279 38.5227 17.5279H40.5308C41.4995 17.5279 41.9023 18.7675 41.1186 19.3369L39.494 20.5172C39.1435 20.7719 38.9968 21.2232 39.1307 21.6353L39.7512 23.5451C40.0506 24.4664 38.9961 25.2325 38.2124 24.6631L36.5878 23.4828C36.2373 23.2281 35.7627 23.2281 35.4122 23.4828L33.7876 24.6631C33.0039 25.2325 31.9494 24.4664 32.2488 23.5451L32.8693 21.6353C33.0032 21.2232 32.8565 20.7719 32.506 20.5172L30.8814 19.3369C30.0977 18.7675 30.5005 17.5279 31.4692 17.5279H33.4773C33.9106 17.5279 34.2945 17.2489 34.4284 16.8369L35.0489 14.927Z" fill="#A91418"/>
<path d="M15.0489 26.927C15.3483 26.0057 16.6517 26.0057 16.9511 26.9271L17.5716 28.8369C17.7055 29.2489 18.0894 29.5279 18.5227 29.5279H20.5308C21.4995 29.5279 21.9023 30.7675 21.1186 31.3369L19.494 32.5172C19.1435 32.7719 18.9968 33.2232 19.1307 33.6353L19.7512 35.5451C20.0506 36.4664 18.9961 37.2325 18.2124 36.6631L16.5878 35.4828C16.2373 35.2281 15.7627 35.2281 15.4122 35.4828L13.7876 36.6631C13.0039 37.2325 11.9494 36.4664 12.2488 35.5451L12.8693 33.6353C13.0032 33.2232 12.8565 32.7719 12.506 32.5172L10.8814 31.3369C10.0977 30.7675 10.5005 29.5279 11.4692 29.5279H13.4773C13.9106 29.5279 14.2945 29.2489 14.4284 28.8369L15.0489 26.927Z" fill="#A91418"/>
<path d="M-0.951056 14.927C-0.651704 14.0057 0.651705 14.0057 0.951056 14.9271L1.5716 16.8369C1.70547 17.2489 2.08943 17.5279 2.52265 17.5279H4.53077C5.49949 17.5279 5.90227 18.7675 5.11855 19.3369L3.49395 20.5172C3.14347 20.7719 2.99681 21.2232 3.13068 21.6353L3.75122 23.5451C4.05058 24.4664 2.9961 25.2325 2.21238 24.6631L0.587785 23.4828C0.237297 23.2281 -0.237298 23.2281 -0.587785 23.4828L-2.21239 24.6631C-2.9961 25.2325 -4.05058 24.4664 -3.75122 23.5451L-3.13068 21.6353C-2.99681 21.2232 -3.14347 20.7719 -3.49396 20.5172L-5.11856 19.3369C-5.90227 18.7675 -5.49949 17.5279 -4.53077 17.5279H-2.52265C-2.08943 17.5279 -1.70547 17.2489 -1.5716 16.8369L-0.951056 14.927Z" fill="#A91418"/>
<path d="M24.0489 2.92705C24.3483 2.00574 25.6517 2.00574 25.9511 2.92705L26.5716 4.83688C26.7055 5.2489 27.0894 5.52786 27.5227 5.52786H29.5308C30.4995 5.52786 30.9023 6.76748 30.1186 7.33688L28.494 8.51722C28.1435 8.77187 27.9968 9.22323 28.1307 9.63525L28.7512 11.5451C29.0506 12.4664 27.9961 13.2325 27.2124 12.6631L25.5878 11.4828C25.2373 11.2281 24.7627 11.2281 24.4122 11.4828L22.7876 12.6631C22.0039 13.2325 20.9494 12.4664 21.2488 11.5451L21.8693 9.63526C22.0032 9.22323 21.8565 8.77186 21.506 8.51722L19.8814 7.33688C19.0977 6.76748 19.5005 5.52786 20.4692 5.52786H22.4773C22.9106 5.52786 23.2945 5.2489 23.4284 4.83688L24.0489 2.92705Z" fill="#A91418"/>
<path d="M2.04894 -6.07295C2.3483 -6.99426 3.6517 -6.99426 3.95106 -6.07295L4.5716 -4.16312C4.70547 -3.7511 5.08943 -3.47214 5.52265 -3.47214H7.53077C8.49949 -3.47214 8.90227 -2.23252 8.11855 -1.66312L6.49395 -0.482779C6.14347 -0.228134 5.99681 0.223232 6.13068 0.635255L6.75122 2.54508C7.05058 3.46639 5.9961 4.23252 5.21238 3.66312L3.58778 2.48278C3.2373 2.22813 2.7627 2.22814 2.41221 2.48278L0.787615 3.66312C0.003901 4.23252 -1.05058 3.4664 -0.751225 2.54508L-0.130684 0.635256C0.00319004 0.223233 -0.143468 -0.228135 -0.493955 -0.482779L-2.11856 -1.66312C-2.90227 -2.23252 -2.49949 -3.47214 -1.53077 -3.47214H0.477346C0.910573 -3.47214 1.29453 -3.7511 1.4284 -4.16312L2.04894 -6.07295Z" fill="#A91418"/>
</g>
</svg>
