<svg width="476" height="317" viewBox="0 0 476 317" fill="none" xmlns="http://www.w3.org/2000/svg">
<path d="M429.036 273.526C452.024 255.14 465.257 227.168 465.663 197.744C465.923 179.193 464.59 155.9 458.352 135.954C437.776 70.1895 379.653 34.5143 337.13 26.9063C294.608 19.2983 250.816 33.2463 217.813 55.4363C184.81 77.6263 187.984 73.8223 131.498 65.5803C75.013 57.3383 28.6823 81.4303 13.4503 125.81C-1.78169 170.19 44.549 195.341 49.6263 218.59C54.7036 241.839 45.8183 283.042 134.037 293.186C222.256 303.33 248.912 253.878 292.704 267.826C327.94 279.054 380.44 312.447 429.036 273.526Z" fill="#F7BBBD"/>
<path opacity="0.7" d="M429.036 273.526C452.024 255.14 465.257 227.168 465.663 197.744C465.923 179.193 464.59 155.9 458.352 135.954C437.776 70.1895 379.653 34.5143 337.13 26.9063C294.608 19.2983 250.816 33.2463 217.813 55.4363C184.81 77.6263 187.984 73.8223 131.498 65.5803C75.013 57.3383 28.6823 81.4303 13.4503 125.81C-1.78169 170.19 44.549 195.341 49.6263 218.59C54.7036 241.839 45.8183 283.042 134.037 293.186C222.256 303.33 248.912 253.878 292.704 267.826C327.94 279.054 380.44 312.447 429.036 273.526Z" fill="white"/>
<path d="M76.2484 49.4916C75.3535 48.566 73.7986 47.7101 71.1012 47.6404C65.0402 47.4945 66.6586 51.7804 65.0402 52.8138C63.4218 53.8472 62.9711 52.2242 61.3401 53.2576C59.709 54.291 60.4515 56.3579 59.1251 56.6558C57.7986 56.9538 56.0215 55.3244 54.3904 56.3579C52.7594 57.3913 52.7657 58.2599 52.0231 58.2599C51.2806 58.2599 49.8082 57.6702 48.9196 58.2599C48.0311 58.8495 47.0156 59.5913 47.0156 59.5913H62.8823" stroke="#290505" stroke-linecap="round" stroke-linejoin="round"/>
<path d="M77.9168 52.1341L77.4599 51.9249C77.3887 51.3727 77.2028 50.8414 76.9141 50.3652" stroke="#290505" stroke-linecap="round" stroke-linejoin="round"/>
<path d="M64.9062 59.5974H84.4096C84.4096 59.5974 84.8538 58.266 83.2291 57.3784C81.6043 56.4908 80.8618 57.2326 80.2715 56.4908C79.6813 55.7491 81.4457 54.2401 78.6912 52.541" stroke="#290505" stroke-linecap="round" stroke-linejoin="round"/>
<path d="M259.358 97.0717C258.457 96.1397 256.902 95.2838 254.204 95.2204C248.143 95.0746 249.762 99.3541 248.143 100.388C246.525 101.421 246.074 99.7979 244.449 100.831C242.825 101.865 243.561 103.938 242.228 104.23C240.895 104.521 239.125 102.898 237.5 103.938C235.875 104.978 235.869 105.84 235.133 105.84C234.396 105.84 232.911 105.25 232.029 105.84C231.147 106.43 230.125 107.171 230.125 107.171H245.992" stroke="#290505" stroke-linecap="round" stroke-linejoin="round"/>
<path d="M261.025 99.7161L260.561 99.5069C260.491 98.9545 260.305 98.4231 260.016 97.9473" stroke="#290505" stroke-linecap="round" stroke-linejoin="round"/>
<path d="M248.016 107.185H267.513C267.513 107.185 267.957 105.853 266.332 104.972C264.707 104.091 263.965 104.82 263.375 104.085C262.784 103.349 264.549 101.834 261.794 100.135" stroke="#290505" stroke-linecap="round" stroke-linejoin="round"/>
<path d="M388.581 31.3513C386.969 29.6775 384.138 28.1369 379.302 28.0165C368.373 27.7502 371.28 35.504 368.373 37.3363C365.467 39.1685 364.641 36.2711 361.709 38.1351C358.777 39.9991 360.11 43.727 357.717 44.2595C355.325 44.7921 352.12 41.844 349.187 43.746C346.255 45.648 346.255 47.2076 344.922 47.2076C343.59 47.2076 340.924 46.1425 339.325 47.2076C337.725 48.2728 335.859 49.6042 335.859 49.6042H364.477" stroke="#290505" stroke-linecap="round" stroke-linejoin="round"/>
<path d="M391.59 36.1382C391.33 36.0114 391.057 35.8846 390.765 35.7578C390.636 34.7636 390.301 33.8071 389.781 32.9492" stroke="#290505" stroke-linecap="round" stroke-linejoin="round"/>
<path d="M368.137 49.5867H403.285C403.285 49.5867 404.084 47.1902 401.152 45.5925C398.22 43.9948 396.893 45.3262 395.827 43.9948C394.875 42.8092 397.941 39.9372 392.978 36.875" stroke="#290505" stroke-linecap="round" stroke-linejoin="round"/>
<path d="M176.518 59.6348H215.182C215.182 59.6348 216.502 55.6849 211.666 53.0538C206.83 50.4227 204.64 52.6164 202.882 50.4227C201.124 48.2291 207.719 42.5231 194.543 36.8234C194.543 36.8234 193.661 24.5365 175.655 24.0991C167.887 23.9089 164.371 26.1722 162.492 29.0506" stroke="#290505" stroke-linecap="round" stroke-linejoin="round"/>
<path d="M164.723 59.6348H171.158" stroke="#290505" stroke-linecap="round" stroke-linejoin="round"/>
<path d="M160.149 35.1113C159.597 36.9816 159.001 38.5983 157.649 39.4542C152.819 42.5228 151.505 37.698 146.669 40.7729C141.833 43.8478 144.067 49.985 140.088 50.8599C136.108 51.7348 130.86 46.9164 126.03 49.985C121.2 53.0535 121.2 55.691 119.004 55.691C116.808 55.691 112.416 53.9411 109.782 55.691C107.148 57.4408 104.07 59.6408 104.07 59.6408H153.454" stroke="#290505" stroke-linecap="round" stroke-linejoin="round"/>
<path d="M417.839 169.273L440.478 123.6L447.275 126.96L445.657 101.721L424.586 115.738L431.383 119.099L408.738 164.772" stroke="#290505" stroke-linecap="round" stroke-linejoin="round"/>
<path d="M406.797 99.9129L421.065 71.1293L425.349 73.2469L424.333 57.3398L411.05 66.1715L415.334 68.289L401.066 97.079" stroke="#290505" stroke-linecap="round" stroke-linejoin="round"/>
<path d="M260.741 50.404C263.803 43.3836 269.51 37.8512 276.627 35.0058C283.744 32.1604 291.697 32.2313 298.762 35.2032C305.827 38.175 311.435 43.8084 314.37 50.8823C317.306 57.9563 317.333 65.9009 314.445 72.9944C311.557 80.0879 305.987 85.7587 298.942 88.7779C291.897 91.7971 283.945 91.9214 276.809 89.1239C269.673 86.3264 263.929 80.8324 260.82 73.8326C257.711 66.8329 257.489 58.8913 260.202 51.7291" stroke="#290505" stroke-miterlimit="10"/>
<path d="M260.411 50.2834C263.507 43.1788 269.281 37.5793 276.481 34.6987C283.682 31.818 291.729 31.8883 298.878 34.8944C306.027 37.9005 311.702 43.6001 314.673 50.7577C317.644 57.9153 317.672 65.9541 314.749 73.1317C311.827 80.3093 306.191 86.0473 299.062 89.1018C291.934 92.1562 283.888 92.2812 276.667 89.4494C269.447 86.6177 263.635 81.0575 260.491 73.9741C257.347 66.8907 257.125 58.8548 259.871 51.6085" stroke="#290505" stroke-width="0.5" stroke-miterlimit="10"/>
<path d="M268.117 53.1865C270.463 48.0083 274.752 43.9586 280.059 41.9105C285.367 39.8623 291.268 39.9799 296.489 42.2379C301.711 44.4958 305.835 48.7132 307.972 53.9807C310.11 59.2482 310.089 65.1438 307.915 70.3964C305.741 75.6489 301.588 79.8376 296.351 82.0592C291.114 84.2808 285.212 84.3574 279.919 82.2725C274.626 80.1876 270.365 76.1082 268.055 70.9138C265.745 65.7195 265.571 59.8264 267.571 54.5052" stroke="#290505" stroke-miterlimit="10"/>
<path d="M267.787 53.0599C270.015 48.161 273.978 44.2582 278.913 42.1022C283.848 39.9462 289.407 39.6893 294.52 41.3809C299.633 43.0725 303.94 46.5931 306.611 51.2655C309.282 55.9379 310.13 61.4321 308.99 66.691C307.851 71.95 304.805 76.6023 300.439 79.7531C296.072 82.9038 290.694 84.3304 285.338 83.7584C279.982 83.1863 275.027 80.6562 271.426 76.6545C267.825 72.6529 265.833 67.4624 265.832 62.0817C265.827 59.4496 266.305 56.8388 267.241 54.3786" stroke="#290505" stroke-width="0.5" stroke-miterlimit="10"/>
<path d="M277.522 56.7631C278.903 54.171 281.239 52.2174 284.036 51.3157C286.834 50.4141 289.872 50.6351 292.51 51.932C295.147 53.2289 297.175 55.4999 298.166 58.2644C299.156 61.0289 299.031 64.0699 297.817 66.7439C296.602 69.4179 294.394 71.5149 291.659 72.5912C288.925 73.6675 285.878 73.6385 283.164 72.5105C280.45 71.3825 278.282 69.2439 277.119 66.5474C275.956 63.8508 275.889 60.808 276.932 58.0628V58.0057" stroke="#290505" stroke-miterlimit="10"/>
<path d="M277.066 56.8779L277.2 56.6116C278.54 54.0599 280.769 52.0868 283.467 51.065C286.164 50.0432 289.143 50.0434 291.84 51.0657C294.537 52.0879 296.766 54.0614 298.106 56.6133C299.446 59.1653 299.805 62.1191 299.113 64.917C298.422 67.7148 296.729 70.1629 294.354 71.7989C291.98 73.435 289.087 74.1457 286.224 73.7969C283.36 73.4481 280.723 72.0639 278.812 69.9057C276.9 67.7476 275.846 64.9648 275.848 62.0831C275.845 60.6598 276.103 59.2481 276.609 57.9177" stroke="#290505" stroke-width="0.5" stroke-miterlimit="10"/>
<path d="M277.712 56.8013H277.617L277.534 56.7696L277.204 56.6428L268.122 53.2192L267.792 53.0924L260.747 50.4359L260.417 50.3155L249.069 46.036L249.628 41.8516C249.639 41.775 249.624 41.6969 249.586 41.6294C249.548 41.5619 249.489 41.5086 249.418 41.4775L240.438 37.4072C240.374 37.3793 240.303 37.3704 240.234 37.3817C240.165 37.393 240.101 37.424 240.05 37.4709C239.998 37.5179 239.961 37.5787 239.943 37.6462C239.925 37.7136 239.927 37.7848 239.949 37.851L241.771 43.24L240.432 42.7328C240.342 42.6933 240.246 42.6724 240.149 42.6713C240.051 42.6703 239.955 42.6891 239.865 42.7266C239.775 42.7641 239.693 42.8196 239.625 42.8896C239.558 42.9596 239.505 43.0427 239.47 43.1337C239.436 43.2248 239.42 43.322 239.424 43.4193C239.429 43.5166 239.453 43.612 239.495 43.6997C239.538 43.7874 239.598 43.8655 239.671 43.9293C239.745 43.993 239.831 44.0411 239.924 44.0706L241.32 44.5968L237.131 47.8112C237.075 47.854 237.034 47.9124 237.011 47.979C236.988 48.0455 236.986 48.1173 237.004 48.1852C237.022 48.2527 237.058 48.3136 237.111 48.3599C237.163 48.4062 237.227 48.4359 237.296 48.4452L247.356 49.9921H247.407C247.479 49.9922 247.55 49.9704 247.61 49.9297C247.67 49.889 247.716 49.8312 247.743 49.7639L248.689 47.3674L259.871 51.5835L260.201 51.7039L267.24 54.3541L267.57 54.4809L276.614 57.8918L276.944 58.0122L277.211 58.1137" stroke="#290505" stroke-miterlimit="10"/>
<path d="M277.521 56.7635H277.616H277.711L284.179 59.2044L284.889 57.0741C284.936 56.9325 285.026 56.8091 285.147 56.7215C285.268 56.6339 285.413 56.5865 285.562 56.5859C285.714 56.5887 285.86 56.6393 285.981 56.7304C286.102 56.8215 286.191 56.9485 286.235 57.0931L287.504 61.2902C287.553 61.4517 287.543 61.6251 287.477 61.7802C287.411 61.9354 287.292 62.0626 287.142 62.1398L283.906 63.7501C283.807 63.8 283.699 63.826 283.588 63.8262C283.416 63.8273 283.25 63.7665 283.119 63.655C283.013 63.5611 282.937 63.4387 282.9 63.3025C282.863 63.1663 282.866 63.0223 282.909 62.8879L283.696 60.5992L277.21 58.1392C277.118 58.1056 277.036 58.0514 276.969 57.9807" stroke="#290505" stroke-miterlimit="10"/>
<path d="M96.7087 132.163L102.421 133.431L103.741 127.649L98.2636 126.381C98.2636 126.222 98.2636 126.058 98.2636 125.893C98.2669 124.136 97.9128 122.398 97.2228 120.783L101.665 117.245L97.9653 112.61L93.7384 116.021C92.2481 114.73 90.4839 113.794 88.5786 113.282V107.779H82.6445V113.092C80.6862 113.472 78.8422 114.299 77.2562 115.508L72.9595 112.084L69.2593 116.719L73.4545 120.06C72.5654 121.817 72.088 123.753 72.0582 125.721L66.5938 126.989L67.9139 132.772L73.3022 131.542C74.1195 133.277 75.3065 134.813 76.7802 136.043L74.2415 141.248L79.5917 143.822L82.0606 138.699C83.8841 139.148 85.7837 139.194 87.6266 138.833L90.1653 144.139L95.5155 141.565L93.0276 136.404C94.5462 135.272 95.8019 133.825 96.7087 132.163ZM79.3315 125.943C79.3315 124.792 79.6732 123.667 80.3134 122.71C80.9536 121.753 81.8635 121.007 82.9281 120.566C83.9927 120.126 85.1642 120.011 86.2944 120.235C87.4246 120.46 88.4627 121.014 89.2775 121.828C90.0923 122.642 90.6472 123.679 90.872 124.808C91.0968 125.937 90.9815 127.107 90.5405 128.171C90.0995 129.234 89.3528 130.143 88.3946 130.783C87.4365 131.422 86.3101 131.764 85.1577 131.764C84.3926 131.764 83.635 131.613 82.9281 131.32C82.2213 131.028 81.579 130.599 81.038 130.059C80.497 129.518 80.0678 128.877 79.775 128.171C79.4822 127.465 79.3315 126.708 79.3315 125.943Z" stroke="#290505" stroke-linecap="round" stroke-linejoin="round"/>
<path d="M443.079 191.214L446.944 192.095L447.839 188.177L444.127 187.328C444.127 187.22 444.127 187.106 444.127 186.998C444.129 185.807 443.892 184.627 443.428 183.53L446.437 181.133L443.898 177.963L441.093 180.284C440.084 179.409 438.887 178.775 437.596 178.432V174.686H433.54V178.28C432.214 178.542 430.966 179.104 429.891 179.922L426.978 177.602L424.439 180.772L427.282 183.035C426.683 184.216 426.36 185.516 426.337 186.839L422.688 187.664L423.582 191.582L427.238 190.751C427.792 191.926 428.595 192.967 429.593 193.801L427.892 197.326L431.516 199.069L433.191 195.595C433.872 195.766 434.571 195.853 435.273 195.855C435.84 195.852 436.405 195.797 436.961 195.69L438.694 199.285L442.324 197.541L440.636 194.048C441.64 193.285 442.473 192.319 443.079 191.214ZM431.3 187.03C431.3 186.25 431.531 185.487 431.965 184.839C432.399 184.19 433.016 183.685 433.737 183.386C434.458 183.088 435.252 183.01 436.018 183.162C436.783 183.314 437.487 183.69 438.039 184.241C438.591 184.793 438.967 185.495 439.119 186.26C439.272 187.025 439.193 187.818 438.895 188.539C438.596 189.259 438.09 189.875 437.441 190.308C436.792 190.742 436.028 190.973 435.248 190.973C434.201 190.973 433.196 190.558 432.456 189.818C431.716 189.078 431.3 188.075 431.3 187.03Z" stroke="#290505" stroke-linecap="round" stroke-linejoin="round"/>
<path d="M107.643 103.748L112.327 104.813L113.406 100.071L108.912 99.0499C108.912 98.9167 108.912 98.7836 108.912 98.6505C108.921 97.2139 108.638 95.7904 108.081 94.4661L111.73 91.5624L108.697 87.7584L105.206 90.5353C103.982 89.478 102.535 88.7107 100.973 88.2909V83.7578H96.1049V88.1261C94.4908 88.437 92.9704 89.1161 91.6622 90.1105L88.1335 87.3019L85.0998 91.1059L88.5396 93.8448C87.8125 95.2855 87.4219 96.8723 87.3973 98.4856L82.9102 99.5127L83.9954 104.255L88.4381 103.247C89.1072 104.67 90.0799 105.929 91.2878 106.937L89.2251 111.204L93.617 113.315L95.6416 109.111C96.4723 109.316 97.3246 109.421 98.1802 109.422C98.8661 109.421 99.5504 109.355 100.224 109.226L102.318 113.575L106.71 111.464L104.667 107.235C105.9 106.302 106.916 105.112 107.643 103.748ZM93.3949 98.6758C93.3936 97.7314 93.6728 96.8077 94.1972 96.0218C94.7215 95.2359 95.4675 94.623 96.3406 94.2607C97.2138 93.8984 98.1749 93.8029 99.1023 93.9864C100.03 94.1699 100.882 94.6241 101.551 95.2915C102.22 95.9589 102.676 96.8096 102.861 97.7358C103.046 98.662 102.951 99.6223 102.59 100.495C102.228 101.368 101.616 102.114 100.83 102.639C100.044 103.163 99.1194 103.444 98.1739 103.444C97.5447 103.444 96.9217 103.319 96.3406 103.078C95.7596 102.837 95.2319 102.484 94.7879 102.039C94.3438 101.593 93.9922 101.065 93.7531 100.483C93.5141 99.9018 93.3923 99.279 93.3949 98.6505V98.6758Z" stroke="#290505" stroke-linecap="round" stroke-linejoin="round"/>
<path d="M361.601 265.994C361.601 265.994 357.659 268.53 356.872 269.164C356.085 269.798 352.461 270.584 352.937 271.7C353.413 272.816 357.977 273.431 359.24 273.431C360.503 273.431 365.377 270.895 366.64 270.603C367.903 270.312 367.909 268.872 367.427 267.769C366.906 266.802 366.267 265.903 365.523 265.094L362.216 266.038L361.601 265.994Z" fill="white" stroke="#290505" stroke-linecap="round" stroke-linejoin="round"/>
<path d="M406.334 265.563C406.334 265.563 403.338 269.184 402.869 269.97C402.399 270.756 399.695 272.011 399.695 273.273C399.695 274.534 404.265 273.907 405.68 273.742C406.532 273.61 407.343 273.287 408.051 272.797C408.76 272.307 409.349 271.664 409.774 270.914C410.567 269.336 411.195 266.033 410.25 264.777C409.304 263.522 406.334 265.563 406.334 265.563Z" fill="white" stroke="#290505" stroke-linecap="round" stroke-linejoin="round"/>
<path d="M368.531 195.862L368.404 196.813L367.426 204.357C367.426 204.357 358.668 216.714 355.463 223.149C353.825 226.433 351.541 230.332 351.858 231.429L361.6 265.995C362.338 266.357 363.14 266.572 363.961 266.629C364.717 266.603 365.462 266.444 366.163 266.16L365.719 234.168L379.237 219.313L380.97 221.513C380.97 221.513 385.457 237.414 387.348 239.931C389.24 242.448 405.551 266.033 405.551 266.033C406.391 266.425 407.302 266.641 408.229 266.667C409.651 266.667 410.279 264.765 410.279 264.765C410.279 264.765 398.544 235.823 398.22 234.878C397.897 233.933 398.138 210.786 398.138 210.786L396.234 199.615L394.032 192.533C394.032 192.533 389.938 193.636 383.007 193.319C376.077 193.002 369.464 192.533 369.464 192.533L368.531 195.862Z" fill="#290505" stroke="#290505" stroke-linecap="round" stroke-linejoin="round"/>
<path d="M349.942 120.029C349.942 120.029 347.74 123.332 347.403 125.38C347.272 126.742 347.667 128.103 348.508 129.184L347.238 131.859C347.238 131.859 351.491 140.513 354.01 144.444C356.53 148.375 360.623 154.987 363.143 156.249C365.663 157.511 370.543 162.697 370.543 162.697L373.38 156.56C373.38 156.56 365.066 146.143 359.855 138.909C356.705 134.518 353.813 129.947 351.192 125.221C351.187 123.852 351.293 122.484 351.51 121.132C351.716 119.936 351.82 118.725 351.821 117.512L349.942 120.029Z" fill="#290505" stroke="#290505" stroke-linecap="round" stroke-linejoin="round"/>
<path d="M375.463 154.17C375.463 154.17 369.002 161.879 367.746 166.913C366.489 171.947 368.057 187.524 368.057 189.737C368.057 191.95 366.787 194.302 368.533 195.874C370.278 197.447 375.463 196.66 377.348 196.508C379.233 196.356 388.22 196.508 390.898 195.716C393.577 194.923 394.833 193.814 394.833 191.943C394.833 190.073 391.527 175.111 391.025 172.594C390.524 170.077 392.295 161.423 389.927 157.327C387.56 153.231 380.027 152.597 375.463 154.17Z" fill="white" stroke="#290505" stroke-linecap="round" stroke-linejoin="round"/>
<path d="M374.358 155.271C374.358 155.271 366.482 163.292 365.377 167.539C364.273 171.787 360.338 179.972 359.081 183.592C357.987 186.448 356.715 189.232 355.273 191.929L356.689 197.591L360.313 193.66C360.313 193.66 363.937 181.227 365.828 176.035C367.719 170.843 368.03 165.967 368.367 164.553C368.703 163.139 374.358 155.271 374.358 155.271Z" fill="#290505" stroke="#290505" stroke-linecap="round" stroke-linejoin="round"/>
<path d="M375.46 154.796C375.46 154.796 370.732 167.698 370.891 168.643C371.049 169.588 373.252 204.515 373.252 204.515C373.252 204.515 375.46 209.866 385.38 209.079C395.3 208.293 403.011 206.873 403.011 206.873C403.011 206.873 400.022 195.074 397.344 189.723C394.665 184.372 393.25 181.228 393.25 178.711C393.25 176.194 392.146 159.361 391.517 156.686C391.243 155.312 390.764 153.987 390.096 152.755L389.156 151.969L375.46 154.796Z" fill="#F7BBBD" stroke="#290505" stroke-linecap="round" stroke-linejoin="round"/>
<path d="M371.68 181.545L379.397 200.425C379.397 200.425 376.224 201.693 375.145 202.784C374.54 203.393 373.904 203.97 373.241 204.515L371.68 181.545Z" fill="#F7BBBD" stroke="#290505" stroke-linecap="round" stroke-linejoin="round"/>
<path d="M381.917 129.468C381.917 129.468 377.036 133.399 377.036 134.502C377.036 135.605 375.767 137.178 375.767 137.178C375.767 137.178 373.228 137.495 373.088 138.446C372.949 139.397 373.875 141.28 373.875 141.28C373.875 141.28 372.301 146.631 372.936 147.886C373.571 149.141 378.128 149.306 378.128 149.306L378.286 152.768L389.158 151.037L388.999 148.362C388.999 148.362 394.826 142.066 397.663 139.39C400.5 136.715 396.876 131.998 393.41 128.378C389.945 124.758 381.751 124.758 381.123 126.647C380.929 127.139 380.901 127.682 381.044 128.191C381.187 128.701 381.494 129.149 381.917 129.468Z" fill="white" stroke="#290505" stroke-linecap="round" stroke-linejoin="round"/>
<path d="M377.824 135.129C378.172 134.957 378.56 134.88 378.947 134.908C379.334 134.936 379.707 135.067 380.027 135.288" stroke="#290505" stroke-linecap="round" stroke-linejoin="round"/>
<path d="M377.987 137.399C377.867 137.906 377.943 138.363 378.152 138.407C378.362 138.452 378.634 138.09 378.755 137.583C378.876 137.076 378.799 136.626 378.59 136.575C378.381 136.524 378.108 136.892 377.987 137.399Z" fill="#290505"/>
<path d="M393.415 128.366C389.95 124.746 381.756 124.746 381.128 126.635C380.93 127.128 380.899 127.673 381.041 128.185C381.184 128.697 381.49 129.149 381.915 129.469C381.915 129.469 387.271 130.103 386.484 131.517C385.697 132.931 383.019 132.931 383.647 133.876C384.276 134.82 386.484 136.862 385.697 137.337C384.91 137.813 384.428 138.751 384.91 139.068C385.393 139.385 386.18 138.593 388.084 138.91C389.988 139.227 389.499 143.626 387.766 144.26C386.034 144.894 385.228 144.102 388.401 146.936C388.774 147.262 389.204 147.516 389.67 147.684C391.244 145.991 395.44 141.528 397.712 139.379C400.472 136.703 396.88 131.986 393.415 128.366Z" fill="#290505" stroke="#290505" stroke-linecap="round" stroke-linejoin="round"/>
<path d="M386.486 144.729L383.649 144.102L381.758 145.515" stroke="#290505" stroke-linecap="round" stroke-linejoin="round"/>
<path d="M389.794 149.135L375.305 153.066L374.359 156.058L391.527 152.913L389.794 149.135Z" fill="#F7BBBD" stroke="#290505" stroke-linecap="round" stroke-linejoin="round"/>
<path d="M353.253 124.745L352.777 121.442C352.777 121.442 354.193 116.883 354.193 115.78C354.193 114.677 353.095 112.16 353.095 111.532C353.095 110.905 352.149 109.96 351.825 111.215C351.502 112.471 350.88 117.194 350.88 117.194C350.88 117.194 348.836 120.656 348.976 122.387C349.115 124.117 350.702 127.738 350.702 127.738L353.539 126.007L353.253 124.745Z" fill="white" stroke="#290505" stroke-linecap="round" stroke-linejoin="round"/>
<path d="M355.299 127.267L353.255 124.744L349.473 127.737L351.675 131.515L355.299 127.267Z" fill="white" stroke="#290505" stroke-linecap="round" stroke-linejoin="round"/>
<path d="M389.635 159.679C388.59 157.041 386.633 154.863 384.12 153.542C381.442 152.23 378.648 151.169 375.774 150.372L354.354 125.988L350.102 130.236C350.102 130.236 359.082 148.958 360.815 152.103C362.547 155.247 382.546 176.829 382.546 176.829" fill="#F7BBBD"/>
<path d="M389.635 159.679C388.59 157.041 386.633 154.863 384.12 153.542C381.442 152.23 378.648 151.169 375.774 150.372L354.354 125.988L350.102 130.236C350.102 130.236 359.082 148.958 360.815 152.103C362.547 155.247 382.546 176.829 382.546 176.829" stroke="#290505" stroke-linecap="round" stroke-linejoin="round"/>
<path d="M202.895 262.756C202.895 262.756 199.881 267.035 199.246 269.413C198.611 271.79 198.77 274.96 200.357 274.643C201.943 274.326 205.593 270.364 205.91 269.254C206.227 268.145 207.338 263.073 207.338 263.073L203.53 262.756H202.895Z" fill="white" stroke="#290505" stroke-linecap="round" stroke-linejoin="round"/>
<path d="M257.316 265.45C257.316 265.45 257.316 269.888 258.268 270.522C259.22 271.156 265.726 273.85 267.63 274.009C269.534 274.167 270.168 273.85 269.058 271.631C267.947 269.412 261.6 265.133 261.6 265.133L257.316 265.45Z" fill="white" stroke="#290505" stroke-linecap="round" stroke-linejoin="round"/>
<path d="M218.285 190.48L214.635 205.855L212.731 234.702C212.731 234.702 205.75 246.748 205.115 251.186C204.481 255.624 202.418 264.658 202.418 264.658C202.418 264.658 205.274 265.926 205.75 265.926C206.226 265.926 211.938 257.684 215.111 254.514C218.285 251.344 225.425 237.713 225.742 237.079C226.059 236.445 231.137 216.316 231.454 215.682C231.771 215.048 233.675 214.255 233.675 214.255C233.675 214.255 243.233 227.982 244.388 229.135C246.235 230.98 249.225 235.653 249.225 235.653C249.225 235.653 255.73 261.488 256.206 262.756C256.55 263.945 256.763 265.167 256.841 266.402L262.711 267.67C262.711 267.67 263.187 250.393 262.87 246.272C262.553 242.151 261.283 233.275 261.283 233.275C261.283 233.275 251.605 206.806 251.129 206.172C250.653 205.538 247.797 199.198 247.797 199.198L246.845 193.175C241.263 194.737 235.39 194.954 229.709 193.809C220.189 191.907 218.285 190.48 218.285 190.48Z" fill="#290505" stroke="#290505" stroke-linecap="round" stroke-linejoin="round"/>
<path d="M227.254 147.501C223.807 149.777 220.23 151.85 216.54 153.708C211.672 156.035 210.511 158.361 210.511 159.522C210.511 160.682 206.278 179.917 206.595 180.97C206.912 182.022 209.768 183.614 211.571 184.038C213.373 184.463 215.906 183.931 216.432 183.506C216.959 183.081 218.654 175.898 218.654 175.898C218.654 175.898 217.702 188.895 217.283 190.588C216.864 192.28 220.774 196.611 224.582 197.352C228.39 198.094 238.646 198.088 241.292 197.245C243.939 196.401 245.735 196.186 246.579 194.601C247.423 193.016 247.956 181.712 248.064 180.97C248.172 180.228 249.016 173.47 249.016 173.47L251.764 182.77L252.824 184.672C252.824 184.672 253.351 183.506 256.632 181.604C259.913 179.702 260.967 179.493 260.967 179.493C260.967 179.493 259.063 173.26 257.902 169.666C256.74 166.071 255.572 159.522 254.094 156.878C252.615 154.234 249.968 153.074 246.37 150.855C242.771 148.636 237.484 147.368 236.85 147.051C236.215 146.734 230.56 146.265 227.254 147.501Z" fill="white" stroke="#290505" stroke-linecap="round" stroke-linejoin="round"/>
<path d="M218.652 175.898L220.886 168.17" stroke="#290505" stroke-linecap="round" stroke-linejoin="round"/>
<path d="M250.566 166.256L250.947 164.506" stroke="#290505" stroke-linecap="round" stroke-linejoin="round"/>
<path d="M249.016 173.47L250.228 167.84" stroke="#290505" stroke-linecap="round" stroke-linejoin="round"/>
<path d="M230.027 159.73L232.249 162.9L233.518 165.753L230.345 192.064L234.787 196.185L238.278 191.589L235.105 166.07L237.009 162.425L239.541 158.285L234.946 155.609L230.027 159.73Z" fill="#F7BBBD" stroke="#290505" stroke-linecap="round" stroke-linejoin="round"/>
<path d="M228.477 146.367C228.477 146.367 226.275 146.944 225.793 148.269C225.31 149.594 225.983 157.658 226.656 159.383C227.204 160.678 227.84 161.934 228.56 163.142C228.56 163.142 234.449 159.383 235.503 159.193C236.557 159.002 242.605 162.166 242.605 162.166C242.605 162.166 242.795 158.425 240.701 153.157C238.607 147.888 233.72 144.915 231.587 144.718C230.965 144.666 230.341 144.794 229.79 145.086C229.239 145.379 228.783 145.823 228.477 146.367Z" fill="white" stroke="#290505" stroke-linecap="round" stroke-linejoin="round"/>
<path d="M227.602 145.7C227.602 145.7 227.894 149.054 228.179 151.349C228.465 153.644 232.019 161.226 233.256 162.279C234.494 163.331 237.064 159.882 237.959 158.348C238.336 157.65 238.76 156.979 239.229 156.338C239.229 156.338 233.091 153.365 231.175 149.916C229.258 146.467 229.442 144.844 228.579 144.736C227.716 144.628 227.602 145.7 227.602 145.7Z" fill="white" stroke="#290505" stroke-linecap="round" stroke-linejoin="round"/>
<path d="M230.699 153.943L235.415 161.551C235.415 161.551 237.585 159.548 237.953 158.381C238.322 157.215 230.699 153.943 230.699 153.943Z" fill="#290505" stroke="#290505" stroke-linecap="round" stroke-linejoin="round"/>
<path d="M225.756 140.319C225.347 141.417 225.193 142.595 225.305 143.761C225.451 145.86 226.651 147.356 227.254 147.502C227.798 147.605 228.35 147.656 228.904 147.654C228.904 147.654 229.05 151.395 230.7 153.943C232.35 156.492 237.897 160.081 239.541 158.286C241.185 156.492 243.292 149.303 244.041 145.86C244.512 143.634 244.862 141.384 245.088 139.12L234 136.584L228.752 135.393L225.756 140.319Z" fill="white" stroke="#290505" stroke-linecap="round" stroke-linejoin="round"/>
<path d="M232.196 138.847C232.196 138.847 232.799 140.793 231.6 142.017C230.4 143.241 229.949 143.215 229.949 143.215C229.949 143.215 230.248 145.162 229.797 145.162C229.599 145.165 229.402 145.128 229.218 145.054C229.035 144.98 228.868 144.869 228.728 144.729C228.588 144.588 228.478 144.421 228.404 144.238C228.331 144.054 228.295 143.857 228.299 143.659C228.261 142.856 228.002 142.08 227.55 141.415L225.754 140.369C225.319 138.189 225.369 135.94 225.9 133.781C226.801 130.339 233.243 128.988 238.644 129.14C244.045 129.293 245.385 136.178 245.385 136.178C246.527 136.695 247.63 137.294 248.685 137.972C249.135 138.422 249.586 139.468 247.035 140.819C244.483 142.169 239.99 142.613 237.293 141.567C235.506 140.835 233.798 139.924 232.196 138.847Z" fill="#290505" stroke="#290505" stroke-linecap="round" stroke-linejoin="round"/>
<path d="M235.836 146.809C235.659 147.367 235.297 147.747 235.018 147.665C234.739 147.583 234.656 147.031 234.827 146.499C234.999 145.966 235.367 145.56 235.64 145.649C235.913 145.738 236.008 146.258 235.836 146.809Z" fill="#290505"/>
<path d="M242.068 147.292C241.896 147.85 241.528 148.231 241.255 148.142C240.982 148.053 240.887 147.508 241.058 146.982C241.23 146.455 241.598 146.043 241.877 146.126C242.156 146.208 242.239 146.734 242.068 147.292Z" fill="#290505"/>
<path d="M233.555 144.934C233.555 144.934 234.519 143.495 236.728 144.072" stroke="#290505" stroke-linecap="round" stroke-linejoin="round"/>
<path d="M240.367 144.737C240.564 144.551 240.797 144.407 241.051 144.315C241.306 144.223 241.578 144.185 241.848 144.204C242.118 144.222 242.382 144.297 242.622 144.422C242.862 144.548 243.073 144.722 243.242 144.934" stroke="#290505" stroke-linecap="round" stroke-linejoin="round"/>
<path d="M237.363 151.641C236.45 151.67 235.546 151.83 234.679 152.116C233.238 152.598 231.131 152.021 232.089 153.27C233.047 154.519 234.869 154.899 236.786 154.899C238.702 154.899 240.435 154.804 241.013 153.942C241.59 153.08 242.447 152.218 241.781 152.116C241.114 152.015 238.518 151.831 238.226 151.831C237.933 151.799 237.643 151.736 237.363 151.641Z" fill="#290505" stroke="#290505" stroke-linecap="round" stroke-linejoin="round"/>
<path d="M239.904 146.08C239.904 146.08 239.714 151.349 239.523 152.312C239.493 152.568 239.385 152.808 239.214 153.001C239.044 153.193 238.819 153.33 238.569 153.392C238.319 153.454 238.056 153.438 237.815 153.347C237.574 153.256 237.366 153.094 237.219 152.883C236.61 152.082 236.095 151.214 235.684 150.296" fill="white"/>
<path d="M239.904 146.08C239.904 146.08 239.714 151.349 239.523 152.312C239.493 152.568 239.385 152.808 239.214 153.001C239.044 153.193 238.819 153.33 238.569 153.392C238.319 153.454 238.056 153.438 237.815 153.347C237.574 153.256 237.366 153.094 237.219 152.883C236.61 152.082 236.095 151.214 235.684 150.296" stroke="#290505" stroke-linecap="round" stroke-linejoin="round"/>
<path d="M260.333 177.166C260.333 177.166 255.763 177.914 253.859 179.182C251.955 180.45 251.289 181.554 251.765 182.771C252.172 183.966 252.704 185.116 253.352 186.201C254.145 187.469 255.573 186.518 255.573 186.518C255.44 186.376 255.338 186.208 255.274 186.025C255.209 185.841 255.184 185.646 255.198 185.453C255.213 185.259 255.268 185.07 255.36 184.899C255.452 184.728 255.579 184.577 255.732 184.457C256.842 183.348 260.968 181.763 260.968 181.763H262.396C263.03 181.763 262.396 180.019 261.92 179.227C261.444 178.434 261.444 176.849 260.333 177.166Z" fill="white" stroke="#290505" stroke-linecap="round" stroke-linejoin="round"/>
<path d="M206.543 184.773C206.543 184.773 206.543 189.37 206.86 193.966C207.178 198.563 210.986 211.401 210.986 211.401L214.794 210.45C214.794 210.45 214.635 198.404 214.635 194.6C214.635 190.796 214.476 186.2 214.476 186.2L206.543 184.773Z" fill="white" stroke="#290505" stroke-linecap="round" stroke-linejoin="round"/>
<path d="M205.854 181.572C205.878 181.373 205.953 181.184 206.073 181.024C206.192 180.863 206.351 180.737 206.535 180.657C206.718 180.577 206.919 180.546 207.118 180.567C207.317 180.589 207.507 180.662 207.669 180.779C208.714 181.472 209.904 181.917 211.147 182.079C212.666 182.348 214.216 182.398 215.749 182.225C215.902 182.204 216.059 182.223 216.203 182.278C216.348 182.334 216.476 182.425 216.577 182.543C216.677 182.661 216.746 182.802 216.778 182.953C216.81 183.105 216.803 183.262 216.758 183.41C216.358 184.723 215.755 186.511 215.273 186.992C214.479 187.785 210.671 187.785 208.767 187.151C206.863 186.517 206.387 186.041 205.911 184.456C205.723 183.506 205.703 182.529 205.854 181.572Z" fill="white" stroke="#290505" stroke-linecap="round" stroke-linejoin="round"/>
<path d="M279.85 197.136C280.211 195.984 280.867 194.946 281.754 194.125C283.182 192.857 283.816 192.54 282.388 192.381C280.96 192.223 279.215 194.442 279.215 194.442L279.85 197.136Z" fill="white" stroke="#290505" stroke-linecap="round" stroke-linejoin="round"/>
<path d="M255.571 186.517C256.54 187.491 257.667 188.294 258.903 188.894C261.283 190.162 273.183 196.661 273.183 196.661L277.467 194.125C277.467 194.125 270.803 191.113 267.789 187.943C264.774 184.773 262.394 181.762 262.394 181.762C262.394 181.762 254.461 182.237 255.571 186.517Z" fill="white" stroke="#290505" stroke-linecap="round" stroke-linejoin="round"/>
<path d="M271.121 194.918C271.121 194.918 271.756 198.246 272.866 198.405C273.977 198.563 279.372 198.088 279.848 197.137C280.324 196.186 280.641 192.857 279.848 192.699C279.054 192.54 271.121 194.918 271.121 194.918Z" fill="white" stroke="#290505" stroke-linecap="round" stroke-linejoin="round"/>
<path d="M211.468 215.256C210.721 214.305 209.739 213.564 208.619 213.106C206.835 212.428 206.131 212.352 207.413 211.699C208.695 211.046 211.107 212.51 211.107 212.51L211.468 215.256Z" fill="white" stroke="#290505" stroke-linecap="round" stroke-linejoin="round"/>
<path d="M218.843 210.102C218.843 210.102 219.427 213.436 218.444 213.975C217.46 214.514 212.249 215.972 211.462 215.243C210.675 214.514 209.203 211.515 209.895 211.091C210.586 210.666 218.843 210.102 218.843 210.102Z" fill="white" stroke="#290505" stroke-linecap="round" stroke-linejoin="round"/>
<path d="M58.3896 235.15C58.3896 235.15 58.9418 233.153 58.9545 233.027C59.1703 231.511 58.6879 228.468 57.1457 227.72C56.8857 227.604 56.6041 227.543 56.3193 227.543C56.0345 227.543 55.7527 227.602 55.4923 227.717C55.232 227.833 54.9988 228.001 54.808 228.213C54.6172 228.424 54.4731 228.673 54.3849 228.944C53.9723 230.078 54.4991 231.48 55.1147 232.424C55.8509 233.553 58.3896 235.15 58.3896 235.15Z" fill="#290505"/>
<path d="M28.016 234.492C29.2472 235.031 32.2492 234.961 32.2555 234.961C32.2619 234.961 31.6209 232.996 31.5511 232.875C30.9164 231.499 28.803 229.223 27.1084 229.451C26.8278 229.497 26.5599 229.602 26.3224 229.758C26.0848 229.914 25.8828 230.118 25.7295 230.357C25.5762 230.597 25.4751 230.865 25.4327 231.146C25.3904 231.427 25.4077 231.714 25.4837 231.987C25.7629 233.16 26.9688 234.035 28.016 234.492Z" fill="#290505"/>
<path d="M29.0558 243.19C30.3251 243.373 33.0098 242.6 33.2256 242.556C33.6644 244.089 34.2073 245.591 34.8503 247.051C35.2184 247.907 35.6182 248.75 36.0244 249.587C35.7833 249.225 35.5611 248.908 35.523 248.864C34.5266 247.71 31.9118 246.068 30.3378 246.734C30.079 246.852 29.8481 247.024 29.6599 247.237C29.4717 247.45 29.3306 247.701 29.2456 247.972C29.1606 248.244 29.1337 248.53 29.1666 248.813C29.1995 249.095 29.2915 249.367 29.4366 249.612C30.0205 250.671 31.4168 251.191 32.5465 251.356C33.6762 251.52 35.9927 250.905 36.5956 250.722C36.7606 251.045 36.913 251.356 37.078 251.692C37.8523 253.239 38.6393 254.779 39.3564 256.307C39.6103 256.846 39.8388 257.391 40.0736 257.93C39.8578 257.613 39.6674 257.347 39.6357 257.296C38.6393 256.142 36.0244 254.494 34.4505 255.166C34.1926 255.284 33.9624 255.456 33.7748 255.669C33.5873 255.882 33.4465 256.131 33.3616 256.402C33.2767 256.673 33.2495 256.958 33.2818 257.24C33.3141 257.522 33.4052 257.793 33.5492 258.038C34.1331 259.09 35.5294 259.617 36.6591 259.781C37.7888 259.946 39.8769 259.388 40.6004 259.192C40.8225 259.75 41.0447 260.314 41.2351 260.866C41.3556 261.246 41.4953 261.607 41.5968 261.994C41.6984 262.381 41.8126 262.755 41.9141 263.129C42.0919 263.864 42.2759 264.613 42.4282 265.335C42.5425 265.83 42.6377 266.305 42.7329 266.787C42.4853 266.248 41.984 265.202 41.9332 265.12C41.1145 263.852 38.7599 261.804 37.1224 262.222C36.8489 262.3 36.5949 262.435 36.377 262.617C36.159 262.8 35.982 263.026 35.8575 263.282C35.7329 263.537 35.6636 263.816 35.6541 264.1C35.6446 264.384 35.6951 264.666 35.8023 264.929C36.2148 266.064 37.5159 266.793 38.6075 267.129C39.8071 267.497 42.4727 267.161 42.8027 267.129C42.9613 267.922 43.1073 268.695 43.2406 269.431C43.5072 270.959 43.7166 272.341 43.8753 273.52H44.9923C44.8019 272.297 44.5544 270.851 44.237 269.241C44.0784 268.436 43.888 267.573 43.6912 266.705C44.493 266.384 45.2751 266.015 46.0331 265.602C46.909 266.553 49.1557 267.662 49.4476 267.802C49.143 268.55 48.813 269.279 48.5401 269.963C47.9562 271.301 47.3977 272.499 46.9026 273.527H48.1085C48.5337 272.588 48.997 271.523 49.473 270.357C49.784 269.596 50.1077 268.772 50.425 267.928C50.7487 267.998 53.3826 268.531 54.6138 268.252C55.7245 268.004 57.0763 267.377 57.5777 266.274C57.7034 266.021 57.7747 265.745 57.7872 265.463C57.7997 265.181 57.753 264.9 57.6502 264.637C57.5474 264.375 57.3908 264.136 57.1903 263.938C56.9898 263.739 56.7499 263.584 56.4861 263.484C54.8677 262.939 52.3861 264.752 51.4786 266.02C51.4278 266.096 50.9328 266.946 50.6281 267.485C50.7614 267.142 50.8883 266.806 51.0153 266.451C51.2755 265.741 51.5166 265.031 51.7705 264.27L52.1132 263.135C52.2338 262.761 52.31 262.349 52.4179 261.95C52.64 261.024 52.8177 260.048 52.9764 259.116C53.6111 259.338 55.8007 260.111 56.9494 260.029C58.0981 259.946 59.4881 259.528 60.1735 258.52C60.3373 258.287 60.4501 258.023 60.5047 257.744C60.5593 257.465 60.5544 257.178 60.4903 256.901C60.4263 256.624 60.3044 256.363 60.1328 256.136C59.9612 255.91 59.7437 255.721 59.4944 255.584C57.9712 254.798 55.2421 256.218 54.1632 257.321C54.0934 257.391 53.4016 258.247 53.0335 258.729C53.1224 258.152 53.2176 257.575 53.2874 256.985C53.4968 255.293 53.6618 253.568 53.8268 251.85C53.8776 251.324 53.9347 250.798 53.9918 250.278C54.2076 250.36 56.8161 251.324 58.0981 251.235C59.2405 251.159 60.6685 250.741 61.3286 249.726C61.4921 249.493 61.6046 249.229 61.6587 248.949C61.7129 248.67 61.7074 248.382 61.6427 248.105C61.578 247.828 61.4556 247.568 61.2833 247.342C61.1111 247.115 60.893 246.927 60.6432 246.791C59.1263 246.005 56.3972 247.425 55.312 248.528C55.2295 248.61 54.2394 249.853 53.9982 250.176C54.1251 249.022 54.2584 247.875 54.4298 246.746C54.6538 245.208 54.9739 243.686 55.3881 242.188C55.4897 242.226 58.206 243.253 59.5198 243.158C60.6558 243.082 62.0585 242.663 62.7439 241.649C62.9077 241.417 63.0205 241.152 63.0751 240.873C63.1297 240.594 63.1248 240.307 63.0607 240.03C62.9967 239.753 62.8748 239.492 62.7032 239.266C62.5316 239.039 62.3141 238.851 62.0648 238.714C60.5416 237.927 57.8189 239.348 56.7336 240.451C56.6638 240.527 55.9022 241.465 55.5531 241.922L55.4706 241.877C55.9382 240.397 56.5394 238.963 57.2667 237.591C57.6539 236.831 58.0664 236.121 58.4853 235.442C58.974 235.689 61.208 236.774 62.4012 236.818C63.5944 236.862 65.0033 236.609 65.7713 235.67C65.9595 235.457 66.1006 235.206 66.1853 234.935C66.27 234.664 66.2965 234.377 66.2629 234.095C66.2294 233.812 66.1366 233.54 65.9906 233.296C65.8447 233.052 65.6488 232.841 65.4159 232.678C63.9942 231.733 61.1192 232.874 59.926 233.825C59.8625 233.876 59.2913 234.459 58.828 234.916C59.0184 234.612 59.2152 234.282 59.4056 234.009C60.1227 232.932 60.8463 231.993 61.4936 231.163C61.8617 230.693 62.2044 230.275 62.5345 229.895C63.1691 229.895 65.5618 229.812 66.6154 229.318C67.6689 228.823 68.8367 227.923 69.0842 226.744C69.1528 226.468 69.1624 226.181 69.1123 225.901C69.0623 225.621 68.9538 225.355 68.7939 225.12C68.634 224.885 68.4263 224.686 68.1844 224.536C67.9424 224.387 67.6716 224.29 67.3897 224.252C65.6888 224.068 63.6642 226.401 63.0422 227.796C62.9851 227.917 62.3631 229.901 62.4075 229.901H62.4456C62.1219 230.269 61.7792 230.662 61.4174 231.106C60.7828 231.923 60.0085 232.849 59.2659 233.921C58.4488 235.057 57.7027 236.243 57.0319 237.471C56.2727 238.843 55.6356 240.28 55.1279 241.763C55.1279 241.763 55.1279 241.763 55.1279 241.814C55.1279 241.313 55.1279 239.912 55.1279 239.804C54.9375 238.289 53.6618 235.48 51.9546 235.17C51.6736 235.125 51.3863 235.139 51.1115 235.213C50.8367 235.287 50.5806 235.418 50.36 235.598C50.1395 235.777 49.9594 236.001 49.8317 236.255C49.704 236.509 49.6315 236.788 49.619 237.072C49.5175 238.276 50.3933 239.481 51.2437 240.242C52.2021 241.097 54.8677 241.928 55.0517 241.991C54.5817 243.51 54.2128 245.058 53.9474 246.626C53.7888 247.539 53.6491 248.471 53.5285 249.396C53.5285 248.965 53.5285 248.579 53.5285 248.522C53.3318 247.013 52.0625 244.198 50.3552 243.887C50.0744 243.843 49.7874 243.859 49.5131 243.933C49.2387 244.007 48.983 244.138 48.7627 244.318C48.5424 244.497 48.3623 244.721 48.2343 244.974C48.1063 245.228 48.0331 245.505 48.0196 245.789C47.9244 246.994 48.7939 248.198 49.6444 248.959C50.4948 249.72 52.7733 250.481 53.3699 250.677L53.2366 251.749C53.0335 253.467 52.8368 255.179 52.6019 256.852C52.5131 257.442 52.4052 258.019 52.3036 258.602C52.3036 258.215 52.3036 257.892 52.3036 257.841C52.1069 256.326 50.8376 253.518 49.1303 253.207C48.8493 253.162 48.562 253.177 48.2872 253.251C48.0124 253.324 47.7563 253.455 47.5358 253.635C47.3152 253.815 47.1352 254.039 47.0075 254.293C46.8797 254.547 46.8073 254.825 46.7947 255.109C46.6932 256.313 47.569 257.518 48.4195 258.279C49.2699 259.04 51.3262 259.724 52.0371 259.959C51.9101 260.549 51.7896 261.138 51.6436 261.702C51.5293 262.089 51.4532 262.463 51.3199 262.844L50.9581 263.972C50.6979 264.676 50.4377 265.405 50.1712 266.09C49.9871 266.565 49.803 267.015 49.619 267.472C49.7142 266.882 49.8729 265.728 49.8729 265.633C49.8521 264.296 49.4894 262.987 48.8193 261.829C48.8319 261.679 48.8319 261.529 48.8193 261.379C48.7842 261.097 48.69 260.826 48.5429 260.583C48.3958 260.34 48.1991 260.13 47.9656 259.968C47.732 259.806 47.467 259.695 47.1876 259.642C46.9082 259.589 46.6208 259.596 46.3441 259.661C44.6876 260.105 43.6404 263.008 43.5579 264.53C43.5579 264.619 43.6151 265.602 43.6658 266.223C43.577 265.861 43.5008 265.513 43.412 265.145C43.2406 264.41 43.0438 263.687 42.8408 262.907L42.498 261.779C42.3901 261.398 42.2251 261.005 42.0982 260.618C41.7682 259.724 41.3937 258.837 40.9939 257.949C41.6285 257.797 43.9006 257.22 44.8019 256.516C45.7031 255.813 46.6678 254.69 46.6551 253.479C46.6629 253.192 46.6093 252.907 46.4979 252.642C46.3865 252.377 46.2198 252.138 46.009 251.943C45.7983 251.747 45.5482 251.599 45.2755 251.507C45.0027 251.416 44.7136 251.384 44.4274 251.413C42.7202 251.596 41.2541 254.31 40.9368 255.806C40.9368 255.895 40.8162 256.998 40.7717 257.6C40.5306 257.068 40.2894 256.535 40.0228 256.009C39.2612 254.475 38.4489 252.947 37.6365 251.425C37.389 250.956 37.1478 250.487 36.9066 250.018C37.1351 249.967 39.8388 249.339 40.8606 248.56C41.7682 247.862 42.7265 246.727 42.7202 245.523C42.7277 245.237 42.6744 244.952 42.5638 244.688C42.4531 244.424 42.2877 244.187 42.0783 243.991C41.8689 243.796 41.6205 243.647 41.3493 243.555C41.0781 243.463 40.7904 243.429 40.5052 243.456C38.8043 243.64 37.3318 246.347 37.0145 247.843C37.0145 247.957 36.8495 249.536 36.8368 249.942C36.2973 248.908 35.7706 247.875 35.2946 246.841C34.6506 245.437 34.0973 243.993 33.6381 242.518C33.746 242.518 36.5766 241.884 37.6174 241.053C38.525 240.356 39.4834 239.221 39.477 238.016C39.4851 237.732 39.4331 237.449 39.3244 237.186C39.2156 236.923 39.0526 236.686 38.846 236.491C38.6394 236.295 38.3938 236.145 38.1252 236.051C37.8566 235.956 37.5712 235.92 37.2874 235.943C35.5865 236.127 34.1141 238.834 33.8031 240.33C33.8031 240.432 33.6698 241.636 33.6317 242.232H33.5365C33.1084 240.738 32.8152 239.208 32.6607 237.661C32.5655 236.812 32.5211 235.994 32.502 235.201C33.0415 235.132 35.4977 234.808 36.5195 234.193C37.5413 233.578 38.5758 232.576 38.7027 231.372C38.7411 231.091 38.7199 230.804 38.6403 230.532C38.5607 230.26 38.4246 230.007 38.2408 229.79C38.057 229.574 37.8297 229.398 37.5736 229.276C37.3175 229.153 37.0383 229.085 36.7543 229.077C35.0407 229.077 33.2763 231.613 32.8003 233.052C32.8003 233.134 32.6036 233.965 32.4893 234.574C32.4893 234.212 32.4893 233.844 32.4893 233.496C32.4893 232.228 32.5782 231.023 32.6544 229.971C32.7051 229.375 32.7686 228.836 32.8257 228.335C33.3208 227.999 35.3009 226.598 35.9102 225.602C36.5195 224.607 36.9891 223.219 36.5449 222.096C36.4502 221.829 36.2999 221.584 36.1039 221.378C35.9079 221.172 35.6706 221.01 35.4076 220.903C35.1445 220.795 34.8616 220.744 34.5775 220.753C34.2933 220.762 34.0143 220.831 33.7587 220.955C32.2355 221.741 31.8547 224.797 32.0895 226.306C32.0895 226.433 32.6861 228.43 32.7242 228.417C32.6544 228.899 32.5909 229.419 32.5274 229.99C32.4259 231.036 32.318 232.221 32.2862 233.521C32.2334 234.919 32.2673 236.318 32.3878 237.712C32.5043 239.277 32.7635 240.828 33.1621 242.346V242.397C32.8892 241.972 32.0958 240.818 32.026 240.736C31.0296 239.582 28.4148 237.934 26.8408 238.606C26.5822 238.724 26.3514 238.894 26.1632 239.107C25.9751 239.32 25.834 239.57 25.7489 239.841C25.6639 240.112 25.637 240.398 25.6698 240.68C25.7027 240.962 25.7946 241.234 25.9396 241.478C26.5298 242.499 27.9261 243.025 29.0558 243.19Z" fill="#290505"/>
<path opacity="0.3" d="M28.016 234.492C29.2472 235.031 32.2492 234.961 32.2555 234.961C32.2619 234.961 31.6209 232.996 31.5511 232.875C30.9164 231.499 28.803 229.223 27.1084 229.451C26.8278 229.497 26.5599 229.602 26.3224 229.758C26.0848 229.914 25.8828 230.118 25.7295 230.357C25.5762 230.597 25.4751 230.865 25.4327 231.146C25.3904 231.427 25.4077 231.714 25.4837 231.987C25.7629 233.16 26.9688 234.035 28.016 234.492Z" fill="#290505"/>
<path opacity="0.3" d="M58.3896 235.15C58.3896 235.15 58.9418 233.153 58.9545 233.027C59.1703 231.511 58.6879 228.468 57.1457 227.72C56.8857 227.604 56.6041 227.543 56.3193 227.543C56.0345 227.543 55.7527 227.602 55.4923 227.717C55.232 227.833 54.9988 228.001 54.808 228.213C54.6172 228.424 54.4731 228.673 54.3849 228.944C53.9723 230.078 54.4991 231.48 55.1147 232.424C55.8509 233.553 58.3896 235.15 58.3896 235.15Z" fill="#290505"/>
<path opacity="0.3" d="M29.0558 243.19C30.3251 243.373 33.0098 242.6 33.2256 242.556C33.6644 244.089 34.2073 245.591 34.8503 247.051C35.2184 247.907 35.6182 248.75 36.0244 249.587C35.7833 249.225 35.5611 248.908 35.523 248.864C34.5266 247.71 31.9118 246.068 30.3378 246.734C30.079 246.852 29.8481 247.024 29.6599 247.237C29.4717 247.45 29.3306 247.701 29.2456 247.972C29.1606 248.244 29.1337 248.53 29.1666 248.813C29.1995 249.095 29.2915 249.367 29.4366 249.612C30.0205 250.671 31.4168 251.191 32.5465 251.356C33.6762 251.52 35.9927 250.905 36.5956 250.722C36.7606 251.045 36.913 251.356 37.078 251.692C37.8523 253.239 38.6393 254.779 39.3564 256.307C39.6103 256.846 39.8388 257.391 40.0736 257.93C39.8578 257.613 39.6674 257.347 39.6357 257.296C38.6393 256.142 36.0244 254.494 34.4505 255.166C34.1926 255.284 33.9624 255.456 33.7748 255.669C33.5873 255.882 33.4465 256.131 33.3616 256.402C33.2767 256.673 33.2495 256.958 33.2818 257.24C33.3141 257.522 33.4052 257.793 33.5492 258.038C34.1331 259.09 35.5294 259.617 36.6591 259.781C37.7888 259.946 39.8769 259.388 40.6004 259.192C40.8225 259.75 41.0447 260.314 41.2351 260.866C41.3556 261.246 41.4953 261.607 41.5968 261.994C41.6984 262.381 41.8126 262.755 41.9141 263.129C42.0919 263.864 42.2759 264.613 42.4282 265.335C42.5425 265.83 42.6377 266.305 42.7329 266.787C42.4853 266.248 41.984 265.202 41.9332 265.12C41.1145 263.852 38.7599 261.804 37.1224 262.222C36.8489 262.3 36.5949 262.435 36.377 262.617C36.159 262.8 35.982 263.026 35.8575 263.282C35.7329 263.537 35.6636 263.816 35.6541 264.1C35.6446 264.384 35.6951 264.666 35.8023 264.929C36.2148 266.064 37.5159 266.793 38.6075 267.129C39.8071 267.497 42.4727 267.161 42.8027 267.129C42.9613 267.922 43.1073 268.695 43.2406 269.431C43.5072 270.959 43.7166 272.341 43.8753 273.52H44.9923C44.8019 272.297 44.5544 270.851 44.237 269.241C44.0784 268.436 43.888 267.573 43.6912 266.705C44.493 266.384 45.2751 266.015 46.0331 265.602C46.909 266.553 49.1557 267.662 49.4476 267.802C49.143 268.55 48.813 269.279 48.5401 269.963C47.9562 271.301 47.3977 272.499 46.9026 273.527H48.1085C48.5337 272.588 48.997 271.523 49.473 270.357C49.784 269.596 50.1077 268.772 50.425 267.928C50.7487 267.998 53.3826 268.531 54.6138 268.252C55.7245 268.004 57.0763 267.377 57.5777 266.274C57.7034 266.021 57.7747 265.745 57.7872 265.463C57.7997 265.181 57.753 264.9 57.6502 264.637C57.5474 264.375 57.3908 264.136 57.1903 263.938C56.9898 263.739 56.7499 263.584 56.4861 263.484C54.8677 262.939 52.3861 264.752 51.4786 266.02C51.4278 266.096 50.9328 266.946 50.6281 267.485C50.7614 267.142 50.8883 266.806 51.0153 266.451C51.2755 265.741 51.5166 265.031 51.7705 264.27L52.1132 263.135C52.2338 262.761 52.31 262.349 52.4179 261.95C52.64 261.024 52.8177 260.048 52.9764 259.116C53.6111 259.338 55.8007 260.111 56.9494 260.029C58.0981 259.946 59.4881 259.528 60.1735 258.52C60.3373 258.287 60.4501 258.023 60.5047 257.744C60.5593 257.465 60.5544 257.178 60.4903 256.901C60.4263 256.624 60.3044 256.363 60.1328 256.136C59.9612 255.91 59.7437 255.721 59.4944 255.584C57.9712 254.798 55.2421 256.218 54.1632 257.321C54.0934 257.391 53.4016 258.247 53.0335 258.729C53.1224 258.152 53.2176 257.575 53.2874 256.985C53.4968 255.293 53.6618 253.568 53.8268 251.85C53.8776 251.324 53.9347 250.798 53.9918 250.278C54.2076 250.36 56.8161 251.324 58.0981 251.235C59.2405 251.159 60.6685 250.741 61.3286 249.726C61.4921 249.493 61.6046 249.229 61.6587 248.949C61.7129 248.67 61.7074 248.382 61.6427 248.105C61.578 247.828 61.4556 247.568 61.2833 247.342C61.1111 247.115 60.893 246.927 60.6432 246.791C59.1263 246.005 56.3972 247.425 55.312 248.528C55.2295 248.61 54.2394 249.853 53.9982 250.176C54.1251 249.022 54.2584 247.875 54.4298 246.746C54.6538 245.208 54.9739 243.686 55.3881 242.188C55.4897 242.226 58.206 243.253 59.5198 243.158C60.6558 243.082 62.0585 242.663 62.7439 241.649C62.9077 241.417 63.0205 241.152 63.0751 240.873C63.1297 240.594 63.1248 240.307 63.0607 240.03C62.9967 239.753 62.8748 239.492 62.7032 239.266C62.5316 239.039 62.3141 238.851 62.0648 238.714C60.5416 237.927 57.8189 239.348 56.7336 240.451C56.6638 240.527 55.9022 241.465 55.5531 241.922L55.4706 241.877C55.9382 240.397 56.5394 238.963 57.2667 237.591C57.6539 236.831 58.0664 236.121 58.4853 235.442C58.974 235.689 61.208 236.774 62.4012 236.818C63.5944 236.862 65.0033 236.609 65.7713 235.67C65.9595 235.457 66.1006 235.206 66.1853 234.935C66.27 234.664 66.2965 234.377 66.2629 234.095C66.2294 233.812 66.1366 233.54 65.9906 233.296C65.8447 233.052 65.6488 232.841 65.4159 232.678C63.9942 231.733 61.1192 232.874 59.926 233.825C59.8625 233.876 59.2913 234.459 58.828 234.916C59.0184 234.612 59.2152 234.282 59.4056 234.009C60.1227 232.932 60.8463 231.993 61.4936 231.163C61.8617 230.693 62.2044 230.275 62.5345 229.895C63.1691 229.895 65.5618 229.812 66.6154 229.318C67.6689 228.823 68.8367 227.923 69.0842 226.744C69.1528 226.468 69.1624 226.181 69.1123 225.901C69.0623 225.621 68.9538 225.355 68.7939 225.12C68.634 224.885 68.4263 224.686 68.1844 224.536C67.9424 224.387 67.6716 224.29 67.3897 224.252C65.6888 224.068 63.6642 226.401 63.0422 227.796C62.9851 227.917 62.3631 229.901 62.4075 229.901H62.4456C62.1219 230.269 61.7792 230.662 61.4174 231.106C60.7828 231.923 60.0085 232.849 59.2659 233.921C58.4488 235.057 57.7027 236.243 57.0319 237.471C56.2727 238.843 55.6356 240.28 55.1279 241.763C55.1279 241.763 55.1279 241.763 55.1279 241.814C55.1279 241.313 55.1279 239.912 55.1279 239.804C54.9375 238.289 53.6618 235.48 51.9546 235.17C51.6736 235.125 51.3863 235.139 51.1115 235.213C50.8367 235.287 50.5806 235.418 50.36 235.598C50.1395 235.777 49.9594 236.001 49.8317 236.255C49.704 236.509 49.6315 236.788 49.619 237.072C49.5175 238.276 50.3933 239.481 51.2437 240.242C52.2021 241.097 54.8677 241.928 55.0517 241.991C54.5817 243.51 54.2128 245.058 53.9474 246.626C53.7888 247.539 53.6491 248.471 53.5285 249.396C53.5285 248.965 53.5285 248.579 53.5285 248.522C53.3318 247.013 52.0625 244.198 50.3552 243.887C50.0744 243.843 49.7874 243.859 49.5131 243.933C49.2387 244.007 48.983 244.138 48.7627 244.318C48.5424 244.497 48.3623 244.721 48.2343 244.974C48.1063 245.228 48.0331 245.505 48.0196 245.789C47.9244 246.994 48.7939 248.198 49.6444 248.959C50.4948 249.72 52.7733 250.481 53.3699 250.677L53.2366 251.749C53.0335 253.467 52.8368 255.179 52.6019 256.852C52.5131 257.442 52.4052 258.019 52.3036 258.602C52.3036 258.215 52.3036 257.892 52.3036 257.841C52.1069 256.326 50.8376 253.518 49.1303 253.207C48.8493 253.162 48.562 253.177 48.2872 253.251C48.0124 253.324 47.7563 253.455 47.5358 253.635C47.3152 253.815 47.1352 254.039 47.0075 254.293C46.8797 254.547 46.8073 254.825 46.7947 255.109C46.6932 256.313 47.569 257.518 48.4195 258.279C49.2699 259.04 51.3262 259.724 52.0371 259.959C51.9101 260.549 51.7896 261.138 51.6436 261.702C51.5293 262.089 51.4532 262.463 51.3199 262.844L50.9581 263.972C50.6979 264.676 50.4377 265.405 50.1712 266.09C49.9871 266.565 49.803 267.015 49.619 267.472C49.7142 266.882 49.8729 265.728 49.8729 265.633C49.8521 264.296 49.4894 262.987 48.8193 261.829C48.8319 261.679 48.8319 261.529 48.8193 261.379C48.7842 261.097 48.69 260.826 48.5429 260.583C48.3958 260.34 48.1991 260.13 47.9656 259.968C47.732 259.806 47.467 259.695 47.1876 259.642C46.9082 259.589 46.6208 259.596 46.3441 259.661C44.6876 260.105 43.6404 263.008 43.5579 264.53C43.5579 264.619 43.6151 265.602 43.6658 266.223C43.577 265.861 43.5008 265.513 43.412 265.145C43.2406 264.41 43.0438 263.687 42.8408 262.907L42.498 261.779C42.3901 261.398 42.2251 261.005 42.0982 260.618C41.7682 259.724 41.3937 258.837 40.9939 257.949C41.6285 257.797 43.9006 257.22 44.8019 256.516C45.7031 255.813 46.6678 254.69 46.6551 253.479C46.6629 253.192 46.6093 252.907 46.4979 252.642C46.3865 252.377 46.2198 252.138 46.009 251.943C45.7983 251.747 45.5482 251.599 45.2755 251.507C45.0027 251.416 44.7136 251.384 44.4274 251.413C42.7202 251.596 41.2541 254.31 40.9368 255.806C40.9368 255.895 40.8162 256.998 40.7717 257.6C40.5306 257.068 40.2894 256.535 40.0228 256.009C39.2612 254.475 38.4489 252.947 37.6365 251.425C37.389 250.956 37.1478 250.487 36.9066 250.018C37.1351 249.967 39.8388 249.339 40.8606 248.56C41.7682 247.862 42.7265 246.727 42.7202 245.523C42.7277 245.237 42.6744 244.952 42.5638 244.688C42.4531 244.424 42.2877 244.187 42.0783 243.991C41.8689 243.796 41.6205 243.647 41.3493 243.555C41.0781 243.463 40.7904 243.429 40.5052 243.456C38.8043 243.64 37.3318 246.347 37.0145 247.843C37.0145 247.957 36.8495 249.536 36.8368 249.942C36.2973 248.908 35.7706 247.875 35.2946 246.841C34.6506 245.437 34.0973 243.993 33.6381 242.518C33.746 242.518 36.5766 241.884 37.6174 241.053C38.525 240.356 39.4834 239.221 39.477 238.016C39.4851 237.732 39.4331 237.449 39.3244 237.186C39.2156 236.923 39.0526 236.686 38.846 236.491C38.6394 236.295 38.3938 236.145 38.1252 236.051C37.8566 235.956 37.5712 235.92 37.2874 235.943C35.5865 236.127 34.1141 238.834 33.8031 240.33C33.8031 240.432 33.6698 241.636 33.6317 242.232H33.5365C33.1084 240.738 32.8152 239.208 32.6607 237.661C32.5655 236.812 32.5211 235.994 32.502 235.201C33.0415 235.132 35.4977 234.808 36.5195 234.193C37.5413 233.578 38.5758 232.576 38.7027 231.372C38.7411 231.091 38.7199 230.804 38.6403 230.532C38.5607 230.26 38.4246 230.007 38.2408 229.79C38.057 229.574 37.8297 229.398 37.5736 229.276C37.3175 229.153 37.0383 229.085 36.7543 229.077C35.0407 229.077 33.2763 231.613 32.8003 233.052C32.8003 233.134 32.6036 233.965 32.4893 234.574C32.4893 234.212 32.4893 233.844 32.4893 233.496C32.4893 232.228 32.5782 231.023 32.6544 229.971C32.7051 229.375 32.7686 228.836 32.8257 228.335C33.3208 227.999 35.3009 226.598 35.9102 225.602C36.5195 224.607 36.9891 223.219 36.5449 222.096C36.4502 221.829 36.2999 221.584 36.1039 221.378C35.9079 221.172 35.6706 221.01 35.4076 220.903C35.1445 220.795 34.8616 220.744 34.5775 220.753C34.2933 220.762 34.0143 220.831 33.7587 220.955C32.2355 221.741 31.8547 224.797 32.0895 226.306C32.0895 226.433 32.6861 228.43 32.7242 228.417C32.6544 228.899 32.5909 229.419 32.5274 229.99C32.4259 231.036 32.318 232.221 32.2862 233.521C32.2334 234.919 32.2673 236.318 32.3878 237.712C32.5043 239.277 32.7635 240.828 33.1621 242.346V242.397C32.8892 241.972 32.0958 240.818 32.026 240.736C31.0296 239.582 28.4148 237.934 26.8408 238.606C26.5822 238.724 26.3514 238.894 26.1632 239.107C25.9751 239.32 25.834 239.57 25.7489 239.841C25.6639 240.112 25.637 240.398 25.6698 240.68C25.7027 240.962 25.7946 241.234 25.9396 241.478C26.5298 242.499 27.9261 243.025 29.0558 243.19Z" fill="#290505"/>
<path d="M443.837 235.15C443.837 235.15 444.383 233.153 444.402 233.027C444.612 231.511 444.129 228.468 442.587 227.72C442.327 227.604 442.045 227.543 441.761 227.543C441.476 227.543 441.194 227.602 440.934 227.717C440.673 227.833 440.44 228.001 440.249 228.213C440.059 228.424 439.914 228.673 439.826 228.944C439.414 230.078 439.94 231.48 440.562 232.424C441.286 233.553 443.831 235.15 443.837 235.15Z" fill="#290505"/>
<path d="M413.43 234.492C414.661 235.031 417.663 234.961 417.67 234.961C417.676 234.961 417.035 232.996 416.965 232.875C416.33 231.499 414.223 229.223 412.522 229.451C412.242 229.497 411.974 229.602 411.736 229.758C411.499 229.914 411.297 230.118 411.144 230.357C410.99 230.597 410.889 230.865 410.847 231.146C410.804 231.427 410.822 231.714 410.898 231.987C411.177 233.16 412.383 234.035 413.43 234.492Z" fill="#290505"/>
<path d="M414.471 243.19C415.741 243.374 418.425 242.601 418.641 242.556C419.083 244.089 419.626 245.591 420.266 247.051C420.634 247.907 421.034 248.751 421.446 249.587L420.945 248.865C419.942 247.711 417.327 246.069 415.753 246.734C415.495 246.854 415.265 247.026 415.077 247.239C414.89 247.453 414.749 247.703 414.664 247.974C414.579 248.245 414.552 248.531 414.584 248.813C414.617 249.096 414.708 249.368 414.852 249.613C415.436 250.672 416.832 251.191 417.962 251.356C419.092 251.521 421.408 250.906 422.017 250.722L422.493 251.692C423.268 253.239 424.055 254.78 424.772 256.308C425.026 256.847 425.261 257.392 425.489 257.931C425.273 257.614 425.089 257.348 425.058 257.297C424.055 256.143 421.44 254.495 419.866 255.167C419.607 255.285 419.376 255.457 419.188 255.67C419 255.883 418.859 256.134 418.774 256.405C418.689 256.677 418.662 256.963 418.695 257.245C418.728 257.528 418.82 257.8 418.965 258.045C419.549 259.097 420.945 259.624 422.075 259.788C423.204 259.953 425.299 259.395 426.016 259.199C426.238 259.757 426.46 260.321 426.651 260.873C426.771 261.253 426.917 261.614 427.012 262.001C427.108 262.388 427.228 262.762 427.33 263.136C427.507 263.871 427.691 264.62 427.844 265.342C427.958 265.837 428.053 266.312 428.148 266.794C427.907 266.255 427.399 265.209 427.349 265.127C426.536 263.859 424.175 261.811 422.538 262.229C422.264 262.307 422.01 262.442 421.792 262.624C421.575 262.807 421.398 263.033 421.273 263.289C421.148 263.544 421.079 263.823 421.07 264.107C421.06 264.391 421.111 264.673 421.218 264.937C421.63 266.071 422.931 266.801 424.023 267.137C425.223 267.504 427.888 267.168 428.218 267.137C428.377 267.929 428.529 268.703 428.656 269.438C428.923 270.966 429.132 272.348 429.291 273.527H430.408C430.217 272.304 429.97 270.858 429.653 269.248C429.494 268.443 429.31 267.58 429.107 266.712C429.909 266.391 430.691 266.022 431.449 265.609C432.324 266.56 434.571 267.669 434.863 267.809C434.559 268.557 434.228 269.286 433.956 269.971C433.372 271.308 432.82 272.507 432.318 273.534H433.53C433.949 272.595 434.413 271.53 434.889 270.364C435.206 269.603 435.523 268.779 435.841 267.935C436.164 268.005 438.798 268.538 440.029 268.259C441.146 268.011 442.492 267.384 442.993 266.281C443.119 266.026 443.19 265.747 443.201 265.463C443.212 265.179 443.163 264.896 443.057 264.632C442.951 264.368 442.79 264.13 442.586 263.932C442.381 263.734 442.137 263.582 441.87 263.485C440.251 262.939 437.77 264.753 436.862 266.021C436.812 266.097 436.317 266.946 436.012 267.485C436.145 267.143 436.272 266.807 436.399 266.452C436.659 265.742 436.9 265.032 437.154 264.271L437.497 263.136C437.618 262.762 437.7 262.35 437.802 261.95C438.024 261.025 438.201 260.048 438.36 259.116C438.995 259.338 441.191 260.112 442.333 260.029C443.476 259.947 444.872 259.529 445.557 258.52C445.721 258.288 445.834 258.024 445.889 257.745C445.943 257.466 445.938 257.178 445.874 256.901C445.81 256.624 445.688 256.364 445.517 256.137C445.345 255.91 445.127 255.722 444.878 255.585C443.355 254.799 440.626 256.219 439.547 257.322C439.477 257.392 438.785 258.248 438.417 258.73C438.506 258.153 438.601 257.576 438.671 256.986C438.887 255.293 439.046 253.569 439.211 251.851C439.261 251.325 439.318 250.798 439.376 250.278C439.598 250.361 442.2 251.325 443.482 251.236C444.624 251.16 446.021 250.741 446.712 249.727C446.875 249.494 446.987 249.23 447.041 248.951C447.095 248.672 447.09 248.385 447.026 248.108C446.962 247.832 446.841 247.571 446.67 247.345C446.499 247.118 446.282 246.929 446.033 246.791C444.51 246.005 441.781 247.425 440.696 248.529C440.613 248.611 439.623 249.854 439.388 250.177C439.509 249.023 439.642 247.876 439.82 246.747C440.051 245.221 440.379 243.711 440.804 242.227C440.905 242.265 443.622 243.292 444.935 243.197C446.078 243.121 447.506 242.702 448.166 241.688C448.328 241.455 448.44 241.19 448.494 240.911C448.547 240.632 448.541 240.344 448.477 240.068C448.412 239.791 448.29 239.531 448.118 239.304C447.947 239.078 447.729 238.89 447.48 238.752C445.963 237.966 443.234 239.386 442.149 240.49C442.079 240.566 441.318 241.504 440.969 241.96L440.886 241.916C441.354 240.436 441.955 239.002 442.682 237.63C443.069 236.869 443.482 236.159 443.901 235.481C444.389 235.728 446.624 236.812 447.817 236.857C449.01 236.901 450.425 236.647 451.187 235.709C451.375 235.496 451.517 235.246 451.602 234.975C451.687 234.704 451.714 234.417 451.681 234.135C451.648 233.853 451.556 233.58 451.411 233.336C451.266 233.092 451.07 232.881 450.838 232.717C449.41 231.772 446.541 232.913 445.341 233.864C445.278 233.915 444.675 234.498 444.244 234.955C444.434 234.65 444.631 234.321 444.821 234.048C445.538 232.97 446.262 232.032 446.909 231.201C447.277 230.732 447.626 230.314 447.95 229.933C448.585 229.933 450.977 229.851 452.037 229.356C453.097 228.862 454.252 227.962 454.5 226.782C454.568 226.507 454.578 226.219 454.528 225.94C454.478 225.66 454.369 225.394 454.209 225.159C454.05 224.924 453.842 224.725 453.6 224.575C453.358 224.426 453.087 224.329 452.805 224.291C451.104 224.107 449.08 226.44 448.458 227.835C448.407 227.955 447.779 229.94 447.823 229.94H447.861C447.537 230.307 447.226 230.701 446.833 231.144C446.198 231.962 445.424 232.888 444.681 233.959C443.867 235.097 443.121 236.283 442.447 237.51C441.688 238.882 441.051 240.318 440.543 241.802C440.543 241.802 440.543 241.802 440.543 241.853C440.543 241.352 440.543 239.951 440.543 239.843C440.347 238.328 439.071 235.519 437.37 235.208C437.089 235.163 436.802 235.178 436.527 235.252C436.252 235.326 435.996 235.457 435.776 235.636C435.555 235.816 435.375 236.04 435.247 236.294C435.12 236.548 435.047 236.826 435.035 237.11C434.933 238.315 435.809 239.519 436.659 240.28C437.618 241.136 440.29 241.967 440.467 242.03C439.987 243.552 439.612 245.105 439.344 246.677C439.179 247.59 439.039 248.522 438.919 249.448C438.919 249.017 438.919 248.63 438.919 248.573C438.722 247.064 437.453 244.249 435.745 243.938C435.464 243.895 435.177 243.91 434.902 243.984C434.627 244.058 434.371 244.189 434.151 244.369C433.93 244.548 433.749 244.772 433.62 245.025C433.492 245.279 433.418 245.557 433.403 245.84C433.308 247.045 434.178 248.25 435.035 249.01C435.891 249.771 438.157 250.532 438.754 250.729L438.62 251.8C438.417 253.518 438.221 255.23 437.986 256.904C437.897 257.493 437.795 258.07 437.687 258.654C437.687 258.267 437.687 257.944 437.687 257.893C437.491 256.378 436.221 253.569 434.514 253.258C434.233 253.213 433.946 253.228 433.671 253.302C433.396 253.376 433.14 253.507 432.92 253.686C432.699 253.866 432.519 254.09 432.391 254.344C432.264 254.598 432.191 254.876 432.179 255.16C432.083 256.365 432.953 257.569 433.803 258.33C434.654 259.091 436.71 259.776 437.421 260.01C437.294 260.6 437.173 261.19 437.027 261.754C436.913 262.141 436.837 262.515 436.704 262.895L436.342 264.024C436.082 264.727 435.822 265.456 435.555 266.141C435.371 266.617 435.187 267.067 435.009 267.523C435.098 266.934 435.257 265.78 435.257 265.685C435.236 264.348 434.873 263.038 434.203 261.881C434.216 261.731 434.216 261.58 434.203 261.431C434.167 261.148 434.072 260.877 433.924 260.634C433.777 260.391 433.579 260.181 433.345 260.019C433.111 259.857 432.846 259.746 432.566 259.693C432.286 259.641 431.999 259.647 431.722 259.712C430.065 260.156 429.018 263.06 428.942 264.582C428.942 264.67 428.992 265.653 429.043 266.274C428.961 265.913 428.878 265.564 428.789 265.196C428.618 264.461 428.421 263.738 428.218 262.958L427.875 261.83C427.768 261.45 427.609 261.056 427.476 260.67C427.146 259.776 426.771 258.888 426.371 258.001C427.006 257.848 429.278 257.271 430.179 256.568C431.081 255.864 432.045 254.742 432.039 253.531C432.046 253.247 431.993 252.965 431.884 252.702C431.775 252.44 431.612 252.203 431.406 252.008C431.199 251.812 430.954 251.662 430.686 251.568C430.418 251.473 430.133 251.435 429.849 251.458C428.148 251.642 426.676 254.355 426.359 255.851C426.359 255.94 426.238 257.043 426.194 257.646C425.952 257.113 425.711 256.58 425.451 256.054C424.689 254.52 423.871 252.992 423.058 251.47C422.811 251.001 422.57 250.532 422.328 250.063C422.557 250.012 425.267 249.385 426.282 248.605C427.19 247.907 428.148 246.772 428.142 245.568C428.15 245.284 428.098 245.001 427.989 244.738C427.881 244.475 427.718 244.238 427.511 244.042C427.304 243.847 427.059 243.697 426.79 243.603C426.522 243.508 426.236 243.471 425.952 243.495C424.252 243.679 422.779 246.386 422.462 247.882C422.462 247.996 422.297 249.575 422.284 249.98C421.745 248.947 421.224 247.914 420.748 246.88C420.095 245.479 419.536 244.037 419.073 242.563C419.181 242.563 422.011 241.929 423.052 241.098C423.96 240.401 424.956 239.266 424.912 238.061C424.92 237.777 424.868 237.494 424.759 237.231C424.65 236.969 424.487 236.732 424.281 236.536C424.074 236.34 423.828 236.19 423.56 236.096C423.291 236.002 423.006 235.965 422.722 235.988C421.021 236.172 419.549 238.879 419.238 240.375C419.238 240.477 419.104 241.681 419.066 242.277H418.971C418.543 240.783 418.25 239.253 418.095 237.706C418 236.857 417.962 236.039 417.937 235.246C418.476 235.177 420.939 234.853 421.954 234.238C422.97 233.623 424.01 232.622 424.137 231.417C424.176 231.136 424.154 230.85 424.075 230.577C423.995 230.305 423.859 230.052 423.675 229.835C423.492 229.619 423.264 229.444 423.008 229.321C422.752 229.198 422.473 229.13 422.189 229.122C420.475 229.122 418.711 231.658 418.241 233.097C418.241 233.179 418.044 234.01 417.924 234.619C417.924 234.257 417.924 233.89 417.924 233.541C417.924 232.273 418.006 231.068 418.089 230.016C418.14 229.42 418.197 228.881 418.254 228.38C418.749 228.044 420.729 226.643 421.338 225.648C421.948 224.652 422.424 223.264 421.973 222.142C421.878 221.874 421.727 221.629 421.53 221.423C421.334 221.217 421.096 221.055 420.832 220.947C420.569 220.84 420.285 220.789 420.001 220.798C419.716 220.807 419.437 220.876 419.181 221C417.657 221.786 417.277 224.842 417.511 226.351C417.511 226.478 418.108 228.475 418.146 228.463C418.076 228.944 418.013 229.464 417.949 230.035C417.848 231.081 417.74 232.267 417.708 233.566C417.662 234.964 417.696 236.363 417.81 237.757C417.932 239.321 418.191 240.872 418.584 242.392V242.442C418.317 242.017 417.524 240.864 417.448 240.781C416.451 239.627 413.837 237.979 412.263 238.651C412.004 238.769 411.773 238.94 411.585 239.152C411.397 239.365 411.256 239.615 411.171 239.886C411.086 240.157 411.059 240.443 411.092 240.725C411.125 241.007 411.216 241.279 411.361 241.523C411.945 242.499 413.342 243.025 414.471 243.19Z" fill="#290505"/>
<path opacity="0.3" d="M413.43 234.492C414.661 235.031 417.663 234.961 417.67 234.961C417.676 234.961 417.035 232.996 416.965 232.875C416.33 231.499 414.223 229.223 412.522 229.451C412.242 229.497 411.974 229.602 411.736 229.758C411.499 229.914 411.297 230.118 411.144 230.357C410.99 230.597 410.889 230.865 410.847 231.146C410.804 231.427 410.822 231.714 410.898 231.987C411.177 233.16 412.383 234.035 413.43 234.492Z" fill="#290505"/>
<path opacity="0.3" d="M443.837 235.15C443.837 235.15 444.383 233.153 444.402 233.027C444.612 231.511 444.129 228.468 442.587 227.72C442.327 227.604 442.045 227.543 441.761 227.543C441.476 227.543 441.194 227.602 440.934 227.717C440.673 227.833 440.44 228.001 440.249 228.213C440.059 228.424 439.914 228.673 439.826 228.944C439.414 230.078 439.94 231.48 440.562 232.424C441.286 233.553 443.831 235.15 443.837 235.15Z" fill="#290505"/>
<path opacity="0.3" d="M414.471 243.19C415.741 243.374 418.425 242.601 418.641 242.556C419.083 244.089 419.626 245.591 420.266 247.051C420.634 247.907 421.034 248.751 421.446 249.587L420.945 248.865C419.942 247.711 417.327 246.069 415.753 246.734C415.495 246.854 415.265 247.026 415.077 247.239C414.89 247.453 414.749 247.703 414.664 247.974C414.579 248.245 414.552 248.531 414.584 248.813C414.617 249.096 414.708 249.368 414.852 249.613C415.436 250.672 416.832 251.191 417.962 251.356C419.092 251.521 421.408 250.906 422.017 250.722L422.493 251.692C423.268 253.239 424.055 254.78 424.772 256.308C425.026 256.847 425.261 257.392 425.489 257.931C425.273 257.614 425.089 257.348 425.058 257.297C424.055 256.143 421.44 254.495 419.866 255.167C419.607 255.285 419.376 255.457 419.188 255.67C419 255.883 418.859 256.134 418.774 256.405C418.689 256.677 418.662 256.963 418.695 257.245C418.728 257.528 418.82 257.8 418.965 258.045C419.549 259.097 420.945 259.624 422.075 259.788C423.204 259.953 425.299 259.395 426.016 259.199C426.238 259.757 426.46 260.321 426.651 260.873C426.771 261.253 426.917 261.614 427.012 262.001C427.108 262.388 427.228 262.762 427.33 263.136C427.507 263.871 427.691 264.62 427.844 265.342C427.958 265.837 428.053 266.312 428.148 266.794C427.907 266.255 427.399 265.209 427.349 265.127C426.536 263.859 424.175 261.811 422.538 262.229C422.264 262.307 422.01 262.442 421.792 262.624C421.575 262.807 421.398 263.033 421.273 263.289C421.148 263.544 421.079 263.823 421.07 264.107C421.06 264.391 421.111 264.673 421.218 264.937C421.63 266.071 422.931 266.801 424.023 267.137C425.223 267.504 427.888 267.168 428.218 267.137C428.377 267.929 428.529 268.703 428.656 269.438C428.923 270.966 429.132 272.348 429.291 273.527H430.408C430.217 272.304 429.97 270.858 429.653 269.248C429.494 268.443 429.31 267.58 429.107 266.712C429.909 266.391 430.691 266.022 431.449 265.609C432.324 266.56 434.571 267.669 434.863 267.809C434.559 268.557 434.228 269.286 433.956 269.971C433.372 271.308 432.82 272.507 432.318 273.534H433.53C433.949 272.595 434.413 271.53 434.889 270.364C435.206 269.603 435.523 268.779 435.841 267.935C436.164 268.005 438.798 268.538 440.029 268.259C441.146 268.011 442.492 267.384 442.993 266.281C443.119 266.026 443.19 265.747 443.201 265.463C443.212 265.179 443.163 264.896 443.057 264.632C442.951 264.368 442.79 264.13 442.586 263.932C442.381 263.734 442.137 263.582 441.87 263.485C440.251 262.939 437.77 264.753 436.862 266.021C436.812 266.097 436.317 266.946 436.012 267.485C436.145 267.143 436.272 266.807 436.399 266.452C436.659 265.742 436.9 265.032 437.154 264.271L437.497 263.136C437.618 262.762 437.7 262.35 437.802 261.95C438.024 261.025 438.201 260.048 438.36 259.116C438.995 259.338 441.191 260.112 442.333 260.029C443.476 259.947 444.872 259.529 445.557 258.52C445.721 258.288 445.834 258.024 445.889 257.745C445.943 257.466 445.938 257.178 445.874 256.901C445.81 256.624 445.688 256.364 445.517 256.137C445.345 255.91 445.127 255.722 444.878 255.585C443.355 254.799 440.626 256.219 439.547 257.322C439.477 257.392 438.785 258.248 438.417 258.73C438.506 258.153 438.601 257.576 438.671 256.986C438.887 255.293 439.046 253.569 439.211 251.851C439.261 251.325 439.318 250.798 439.376 250.278C439.598 250.361 442.2 251.325 443.482 251.236C444.624 251.16 446.021 250.741 446.712 249.727C446.875 249.494 446.987 249.23 447.041 248.951C447.095 248.672 447.09 248.385 447.026 248.108C446.962 247.832 446.841 247.571 446.67 247.345C446.499 247.118 446.282 246.929 446.033 246.791C444.51 246.005 441.781 247.425 440.696 248.529C440.613 248.611 439.623 249.854 439.388 250.177C439.509 249.023 439.642 247.876 439.82 246.747C440.051 245.221 440.379 243.711 440.804 242.227C440.905 242.265 443.622 243.292 444.935 243.197C446.078 243.121 447.506 242.702 448.166 241.688C448.328 241.455 448.44 241.19 448.494 240.911C448.547 240.632 448.541 240.344 448.477 240.068C448.412 239.791 448.29 239.531 448.118 239.304C447.947 239.078 447.729 238.89 447.48 238.752C445.963 237.966 443.234 239.386 442.149 240.49C442.079 240.566 441.318 241.504 440.969 241.96L440.886 241.916C441.354 240.436 441.955 239.002 442.682 237.63C443.069 236.869 443.482 236.159 443.901 235.481C444.389 235.728 446.624 236.812 447.817 236.857C449.01 236.901 450.425 236.647 451.187 235.709C451.375 235.496 451.517 235.246 451.602 234.975C451.687 234.704 451.714 234.417 451.681 234.135C451.648 233.853 451.556 233.58 451.411 233.336C451.266 233.092 451.07 232.881 450.838 232.717C449.41 231.772 446.541 232.913 445.341 233.864C445.278 233.915 444.675 234.498 444.244 234.955C444.434 234.65 444.631 234.321 444.821 234.048C445.538 232.97 446.262 232.032 446.909 231.201C447.277 230.732 447.626 230.314 447.95 229.933C448.585 229.933 450.977 229.851 452.037 229.356C453.097 228.862 454.252 227.962 454.5 226.782C454.568 226.507 454.578 226.219 454.528 225.94C454.478 225.66 454.369 225.394 454.209 225.159C454.05 224.924 453.842 224.725 453.6 224.575C453.358 224.426 453.087 224.329 452.805 224.291C451.104 224.107 449.08 226.44 448.458 227.835C448.407 227.955 447.779 229.94 447.823 229.94H447.861C447.537 230.307 447.226 230.701 446.833 231.144C446.198 231.962 445.424 232.888 444.681 233.959C443.867 235.097 443.121 236.283 442.447 237.51C441.688 238.882 441.051 240.318 440.543 241.802C440.543 241.802 440.543 241.802 440.543 241.853C440.543 241.352 440.543 239.951 440.543 239.843C440.347 238.328 439.071 235.519 437.37 235.208C437.089 235.163 436.802 235.178 436.527 235.252C436.252 235.326 435.996 235.457 435.776 235.636C435.555 235.816 435.375 236.04 435.247 236.294C435.12 236.548 435.047 236.826 435.035 237.11C434.933 238.315 435.809 239.519 436.659 240.28C437.618 241.136 440.29 241.967 440.467 242.03C439.987 243.552 439.612 245.105 439.344 246.677C439.179 247.59 439.039 248.522 438.919 249.448C438.919 249.017 438.919 248.63 438.919 248.573C438.722 247.064 437.453 244.249 435.745 243.938C435.464 243.895 435.177 243.91 434.902 243.984C434.627 244.058 434.371 244.189 434.151 244.369C433.93 244.548 433.749 244.772 433.62 245.025C433.492 245.279 433.418 245.557 433.403 245.84C433.308 247.045 434.178 248.25 435.035 249.01C435.891 249.771 438.157 250.532 438.754 250.729L438.62 251.8C438.417 253.518 438.221 255.23 437.986 256.904C437.897 257.493 437.795 258.07 437.687 258.654C437.687 258.267 437.687 257.944 437.687 257.893C437.491 256.378 436.221 253.569 434.514 253.258C434.233 253.213 433.946 253.228 433.671 253.302C433.396 253.376 433.14 253.507 432.92 253.686C432.699 253.866 432.519 254.09 432.391 254.344C432.264 254.598 432.191 254.876 432.179 255.16C432.083 256.365 432.953 257.569 433.803 258.33C434.654 259.091 436.71 259.776 437.421 260.01C437.294 260.6 437.173 261.19 437.027 261.754C436.913 262.141 436.837 262.515 436.704 262.895L436.342 264.024C436.082 264.727 435.822 265.456 435.555 266.141C435.371 266.617 435.187 267.067 435.009 267.523C435.098 266.934 435.257 265.78 435.257 265.685C435.236 264.348 434.873 263.038 434.203 261.881C434.216 261.731 434.216 261.58 434.203 261.431C434.167 261.148 434.072 260.877 433.924 260.634C433.777 260.391 433.579 260.181 433.345 260.019C433.111 259.857 432.846 259.746 432.566 259.693C432.286 259.641 431.999 259.647 431.722 259.712C430.065 260.156 429.018 263.06 428.942 264.582C428.942 264.67 428.992 265.653 429.043 266.274C428.961 265.913 428.878 265.564 428.789 265.196C428.618 264.461 428.421 263.738 428.218 262.958L427.875 261.83C427.768 261.45 427.609 261.056 427.476 260.67C427.146 259.776 426.771 258.888 426.371 258.001C427.006 257.848 429.278 257.271 430.179 256.568C431.081 255.864 432.045 254.742 432.039 253.531C432.046 253.247 431.993 252.965 431.884 252.702C431.775 252.44 431.612 252.203 431.406 252.008C431.199 251.812 430.954 251.662 430.686 251.568C430.418 251.473 430.133 251.435 429.849 251.458C428.148 251.642 426.676 254.355 426.359 255.851C426.359 255.94 426.238 257.043 426.194 257.646C425.952 257.113 425.711 256.58 425.451 256.054C424.689 254.52 423.871 252.992 423.058 251.47C422.811 251.001 422.57 250.532 422.328 250.063C422.557 250.012 425.267 249.385 426.282 248.605C427.19 247.907 428.148 246.772 428.142 245.568C428.15 245.284 428.098 245.001 427.989 244.738C427.881 244.475 427.718 244.238 427.511 244.042C427.304 243.847 427.059 243.697 426.79 243.603C426.522 243.508 426.236 243.471 425.952 243.495C424.252 243.679 422.779 246.386 422.462 247.882C422.462 247.996 422.297 249.575 422.284 249.98C421.745 248.947 421.224 247.914 420.748 246.88C420.095 245.479 419.536 244.037 419.073 242.563C419.181 242.563 422.011 241.929 423.052 241.098C423.96 240.401 424.956 239.266 424.912 238.061C424.92 237.777 424.868 237.494 424.759 237.231C424.65 236.969 424.487 236.732 424.281 236.536C424.074 236.34 423.828 236.19 423.56 236.096C423.291 236.002 423.006 235.965 422.722 235.988C421.021 236.172 419.549 238.879 419.238 240.375C419.238 240.477 419.104 241.681 419.066 242.277H418.971C418.543 240.783 418.25 239.253 418.095 237.706C418 236.857 417.962 236.039 417.937 235.246C418.476 235.177 420.939 234.853 421.954 234.238C422.97 233.623 424.01 232.622 424.137 231.417C424.176 231.136 424.154 230.85 424.075 230.577C423.995 230.305 423.859 230.052 423.675 229.835C423.492 229.619 423.264 229.444 423.008 229.321C422.752 229.198 422.473 229.13 422.189 229.122C420.475 229.122 418.711 231.658 418.241 233.097C418.241 233.179 418.044 234.01 417.924 234.619C417.924 234.257 417.924 233.89 417.924 233.541C417.924 232.273 418.006 231.068 418.089 230.016C418.14 229.42 418.197 228.881 418.254 228.38C418.749 228.044 420.729 226.643 421.338 225.648C421.948 224.652 422.424 223.264 421.973 222.142C421.878 221.874 421.727 221.629 421.53 221.423C421.334 221.217 421.096 221.055 420.832 220.947C420.569 220.84 420.285 220.789 420.001 220.798C419.716 220.807 419.437 220.876 419.181 221C417.657 221.786 417.277 224.842 417.511 226.351C417.511 226.478 418.108 228.475 418.146 228.463C418.076 228.944 418.013 229.464 417.949 230.035C417.848 231.081 417.74 232.267 417.708 233.566C417.662 234.964 417.696 236.363 417.81 237.757C417.932 239.321 418.191 240.872 418.584 242.392V242.442C418.317 242.017 417.524 240.864 417.448 240.781C416.451 239.627 413.837 237.979 412.263 238.651C412.004 238.769 411.773 238.94 411.585 239.152C411.397 239.365 411.256 239.615 411.171 239.886C411.086 240.157 411.059 240.443 411.092 240.725C411.125 241.007 411.216 241.279 411.361 241.523C411.945 242.499 413.342 243.025 414.471 243.19Z" fill="#290505"/>
<path d="M112.934 216.474C112.934 216.474 113.727 216.316 120.232 214.414C124.399 213.081 128.201 210.802 131.339 207.757L129.276 194.76L116.107 196.662L112.934 216.474Z" fill="#F7BBBD" stroke="#290505" stroke-linecap="round" stroke-linejoin="round"/>
<path d="M80.5676 260.537C80.5676 260.537 78.3463 264.975 78.0289 269.096C77.7116 273.217 80.0916 274.644 80.8849 273.534C81.6783 272.425 82.9476 268.462 83.1063 266.719L83.5823 261.488L80.5676 260.537Z" fill="white" stroke="#290505" stroke-linecap="round" stroke-linejoin="round"/>
<path d="M138.992 263.391C138.992 263.391 138.357 269.097 138.186 271.791C138.015 274.486 141.359 277.022 141.829 277.186C142.299 277.351 142.781 277.186 143.574 275.284C144.368 273.382 144.374 268.786 143.904 267.359C143.435 265.933 142.483 263.714 142.483 263.714L138.992 263.391Z" fill="white" stroke="#290505" stroke-linecap="round" stroke-linejoin="round"/>
<path d="M116.742 179.859C116.742 179.859 110.338 187.467 108.117 193.807C105.895 200.147 104.125 207.996 102.621 212.193C101.363 215.778 100.304 219.429 99.4472 223.13C99.4472 223.13 95.3218 227.251 94.2112 230.896C93.1005 234.542 80.0898 261.487 80.0898 261.487C80.0898 261.487 80.8832 262.596 81.5178 262.755C82.1525 262.913 83.5805 262.121 83.5805 262.121C83.5805 262.121 106.587 232.006 108.015 229.787C109.443 227.568 113.949 222.432 114.425 221.64C114.901 220.847 118.487 209.816 119.757 208.231C120.697 206.968 121.521 205.622 122.219 204.211L123.171 204.845L124.282 205.004C124.282 205.004 129.277 215.046 130.546 219.167C131.815 223.288 135.465 245.795 136.417 249.916C137.369 254.037 138.638 264.815 138.638 264.815C139.211 265.004 139.794 265.163 140.383 265.291C141.177 265.449 143.239 264.815 143.239 264.815C143.239 264.815 146.889 248.331 147.047 242.625C147.206 236.919 146.095 224.239 146.095 222.337C146.095 220.435 143.239 194.283 141.811 190.796C140.383 187.309 135.623 181.127 135.623 181.127L116.742 179.859Z" fill="#290505" stroke="#290505" stroke-linecap="round" stroke-linejoin="round"/>
<path d="M126.102 149.904L116.582 152.916C116.582 152.916 116.582 171.302 116.741 173.679C116.899 176.057 115.63 180.019 116.423 180.97C117.217 181.921 121.025 185.725 128.006 185.884C134.987 186.042 136.891 183.823 136.891 183.823L138.319 177.642C138.319 177.642 142.921 165.279 142.921 163.377C142.921 161.475 138.319 155.927 135.622 153.708C132.925 151.489 126.102 149.904 126.102 149.904Z" fill="white" stroke="#290505" stroke-linecap="round" stroke-linejoin="round"/>
<path d="M101.509 171.619C99.4818 172.982 97.361 174.2 95.1621 175.265L82.4688 181.605L83.8967 184.616C86.9929 184.064 90.1186 183.694 93.2581 183.507C97.3834 183.348 104.365 180.654 104.841 179.861C105.317 179.069 106.903 174.789 106.903 174.789L101.509 171.619Z" fill="white" stroke="#290505" stroke-linecap="round" stroke-linejoin="round"/>
<path d="M124.836 150.062C124.836 150.062 118.013 168.766 117.696 171.46C117.378 174.155 114.681 180.97 114.522 181.921C114.364 182.872 109.921 192.541 109.921 192.541C109.921 192.541 114.681 177.642 115.157 174.63C115.417 172.705 115.199 170.745 114.522 168.924C114.522 168.924 111.305 175.746 110.829 176.221C110.353 176.697 107.122 182.143 107.122 182.143L101.512 171.618C101.512 171.618 107.7 160.84 108.969 159.097C110.238 157.353 112.936 152.599 114.84 151.648C116.744 150.697 124.836 150.062 124.836 150.062Z" fill="#F7BBBD" stroke="#290505" stroke-linecap="round" stroke-linejoin="round"/>
<path d="M134.197 152.439C134.197 152.439 129.278 173.044 129.278 176.373C129.278 179.701 128.802 190.004 128.326 195.71C127.85 201.416 126.898 219.643 126.898 219.643C129.943 220.109 133.032 220.216 136.101 219.96C140.544 219.485 148.16 216.473 148.16 216.473C148.16 216.473 144.193 196.502 142.606 191.747C141.272 187.636 140.16 183.456 139.274 179.226C139.274 178.75 143.558 164.802 143.558 162.9C143.558 160.998 135.942 152.915 134.197 152.439Z" fill="#F7BBBD" stroke="#290505" stroke-linecap="round" stroke-linejoin="round"/>
<path d="M78.2441 182.795C78.3389 181.594 78.1203 180.388 77.6095 179.296C76.7463 177.596 76.2767 177.07 77.6602 177.444C79.0438 177.818 79.8562 180.526 79.8562 180.526L78.2441 182.795Z" fill="white" stroke="#290505" stroke-linecap="round" stroke-linejoin="round"/>
<path d="M87.174 183.937C87.174 183.937 85.3589 186.803 84.2672 186.543C83.1756 186.283 78.3331 183.861 78.2442 182.796C78.1554 181.731 79.0757 178.529 79.8753 178.668C80.675 178.808 87.174 183.937 87.174 183.937Z" fill="white" stroke="#290505" stroke-linecap="round" stroke-linejoin="round"/>
<path d="M140.895 132.996C141.309 134.226 141.621 135.487 141.828 136.768C141.769 137.549 141.625 138.321 141.397 139.07C141.397 139.07 143.993 141.377 144.139 141.954C144.285 142.531 142.698 143.393 142.698 143.393C142.698 143.393 142.838 149.442 142.838 149.873C142.838 150.304 135.774 150.596 135.774 150.596L128.393 159.237L124.934 150.742L126.52 145.987C126.52 145.987 121.76 143.248 123.493 139.07C125.226 134.892 129.116 132.59 133.013 132.013C135.55 131.682 138.124 131.778 140.629 132.298L140.895 132.996Z" fill="white" stroke="#290505" stroke-linecap="round" stroke-linejoin="round"/>
<path d="M135.749 150.595L132.131 149.904L131.922 154.767L135.749 150.595Z" fill="#290505" stroke="#290505" stroke-linecap="round" stroke-linejoin="round"/>
<path d="M139.896 139.627C139.896 140.135 139.712 140.54 139.477 140.54C139.243 140.54 139.059 140.135 139.059 139.627C139.059 139.12 139.249 138.721 139.477 138.721C139.706 138.721 139.896 139.126 139.896 139.627Z" fill="#290505"/>
<path d="M138.5 138.163C138.5 138.163 138.919 137.326 140.455 137.744" stroke="#290505" stroke-linecap="round" stroke-linejoin="round"/>
<path d="M141.996 144.87C141.996 144.87 140.174 145.149 139.457 144.166" stroke="#290505" stroke-linecap="round" stroke-linejoin="round"/>
<path d="M141.229 134.751C141.229 134.751 136.475 133.597 135.606 135.328C134.736 137.059 135.466 137.921 134.743 139.506C134.019 141.091 131.284 143.107 131.284 143.107C131.284 143.107 128.688 140.222 127.819 141.661C126.949 143.101 127.241 145.263 128.111 145.985C128.98 146.708 131.423 146.271 131.423 146.271L127.679 148.001C127.679 148.001 127.819 150.163 124.36 151.026C120.901 151.888 116.744 149.586 117.296 146.708C117.848 143.83 122.627 142.099 122.627 142.099C122.627 142.099 117.55 135.905 121.764 131.321C125.978 126.737 134.165 128.874 134.165 128.874C134.165 128.874 135.32 127.606 138.608 127.289C141.895 126.972 143.368 130.313 143.368 132.189C143.368 134.066 141.229 134.751 141.229 134.751Z" fill="#290505" stroke="#290505" stroke-linecap="round" stroke-linejoin="round"/>
<path d="M380.711 86.858L379.016 54.1562L350.875 69.4293L351.51 71.9653L362.153 77.3924L312.071 175.44L153.126 218.616L43.2457 143.702C42.2719 143.038 41.074 142.788 39.9153 143.006C38.7566 143.224 37.7321 143.893 37.0672 144.866C36.4023 145.839 36.1515 147.035 36.3699 148.193C36.5883 149.35 37.2581 150.374 38.2318 151.038L149.781 227.099C150.528 227.609 151.414 227.879 152.32 227.872C152.712 227.873 153.103 227.82 153.481 227.714L316.305 183.492C316.902 183.33 317.46 183.045 317.94 182.655C318.421 182.266 318.815 181.78 319.097 181.229L370.074 81.45L380.711 86.858Z" fill="#290505" stroke="#290505" stroke-linecap="round" stroke-linejoin="round"/>
<path d="M380.078 84.3228L378.383 51.6211L350.877 69.4302L361.52 74.8572L311.439 172.905L152.493 216.081L42.6129 141.167C41.6391 140.503 40.4411 140.253 39.2824 140.471C38.1238 140.689 37.0993 141.358 36.4344 142.331C35.7695 143.303 35.5187 144.5 35.7371 145.658C35.9555 146.815 36.6253 147.838 37.599 148.503L149.148 224.564C149.896 225.074 150.781 225.344 151.687 225.337C152.079 225.338 152.47 225.285 152.848 225.179L315.672 180.957C316.27 180.795 316.827 180.51 317.308 180.12C317.789 179.731 318.183 179.245 318.464 178.694L369.441 78.9148L380.078 84.3228Z" fill="#F7BBBD" stroke="#290505" stroke-linecap="round" stroke-linejoin="round"/>
<path d="M375.502 57.2832L357.217 69.1073L365.791 73.4756L313.628 175.619L151.909 219.524L40.8418 143.786C40.7039 143.692 40.5489 143.627 40.3856 143.593C40.2222 143.559 40.0538 143.558 39.8899 143.589C39.7261 143.62 39.57 143.683 39.4306 143.775C39.2912 143.866 39.1712 143.984 39.0775 144.122C38.8873 144.4 38.8152 144.741 38.8771 145.072C38.939 145.402 39.1298 145.695 39.4075 145.885L150.982 221.965C151.193 222.109 151.443 222.187 151.699 222.187C151.81 222.184 151.921 222.169 152.029 222.142L314.853 177.914C315.023 177.87 315.182 177.79 315.319 177.681C315.457 177.572 315.57 177.436 315.652 177.28L368.07 74.6802L376.644 79.0484L375.502 57.2832Z" fill="white"/>
<path d="M137.609 186.859L136.739 190.2C135.753 192.096 134.611 193.907 133.325 195.614C131.23 198.385 123.71 206.113 123.71 206.113L121.583 208.732L121.336 211.027L123.062 211.693C123.062 211.693 123.925 212.029 124.63 212.39C125.334 212.751 127.169 213.081 127.733 212.656C128.298 212.231 129.637 208.789 129.637 208.789L130.145 206.132C130.145 206.132 139.081 199.127 141.125 197.003C143.168 194.879 144.933 192.97 145.529 191.741C146.126 190.511 145.637 186.738 145.637 186.738L137.609 186.859Z" fill="white" stroke="#290505" stroke-linecap="round" stroke-linejoin="round"/>
<path d="M137.388 170.654L135.82 187.493C137.313 188.029 138.839 188.465 140.39 188.799C142.897 189.331 148.133 187.949 148.133 187.949C148.133 187.949 147.327 173.931 146.28 168.802C145.232 163.673 142.313 159.838 140.434 159.197" fill="#F7BBBD"/>
<path d="M137.388 170.654L135.82 187.493C137.313 188.029 138.839 188.465 140.39 188.799C142.897 189.331 148.133 187.949 148.133 187.949C148.133 187.949 147.327 173.931 146.28 168.802C145.232 163.673 142.313 159.838 140.434 159.197" stroke="#290505" stroke-linecap="round" stroke-linejoin="round"/>
<path d="M338.398 273.533H453.273" stroke="#290505" stroke-linecap="round" stroke-linejoin="round"/>
<path d="M324.438 273.533H332.688" stroke="#290505" stroke-linecap="round" stroke-linejoin="round"/>
<path d="M116.902 273.533H317.457" stroke="#290505" stroke-linecap="round" stroke-linejoin="round"/>
<path d="M21.0664 273.533H111.189" stroke="#290505" stroke-linecap="round" stroke-linejoin="round"/>
</svg>
