<svg width="24" height="24" viewBox="0 0 24 24" fill="none" xmlns="http://www.w3.org/2000/svg">
<g clip-path="url(#clip0_269_3327)">
<path d="M12.0094 24.0187C18.6419 24.0187 24.0187 18.6419 24.0187 12.0094C24.0187 5.37677 18.6419 0 12.0094 0C5.37677 0 0 5.37677 0 12.0094C0 18.6419 5.37677 24.0187 12.0094 24.0187Z" fill="url(#paint0_linear_269_3327)"/>
<path fill-rule="evenodd" clip-rule="evenodd" d="M5.42474 11.8784C8.92279 10.3445 11.2611 9.35308 12.4395 8.86672C15.7692 7.48247 16.4614 7.23929 16.9103 7.22058C17.0038 7.22058 17.2283 7.23929 17.378 7.35152C17.4902 7.44506 17.5276 7.576 17.5463 7.66953C17.565 7.76306 17.5837 7.96883 17.565 8.13718C17.378 10.0265 16.611 14.6469 16.1995 16.7607C16.0311 17.6586 15.6944 17.9579 15.3764 17.9953C14.6843 18.0514 14.1418 17.5277 13.4684 17.0974C12.4208 16.4053 11.8222 15.9751 10.7934 15.3016C9.61492 14.516 10.3819 14.0857 11.0553 13.3936C11.2236 13.2066 14.3102 10.4193 14.3663 10.1574C14.3663 10.12 14.385 10.0078 14.3102 9.95168C14.2353 9.89556 14.1418 9.91427 14.067 9.93297C13.9547 9.95168 12.2712 11.074 8.99761 13.2814C8.51125 13.6181 8.08101 13.7677 7.68818 13.7677C7.25794 13.7677 6.43487 13.5246 5.81757 13.3188C5.06932 13.0756 4.47072 12.9447 4.52684 12.5331C4.56425 12.3274 4.86355 12.1029 5.42474 11.8784Z" fill="white"/>
</g>
<defs>
<linearGradient id="paint0_linear_269_3327" x1="0" y1="12.0007" x2="24.0013" y2="12.0007" gradientUnits="userSpaceOnUse">
<stop stop-color="#2AABEE"/>
<stop offset="1" stop-color="#229ED9"/>
</linearGradient>
<clipPath id="clip0_269_3327">
<rect width="24" height="24" fill="white"/>
</clipPath>
</defs>
</svg>
