<svg width="1440" height="768" viewBox="0 0 1440 768" fill="none" xmlns="http://www.w3.org/2000/svg">
<g opacity="0.08">
<line x1="602.428" y1="-475.646" x2="-139.647" y2="266.428" stroke="#F7BBBD"/>
<line x1="616.807" y1="-461.252" x2="-125.268" y2="280.823" stroke="#F7BBBD"/>
<line x1="631.191" y1="-446.881" x2="-110.883" y2="295.194" stroke="#F7BBBD"/>
</g>
<g opacity="0.08">
<line x1="688.713" y1="-389.35" x2="-53.3619" y2="352.725" stroke="#F7BBBD"/>
<line x1="703.092" y1="-374.975" x2="-38.983" y2="367.1" stroke="#F7BBBD"/>
<line x1="717.477" y1="-360.592" x2="-24.5982" y2="381.483" stroke="#F7BBBD"/>
</g>
<g opacity="0.08">
<line x1="775" y1="-303.068" x2="32.9252" y2="439.006" stroke="#F7BBBD"/>
<line x1="789.383" y1="-288.686" x2="47.308" y2="453.389" stroke="#F7BBBD"/>
<line x1="803.766" y1="-274.303" x2="61.6909" y2="467.772" stroke="#F7BBBD"/>
</g>
<g opacity="0.08">
<line x1="861.283" y1="-216.779" x2="119.208" y2="525.296" stroke="#F7BBBD"/>
<line x1="875.668" y1="-202.404" x2="133.593" y2="539.671" stroke="#F7BBBD"/>
<line x1="890.049" y1="-188.021" x2="147.974" y2="554.053" stroke="#F7BBBD"/>
</g>
<g opacity="0.08">
<line x1="947.578" y1="-130.486" x2="205.503" y2="611.589" stroke="#F7BBBD"/>
<line x1="961.963" y1="-116.115" x2="219.888" y2="625.96" stroke="#F7BBBD"/>
<line x1="976.342" y1="-101.728" x2="234.267" y2="640.346" stroke="#F7BBBD"/>
</g>
<g opacity="0.08">
<line x1="1033.87" y1="-44.1972" x2="291.79" y2="697.878" stroke="#F7BBBD"/>
<line x1="1048.25" y1="-29.8222" x2="306.173" y2="712.253" stroke="#F7BBBD"/>
<line x1="1062.63" y1="-15.4511" x2="320.552" y2="726.624" stroke="#F7BBBD"/>
</g>
<g opacity="0.08">
<line x1="1120.16" y1="42.0879" x2="378.081" y2="784.163" stroke="#F7BBBD"/>
<line x1="1134.54" y1="56.459" x2="392.464" y2="798.534" stroke="#F7BBBD"/>
<line x1="1148.92" y1="70.8457" x2="406.841" y2="812.921" stroke="#F7BBBD"/>
</g>
<g opacity="0.08">
<line x1="1206.44" y1="128.369" x2="464.369" y2="870.444" stroke="#F7BBBD"/>
<line x1="1220.82" y1="142.752" x2="478.744" y2="884.827" stroke="#F7BBBD"/>
<line x1="1235.21" y1="157.135" x2="493.13" y2="899.21" stroke="#F7BBBD"/>
</g>
<g opacity="0.08">
<line x1="1292.73" y1="214.65" x2="550.654" y2="956.725" stroke="#F7BBBD"/>
<line x1="1307.11" y1="229.045" x2="565.037" y2="971.12" stroke="#F7BBBD"/>
<line x1="1321.49" y1="243.42" x2="579.415" y2="985.495" stroke="#F7BBBD"/>
</g>
<g opacity="0.08">
<line x1="1379.01" y1="300.947" x2="636.939" y2="1043.02" stroke="#F7BBBD"/>
<line x1="1393.39" y1="315.326" x2="651.318" y2="1057.4" stroke="#F7BBBD"/>
<line x1="1407.78" y1="329.709" x2="665.705" y2="1071.78" stroke="#F7BBBD"/>
</g>
<g opacity="0.08">
<line x1="1465.31" y1="387.232" x2="723.232" y2="1129.31" stroke="#F7BBBD"/>
<line x1="1479.69" y1="401.611" x2="737.615" y2="1143.69" stroke="#F7BBBD"/>
<line x1="1494.06" y1="416.002" x2="751.99" y2="1158.08" stroke="#F7BBBD"/>
</g>
<g opacity="0.08">
<line x1="1551.59" y1="473.522" x2="809.517" y2="1215.6" stroke="#F7BBBD"/>
<line x1="1565.97" y1="487.904" x2="823.9" y2="1229.98" stroke="#F7BBBD"/>
<line x1="1580.35" y1="502.287" x2="838.279" y2="1244.36" stroke="#F7BBBD"/>
</g>
</svg>
